<?xml version="1.0" encoding="utf-8"?>
<!-- Generator: Adobe Illustrator 19.0.0, SVG Export Plug-In . SVG Version: 6.00 Build 0)  -->
<svg version="1.1" id="Calque_1" xmlns="http://www.w3.org/2000/svg" xmlns:xlink="http://www.w3.org/1999/xlink" x="0px" y="0px"
	 viewBox="20 31 1000 500" style="enable-background:new 20 31 1000 500;" xml:space="preserve">
<style type="text/css">
	.st0{display:none;}
	.st1{display:inline;fill:#161616;}
	.st2{fill:#FF5F5F;}
	.st3{fill:#E20707;}
	.st4{fill:#C10000;}
	.st5{fill:#EDBF00;}
	.st6{clip-path:url(#SVGID_2_);fill:#FFCE00;}
	.st7{clip-path:url(#SVGID_4_);}
	.st8{opacity:0.7;fill:#FFFFFF;enable-background:new    ;}
	.st9{fill:#FFFFFF;}
	.st10{opacity:0.7;}
	.st11{fill:#4C4C4A;}
	.st12{fill:#C1C1C1;}
	.st13{fill:#939393;}
	.st14{fill:#969696;}
	.st15{clip-path:url(#SVGID_6_);}
	.st16{fill:#E5E5E5;}
</style>
<g id="Calque_2" class="st0">
	<rect id="XMLID_1_" x="214" y="178" class="st1" width="1000" height="500"/>
</g>
<g id="Calque_1_1_">
	<g id="XMLID_87_">
		<path id="XMLID_86_" class="st2" d="M189.4,433.1c0,0-25.4-20.8-28.9-29.4C160.5,403.8,163.6,424.6,189.4,433.1z"/>
		<path id="XMLID_85_" class="st3" d="M166.4,486.4c0,0-19.3-34.4-17.1-71.4c0,0,16.9,21,32.6,23.7c0,0-33.1-33.3-34-41
			c0,0-1.1-36.6,3.1-45.3c0,0,7.2,14.2,17.6,18.3c0,0-5.3-13.2-7.7-21.8c0,0,40.1,31.5,110,13.6c0,0-35.5,27.6-65.3,30.9
			c0,0,56.5-6.8,72.3-18C277.9,375.3,228.4,460.3,166.4,486.4z"/>
		<g id="XMLID_79_">
			<path id="XMLID_84_" class="st4" d="M169.7,496c0,0,67-48.2,94.2-110.8c0,0-41.6,16.6-61.3,7.9c0,0,45.6,1.8,87.2-29.8
				C289.8,363.2,269.2,454.4,169.7,496z"/>
			<path id="XMLID_83_" class="st4" d="M319.8,401.4c0,0-1-14.9-5-19.1c0,0,8.9,12.1,10.2,16.8c0,0,4.4-3.2,3.9-8
				c0,0-18.1-30.7-30.7-33.7c0,0,2.5,8.9,0.7,12.9C299.1,370.1,314.4,386.5,319.8,401.4z"/>
			<path id="XMLID_82_" class="st4" d="M226.5,377.6c0,0-38.3,11.4-55.6-15C170.9,362.5,203.7,379.2,226.5,377.6z"/>
			<path id="XMLID_81_" class="st4" d="M180.6,418.9c0,0-24.2-42.4-23.7-54.8c0,0,6.4,6.1,11.8,6.4c0,0-12.6-8.8-14.3-19.7
				c0,0-9.4,22.7-4.6,49.4c0,0-1.3-15.1,2.6-23.4C152.4,376.8,163.9,407.3,180.6,418.9z"/>
			<path id="XMLID_80_" class="st4" d="M166.4,486.4c0,0-13.1-45.8-11.4-64.6c0,0-5-3.9-6.1-9.9
				C148.9,411.9,151.1,464.9,166.4,486.4z"/>
		</g>
		<path id="XMLID_78_" class="st2" d="M175.4,465.3c0,0,51.5-22.1,60.9-55.2C236.3,410.1,194.7,455.5,175.4,465.3z"/>
		<g id="XMLID_73_">
			<path id="XMLID_77_" class="st5" d="M319.4,299.1c0,20.4-15.4,36.6-35.8,36.6H161.1c-20.4,0-36.7-16.2-36.7-36.6V164.4
				c0-20.4,16.3-37.7,36.7-37.7h122.4c20.4,0,35.8,17.3,35.8,37.7v134.7L319.4,299.1L319.4,299.1z"/>
			<g id="XMLID_74_">
				<g>
					<g>
						<defs>
							<path id="SVGID_1_" d="M347.4,286c0,18.1-17.3,31.7-38.9,31.7H179.3c-21.6,0-38.9-13.6-38.9-31.7V166.9
								c0-18.1,17.3-33.2,38.9-33.2h129.2c21.6,0,38.9,15.1,38.9,33.2V286L347.4,286z"/>
						</defs>
						<clipPath id="SVGID_2_">
							<use xlink:href="#SVGID_1_"  style="overflow:visible;"/>
						</clipPath>
						<path id="XMLID_76_" class="st6" d="M319.4,299.5c0,20.4-16.3,36.2-36.7,36.2H161c-20.3,0-36.6-15.8-36.6-36.2V164.9
							c0-20.4,16.2-38.2,36.6-38.2h121.8c20.3,0,36.7,17.8,36.7,38.2v134.6L319.4,299.5L319.4,299.5z"/>
					</g>
				</g>
			</g>
		</g>
		<g id="XMLID_70_">
			<g>
				<g>
					<defs>
						<path id="SVGID_3_" d="M319.4,299.1c0,20.4-15.4,36.6-35.8,36.6H161.1c-20.4,0-36.7-16.2-36.7-36.6V164.4
							c0-20.4,16.3-37.7,36.7-37.7h122.4c20.4,0,35.8,17.3,35.8,37.7v134.7L319.4,299.1L319.4,299.1z"/>
					</defs>
					<clipPath id="SVGID_4_">
						<use xlink:href="#SVGID_3_"  style="overflow:visible;"/>
					</clipPath>
					<path id="XMLID_72_" class="st7" d="M322.9,205.9c0,0-12.1-5.7-30.8,1c-18.7,6.7-36.1,6.3-41,6.7c-5,0.4-53,3.1-73.6-1
						s-35.9-5.7-44.1-8.2c-8.3-2.5-10.6,0-15.1,3.7l7.1-9.6l194.7-1.2L322.9,205.9z"/>
				</g>
			</g>
		</g>
		<g id="Reflet">
			<path id="XMLID_69_" class="st8" d="M154.4,310.8c0,0-10.3-6-9.7-11.8v-86.7l-3.5-3.4l-0.1,89.9
				C141.1,298.8,141.5,308.1,154.4,310.8z"/>
			<polygon id="XMLID_68_" class="st8" points="299.4,233.1 303.4,229.4 303.4,310.9 299.6,305.6 			"/>
		</g>
		<g id="Gauche_2_">
			<circle id="XMLID_67_" cx="198" cy="241.7" r="11.6"/>
			<circle id="XMLID_66_" class="st9" cx="201.3" cy="237.1" r="5.5"/>
		</g>
		<g id="Droite_2_">
			<circle id="XMLID_65_" cx="254.7" cy="241.7" r="11.6"/>
			<circle id="XMLID_64_" class="st9" cx="258" cy="237.1" r="5.5"/>
		</g>
		<g id="Sourcils">
			<path id="XMLID_63_" d="M280.5,223.8c-14.1-16.2-37.8-5.8-41.5-4.1c-0.1,0.1-0.3,0.1-0.4,0.2h-0.1l0,0c-1.2,0.7-2,2-2,3.5
				c0,2.3,1.8,4.1,4.1,4.1c1,0,1.9-0.4,2.7-1C253.8,219.7,280.5,223.8,280.5,223.8z"/>
			<path id="XMLID_62_" d="M171.4,224c14.1-16.2,37.8-5.8,41.5-4.1c0.1,0.1,0.3,0.1,0.4,0.2h0.1l0,0c1.2,0.7,2,2,2,3.5
				c0,2.3-1.8,4.1-4.1,4.1c-1,0-1.9-0.4-2.7-1C198.1,219.9,171.4,224,171.4,224z"/>
		</g>
		<g id="Bouche">
			<path id="XMLID_61_" d="M260.3,279.3c-3.8-0.5-5.4,2.4-5.9,2.4h-10.5h-0.3h-34.8h-0.3h-12.9c-0.4,0-1.9-3.1-6-2.6
				c-5.1,0.6-4.9,8.3-3.2,10.7c0,0,3.3-3.4,7.3-1c1.8,8.8,7.6,15.8,14.6,16l0,0h36l0,0c7-0.2,12.8-7.3,14.5-16.4
				c2.9-0.2,4.8,1.6,4.8,1.6C265.4,287.6,265.5,279.9,260.3,279.3z"/>
			<path id="Dent" class="st9" d="M252.3,287.7h-12h-0.2h-27.7h-0.2h-12.1c0,8,5.3,12.7,12.3,12.8v1.2h27v-1.2
				C246.4,300.4,252.3,295.7,252.3,287.7z"/>
		</g>
		<g id="Ombres" class="st10">
			<polygon id="XMLID_60_" points="128.4,198.7 131.6,198.7 131.7,293 128.4,295.8 			"/>
			<path id="XMLID_59_" d="M149.6,328.5c0,0-18.4-7.3-18.3-26.7L128,305v5.8C128,310.8,134.2,326.8,149.6,328.5z"/>
			<path id="XMLID_58_" d="M165.1,329.1l2.6-4.4h134.7c0,0-6.4,4-15.8,4C277.2,328.7,165.1,329.1,165.1,329.1z"/>
		</g>
		<g id="XMLID_54_">
			<path id="XMLID_57_" class="st5" d="M167.4,349.3c7,3.5,65.1,23.1,119-1.4c0,0,0.9-6.4-14.7-6s-81.9,0-81.9,0s4-6-21-6.3
				c-1,0-1.3,0-1.3,0L167.4,349.3L167.4,349.3z"/>
			<path id="XMLID_56_" class="st5" d="M167.8,335.7c16.6,0.1,98.6,0.3,118.6,0.4v-17.4h-119v16.9
				C167.4,335.6,167.1,335.6,167.8,335.7z"/>
			<path id="XMLID_55_" d="M195.3,345.9c0,0,64.4-1,75.2,2.5l1.8-4.5C272.2,343.8,217.3,343.5,195.3,345.9z"/>
		</g>
		<path id="XMLID_53_" d="M185.5,345.3c0,0-4.5-4.2-11.6-4.9l7.7-1.1c0,0,2.6,4.1,5,2.5C186.6,341.8,185.4,344.1,185.5,345.3z"/>
		<path id="XMLID_52_" class="st11" d="M103.2,200.4c0,0,26.3-1.6,34,0.5c7.7,2.2,27.3,8.8,35.3,8.8s81.2,4.8,106.6-2.2
			s49.3-7.9,57.2-6.1c0,0,1.4,0.3,1.2-1.6c-0.2-2-10.9-12.7-12.5-14.9c-1.6-2.1-3-20-2.8-27.2s-4.1-87-79.4-91
			c-75.4-4-96.4,10.5-111.5,37.1s-10.6,37.6-10.9,47.5s-3.7,30.1-13.9,38.1C96.1,197.4,101.3,201,103.2,200.4z"/>
		<path id="XMLID_45_" class="st12" d="M315.8,158.1c0,0-1.5-13.6-0.5-19.5l-2.2-3.3l-6,7.5c0,0,9.7-32.6-43.3-39.8
			c0,0-85.1-3.4-98,0.7l0,0l0,0c0,0-3.9,1.1-5.7,1.8c0,0-32.3,6.1-27.5,37.1l-4.4-1.1c0,0-1.5-3.7-0.4-5.1l-6.1,0.2
			c0,0,4.4,0.9,4.4,4.4c0,0,1.1,19.4-3.3,21.7c0,0-0.9,2.1,0.3,3.3c0,0,0.4-2.5,3.1-2.2c0,0,0.5-10.1,7.3-8.2c0,0-5.4,4.9-1.5,14.2
			c0,0,16,27.5,53.2,9.1c0,0,27.2-10.7,32-39.6c0,0,2.6-15.6-8.3-21.4h20.4c0,0-11,6.9-6.7,26.2c4.3,19.3,27.7,35.3,43.1,40.5
			c15.3,5.3,34.3-1.5,39.6-10.2c5.3-8.8,2.7-18.2,1.8-19.5c0,0,5.9,4.2,7,6.9c0,0-1.2,4.5,0.4,5.3c0,0,0.3-2.3,2.5-1.5
			C317.1,165.4,315.6,163.2,315.8,158.1z M134.5,159.8C134.4,159.7,134.4,159.7,134.5,159.8c0,0,0.1,0.1,0.2,0.1
			C134.6,159.8,134.6,159.8,134.5,159.8z M135.2,160.2c0.1,0.1,0.3,0.2,0.4,0.3C135.4,160.3,135.3,160.2,135.2,160.2z M141.5,164.2
			c0.2,0.1,0.4,0.3,0.6,0.4C141.9,164.5,141.7,164.4,141.5,164.2z M197.5,153.1c-6.1,5.8-33.5,25.6-54,12.5l0,0l0,0
			c0,0-13.9-21.7,5.7-39c0,0,7.3-6.8,24.9-7.3c0,0,24.6-1.3,29.8,7.8C209.2,136.2,203.7,147.3,197.5,153.1z M301.2,152.5
			c-0.9,5.5-3.9,13.6-7.3,15.6s-23.2,3.8-41.2-5.5s-23.8-25.1-15.2-38.7c0,0,15.9-7.3,39.7-2.2S302,147,301.2,152.5z"/>
		<path id="XMLID_44_" class="st13" d="M240.5,117.3c0,0-0.6-1.1,1.2-1.5c1.8-0.4,6.2-0.9,6.9-0.6c0,0-0.8-2.5,6.8-2
			c0,0-4.3-1.5-4.9-2.9l-2.1-0.5c0,0-0.6-1.2-0.1-1.9c0,0,3.6-0.6,5.8-0.2c0,0-1.8-1.5,1.8-1.9c3.6-0.3,5.2-1.8,7.8-1.5
			c2.6,0.3,6-0.3,7.6,0.2c1.7,0.4,0,0,0,0s-17.2-3.6-25.5-2.4c0,0,7.7,2.9,3.4,4.1c0,0-6,0.4-6.5-2c0,0-4.2,0.8-3.7-2l-2.1-0.1
			c0,0-11.6-0.7-13.4-0.5s-13.7-0.2-14-0.2s-2,3.3-4.5,3.3s-1.2-3.1-1.2-3.1l-2.8,0.1c0,0,0.2,2.6-3.4,2.5s-1.8-2.3-1.5-2.3
			c0,0-20.5-0.3-28.6,2.5c0,0,12.7-0.7,17.8,2.5c0,0,1.5,1.7,5.3,1.2c3.8-0.4,1.1,1.2-0.4,1.9s-4.6,1.5-5.8,3c0,0,6.3-0.1,7,1.8
			c0,0-24.6,1.2-30.7,5.9c0,0,16.6-3.3,31,0.1c0,0,5.5-3.2,8.9-0.7c0,0-1.2-2.7,1.8-2.8c2.9-0.1-0.9-2.5,4-1.5l2.5,2.1H230
			c0,0,1.2,3.1-1.1,6.7c0,0,5.1-2.2,5.3,2.7c0,0,5.3-5.8,8.7-6.5c3.4-0.7,0,0,0,0S239.2,119.2,240.5,117.3z"/>
		<path id="XMLID_43_" class="st14" d="M132.9,140.9c0,0,7.2-26.1,31.5-32.6c0,0-18.3,2.8-32,24.8l-2.5-0.2c0,0,0.1,3.4,0.1,4.2
			s1.9,4.6,1.9,4.6L132.9,140.9z"/>
		<g id="XMLID_40_">
			<g>
				<g>
					<defs>
						<path id="SVGID_5_" d="M141.4,191.6c0,0,23.7,4,27.8,12.9c4.2,9-2,4.1-4.8,4.3c0,0,8,0.8,11.5,1.8s101.8,3.6,111.7-4.9
							c0,0-9.6,2-10.5-2.3s1.3-13.3,47-13.7c0,0-32.5-3.4-51,7.8c0,0-19.9,9.2-40.9-11.9c0,0,52.5,18.9,70.8-10.2
							c0,0-6.7,14.5-37.2,9.2s-43.5-37.4-43.5-47.6s3.4-16.8,7.6-19.6l-20.9,0.4c0,0,16.1,7,5.3,32.6s-36.7,33.3-42.9,34.6
							c-6.3,1.3-42.6,2.1-40.3-26.9l3.2-3.3h-4.2l-7.5,11.9c0,0,5-23.6,1.1-30.6l4.2,0.2c0,0,0.4,6.5,5.7,7c0,0-2.5-9.7,2-18.1
							c0,0,10.7-13.9,16.8-15.8c0,0-14.7,9.1-18.3,14.5c0,0,4.5-10.5,8.1-18.8c0,0-12.3,10-14.3,27.6c0,0,0,2.2-1.5,2.3l-2.7,0.9
							l-3.9,1.8c0,0,4.7,14-3.4,28.5c0,0-5.8,23.5-10.1,25.1c0,0,3.9-1.5,17.8-0.6l-7.9-3.4c0,0,4.2-11.1,4.4-19l1.3-4.8
							c0,0,0.7,3.5,0.3,4.8c0,0,4.5-6.6,7.6-8.1c0,0,1.9,26.3,34.9,31.7c0,0,25,2.6,43.6-6.6c0,0-10.6,5.6-16.6,6.2
							c0,0,6.1,2.5,9,2.2c0,0-17.9,6-35.7,1.4C146.9,190.5,145,191,141.4,191.6z"/>
					</defs>
					<clipPath id="SVGID_6_">
						<use xlink:href="#SVGID_5_"  style="overflow:visible;"/>
					</clipPath>
					<path id="XMLID_42_" class="st15" d="M103.2,200.4c0,0,26.3-1.6,34,0.5c7.7,2.2,27.3,8.8,35.3,8.8s81.2,4.8,106.6-2.2
						s49.3-7.9,57.2-6.1c0,0,1.4,0.3,1.2-1.6c-0.2-2-10.9-12.7-12.5-14.9c-1.6-2.1-3-20-2.8-27.2s-4.1-87-79.4-91
						c-75.4-4-96.4,10.5-111.5,37.1s-10.6,37.6-10.9,47.5s-3.7,30.1-13.9,38.1C96.1,197.4,101.3,201,103.2,200.4z"/>
				</g>
			</g>
		</g>
		<path id="XMLID_39_" class="st14" d="M129.9,148.9c0,0-0.1,2.2,1.9,2.2s3.7-0.4,3.7-0.4s0.7-2.5,1.6-2.8s1.8-1.5,1.8-1.5l1.6-9.5
			c0,0,6-14.7,20.9-20.3c0,0-22.2,4.8-25.3,24.4C136,141,137.3,152.1,129.9,148.9z"/>
		<path id="XMLID_38_" d="M316.1,189.6c0,0,9.2-1.6,7.9-4.2c-1.3-2.6-5.1-12.7-4.8-17.1c0,0,6.3,19.9,10.4,22.3
			C329.5,190.6,324.1,189.2,316.1,189.6z"/>
		<g id="XMLID_33_">
			<path id="XMLID_37_" d="M301.4,200.9c0,0,0.9-6.4-2.6-10.1c0,0,4.5,4.4,5.2,9.8C304,200.6,302.6,203,301.4,200.9z"/>
			<path id="XMLID_36_" d="M309.3,200.5c0,0,0.9-6.4-2.6-10.1c0,0,4.5,4.4,5.2,9.8C311.9,200.2,310.5,202.5,309.3,200.5z"/>
			<path id="XMLID_35_" d="M318,199.9c0,0-2.6-8.1-6.3-10.2c0,0,6.6,3.7,8.2,9.8C319.9,199.5,319.1,201.3,318,199.9z"/>
			<path id="XMLID_34_" d="M326.3,199.3c0,0-1.6-7.2-5.1-9.8c0,0,6,5,7.1,9.3C328.4,198.8,327.5,200.8,326.3,199.3z"/>
		</g>
		<g id="XMLID_28_">
			<path id="XMLID_32_" d="M145.3,202.2c0,0-0.9-6.4,2.6-10.1c0,0-4.5,4.4-5.2,9.8C142.7,201.9,144.1,204.3,145.3,202.2z"/>
			<path id="XMLID_31_" d="M134.5,199.9c0,0,0.5-5.8,4.1-8.5c0,0-4.6,3.1-6.2,7.8C132.4,199.2,133.1,201.5,134.5,199.9z"/>
			<path id="XMLID_30_" d="M124.6,199.3c0,0,2.3-7.4,5.6-9.3c0,0-5.9,3.3-7.3,8.9C122.9,198.9,123.6,200.5,124.6,199.3z"/>
			<path id="XMLID_29_" d="M115.9,199.6c0,0,1.5-6.7,4.8-9.1c0,0-5.7,4.7-6.8,8.6C113.9,199.1,114.8,201,115.9,199.6z"/>
		</g>
		<path id="XMLID_27_" d="M323.5,179.8c0.4,0.6-3.4-8.2-3.8-20.7c-0.4-12.6,0.8-34-16.4-60.2c0,0,15.6,25.3,11.1,40.7l-1.2,4.1
			c0,0,3.9,2.3-1,9.6c0,0,4.4,7.3,5.7,11.7c1.3,4.4,3.2,3.3,0.9,11.4C318.9,176.5,320.5,174.7,323.5,179.8z"/>
		<g id="XMLID_8_">
			<path id="XMLID_26_" d="M167.4,103.6c0,0-0.8-25.5,7.4-30.7c0,0-9.3,1.9-8.9,30.8L167.4,103.6z"/>
			<path id="XMLID_25_" d="M161.7,105.3c0,0-0.5-27.6,10.2-34c0,0-12.7,3.4-11.7,34.1L161.7,105.3z"/>
			<path id="XMLID_24_" d="M272.3,103.6c0,0,0.8-25.5-7.4-30.7c0,0,9.3,1.9,8.9,30.8L272.3,103.6z"/>
			<path id="XMLID_23_" d="M278,105.3c0,0,0.5-27.6-10.2-34c0,0,12.7,3.4,11.7,34.1L278,105.3z"/>
			<path id="XMLID_22_" d="M307.2,142.8l6-7.5c0,0-6.6-24.5-15.8-31c0,0,8.8,13.1,7.7,19.1c0,0-4.8-10-16.5-13.5
				C288.6,109.9,310.5,124.3,307.2,142.8z"/>
			<path id="XMLID_21_" d="M169.9,168.5c0,0,15.1-3.9,22.6-10.3c7.4-6.4,14.3-13.4,15.3-25c1-11.5-8-14-9.2-14.2c0,0,6,1.6,6.7,11.2
				C206,139.9,200,159.1,169.9,168.5z"/>
			<path id="XMLID_20_" d="M192.1,120.5c0,0-41.5-7.2-51.1,20c0,0-5.4,23.9,8.5,28.1c0,0-7.7-1.1-10.1-10.3s-2.5-19.1-0.3-23.3
				s3.9-6.1,3.9-6.1s-1.6,2.4-1.6,5.8C141.4,134.8,147.2,112.8,192.1,120.5z"/>
			<path id="XMLID_19_" d="M238,117.4c0,0-10.8,3-13.1,11.7c-2.3,8.8,2.7,35.2,25.7,45.1c0,0-6.8-5.5-9.3-12.8
				c0,0,21.4,13.4,36.5,12.2c0,0-26.8-2-41.4-20.7C221.7,134.1,230,123.9,238,117.4z"/>
			<path id="XMLID_18_" d="M274.7,182.6c0,0,10.1-1.9,6.3-5.4c0,0-2.1-1.5-4.8-1.8c0,0,5.7-0.3,7.7,0.7c0,0,12.2,7.6,20.4-16.5
				C304.3,159.5,305.6,184.3,274.7,182.6z"/>
			<path id="XMLID_17_" d="M280.5,169.6c0,0-37.6-2.8-44.7-27.8c0,0-4.4-15,7-21.2c0,0-8.1,1.1-10.8,9.3
				C229.2,138.1,236.8,167.7,280.5,169.6z"/>
			<path id="XMLID_16_" d="M248.9,121.1c0,0,46.5-7,50.6,24.4c0,0,2,15.5-5.7,22.6c0,0,9.1-3.8,7.7-25.7l1.9-0.1
				c0,0-3.4-21.5-21.8-25c0,0,11.7,3.8,15,14.2C296.8,131.5,282.1,113.6,248.9,121.1z"/>
			<path id="XMLID_15_" d="M183,101.9c0,0,34.8-1.8,54-1.2c19.2,0.5,31.3,2.7,34.3,3.7c0,0-15.3-3-24.6-1.9c0,0,0.1,1.2-0.7,1.7
				c0,0-0.1-2.1-2.8-2c-2.6,0-9-0.4-12.6,2c0,0-0.7-2.1-3-2.1s-2.2,1.7-1.9,1.9c0,0-11.1-0.3-13.3,0c0,0,0.1-1.9-1.8-2
				c-1.9,0-1.9,1.4-1.9,1.9c0,0-1.9-2.1-7.6-1.8c0,0-2,0.5-1.6,1.8c0,0-1.4-1-1.3-1.7C198.3,102.4,190.6,101.7,183,101.9z"/>
			<g id="Lunette">
				<path id="XMLID_14_" d="M163.9,182.4c0,0-5.7-0.4-5.8-2c-0.1-1.5,2.4-2.8,2.7-4.1c0,0-1.5,0.7-3-1c0,0,0.4,3.1-2.4,2.5
					s-16.4-6.7-21-17.1c0,0,0.3,7.7,3.6,12C141.3,177,151.9,185.2,163.9,182.4z"/>
				<path id="XMLID_13_" d="M186.3,175.2c0,0,9.6-9.3,10.8-13.7c0,0-18.7,13.5-34.4,11.6c0,0,25.4-1.8,40.4-20.9s5.2-30.5-1.8-34
					c0,0,3-2,0-2c-2,0-5-0.1-5.8-1.5c0,0,7.4-0.1,7.8-4.7c0,0,2.1,0.1,2.7,4.4c0.6,4.2,9.9,7.2,8.5,22.5S202.2,166,186.3,175.2z"/>
				<path id="XMLID_12_" d="M192.3,115.5c0,0-0.2-2.3-7.1-2.7c0,0,7.5-0.5,4.3-3.8c0,0,4.5,1,5.3,3.4
					C194.8,112.4,191.8,112.4,192.3,115.5z"/>
				<path id="XMLID_11_" d="M247.1,114.8c0,0,0.2-2.3,7.1-2.7c0,0-7.5-0.5-4.3-3.8c0,0-4.5,1-5.3,3.4
					C244.5,111.7,247.5,111.7,247.1,114.8z"/>
				<polygon id="XMLID_10_" points="217.4,108.7 214.4,108.7 214.4,105.7 212.4,105.7 212.4,113.7 214.4,113.7 214.4,111.7 
					217.4,111.7 				"/>
				<polygon id="XMLID_9_" points="221.4,108.7 224.4,108.7 224.4,105.7 229.4,105.7 229.4,113.7 224.4,113.7 224.4,111.7 
					221.4,111.7 				"/>
			</g>
		</g>
		<g id="Reflet_Lunettes">
			<g id="XMLID_5_">
				<path id="XMLID_7_" class="st16" d="M282.5,167.4c0,0,4.8-26.7-5.9-42.5c0,0,11.4,1.5,15.6,7c0,0,5.7,12,2,33.3
					C294.1,165.2,286,168.1,282.5,167.4z"/>
				<path id="XMLID_6_" class="st16" d="M279.3,157.3c0,0-1.5-30.4-6.4-34c0,0-4.4-1.5-8.4,1.4C264.5,124.8,275.4,133.8,279.3,157.3
					z"/>
			</g>
			<g id="XMLID_2_">
				<path id="XMLID_4_" class="st16" d="M158.6,166.8c0,0-4.8-26.7,5.9-42.5c0,0-11.4,1.5-15.6,7c0,0-5.7,12-2,33.3
					C147,164.6,155.1,167.4,158.6,166.8z"/>
				<path id="XMLID_3_" class="st16" d="M161.9,156.7c0,0,1.5-30.4,6.4-34c0,0,4.4-1.5,8.4,1.4C176.7,124.1,165.7,133.1,161.9,156.7
					z"/>
			</g>
		</g>
	</g>
</g>
<g>
	<path class="st9" d="M418,212.4l0.3,1.2l-0.6,0.9l-0.9,0.4l-1.1,0.2h-1.2l-2-0.2l-1.3-0.1h-3.8l-5.3,0.3l-1.1-0.3l-0.5-0.7
		l-0.4-0.9l-2.7-7.2l-0.6-0.9l-0.8-0.2l-1-0.1l-5.1-0.3h-1.4l-6.4-0.2l-5.1-0.1h-1.3l-1.3,0.1h-3.9l-1.1,0.2l-0.7,0.4l-0.5,1l-2,5.8
		l-0.5,1.4l-0.9,1.1l-1.3,0.5l-1.4-0.1l-5-0.3h-1.4l-5.3,0.3l-1.1,0.1l-1-0.5l-0.7-0.9l0.1-1.1l0.2-0.7l0.5-1.4l1.2-2.7l0.5-1.3
		l2.1-4.8l0.5-1.2l2.2-4.8l0.5-1.3l2-4.6l0.5-1.3l2.3-4.8l0.5-1.2l3.1-7l2.4-5.1l0.6-1.4l1.9-3.8l0.6-1.4l1.6-3.9l0.5-1.3l1.5-3.5
		l0.4-0.9l0.9-0.5l1.3-0.3l3.9-0.2h6.7l3.9,0.1l1.5,0.3l0.9,0.7l0.4,1.1l1.2,3.3l0.5,1.3l2.1,4l0.5,1.2l1.9,4.2l0.5,1.2l1.5,4.4
		l0.5,1.2l1.9,4.1l0.5,1.2l1.9,4.2l0.5,1.2l1.7,4.3l0.5,1.2l2.7,5.3l2.1,4l0.6,1.2l2.3,5.4L418,212.4z M388.6,144.6l-1.1,0.3
		l-0.6,0.1h-1.4l-3.8-0.3l-2.6,0.2h-1.4l-0.7-0.1l-1.1-0.2l-0.8-0.3l-0.7-0.8l-4.4-5.2l-2.3-2.7l-0.8-1.1l-0.3-0.5l-0.3-1.1l0.3-0.7
		l1.1-0.3l0.8-0.1h1.5l4,0.3l5.7-0.3l1.3,0.1h0.7l1.1,0.2l0.9,0.5l0.6,1l0.3,0.7l0.6,1.3l0.9,2l0.6,1.3l1.4,2.4l0.6,1.4l0.3,1.2
		L388.6,144.6z M389.5,188.3l-0.3-1.1l-1.9-5.8l-0.4-1.3l-1.7-5l-0.4-1.1l-0.9-0.6l-1.1-0.3l-0.9,0.3l-0.9,0.9l-2.3,5.8l-0.5,1.3
		l-2.2,5.7l-0.3,1.3l0.3,1l0.9,0.4l1.2,0.2h5.4l4,0.3l1.1-0.3l0.7-0.7L389.5,188.3z"/>
	<path class="st9" d="M516.6,175.1l0.1,1.3l-0.1,1.3l-0.1,1.5l-0.4,2.1l-0.3,1.4l-0.7,1.7l-0.5,1.2l-0.9,1.6l-0.8,1.1l-1.2,1.6
		l-0.9,1l-1.1,1l-1.1,0.9l-1.1,0.8l-1.2,0.8l-1.9,0.9l-1.3,0.6l-1.5,0.6l-1.3,0.4l-1.9,0.5l-1.3,0.3l-1.3,0.2l-1.4,0.1l-2.2,0.2
		h-7.2l-1.5-0.1l-1.5,0.1l-1.5,0.2l-1,0.2l-0.3,0.6l-0.1,1.1l-0.3,5.7v1.4l0.1,2.6l-0.1,1.3l-0.1,1.9l-0.2,0.9l-0.3,0.5l-0.4,0.2
		l-0.9,0.2l-2.7,0.2l-3.3-0.2h-1.4l-2.7,0.2l-1.4-0.1l-2-0.1l-1.1-0.3l-0.5-0.5l-0.2-1l-0.2-1.3l-0.1-1.4v-9.2l0.3-4.5v-1.4
		l-0.3-4.5v-1.4l-0.2-10.4v-1.4l0.3-4.6v-1.4l-0.3-4.5v-1.4l0.3-4.5v-1.3l-0.2-2.6l0.1-1.3l0.1-0.7l0.2-0.9l0.3-0.5l0.4-0.4l0.9-0.1
		l2.5-0.2l2,0.1h1.3l5.7-0.1h5.7l5.7,0.3h5.6l3.3-0.2l1.2,0.1h0.7l1.3,0.3l2,0.5l1.4,0.4l1.4,0.5l1.3,0.6l1.3,0.8l1.1,0.9l1.5,1.4
		l1,0.9l0.4,0.5l1.5,1.5l0.9,1.1l0.4,0.5l0.6,1l0.3,0.5l0.5,1.1l0.4,1.3l0.3,1.2l0.1,0.6l0.3,1.2l0.2,0.7l0.3,1.2l0.5,2.4V175.1z
		 M491,183.4l1.5-0.2l1.5-0.3l0.7-0.3l1.2-0.7l0.5-0.3l0.9-0.9l0.3-0.5l0.6-1.1l0.3-0.6l0.3-1.4l0.1-0.6v-2.1l-0.3-1.3l-0.3-0.7
		l-0.5-1.1l-0.3-0.5l-0.9-1l-0.7-0.4l-1.3-0.7l-2.2-0.6L491,168h-2l-2.6,0.2l-3.8-0.3h-1.3l-0.7,0.1l-0.9,0.2l-0.3,0.3l-0.3,0.6
		l-0.2,1v2l0.3,3.2l0.1,1.4l0.1,5l0.1,1l0.3,0.6l0.9,0.3l4.4,0.3L491,183.4z"/>
	<path class="st9" d="M582.2,214.5l-1.1,0.3h-6l-4.7-0.1H569l-3.8,0.2H564l-0.8-0.3l-0.7-0.7l-2.7-3.8l-0.8-1l-2.7-3.7l-0.8-1
		l-2.4-3.9l-0.8-1l-2.7-3.7l-0.6-0.7l-0.5-0.3l-1-0.1l-2.7-0.2l-1.1,0.1l-0.7,0.5l-0.3,1.1l-0.2,4.7l0.1,1.4l0.3,4.8l0.1,1.4
		l0.1,2.1v1.4l-0.1,1.4l-0.2,1l-0.4,0.4l-0.9,0.3h-1.4l-4.1-0.3l-3.9,0.3h-1.4l-3.9-0.3l-1-0.2l-0.5-0.3l-0.2-0.9l-0.1-1.2l-0.1-1.3
		l0.2-2.2l0.1-1.4l0.3-4.6v-1.4l-0.3-4.6l-0.1-1.4l-0.1-4.5v-1.4l0.3-4.6v-1.4l-0.3-4.6v-1.4l0.3-4.6v-1.4l0.2-4.5v-1.4l-0.1-4.6
		v-1.4l-0.2-2.8l0.1-1.3l0.1-0.5l0.3-1.1l0.5-0.7l1-0.3l0.7-0.1l1.3-0.1l3.8,0.2l10.2,0.3l5.8-0.3h1.4l5.6,0.3h3.3l1.5,0.1l1.3,0.3
		l1.8,0.5l1.3,0.4l1.3,0.5l1.4,0.5l1.3,0.6l1.1,0.7l1.6,1.1l0.9,0.8l0.9,0.9l0.9,1l1.2,1.7l0.8,1.1l1,1.6l0.6,1.2l0.6,1.3l0.4,1.4
		l0.3,1.4l0.1,1.4l0.2,1.9v1.4l-0.1,1.4l-0.2,1.5l-0.3,1.5l-0.3,1.4l-0.5,1.3l-0.6,1.3l-0.8,1.3l-0.8,1.1l-0.8,1l-0.8,0.9l-1.4,1.4
		l-0.9,0.8l-1.7,0.9l-1,0.6l-1.1,0.6l-1.1,0.3l-0.7,0.3l0.3,0.7l3.1,4.4l0.8,1l3.1,4.2l0.9,1l3.1,4.3l0.9,1l2.7,3.1l0.8,0.9l0.4,0.9
		L582.2,214.5z M556.3,181.6l1.9-0.3l1.1-0.4l1-0.6l0.9-1l0.6-1.3l0.3-1.4l0.1-1.4l-0.1-1.5l-0.2-1.5l-0.3-1.3l-0.6-1.3l-0.8-1
		l-0.9-0.8l-1.2-0.5l-1.9-0.4l-1.4-0.2l-4.3-0.1h-1.4l-4.4,0.3l-1,0.1l-0.6,0.3l-0.5,0.5l-0.1,0.9l0.1,2l0.2,1.4l0.2,1.5l0.1,1.5
		l-0.2,4.7l0.1,0.9l0.2,0.5l0.6,0.3l1,0.2l4.4,0.3h1.4L556.3,181.6z"/>
	<path class="st9" d="M654.4,183.3l-0.1,1.4l-0.2,2l-0.2,1.3l-0.5,2.6l-0.2,2l-0.2,1.3l-0.3,1.4l-0.3,1.3l-0.9,1.8l-0.6,1.2
		l-2.3,3.8l-0.8,1.1l-0.9,1.1l-0.9,0.9l-1.4,1.5l-0.9,0.9l-1.1,0.9l-1,0.8l-1.5,1l-1.1,0.7l-1.3,0.7l-1.2,0.5l-1.7,0.7l-1.3,0.3
		l-2.7,0.9l-1.5,0.4l-1.4,0.3l-1.5,0.3l-1.5,0.3l-1.5,0.1h-4.6l-2.9-0.2l-2.8-0.3l-1.2-0.3l-1.3-0.3l-4.6-1.5l-1.4-0.4l-1.5-0.6
		l-2.7-1.2l-1.3-0.7l-1.3-0.8l-1.1-0.9l-1.1-0.9l-1-1.1l-0.9-1.1l-2.3-2.3l-0.9-1l-0.9-1.1l-0.7-1.1l-0.7-1.7l-1.3-3.8l-0.5-1.8
		l-0.3-1.3l-0.3-1.4l-0.3-1.3l-0.3-1.9l-0.1-1.3l-0.1-1.5v-1.5l0.1-1.5l0.1-1.5l0.2-1.5l0.3-1.5l0.3-1.5l0.4-1.5l0.4-1.3l0.5-1.4
		l0.6-2l0.6-1.4l0.3-0.8l0.7-1.3l1.2-1.9l0.9-1.2l0.4-0.7l1-1l1.5-1.2l1.1-0.9l1.1-0.8l2.6-1.7l1.1-0.7l1.2-0.7l1.2-0.6l1.8-0.8
		l1.2-0.4l1.3-0.4l1.3-0.3l3.3-0.6l1.3-0.3l4.3-0.5l2.7-0.2l2.6,0.2l2.1,0.1l1.5,0.2l1.5,0.3l1.5,0.3l1.5,0.3l1.4,0.3l1.3,0.3
		l1.3,0.4l1.8,0.7l1.2,0.5l2.8,1.6l1.1,0.8l1.1,0.9l1.5,1.4l0.9,0.9l0.9,0.9l0.8,1l1.2,1.6l0.7,1.1l0.6,1.1l0.7,1.1l0.9,1.7l0.7,1.1
		l0.6,1.3l0.4,1.2l0.4,2l0.5,2.6l0.2,1.5l0.3,1.5L654.4,183.3z M633.5,194.4l0.8-1.2l0.9-1.9l0.5-1.3l0.4-2l0.2-1.3l0.2-2.1v-1.5
		l-0.1-1.5l-0.1-1.4l-0.5-2.6l-0.3-1.2l-0.9-1.9l-0.7-1.1l-1.2-1.5l-0.9-0.9l-1.3-1.4l-0.9-0.8l-2.2-1.3l-1.2-0.5l-1.4-0.4l-1.4-0.3
		l-2.7-0.2l-1.3,0.1l-1.9,0.1l-1.3,0.3l-2.2,0.6l-1.4,0.5l-2,1l-1.2,0.8l-1.4,1.2l-0.9,1l-0.9,1.3l-0.7,1.1l-0.3,0.5l-0.8,1.8
		L604,178l-0.3,0.6l-0.3,1.2l-0.2,1.2l-0.1,1.2l-0.1,1.3v1.3l0.1,1.4l0.3,1.4l0.1,0.8l0.3,1.3l0.2,0.6l0.4,1.2l0.3,0.7l0.7,1.2
		l0.4,0.7l0.9,1.2l0.5,0.6l1,1l1.7,1.5l1.2,0.8l1.4,0.7l1.3,0.5l1.8,0.6l1.3,0.3l2.1,0.3l1.5,0.1l2.1-0.2l1.4-0.2l1.9-0.4l1.2-0.5
		l1.9-1.2l1-0.8l1.4-1.4l0.9-0.9L633.5,194.4z"/>
	<path class="st9" d="M717.9,175.1l0.1,1.3l-0.1,1.3l-0.1,1.5l-0.4,2.1l-0.3,1.4l-0.7,1.7l-0.5,1.2l-0.9,1.6l-0.8,1.1l-1.2,1.6
		l-0.9,1l-1.1,1l-1.1,0.9l-1.1,0.8l-1.2,0.8l-1.9,0.9l-1.3,0.6l-1.5,0.6l-1.3,0.4l-1.9,0.5l-1.3,0.3l-1.3,0.2l-1.4,0.1l-2.2,0.2
		h-7.2l-1.5-0.1l-1.5,0.1l-1.5,0.2l-1,0.2l-0.3,0.6l-0.1,1.1l-0.3,5.7v1.4l0.1,2.6l-0.1,1.3l-0.1,1.9l-0.2,0.9l-0.3,0.5l-0.4,0.2
		l-0.9,0.2l-2.7,0.2l-3.3-0.2h-1.4l-2.7,0.2l-1.4-0.1l-2-0.1l-1.1-0.3l-0.5-0.5l-0.2-1l-0.2-1.3l-0.1-1.4v-9.2l0.3-4.5v-1.4
		l-0.3-4.5v-1.4l-0.2-10.4v-1.4l0.3-4.6v-1.4l-0.3-4.5v-1.4l0.3-4.5v-1.3l-0.2-2.6l0.1-1.3l0.1-0.7l0.2-0.9l0.3-0.5l0.4-0.4l0.9-0.1
		l2.5-0.2l2,0.1h1.3l5.7-0.1h5.7l5.7,0.3h5.6l3.3-0.2l1.2,0.1h0.7l1.3,0.3l2,0.5l1.4,0.4l1.4,0.5l1.3,0.6l1.3,0.8l1.1,0.9l1.5,1.4
		l1,0.9l0.4,0.5l1.5,1.5l0.9,1.1l0.4,0.5l0.6,1l0.3,0.5l0.5,1.1l0.4,1.3l0.3,1.2l0.1,0.6l0.3,1.2l0.2,0.7l0.3,1.2l0.5,2.4V175.1z
		 M692.3,183.4l1.5-0.2l1.5-0.3l0.7-0.3l1.2-0.7l0.5-0.3l0.9-0.9l0.3-0.5l0.6-1.1l0.3-0.6l0.3-1.4l0.1-0.6v-2.1l-0.3-1.3l-0.3-0.7
		l-0.5-1.1l-0.3-0.5l-0.9-1l-0.7-0.4l-1.3-0.7l-2.2-0.6l-1.4-0.2h-2l-2.6,0.2l-3.8-0.3h-1.3l-0.7,0.1l-0.9,0.2l-0.3,0.3l-0.3,0.6
		l-0.2,1v2l0.3,3.2l0.1,1.4l0.1,5l0.1,1l0.3,0.6l0.9,0.3l4.4,0.3L692.3,183.4z"/>
	<path class="st9" d="M792.5,183.3l-0.1,1.4l-0.2,2l-0.2,1.3l-0.5,2.6l-0.2,2l-0.2,1.3l-0.3,1.4l-0.3,1.3l-0.9,1.8l-0.6,1.2
		l-2.3,3.8l-0.8,1.1l-0.9,1.1l-0.9,0.9l-1.4,1.5l-0.9,0.9l-1.1,0.9l-1,0.8l-1.5,1l-1.1,0.7l-1.3,0.7l-1.2,0.5l-1.7,0.7l-1.3,0.3
		l-2.7,0.9l-1.5,0.4l-1.4,0.3l-1.5,0.3l-1.5,0.3l-1.5,0.1h-4.6l-2.9-0.2l-2.8-0.3l-1.2-0.3l-1.3-0.3l-4.6-1.5l-1.4-0.4l-1.5-0.6
		l-2.7-1.2l-1.3-0.7l-1.3-0.8l-1.1-0.9l-1.1-0.9l-1-1.1l-0.9-1.1l-2.3-2.3l-0.9-1l-0.9-1.1l-0.7-1.1l-0.7-1.7l-1.3-3.8l-0.5-1.8
		l-0.3-1.3l-0.3-1.4l-0.3-1.3l-0.3-1.9l-0.1-1.3l-0.1-1.5v-1.5l0.1-1.5l0.1-1.5l0.2-1.5l0.3-1.5l0.3-1.5l0.4-1.5l0.4-1.3l0.5-1.4
		l0.6-2l0.6-1.4l0.3-0.8l0.7-1.3l1.2-1.9l0.9-1.2l0.4-0.7l1-1l1.5-1.2l1.1-0.9l1.1-0.8l2.6-1.7l1.1-0.7l1.2-0.7l1.2-0.6l1.8-0.8
		l1.2-0.4l1.3-0.4l1.3-0.3l3.3-0.6l1.3-0.3l4.3-0.5l2.7-0.2l2.6,0.2l2.1,0.1l1.5,0.2l1.5,0.3l1.5,0.3l1.5,0.3l1.4,0.3l1.3,0.3
		l1.3,0.4l1.8,0.7l1.2,0.5l2.8,1.6l1.1,0.8l1.1,0.9l1.5,1.4l0.9,0.9l0.9,0.9l0.8,1l1.2,1.6l0.7,1.1l0.6,1.1l0.7,1.1l0.9,1.7l0.7,1.1
		l0.6,1.3l0.4,1.2l0.4,2l0.5,2.6l0.2,1.5l0.3,1.5L792.5,183.3z M771.6,194.4l0.8-1.2l0.9-1.9l0.5-1.3l0.4-2l0.2-1.3l0.2-2.1v-1.5
		l-0.1-1.5l-0.1-1.4l-0.5-2.6l-0.3-1.2l-0.9-1.9l-0.7-1.1l-1.2-1.5l-0.9-0.9l-1.3-1.4l-0.9-0.8l-2.2-1.3l-1.2-0.5l-1.4-0.4l-1.4-0.3
		l-2.7-0.2l-1.3,0.1l-1.9,0.1l-1.3,0.3l-2.2,0.6l-1.4,0.5l-2,1l-1.2,0.8l-1.4,1.2l-0.9,1l-0.9,1.3l-0.7,1.1l-0.3,0.5l-0.8,1.8
		l-0.4,1.3l-0.3,0.6l-0.3,1.2l-0.2,1.2l-0.1,1.2l-0.1,1.3v1.3l0.1,1.4l0.3,1.4l0.1,0.8l0.3,1.3l0.2,0.6l0.4,1.2l0.3,0.7l0.7,1.2
		l0.4,0.7l0.9,1.2l0.5,0.6l1,1l1.7,1.5l1.2,0.8l1.4,0.7l1.3,0.5l1.8,0.6l1.3,0.3l2.1,0.3l1.5,0.1l2.1-0.2l1.4-0.2l1.9-0.4l1.2-0.5
		l1.9-1.2l1-0.8l1.4-1.4l0.9-0.9L771.6,194.4z"/>
	<path class="st9" d="M851,195.7l-0.1,1.5l-0.2,1.5l-0.3,1.4l-0.4,1.9l-0.4,1.2l-0.8,1.7l-0.6,1.1l-1,1.5l-0.9,1l-1,1l-1,0.9
		l-1.7,1.1l-1.1,0.8l-1.3,0.7l-1.2,0.6l-2,0.7l-2.6,0.9l-1.4,0.3l-2.1,0.3l-1.3,0.2l-1.9,0.2l-1.2,0.1l-2,0.1l-4.1,0.3h-1.9
		l-1.2-0.1l-2-0.2l-1.3-0.2l-1.5-0.3l-1.3-0.4l-1.9-0.6l-1.2-0.6l-1.3-0.6l-1.2-0.6l-1.1-0.7l-2.7-1.9l-1-0.9l-1.5-1.2l-1-0.9
		l-0.9-0.9l-0.7-0.8l-0.1-0.6l0.4-0.8l0.3-0.4l0.9-0.9l2.4-2.2l0.8-0.9l1.5-2.2l0.8-0.9l0.9-0.9l0.9-0.5l0.9,0.2l0.9,0.7l2.7,1.9
		l1.3,0.7l1.2,0.6l2,0.9l1.3,0.4l1.4,0.4l1.4,0.3l2,0.1l1.4,0.1l5.4-0.3l1.4-0.2l0.7-0.2l1.3-0.5l1.1-0.7l0.9-0.9l0.4-0.6l0.5-1.3
		l-0.1-1.5l-0.2-0.7l-0.7-1.2l-0.4-0.5l-1.1-0.9l-0.7-0.3l-1.3-0.5l-1.5-0.3l-1.5-0.3l-8.1-0.8l-2.6-0.5l-1.4-0.3l-1.9-0.7l-1.3-0.4
		l-1.3-0.6l-2.9-1.5l-1.1-0.8l-1.3-0.8l-1.1-0.8l-1.5-1.2l-0.8-1.1l-0.8-1.3l-0.5-1.3l-0.6-1.8l-0.3-1.3l-0.3-1.9l-0.2-2.7l0.1-1.4
		l0.2-2.1l0.3-1.3l0.3-1.1l0.4-1.3l0.9-1.9l0.6-1.2l0.7-1l0.9-0.9l1.4-1.3l1.1-0.9l1.1-0.8l1.2-0.6l1.6-0.9l2.6-1l1.3-0.4l2-0.3
		l1.4-0.3l2.6-0.3l1.9-0.3l1.4-0.2l1.3-0.1h1.4l2.6,0.3l1.3,0.2l0.6,0.2l1.4,0.2l2.9,0.5l1.5,0.3l1.4,0.4l1.5,0.4l1.4,0.5l1.3,0.6
		l1.3,0.5l1.6,0.9l1.2,0.6l1.1,0.8l0.8,0.8v0.9l-0.5,0.9l-0.9,1.7l-0.7,1l-3.3,4.3l-0.9,1.2l-1,0.9l-0.7,0.3l-0.6-0.1l-0.9-0.4
		l-1.3-0.8l-1.3-0.5l-0.6-0.3l-1.3-0.4l-0.7-0.2l-1.5-0.3l-2-0.4l-1.4-0.1l-2.2-0.2h-2.2l-1.5,0.1l-1.5,0.3l-1.4,0.4l-0.5,0.3
		l-1,0.8l-0.4,0.5l-0.6,1.2l-0.2,1.4l0.3,1.1l0.7,1.1l0.9,0.9l1,0.5l0.6,0.3l1.3,0.3l2.1,0.3l2.9,0.2l1.5,0.3l2.9,0.7l2.7,0.9l2,0.4
		l1.3,0.3l2.4,0.9l1.7,0.8l1.2,0.6l1.2,0.7l1.1,0.7l2.5,2.1l0.9,1l0.9,1l1,1.5l0.7,1.1l0.6,1.3l0.3,1.3l0.3,1.9l0.2,1.3L851,195.7z"
		/>
	<path class="st9" d="M953.4,185.6l-0.1,1.5l-0.1,2.1l-0.3,1.4l-0.6,2l-0.4,1.4l-0.5,1.3l-0.5,1.4l-0.5,1.5l-0.5,1.3l-0.9,1.9
		l-0.7,1.1l-1.2,1.4l-0.9,0.9l-1.5,1.4l-1.9,1.9l-1.1,0.9l-1.6,1.3l-1.1,0.7l-1.7,0.9l-1.1,0.5l-1.9,0.7l-1.3,0.4l-1.4,0.3l-1.4,0.3
		l-5.2,0.8l-1.3,0.1l-1.9,0.2h-1.4l-2.7-0.1l-2.2-0.2h-1.4l-2.7,0.2l-2.1,0.1l-1.5,0.1l-1.3-0.1h-6l-1.3-0.1l-3.7-0.3l-0.7-0.3
		l-0.4-0.4l-0.2-0.9l-0.1-1.4l0.1-0.7l0.2-2.6v-1.2l0.1-2v-1.3l0.1-1.4v-1.4l-0.1-4.5V195l-0.2-4.5l0.1-1.3l0.1-1.9l0.2-1.3l0.1-1.5
		v-1.4l-0.2-2.2l-0.1-1.5v-0.8l-0.1-1.5l0.3-4.5v-1.4l-0.1-4.5v-1.4l-0.3-4.5v-3.3l0.1-1.4l0.3-1.3l0.2-0.9l0.3-0.5l0.9-0.3l1.5-0.2
		l1.3-0.2l1.4-0.1l7.5,0.1h1.4l4.1,0.3l0.7,0.1h1.5l3.6-0.2l1.3-0.1h1.4l2.1,0.2l2.7,0.2l1.4,0.2l2.2,0.3l1.4,0.3l1.3,0.3l3.1,1.1
		l1.3,0.6l1.3,0.7l1.2,0.7l2.8,2l1.1,0.9l1,0.9l1.9,1.8l0.9,0.9l0.8,0.9l0.6,1.1l0.9,1.9l0.5,1.3l0.4,1.4l0.5,1.4l0.4,1.4l0.3,1.4
		l0.3,1.9l0.3,1.4l0.3,1.5l0.2,1.4l0.1,2.1l0.1,1.4L953.4,185.6z M933.9,192.9l0.6-1.3l0.5-1.5l0.3-1.3l0.3-1.9l0.1-1.2l0.1-2v-2.7
		l-0.1-1.4l-0.3-2l-0.3-1.3L935,176l-0.7-1.3l-1.3-1.8l-0.4-0.4l-0.9-0.9l-0.9-0.9l-1-0.8l-1.9-1.1l-1.2-0.5l-1.2-0.3l-1.4-0.3
		l-2.1-0.1l-1.5-0.1h-2.1l-1.9-0.1l-1.3,0.1l-1.9,0.3l-0.9,0.3l-0.4,0.4l-0.3,1l-0.1,0.8l-0.1,1.3l0.2,2.6l0.1,1.4l0.2,1.9l0.2,1.4
		l0.1,1.4v1.4l-0.1,1.9v4.1l-0.1,1.5l-0.1,1.4l-0.2,1.9v1.2l-0.1,2l0.1,1.3l0.3,2.1l0.3,0.9l0.5,0.4l1,0.1l8-0.5l2-0.1l1.4-0.3
		l1.5-0.4l1.4-0.5l1.3-0.6l1.1-0.8l1.5-1.4l0.9-1L933.9,192.9z"/>
	<path class="st9" d="M1011.5,206.8l-0.1,1.4l-0.3,4.6l-0.1,0.9l-0.3,0.6l-0.4,0.3l-11.2,0.3h-1.4l-4.5-0.3l-1.4,0.1l-4.4,0.3
		l-1.4,0.1h-5.9l-4.4-0.3h-1.4l-7.4,0.4L964,215l-1-0.2l-0.6-0.4l-0.3-0.6l-0.2-0.9l-0.2-2l-0.1-1.4l0.1-1.3V207l0.3-4.5v-1.4
		l0.1-4.5l-0.1-1.4l-0.3-4.5l-0.1-1.4l0.2-4.6v-7.3l0.3-4.5l-0.1-1.4l-0.3-4.5l-0.1-1.4v-2.1l0.2-2.6v-1.3l0.3-4.4l0.1-1.2l0.3-0.7
		l0.4-0.3l0.7-0.1l1.1-0.2l5.6,0.3l5.2-0.1h1.4l5.1,0.3h1.4l5.1-0.3h1.4l11.6,0.2l1.5-0.1l2.9-0.3h2.1l1.2,0.3l0.5,0.4l0.2,0.6
		l0.2,1.1v2.3l-0.2,2.1v1.5l0.1,2.1l0.1,1.3l-0.1,1.3l-0.2,1l-0.3,0.6l-0.4,0.3l-1,0.2h-0.7l-1.4,0.1l-8-0.2h-1.4l-4.4,0.2h-1.4
		l-4.4-0.2l-3.8-0.3h-1.3l-0.7,0.1l-0.9,0.2l-0.4,0.4l-0.1,0.5l-0.2,0.9l-0.2,2.1v1.4l0.1,1.5l0.1,0.9l0.2,0.6l0.3,0.4l0.9,0.3
		l2.7,0.2l2.7-0.2h8.1l9.6-0.5l2.7,0.2l0.9,0.2l0.5,0.4l0.3,0.5l0.1,0.9l0.2,1.5l0.1,1.5v2.8l0.2,2l-0.2,2.6l-0.2,1l-0.3,0.6
		l-0.6,0.4l-0.9,0.2h-1.7l-3.8-0.4l-1.4-0.1l-6.8,0.4l-5.5-0.2h-1.4l-3.4-0.3l-1.5,0.1l-1,0.1l-0.4,0.3l-0.3,0.6l-0.1,1.3L979,195
		l-0.1,1.4v1.9l0.1,0.9l0.3,0.6l0.3,0.3l0.9,0.1l4.7,0.2h1.4l4.6-0.3l6.1,0.3h1.4l6.1-0.3h1.3l1.3,0.1l3.1,0.3l0.5,0.3l0.3,0.5
		l0.1,0.9L1011.5,206.8z"/>
	<path class="st9" d="M419.7,309.7l0.1,1.4l0.3,2.7l0.1,1.3l-0.1,0.7l-0.1,0.9l-0.4,0.7l-0.5,0.4l-0.9,0.2l-1.3,0.1h-1.4l-3.4-0.3
		l-1.5-0.1h-2.1l-1.5-0.1l-3.2-0.4l-0.6-0.2l-0.3-0.4l-0.1-0.9l-0.1-1.2l-0.1-1.3l0.2-2.9v-8l-0.3-5.4v-1.4l0.3-5.3v-6.7l-0.2-1
		l-0.5-0.3h-0.5l-0.6,0.8l-0.9,1.2l-3.6,4.1l-5.2,6.2l-3.4,4.3l-0.8,0.7l-0.6,0.3h-0.7l-0.9-0.2l-1-0.3l-0.9-0.7l-4.3-5.1l-3.2-4.2
		l-0.9-1l-4.4-5l-1.1-1.1l-0.5,0.2l-0.2,0.9l-0.3,5.4v1.4l0.3,5.4v1.4l0.2,5.4v1.4l-0.1,5.3v1.3l0.1,2.6l-0.1,1.4l-0.1,1.5l-0.2,1.1
		l-0.3,0.5l-0.6,0.2l-2.2,0.3l-1.4,0.1l-3.3-0.3l-1.4,0.1l-4.1,0.3h-2l-1-0.2l-0.5-0.5l-0.2-0.6l-0.2-0.9v-2l0.2-2.7v-13.2l-0.2-4.5
		V292l0.1-4.5l-0.1-1.4l-0.3-4.6v-1.4l0.3-4.5l0.1-1.4l-0.3-4.5l0.1-1.4l0.3-4.5v-1.4l-0.3-3.2v-1.4l0.2-1.1l0.3-0.6l0.5-0.4
		l0.7-0.2l1.1-0.1l1.5,0.2l1.9,0.4h1.4l2.7-0.3l1.5-0.2l1.3-0.1l3.3,0.1h1.1l0.9,0.4l0.9,0.9l3,3.3l0.9,1.1l2.5,3.5l0.9,1.1l2.8,3.3
		l0.9,1.2l2.7,3.3l0.9,0.9l0.8,0.4h0.9l0.8-0.4l0.8-0.9l2.6-3.4l0.9-1.2l2.7-3.3l0.9-1.1l3-3.3l0.9-1.1l2.2-2.7l0.7-0.9l0.7-0.7
		l0.9-0.4l1.1,0.1l4.5,0.3l4,0.1h1.4l2.6-0.2l1.5,0.1l1,0.2l0.6,0.2l0.5,0.4l0.2,0.7l-0.1,1l-0.3,3.8l-0.1,1.4l0.2,4.5v1.4l-0.1,4.5
		v1.4l0.1,4.5v1.4l0.3,4.6v1.4l-0.3,4.5v1.4l0.3,4.5v1.4l-0.3,4.5v1.4L419.7,309.7z"/>
	<path class="st9" d="M499.3,315.1l0.3,1.2l-0.6,0.9l-0.9,0.4l-1.1,0.2h-1.2l-2-0.2l-1.3-0.1h-3.8l-5.3,0.3l-1.1-0.3l-0.5-0.7
		l-0.4-0.9l-2.7-7.2l-0.6-0.9l-0.8-0.2l-1-0.1l-5.1-0.3h-1.4l-6.4-0.2l-5.1-0.1h-1.3l-1.3,0.1h-3.9l-1.1,0.2l-0.7,0.4l-0.5,1l-2,5.8
		l-0.5,1.4l-0.9,1.1l-1.3,0.5l-1.4-0.1l-5-0.3h-1.4l-5.3,0.3l-1.1,0.1l-1-0.5l-0.7-0.9l0.1-1.1l0.2-0.7l0.5-1.4l1.2-2.7l0.5-1.3
		l2.1-4.8l0.5-1.2l2.2-4.8l0.5-1.3l2-4.6l0.5-1.3l2.3-4.8l0.5-1.2l3.1-7l2.4-5.1l0.6-1.4l1.9-3.8l0.6-1.4l1.6-3.9l0.5-1.3l1.5-3.5
		l0.4-0.9l0.9-0.5l1.3-0.3l3.9-0.2h6.7l3.9,0.1l1.5,0.3l0.9,0.7l0.4,1.1l1.2,3.3l0.5,1.3l2.1,4l0.5,1.2l1.9,4.2l0.5,1.2l1.5,4.4
		l0.5,1.2l1.9,4.1l0.5,1.2l1.9,4.2l0.5,1.2l1.7,4.3l0.5,1.2l2.7,5.3l2.1,4l0.6,1.2l2.3,5.4L499.3,315.1z M470.7,291l-0.3-1.1
		l-1.9-5.8l-0.4-1.3l-1.7-5l-0.4-1.1l-0.9-0.6l-1.1-0.3L463,276l-0.9,0.9l-2.3,5.8l-0.5,1.3l-2.2,5.7l-0.3,1.3l0.3,1l0.9,0.4
		l1.2,0.2h5.4l4,0.3l1.1-0.3l0.7-0.7L470.7,291z"/>
	<path class="st9" d="M563.6,277.7l0.1,1.3l-0.1,1.3l-0.1,1.5l-0.4,2.1l-0.3,1.4l-0.7,1.7l-0.5,1.2l-0.9,1.6l-0.8,1.1l-1.2,1.6
		l-0.9,1l-1.1,1l-1.1,0.9l-1.1,0.8l-1.2,0.8l-1.9,0.9l-1.3,0.6l-1.5,0.6l-1.3,0.4l-1.9,0.5l-1.3,0.3l-1.3,0.2l-1.4,0.1l-2.2,0.2
		h-7.2l-1.5-0.1l-1.5,0.1l-1.5,0.2l-1,0.2l-0.3,0.6l-0.1,1.1l-0.3,5.7v1.4l0.1,2.6l-0.1,1.3l-0.1,1.9l-0.2,0.9l-0.3,0.5l-0.4,0.2
		l-0.9,0.2l-2.7,0.2l-3.3-0.2h-1.4l-2.7,0.2l-1.4-0.1l-2-0.1l-1.1-0.3l-0.5-0.5l-0.2-1l-0.2-1.3l-0.1-1.4v-9.2l0.3-4.5v-1.4
		l-0.3-4.5v-1.4l-0.2-10.4v-1.4l0.3-4.6v-1.4l-0.3-4.5v-1.4l0.3-4.5v-1.3l-0.2-2.6l0.1-1.3l0.1-0.7l0.2-0.9l0.3-0.5l0.4-0.4l0.9-0.1
		l2.5-0.2l2,0.1h1.3l5.7-0.1h5.7l5.7,0.3h5.6l3.3-0.2l1.2,0.1h0.7l1.3,0.3l2,0.5l1.4,0.4l1.4,0.5l1.3,0.6l1.3,0.8l1.1,0.9l1.5,1.4
		l1,0.9l0.4,0.5l1.5,1.5l0.9,1.1l0.4,0.5l0.6,1l0.3,0.5l0.5,1.1l0.4,1.3l0.3,1.2l0.1,0.6l0.3,1.2l0.2,0.7l0.3,1.2l0.5,2.4V277.7z
		 M538,286.1l1.5-0.2l1.5-0.3l0.7-0.3l1.2-0.7l0.5-0.3l0.9-0.9l0.3-0.5l0.6-1.1l0.3-0.6l0.3-1.4l0.1-0.6v-2.1l-0.3-1.3l-0.3-0.7
		l-0.5-1.1l-0.3-0.5l-0.9-1l-0.7-0.4l-1.3-0.7l-2.2-0.6l-1.4-0.2h-2l-2.6,0.2l-3.8-0.3h-1.3l-0.7,0.1l-0.9,0.2l-0.3,0.3l-0.3,0.6
		l-0.2,1v2l0.3,3.2l0.1,1.4l0.1,5l0.1,1l0.3,0.6l0.9,0.3l4.4,0.3L538,286.1z"/>
	<path class="st9" d="M619.8,313.4l-0.1,1.4v0.8l-0.3,1l-0.5,0.6l-0.6,0.3l-0.9,0.2h-0.7l-1.2,0.1l-9.5-0.5h-6.4l-7.7,0.5l-5-0.3
		h-6.3l-3.9,0.3h-1.3l-1.2-0.1l-0.9-0.2l-0.6-0.3l-0.4-0.5l-0.2-1v-1.4l0.4-3.3l0.1-1.3l-0.3-4.5v-1.4l0.2-4.5v-1.4l0.2-10.4V286
		l-0.3-10.4v-1.4l-0.1-4.5v-7.3l-0.2-2.6v-1.3l0.1-0.8l0.3-1.1l0.3-0.5l0.6-0.3l0.9-0.2h0.7l1.3-0.1l4.2,0.3h1.4l6.1-0.1h0.9
		l0.6,0.3l0.4,0.6v7.4l0.2,5v1.4l-0.3,5v1.4l0.2,5v1.4l0.3,5v1.4l-0.5,11.3l0.1,0.9l0.1,0.4l0.2,0.4l0.4,0.3l1,0.2l2.9,0.2l2.6-0.2
		h1.4l12.3-0.2l1.4-0.1l2.9-0.3l1.4-0.1h1.3l1,0.3l0.6,0.5l0.3,0.6l0.1,0.9l0.1,4.8l0.1,1.4L619.8,313.4z"/>
	<path class="st9" d="M678.7,309.4l-0.1,1.4l-0.3,4.6l-0.1,0.9l-0.3,0.6l-0.4,0.3l-11.2,0.3h-1.4l-4.5-0.3l-1.4,0.1l-4.4,0.3
		l-1.4,0.1h-5.9l-4.4-0.3h-1.4l-7.4,0.4l-2.9-0.2l-1-0.2l-0.6-0.4l-0.3-0.6l-0.2-0.9l-0.2-2l-0.1-1.4l0.1-1.3v-1.3l0.3-4.5v-1.4
		l0.1-4.5l-0.1-1.4l-0.3-4.5l-0.1-1.4l0.2-4.6V280l0.3-4.5l-0.1-1.4l-0.3-4.5l-0.1-1.4v-2.1l0.2-2.6v-1.3l0.3-4.4l0.1-1.2l0.3-0.7
		l0.4-0.3l0.7-0.1l1.1-0.2l5.6,0.3l5.2-0.1h1.4l5.1,0.3h1.4l5.1-0.3h1.4l11.6,0.2l1.5-0.1l2.9-0.3h2.1l1.2,0.3l0.5,0.4l0.2,0.6
		l0.2,1.1v2.3l-0.2,2.1v1.5l0.1,2.1l0.1,1.3l-0.1,1.3l-0.2,1l-0.3,0.6l-0.4,0.3l-1,0.2h-0.7l-1.4,0.1l-8-0.2h-1.4l-4.4,0.2H658
		l-4.4-0.2l-3.8-0.3h-1.3l-0.7,0.1l-0.9,0.2l-0.4,0.4l-0.1,0.5l-0.2,0.9l-0.2,2.1v1.4l0.1,1.5l0.1,0.9l0.2,0.6l0.3,0.4l0.9,0.3
		l2.7,0.2l2.7-0.2h8.1l9.6-0.5l2.7,0.2l0.9,0.2l0.5,0.4l0.3,0.5l0.1,0.9l0.2,1.5l0.1,1.5v2.8l0.2,2l-0.2,2.6l-0.2,1l-0.3,0.6
		l-0.6,0.4l-0.9,0.2h-1.7l-3.8-0.4l-1.4-0.1l-6.8,0.4l-5.5-0.2H653l-3.4-0.3l-1.5,0.1l-1,0.1l-0.4,0.3l-0.3,0.6l-0.1,1.3l-0.3,2.1
		L646,299v1.9l0.1,0.9l0.3,0.6l0.3,0.3l0.9,0.1l4.7,0.2h1.4l4.6-0.3l6.1,0.3h1.4l6.1-0.3h1.3l1.3,0.1l3.1,0.3l0.5,0.3l0.3,0.5
		l0.1,0.9L678.7,309.4z"/>
	<path class="st9" d="M770.6,313.4l-0.1,1.4v0.8l-0.3,1l-0.5,0.6l-0.6,0.3l-0.9,0.2h-0.7l-1.2,0.1l-9.5-0.5h-6.4l-7.7,0.5l-5-0.3
		h-6.3l-3.9,0.3h-1.3l-1.2-0.1l-0.9-0.2l-0.6-0.3l-0.4-0.5l-0.2-1v-1.4l0.4-3.3l0.1-1.3l-0.3-4.5v-1.4l0.2-4.5v-1.4l0.2-10.4V286
		l-0.3-10.4v-1.4l-0.1-4.5v-7.3l-0.2-2.6v-1.3l0.1-0.8l0.3-1.1l0.3-0.5l0.6-0.3l0.9-0.2h0.7l1.3-0.1l4.2,0.3h1.4l6.1-0.1h0.9
		l0.6,0.3l0.4,0.6v7.4l0.2,5v1.4l-0.3,5v1.4l0.2,5v1.4l0.3,5v1.4l-0.5,11.3l0.1,0.9l0.1,0.4l0.2,0.4l0.4,0.3l1,0.2l2.9,0.2l2.6-0.2
		h1.4l12.3-0.2l1.4-0.1l2.9-0.3l1.4-0.1h1.3l1,0.3l0.6,0.5l0.3,0.6l0.1,0.9l0.1,4.8l0.1,1.4L770.6,313.4z"/>
	<path class="st9" d="M829.4,309.4l-0.1,1.4l-0.3,4.6l-0.1,0.9l-0.3,0.6l-0.4,0.3l-11.2,0.3h-1.4l-4.5-0.3l-1.4,0.1l-4.4,0.3
		l-1.4,0.1H798l-4.4-0.3h-1.4l-7.4,0.4l-2.9-0.2l-1-0.2l-0.6-0.4l-0.3-0.6l-0.2-0.9l-0.2-2l-0.1-1.4l0.1-1.3v-1.3l0.3-4.5v-1.4
		l0.1-4.5l-0.1-1.4l-0.3-4.5l-0.1-1.4l0.2-4.6V280l0.3-4.5l-0.1-1.4l-0.3-4.5l-0.1-1.4v-2.1l0.2-2.6v-1.3l0.3-4.4l0.1-1.2l0.3-0.7
		l0.4-0.3l0.7-0.1l1.1-0.2l5.6,0.3l5.2-0.1h1.4l5.1,0.3h1.4l5.1-0.3h1.4l11.6,0.2l1.5-0.1l2.9-0.3h2.1l1.2,0.3l0.5,0.4l0.2,0.6
		l0.2,1.1v2.3l-0.2,2.1v1.5l0.1,2.1l0.1,1.3l-0.1,1.3l-0.2,1l-0.3,0.6l-0.4,0.3l-1,0.2h-0.7l-1.4,0.1l-8-0.2h-1.4l-4.4,0.2h-1.4
		l-4.4-0.2l-3.8-0.3h-1.3l-0.7,0.1l-0.9,0.2l-0.4,0.4l-0.1,0.5l-0.2,0.9l-0.2,2.1v1.4l0.1,1.5l0.1,0.9l0.2,0.6l0.3,0.4l0.9,0.3
		l2.7,0.2l2.7-0.2h8.1l9.6-0.5l2.7,0.2l0.9,0.2l0.5,0.4l0.3,0.5l0.1,0.9l0.2,1.5l0.1,1.5v2.8l0.2,2l-0.2,2.6l-0.2,1l-0.3,0.6
		l-0.6,0.4l-0.9,0.2h-1.7l-3.8-0.4l-1.4-0.1l-6.8,0.4l-5.5-0.2h-1.4l-3.4-0.3l-1.5,0.1l-1,0.1l-0.4,0.3l-0.3,0.6l-0.1,1.3l-0.3,2.1
		l-0.1,1.4v1.9l0.1,0.9l0.3,0.6l0.3,0.3l0.9,0.1l4.7,0.2h1.4l4.6-0.3l6.1,0.3h1.4l6.1-0.3h1.3l1.3,0.1l3.1,0.3l0.5,0.3l0.3,0.5
		l0.1,0.9L829.4,309.4z"/>
	<path class="st9" d="M906.6,315.1l0.3,1.2l-0.6,0.9l-0.9,0.4l-1.1,0.2H903l-2-0.2l-1.3-0.1h-3.8l-5.3,0.3l-1.1-0.3l-0.5-0.7
		l-0.4-0.9l-2.7-7.2l-0.6-0.9l-0.8-0.2l-1-0.1l-5.1-0.3H877l-6.4-0.2l-5.1-0.1h-1.3l-1.3,0.1H859l-1.1,0.2l-0.7,0.4l-0.5,1l-2,5.8
		l-0.5,1.4l-0.9,1.1l-1.3,0.5l-1.4-0.1l-5-0.3h-1.4l-5.3,0.3l-1.1,0.1l-1-0.5l-0.7-0.9l0.1-1.1l0.2-0.7l0.5-1.4l1.2-2.7l0.5-1.3
		l2.1-4.8l0.5-1.2l2.2-4.8l0.5-1.3l2-4.6l0.5-1.3l2.3-4.8l0.5-1.2l3.1-7l2.4-5.1l0.6-1.4l1.9-3.8l0.6-1.4l1.6-3.9l0.5-1.3l1.5-3.5
		l0.4-0.9l0.9-0.5l1.3-0.3l3.9-0.2h6.7l3.9,0.1l1.5,0.3l0.9,0.7l0.4,1.1l1.2,3.3l0.5,1.3l2.1,4l0.5,1.2l1.9,4.2l0.5,1.2l1.5,4.4
		l0.5,1.2l1.9,4.1l0.5,1.2l1.9,4.2l0.5,1.2l1.7,4.3l0.5,1.2l2.7,5.3l2.1,4l0.6,1.2l2.3,5.4L906.6,315.1z M878,291l-0.3-1.1l-1.9-5.8
		l-0.4-1.3l-1.7-5l-0.4-1.1l-0.9-0.6l-1.1-0.3l-0.9,0.3l-0.9,0.9l-2.3,5.8l-0.5,1.3l-2.2,5.7l-0.3,1.3l0.3,1l0.9,0.4l1.2,0.2h5.4
		l4,0.3l1.1-0.3l0.7-0.7L878,291z"/>
	<path class="st9" d="M963.4,265.8l0.1,1.4l-0.1,1.3l-0.1,0.9L963,270l-0.5,0.4l-0.9,0.3h-1.8l-2.6-0.3l-1.4-0.1h-5.6l-9.8,0.3
		l-3.8-0.3h-1.9l-0.9,0.3l-0.3,0.6l-0.1,1.2l-0.2,7.6l0.1,0.9l0.1,0.5l0.4,0.3l1,0.3h2.2l2.9-0.3l1.4-0.1l5.1,0.2h6.5l1.3-0.1
		l3.3-0.3h2.1l0.9,0.2l0.5,0.4l0.3,0.7l0.2,1l0.1,0.7l0.1,1.3l-0.2,2.6v1.3l0.1,2l-0.1,1.3l-0.1,1.4l-0.2,1l-0.3,0.7l-0.4,0.3
		l-1,0.3h-2.1l-3.2-0.4l-1.4-0.1l-5.1,0.2h-1.4l-9.2-0.2l-1.3,0.1l-1.2,0.2l-0.9,0.3l-0.3,0.5v1.1l-0.1,4.9v1.4l-0.3,4.8v1.4
		l0.1,1.9l-0.1,1.4l-0.1,1.5l-0.1,1l-0.3,0.5l-0.5,0.3l-0.9,0.2l-1.5,0.2l-1.4,0.1l-3.2-0.1H924l-3.5,0.3l-2.6-0.2l-0.9-0.2
		l-0.5-0.3l-0.2-0.6l-0.1-0.9L916,311l-0.1-1.4l-0.1-4.5l0.1-1.4l0.3-4.5l0.1-1.4l-0.3-4.5v-1.4l-0.3-4.6v-1.4l0.2-4.5v-7.3l0.2-4.5
		v-7.3l0.2-4.5l0.1-1l0.2-0.6l0.5-0.3l0.9-0.2h1.9l3.3,0.3h1.4l5-0.3h1.4l5,0.3h1.4l5-0.3l1.4-0.1l5,0.3h1.4l5-0.3h1.4l2.1,0.1
		l1.4,0.1l1.5,0.2l0.9,0.1l0.5,0.3l0.3,0.5l0.1,0.9l0.1,0.8v1.3l-0.2,2.6v1.4L963.4,265.8z"/>
	<path class="st9" d="M405.9,380.3l0.1,1.3l-0.1,1.3l-0.1,1.5l-0.4,2.1l-0.3,1.4l-0.7,1.7l-0.5,1.2l-0.9,1.6l-0.8,1.1l-1.2,1.6
		l-0.9,1l-1.1,1l-1.1,0.9l-1.1,0.8l-1.2,0.8l-1.9,0.9l-1.3,0.6l-1.5,0.6l-1.3,0.4l-1.9,0.5l-1.3,0.3l-1.3,0.2l-1.4,0.1l-2.2,0.2
		h-7.2l-1.5-0.1l-1.5,0.1l-1.5,0.2l-1,0.2l-0.3,0.6l-0.1,1.1l-0.3,5.7v1.4l0.1,2.6l-0.1,1.3l-0.1,1.9l-0.2,0.9l-0.3,0.5l-0.4,0.2
		l-0.9,0.2l-2.7,0.2l-3.3-0.2h-1.4l-2.7,0.2l-1.4-0.1l-2-0.1l-1.1-0.3l-0.5-0.5l-0.2-1l-0.2-1.3l-0.1-1.4v-9.2l0.3-4.5v-1.4
		l-0.3-4.5v-1.4l-0.2-10.4v-1.4l0.3-4.6v-1.4l-0.3-4.5v-1.4l0.3-4.5V365l-0.2-2.6l0.1-1.3l0.1-0.7l0.2-0.9l0.3-0.5l0.4-0.4l0.9-0.1
		l2.5-0.2l2,0.1h1.3l5.7-0.1h5.7l5.7,0.3h5.6l3.3-0.2l1.2,0.1h0.7l1.3,0.3l2,0.5l1.4,0.4l1.4,0.5l1.3,0.6l1.3,0.8l1.1,0.9l1.5,1.4
		l1,0.9l0.4,0.5l1.5,1.5l0.9,1.1l0.4,0.5l0.6,1l0.3,0.5l0.5,1.1l0.4,1.3l0.3,1.2l0.1,0.6l0.3,1.2l0.2,0.7l0.3,1.2l0.5,2.4V380.3z
		 M380.3,388.7l1.5-0.2l1.5-0.3l0.7-0.3l1.2-0.7l0.5-0.3l0.9-0.9l0.3-0.5l0.6-1.1l0.3-0.6l0.3-1.4l0.1-0.6v-2.1l-0.3-1.3l-0.3-0.7
		l-0.5-1.1l-0.3-0.5l-0.9-1l-0.7-0.4l-1.3-0.7l-2.2-0.6l-1.4-0.2h-2l-2.6,0.2l-3.8-0.3h-1.3l-0.7,0.1l-0.9,0.2l-0.3,0.3l-0.3,0.6
		l-0.2,1v2l0.3,3.2l0.1,1.4l0.1,5l0.1,1l0.3,0.6l0.9,0.3l4.4,0.3L380.3,388.7z"/>
	<path class="st9" d="M471.5,419.8l-1.1,0.3h-6l-4.7-0.1h-1.4l-3.8,0.2h-1.1l-0.8-0.3l-0.7-0.7l-2.7-3.8l-0.8-1l-2.7-3.7l-0.8-1
		l-2.4-3.9l-0.8-1l-2.7-3.7l-0.6-0.7l-0.5-0.3l-1-0.1l-2.7-0.2l-1.1,0.1l-0.7,0.5l-0.3,1.1l-0.2,4.7l0.1,1.4l0.3,4.8l0.1,1.4
		l0.1,2.1v1.4l-0.1,1.4l-0.2,1l-0.4,0.4l-0.9,0.3h-1.4l-4.1-0.3l-3.9,0.3h-1.4l-3.9-0.3l-1-0.2l-0.5-0.3l-0.2-0.9l-0.1-1.2l-0.1-1.3
		l0.2-2.2l0.1-1.4l0.3-4.6v-1.4l-0.3-4.6l-0.1-1.4l-0.1-4.5v-1.4l0.3-4.6v-1.4l-0.3-4.6v-1.4l0.3-4.6v-1.4l0.2-4.5v-1.4l-0.1-4.6
		v-1.4l-0.2-2.8l0.1-1.3l0.1-0.5l0.3-1.1l0.5-0.7l1-0.3l0.7-0.1l1.3-0.1l3.8,0.2l10.2,0.3l5.8-0.3h1.4l5.6,0.3h3.3l1.5,0.1l1.3,0.3
		l1.8,0.5l1.3,0.4l1.3,0.5l1.4,0.5l1.3,0.6l1.1,0.7l1.6,1.1l0.9,0.8l0.9,0.9l0.9,1l1.2,1.7l0.8,1.1l1,1.6l0.6,1.2l0.6,1.3l0.4,1.4
		l0.3,1.4l0.1,1.4l0.2,1.9v1.4l-0.1,1.4l-0.2,1.5l-0.3,1.5l-0.3,1.4l-0.5,1.3l-0.6,1.3l-0.8,1.3l-0.8,1.1l-0.8,1l-0.8,0.9l-1.4,1.4
		l-0.9,0.8l-1.7,0.9l-1,0.6l-1.1,0.6l-1.1,0.3l-0.7,0.3l0.3,0.7l3.1,4.4l0.8,1l3.1,4.2l0.9,1l3.1,4.3l0.9,1l2.7,3.1l0.8,0.9l0.4,0.9
		L471.5,419.8z M445.6,386.8l1.9-0.3l1.1-0.4l1-0.6l0.9-1l0.6-1.3l0.3-1.4l0.1-1.4l-0.1-1.5l-0.2-1.5l-0.3-1.3l-0.6-1.3l-0.8-1
		l-0.9-0.8l-1.2-0.5l-1.9-0.4l-1.4-0.2l-4.3-0.1h-1.4l-4.4,0.3l-1,0.1l-0.6,0.3l-0.5,0.5l-0.1,0.9l0.1,2l0.2,1.4l0.2,1.5l0.1,1.5
		l-0.2,4.7l0.1,0.9l0.2,0.5l0.6,0.3l1,0.2l4.4,0.3h1.4L445.6,386.8z"/>
	<path class="st9" d="M529.1,412.1l-0.1,1.4l-0.3,4.6l-0.1,0.9l-0.3,0.6l-0.4,0.3l-11.2,0.3h-1.4l-4.5-0.3l-1.4,0.1l-4.4,0.3
		l-1.4,0.1h-5.9l-4.4-0.3h-1.4l-7.4,0.4l-2.9-0.2l-1-0.2l-0.6-0.4l-0.3-0.6l-0.2-0.9l-0.2-2l-0.1-1.4l0.1-1.3v-1.3l0.3-4.5v-1.4
		l0.1-4.5l-0.1-1.4l-0.3-4.5l-0.1-1.4l0.2-4.6v-7.3l0.3-4.5l-0.1-1.4l-0.3-4.5l-0.1-1.4v-2.1l0.2-2.6v-1.3l0.3-4.4l0.1-1.2l0.3-0.7
		l0.4-0.3l0.7-0.1l1.1-0.2l5.6,0.3l5.2-0.1h1.4l5.1,0.3h1.4l5.1-0.3h1.4l11.6,0.2l1.5-0.1l2.9-0.3h2.1l1.2,0.3l0.5,0.4l0.2,0.6
		l0.2,1.1v2.3l-0.2,2.1v1.5l0.1,2.1l0.1,1.3l-0.1,1.3l-0.2,1l-0.3,0.6l-0.4,0.3l-1,0.2h-0.7l-1.4,0.1l-8-0.2h-1.4l-4.4,0.2h-1.4
		l-4.4-0.2l-3.8-0.3h-1.3l-0.7,0.1l-0.9,0.2l-0.4,0.4l-0.1,0.5l-0.2,0.9l-0.2,2.1v1.4l0.1,1.5l0.1,0.9l0.2,0.6l0.3,0.4l0.9,0.3
		l2.7,0.2l2.7-0.2h8.1l9.6-0.5l2.7,0.2l0.9,0.2l0.5,0.4l0.3,0.5l0.1,0.9l0.2,1.5l0.1,1.5v2.8l0.2,2l-0.2,2.6l-0.2,1l-0.3,0.6
		l-0.6,0.4l-0.9,0.2h-1.7l-3.8-0.4l-1.4-0.1l-6.8,0.4l-5.5-0.2h-1.4l-3.4-0.3l-1.5,0.1l-1,0.1l-0.4,0.3l-0.3,0.6l-0.1,1.3l-0.3,2.1
		l-0.1,1.4v1.9l0.1,0.9l0.3,0.6l0.3,0.3l0.9,0.1l4.7,0.2h1.4l4.6-0.3l6.1,0.3h1.4l6.1-0.3h1.3l1.3,0.1l3.1,0.3l0.5,0.3l0.3,0.5
		l0.1,0.9L529.1,412.1z"/>
	<path class="st9" d="M590.7,400.9l-0.1,1.5l-0.2,1.5l-0.3,1.4l-0.4,1.9l-0.4,1.2l-0.8,1.7l-0.6,1.1l-1,1.5l-0.9,1l-1,1l-1,0.9
		l-1.7,1.1l-1.1,0.8l-1.3,0.7l-1.2,0.6l-2,0.7l-2.6,0.9l-1.4,0.3l-2.1,0.3l-1.3,0.2l-1.9,0.2l-1.2,0.1l-2,0.1l-4.1,0.3h-1.9
		l-1.2-0.1l-2-0.2l-1.3-0.2l-1.5-0.3l-1.3-0.4l-1.9-0.6l-1.2-0.6l-1.3-0.6l-1.2-0.6l-1.1-0.7l-2.7-1.9l-1-0.9l-1.5-1.2l-1-0.9
		l-0.9-0.9l-0.7-0.8l-0.1-0.6l0.4-0.8l0.3-0.4l0.9-0.9l2.4-2.2l0.8-0.9l1.5-2.2l0.8-0.9l0.9-0.9l0.9-0.5l0.9,0.2l0.9,0.7l2.7,1.9
		l1.3,0.7l1.2,0.6l2,0.9l1.3,0.4l1.4,0.4l1.4,0.3l2,0.1l1.4,0.1l5.4-0.3l1.4-0.2l0.7-0.2l1.3-0.5l1.1-0.7l0.9-0.9l0.4-0.6l0.5-1.3
		l-0.1-1.5l-0.2-0.7l-0.7-1.2l-0.4-0.5l-1.1-0.9l-0.7-0.3l-1.3-0.5l-1.5-0.3l-1.5-0.3l-8.1-0.8l-2.6-0.5l-1.4-0.3l-1.9-0.7l-1.3-0.4
		l-1.3-0.6l-2.9-1.5l-1.1-0.8l-1.3-0.8l-1.1-0.8l-1.5-1.2l-0.8-1.1l-0.8-1.3l-0.5-1.3l-0.6-1.8l-0.3-1.3l-0.3-1.9l-0.2-2.7l0.1-1.4
		l0.2-2.1l0.3-1.3l0.3-1.1l0.4-1.3l0.9-1.9l0.6-1.2l0.7-1l0.9-0.9l1.4-1.3l1.1-0.9l1.1-0.8l1.2-0.6l1.6-0.9l2.6-1l1.3-0.4l2-0.3
		l1.4-0.3l2.6-0.3l1.9-0.3l1.4-0.2l1.3-0.1h1.4l2.6,0.3l1.3,0.2l0.6,0.2l1.4,0.2l2.9,0.5l1.5,0.3l1.4,0.4l1.5,0.4l1.4,0.5l1.3,0.6
		l1.3,0.5l1.6,0.9l1.2,0.6l1.1,0.8l0.8,0.8v0.9l-0.5,0.9l-0.9,1.7l-0.7,1l-3.3,4.3l-0.9,1.2l-1,0.9l-0.7,0.3l-0.6-0.1l-0.9-0.4
		l-1.3-0.8l-1.3-0.5l-0.6-0.3l-1.3-0.4l-0.7-0.2l-1.5-0.3l-2-0.4l-1.4-0.1l-2.2-0.2h-2.2l-1.5,0.1l-1.5,0.3l-1.4,0.4l-0.5,0.3
		l-1,0.8l-0.4,0.5l-0.6,1.2l-0.2,1.4l0.3,1.1l0.7,1.1l0.9,0.9l1,0.5l0.6,0.3l1.3,0.3l2.1,0.3l2.9,0.2l1.5,0.3l2.9,0.7l2.7,0.9l2,0.4
		l1.3,0.3l2.4,0.9l1.7,0.8l1.2,0.6l1.2,0.7l1.1,0.7l2.5,2.1l0.9,1l0.9,1l1,1.5l0.7,1.1l0.6,1.3l0.3,1.3l0.3,1.9l0.2,1.3L590.7,400.9
		z"/>
	<path class="st9" d="M649.8,400.9l-0.1,1.5l-0.2,1.5l-0.3,1.4l-0.4,1.9l-0.4,1.2l-0.8,1.7l-0.6,1.1l-1,1.5l-0.9,1l-1,1l-1,0.9
		l-1.7,1.1l-1.1,0.8l-1.3,0.7l-1.2,0.6l-2,0.7l-2.6,0.9l-1.4,0.3l-2.1,0.3l-1.3,0.2l-1.9,0.2l-1.2,0.1l-2,0.1l-4.1,0.3h-1.9
		l-1.2-0.1l-2-0.2l-1.3-0.2l-1.5-0.3l-1.3-0.4l-1.9-0.6l-1.2-0.6l-1.3-0.6l-1.2-0.6l-1.1-0.7l-2.7-1.9l-1-0.9l-1.5-1.2l-1-0.9
		l-0.9-0.9l-0.7-0.8l-0.1-0.6l0.4-0.8l0.3-0.4l0.9-0.9l2.4-2.2l0.8-0.9l1.5-2.2l0.8-0.9l0.9-0.9l0.9-0.5l0.9,0.2l0.9,0.7l2.7,1.9
		l1.3,0.7l1.2,0.6l2,0.9l1.3,0.4l1.4,0.4l1.4,0.3l2,0.1l1.4,0.1l5.4-0.3l1.4-0.2l0.7-0.2l1.3-0.5l1.1-0.7l0.9-0.9l0.4-0.6l0.5-1.3
		l-0.1-1.5l-0.2-0.7l-0.7-1.2l-0.4-0.5l-1.1-0.9l-0.7-0.3l-1.3-0.5l-1.5-0.3l-1.5-0.3l-8.1-0.8l-2.6-0.5l-1.4-0.3l-1.9-0.7l-1.3-0.4
		l-1.3-0.6l-2.9-1.5l-1.1-0.8l-1.3-0.8l-1.1-0.8l-1.5-1.2l-0.8-1.1l-0.8-1.3l-0.5-1.3l-0.6-1.8l-0.3-1.3l-0.3-1.9l-0.2-2.7l0.1-1.4
		l0.2-2.1l0.3-1.3l0.3-1.1l0.4-1.3l0.9-1.9l0.6-1.2l0.7-1l0.9-0.9l1.4-1.3l1.1-0.9l1.1-0.8l1.2-0.6l1.6-0.9l2.6-1l1.3-0.4l2-0.3
		l1.4-0.3l2.6-0.3l1.9-0.3l1.4-0.2l1.3-0.1h1.4l2.6,0.3l1.3,0.2l0.6,0.2l1.4,0.2l2.9,0.5l1.5,0.3l1.4,0.4l1.5,0.4l1.4,0.5l1.3,0.6
		l1.3,0.5l1.6,0.9l1.2,0.6l1.1,0.8l0.8,0.8v0.9l-0.5,0.9l-0.9,1.7l-0.7,1l-3.3,4.3L639,374l-1,0.9l-0.7,0.3l-0.6-0.1l-0.9-0.4
		l-1.3-0.8l-1.3-0.5l-0.6-0.3l-1.3-0.4l-0.7-0.2l-1.5-0.3l-2-0.4l-1.4-0.1l-2.2-0.2h-2.2l-1.5,0.1l-1.5,0.3l-1.4,0.4l-0.5,0.3
		l-1,0.8l-0.4,0.5l-0.6,1.2l-0.2,1.4l0.3,1.1l0.7,1.1l0.9,0.9l1,0.5l0.6,0.3l1.3,0.3l2.1,0.3l2.9,0.2l1.5,0.3l2.9,0.7l2.7,0.9l2,0.4
		l1.3,0.3l2.4,0.9l1.7,0.8l1.2,0.6l1.2,0.7l1.1,0.7l2.5,2.1l0.9,1l0.9,1l1,1.5l0.7,1.1l0.6,1.3l0.3,1.3l0.3,1.9l0.2,1.3L649.8,400.9
		z"/>
	<path class="st9" d="M673.4,414.3l-0.3,1.4l-0.4,1.4l-0.6,1.3l-0.8,1.2l-1.1,1l-1.2,0.7l-1.3,0.4l-1.4,0.2l-1.5,0.1h-1.5l-0.6-0.1
		l-1.3-0.1l-0.6-0.2l-1.4-0.4l-1.4-0.8l-1.1-0.9l-0.3-0.5l-0.8-0.9l-0.3-0.5l-0.5-1.1l-0.2-0.5l-0.3-1.2v-2.3l0.3-1.1l0.2-0.6l0.6-1
		l0.3-0.5l0.8-0.9l0.3-0.4l1.1-0.9l1.4-0.9l1.3-0.6l0.5-0.3l1.3-0.3h2.1l1.5,0.3l1.3,0.5l1.2,0.7l1.1,0.8l1.1,0.9l0.9,1l0.6,1.2
		l0.5,1.4l0.3,1.4L673.4,414.3z"/>
</g>
</svg>
