<?xml version="1.0" encoding="utf-8"?>
<!-- Generator: Adobe Illustrator 19.0.0, SVG Export Plug-In . SVG Version: 6.00 Build 0)  -->
<svg version="1.1" id="Calque_1" xmlns="http://www.w3.org/2000/svg" xmlns:xlink="http://www.w3.org/1999/xlink" x="0px" y="0px"
	 viewBox="20 31 1000 500" style="enable-background:new 20 31 1000 500;" xml:space="preserve">
<style type="text/css">
	.st0{display:none;}
	.st1{display:inline;fill:#161616;}
	.st2{fill:#FFFFFF;}
</style>
<g id="Calque_2" class="st0">
	<rect id="XMLID_1_" x="214" y="178" class="st1" width="1000" height="500"/>
</g>
<g>
	<path class="st2" d="M331.2,252.1l-0.6,0.7l-3.7,3.6l-0.9,0.8l-3.7,3.7l-0.8,0.5l-0.6,0.1l-0.6-0.6l-2-2.4l-0.8-0.9l-2.1-2.1
		l-0.7-0.4l-0.9,0.1l-1.1,0.4l-1.2,0.4l-1.1,0.2l-2.3,0.6L307,257l-1.1,0.2l-1.2,0.1l-0.7,0.1h-2.8l-1.1,0.1l-1.7,0.1l-1.1,0.1h-1.1
		l-1.2-0.1l-2.2-0.4l-1.7-0.4l-1.1-0.3l-2.3-0.9l-1.2-0.5l-1.1-0.6l-2.2-1.3l-2.9-2.1l-1-0.7l-1.2-1.2l-0.7-0.8l-1-1.3l-0.6-1
		l-0.6-1.1l-0.6-1l-0.8-1.5l-0.5-1l-0.4-1l-0.4-1.1l-0.5-1.7l-0.4-2.2l-0.1-1.1l0.1-1.7l0.1-1.2l0.1-1.1v-1.1l-0.1-1.2l-0.1-1.1
		v-1.7l0.1-1.2l0.2-1.2l0.3-1.2l0.4-1.2l0.4-1.2l0.5-1.2l0.5-1.1l1.2-2.1l1.5-2.5l1.3-1.6l2.1-1.8l1-0.7l2.5-1.6l1-0.5l3.2-1.5
		l1.1-0.4l2.3-0.7l1.6-0.4l1.2-0.2l3.4-0.5l1.2-0.1l1.2-0.1h1.2l1.7,0.1h1.1l1.2,0.1l1.2,0.2l1.7,0.3l1.1,0.3l1,0.3l2.6,1l1,0.4
		l1,0.5l1,0.4l1.1,0.4l2.5,1.2l1,0.7l0.9,0.9l0.9,1l1.6,1.9l0.9,1l0.8,1l0.7,1l0.7,1l0.5,1.1l0.4,1l0.5,1.5l0.4,1.1l0.4,1.2l0.3,1.2
		l0.3,1.2l0.2,1.2l0.1,1.2v1.3l-0.1,1.2v3.4l-0.1,1.8l-0.1,1.1l-0.4,1.6l-0.4,1.1l-0.4,1.2l-0.4,1.2l-0.4,1.2L327,243l-0.7,1.5
		l-0.3,0.7v0.5l0.6,0.7l4,4.2l0.6,0.8L331.2,252.1z M300.1,245h1.2l1.8-0.3l1.1-0.2l1.7-0.5l2.7-1.2l1-0.7l1.3-1l0.7-0.9l1-1.4
		l0.5-1l0.7-1.7l0.4-1.1l0.4-1.2l0.2-1.2l0.2-2.2v-1.2l-0.1-1.6l-0.2-1.2l-0.5-1.8l-0.4-1.1l-1-1.9l-0.6-1l-0.8-1l-0.8-0.8l-1.2-1.2
		l-1-0.7l-1.5-0.9l-1-0.4l-1.7-0.5l-1.1-0.2l-1.8-0.2H300l-1.2,0.1l-1.2,0.2l-2.1,0.7l-1,0.4l-1.1,0.5l-1,0.7l-1.8,1.4l-0.8,0.9
		l-1,1.4l-0.6,1l-0.7,1.6l-0.4,1.1l-0.3,1.2l-0.1,1.1l-0.2,3.3l0.1,1.7l0.1,1.1l0.4,1.8l0.4,1.1l0.6,1.6l0.6,1l1,1.5l0.8,0.9l1.5,1
		l1,0.6l2.7,1.1l1.6,0.5l1.1,0.3L300.1,245z"/>
	<path class="st2" d="M386.4,230.4l0.1,2.3l-0.1,1.1l-0.1,1.7l-0.1,1.1l-0.3,1.8l-0.2,1.2l-0.3,1.7l-0.3,1.1l-0.6,1.5l-0.4,1
		l-0.7,1.5l-0.5,1l-1,1.5l-0.7,1l-0.9,1l-1,0.8l-1.5,1.2l-1,0.7l-1.5,0.9l-1,0.5l-1.5,0.7L372,256l-1.6,0.6l-1.1,0.3l-1.7,0.3
		l-1.1,0.2l-2.3,0.1h-3.4l-1.7-0.1l-1.1-0.1l-4-0.4l-1.2-0.2l-0.7-0.1l-1.2-0.4l-0.6-0.2l-1.2-0.5l-1.6-0.7l-1.1-0.7l-1.1-0.7
		l-1.9-1.6l-0.8-0.8l-1-1.2l-0.7-0.9l-1.2-1.9l-0.7-1l-0.6-1.1l-0.5-1.2l-0.4-1.1l-0.3-1l-0.3-1.1l-0.3-1.6l-0.2-1.2l-0.1-1.2
		l-0.1-2.5l-0.1-1.2l0.2-4.5V227l-0.1-4.5v-1.2l0.2-4.5V210l-0.1-2.3v-1.2l0.1-1.2l0.2-1.2l0.5-0.7l1-0.2l2.4-0.1l2.8,0.2h1.2
		l2.4-0.1l1.1,0.1l1.7,0.1l1,0.2l0.6,0.6l0.2,1l0.1,1v1.1l-0.1,2.9v1.2l0.2,4.5v1.2l-0.1,4.5v1.2l-0.2,4.5v1.2l-0.1,4.5l0.1,1.2
		l0.1,1.8l0.2,1.2l0.4,1.6l0.4,1.1l0.7,1.7l0.7,0.9l1.2,1.2l1,0.6l1.6,0.6l1.1,0.3l1.9,0.1h1.2l1.9-0.4l1.1-0.3l1.4-0.7l1-0.6l1.2-1
		l0.7-0.9l0.8-1.5l0.5-1.1l0.4-1.2l0.2-1.2l0.3-2.2l0.1-1.2l-0.3-4.5v-1.2l0.2-4.5v-1.2l0.1-4.5v-1.2l-0.1-4.5l-0.1-1.2l-0.2-3.1
		v-1.8l0.3-1l0.7-0.6l1-0.2h1.5l3.7,0.3h1.2l2.9-0.2h1.2l1.1,0.1l1,0.2l0.6,0.5l0.1,0.9l0.1,2.2v1.1l-0.1,1.7v1.2l0.2,4.5v1.2
		l-0.1,4.5v1.2l-0.3,4.5L386.4,230.4z"/>
	<path class="st2" d="M411.3,244.7v1.2l-0.3,4v1.2l-0.1,4v0.8l-0.2,0.4l-0.6,0.1l-1,0.1l-3.7-0.1h-4.5l-3.7-0.3l-0.4-0.1l-0.2-0.2
		v-0.7l-0.1-1.8V252l-0.1-1.1v-1.1l-0.2-4l0.1-1.2l0.2-4l0.1-1.2l-0.2-4v-1.2l-0.1-4v-6.3l-0.1-4v-1.2l0.1-4v-6.3l-0.1-4l0.2-0.8
		l0.4-0.3l0.7-0.1h0.6l1.1-0.1l1.8,0.1h1.2l3.4-0.1h4.5l0.8,0.1l0.1,0.4l0.1,0.8l0.1,1.9l0.1,1.2v7.2l0.1,4v1.2l-0.1,4v1.2l0.1,4
		v1.2l-0.1,4v6.4L411.3,244.7z"/>
	<path class="st2" d="M493.4,249.3l-0.1,1.2l-0.3,4l-0.1,0.7l-0.3,0.5l-0.4,0.3l-9.6,0.3h-1.2l-3.9-0.3l-1.2,0.1l-3.8,0.3l-1.2,0.1
		h-5.1l-3.8-0.3h-1.2l-6.3,0.4l-2.5-0.1l-0.9-0.1l-0.5-0.4l-0.2-0.5l-0.1-0.8l-0.1-1.7l-0.1-1.2l0.1-1.1v-1.1l0.3-3.9v-1.2l0.1-3.9
		l-0.1-1.2l-0.2-3.9l-0.1-1.2l0.1-4v-6.2l0.3-3.9l-0.1-1.2l-0.2-3.9l-0.1-1.2v-1.8l0.1-2.2v-1.1l0.2-3.8l0.1-1l0.2-0.6l0.4-0.3
		l0.6-0.1l1-0.1l4.8,0.3l4.5-0.1h1.2l4.4,0.3h1.2l4.4-0.3h1.2l10,0.1l1.2-0.1l2.5-0.2h1.8l1,0.2l0.4,0.4l0.1,0.5l0.1,1v2l-0.1,1.8
		v1.2l0.1,1.8l0.1,1.1l-0.1,1.1l-0.1,0.9l-0.3,0.5l-0.4,0.3l-0.9,0.1h-0.6l-1.2,0.1l-6.9-0.1h-1.2l-3.7,0.1h-1.2l-3.8-0.1l-3.3-0.2
		h-1.1l-0.6,0.1l-0.7,0.1l-0.4,0.4l-0.1,0.4l-0.1,0.8l-0.1,1.8v1.2l0.1,1.2l0.1,0.8l0.1,0.5l0.3,0.4l0.8,0.2l2.3,0.1l2.3-0.1h7
		l8.2-0.4l2.3,0.1l0.8,0.1l0.4,0.4l0.2,0.4l0.1,0.8l0.1,1.2l0.1,1.2v2.4l0.1,1.7l-0.1,2.2l-0.1,0.9l-0.3,0.5l-0.5,0.4l-0.7,0.1h-1.5
		l-3.3-0.4l-1.2-0.1l-5.9,0.4l-4.7-0.1h-1.2l-2.9-0.2l-1.2,0.1l-0.9,0.1l-0.4,0.2l-0.2,0.5l-0.1,1.1l-0.2,1.8l-0.1,1.2v1.6l0.1,0.7
		l0.2,0.5l0.3,0.3l0.8,0.1l4,0.1h1.2l4-0.3l5.2,0.3h1.2l5.2-0.3h1.1l1.1,0.1l2.6,0.3l0.4,0.2l0.3,0.4l0.1,0.8L493.4,249.3z"/>
	<path class="st2" d="M545.6,239.8l-0.1,1.2l-0.1,1.2l-0.2,1.2l-0.4,1.6l-0.4,1l-0.7,1.5l-0.5,1l-0.9,1.3l-0.7,0.9l-0.9,0.9
		l-0.9,0.8l-1.5,1l-1,0.7l-1.1,0.6l-1,0.5l-1.7,0.6l-2.2,0.7l-1.2,0.2l-1.8,0.3l-1.1,0.1l-1.6,0.1l-1,0.1l-1.7,0.1l-3.5,0.2h-1.6
		l-1-0.1l-1.7-0.1l-1.1-0.1l-1.2-0.2l-1.1-0.4l-1.6-0.5l-1-0.5l-1.1-0.5l-1-0.5l-1-0.6l-2.3-1.6l-0.9-0.7l-1.3-1l-0.9-0.7l-0.8-0.8
		l-0.6-0.7l-0.1-0.5l0.4-0.7l0.3-0.4l0.7-0.8l2.1-1.9l0.7-0.8l1.2-1.9l0.7-0.8l0.7-0.8l0.8-0.4l0.8,0.1l0.8,0.6l2.3,1.6l1.1,0.6
		l1,0.5l1.7,0.8l1.1,0.4l1.2,0.4l1.2,0.2l1.7,0.1l1.2,0.1l4.6-0.3l1.2-0.1l0.6-0.1l1.1-0.4l1-0.6l0.7-0.7l0.4-0.5l0.4-1.1l-0.1-1.2
		l-0.1-0.6l-0.6-1l-0.4-0.4l-1-0.7l-0.6-0.2l-1.1-0.4l-1.2-0.3l-1.2-0.2l-7-0.7l-2.2-0.4l-1.2-0.3l-1.6-0.6l-1.1-0.4l-1.1-0.5
		l-2.5-1.2l-1-0.7l-1.1-0.7l-1-0.7l-1.2-1l-0.7-1l-0.7-1.1l-0.4-1.1l-0.5-1.5l-0.2-1.1l-0.2-1.6l-0.1-2.3l0.1-1.2l0.1-1.8l0.2-1.1
		l0.3-1l0.4-1.1l0.7-1.6l0.5-1l0.6-0.9l0.7-0.8l1.2-1.1l1-0.7l1-0.7l1-0.5l1.4-0.8l2.2-0.9l1.1-0.4l1.7-0.3l1.2-0.2l2.2-0.3l1.6-0.3
		l1.2-0.1l1.1-0.1h1.2l2.2,0.2l1.1,0.1l0.5,0.1l1.2,0.1l2.5,0.4l1.2,0.3l1.2,0.4l1.2,0.4l1.2,0.4l1.1,0.5l1.1,0.4l1.4,0.8l1,0.5
		l1,0.7l0.7,0.7v0.7l-0.4,0.8l-0.8,1.5l-0.6,0.9l-2.8,3.7l-0.8,1l-0.9,0.7l-0.6,0.2l-0.5-0.1l-0.7-0.4l-1.1-0.7l-1.1-0.4l-0.5-0.2
		l-1.1-0.4l-0.6-0.1l-1.2-0.3l-1.7-0.4l-1.2-0.1l-1.9-0.1h-1.9l-1.2,0.1l-1.2,0.2l-1.2,0.4l-0.4,0.2l-0.9,0.7l-0.4,0.4l-0.5,1
		l-0.1,1.2l0.2,1l0.6,1l0.8,0.7l0.9,0.4l0.5,0.2l1.1,0.2l1.8,0.2l2.5,0.1l1.2,0.2l2.5,0.6l2.3,0.7l1.7,0.4l1.1,0.3l2.1,0.7l1.5,0.7
		l1,0.5l1,0.6l1,0.6l2.1,1.8l0.8,0.9l0.7,0.9l0.9,1.3l0.6,1l0.5,1.1l0.3,1.1l0.3,1.6l0.1,1.1L545.6,239.8z"/>
	<path class="st2" d="M592.2,209.1l-0.1,1.1l0.1,2.2l-0.1,1.2l-0.1,0.6l-0.1,0.9l-0.2,0.5l-0.4,0.4l-0.9,0.1h-1.2l-2.2-0.2l-1.2-0.1
		l-3.4,0.2h-1.2l-1.8-0.1h-1.1l-0.5,0.1l-0.7,0.2l-0.3,0.4l-0.1,1l-0.3,4.3v1.2l0.3,4.4l-0.1,1.2l-0.3,4.4l-0.1,1.2l0.1,4.3v6.7
		l-0.1,4.3l0.1,1.1l0.4,3.3l0.1,1.2l-0.2,0.9l-0.4,0.4l-1,0.1l-1.4-0.1l-1.8-0.2l-1.2-0.1l-3.3,0.2h-1.2l-3.3-0.2l-0.9-0.1l-0.4-0.2
		l-0.1-0.8v-1.2l0.2-3.1l0.1-1.2v-5.5l0.1-4.4v-1.2l0.1-4.3V233l-0.3-4.4l-0.1-1.2v-5.6l-0.1-4.3v-1l-0.2-0.6l-0.7-0.1h-1.1
		l-2.3,0.1h-1.3l-2-0.1l-1.2-0.1l-1.2,0.1l-1.7,0.1h-1.1l-0.6-0.1l-0.8-0.1l-0.4-0.3l-0.3-0.4l-0.1-0.7v-0.5l-0.1-1.2l0.1-2.2v-1.1
		l-0.2-2.8l0.1-1.2l0.2-1l0.3-0.5l0.4-0.2l0.7-0.1h1.7l2.7,0.2h1.2l4.3-0.3h1.2l4.3,0.4h1.2l5.4-0.4l4.3,0.1h1.2l5.5-0.1h5.4
		l2.4-0.1l1.2,0.1l0.6,0.1l0.9,0.1l0.5,0.3l0.4,0.5l0.1,0.9v0.5l0.1,1.1L592.2,209.1z"/>
	<path class="st2" d="M332.7,337.6l0.1,1.2l0.3,2.3l0.1,1.1l-0.1,0.6l-0.1,0.8l-0.4,0.6l-0.4,0.4l-0.8,0.1l-1.1,0.1h-1.2l-2.9-0.2
		l-1.2-0.1h-1.8l-1.3-0.1l-2.7-0.4l-0.5-0.1l-0.3-0.4l-0.1-0.7l-0.1-1l-0.1-1.1l0.1-2.5v-6.9l-0.2-4.6v-1.2l0.3-4.5v-5.7l-0.1-0.9
		l-0.4-0.3h-0.4l-0.5,0.7l-0.7,1l-3.1,3.5l-4.5,5.4l-2.9,3.7l-0.7,0.6l-0.5,0.2h-0.6l-0.8-0.1l-0.9-0.2l-0.8-0.6l-3.7-4.4l-2.7-3.6
		l-0.7-0.9l-3.8-4.3l-1-1l-0.4,0.1l-0.1,0.8l-0.2,4.6v1.2l0.3,4.6v1.2l0.1,4.6v1.2l-0.1,4.5v1.1l0.1,2.2l-0.1,1.2l-0.1,1.2l-0.1,1
		l-0.3,0.4l-0.5,0.1l-1.9,0.2l-1.2,0.1l-2.9-0.2l-1.2,0.1l-3.5,0.3h-1.7l-0.9-0.1l-0.4-0.4l-0.1-0.5l-0.1-0.7V341l0.1-2.3v-11.3
		l-0.1-3.9v-1.2l0.1-3.9l-0.1-1.2l-0.2-4v-1.2l0.2-3.9l0.1-1.2l-0.3-3.9l0.1-1.2l0.3-3.9V297l-0.3-2.7v-1.2l0.1-1l0.3-0.5l0.4-0.4
		l0.6-0.1l1-0.1l1.2,0.1l1.6,0.4h1.2l2.3-0.2l1.2-0.1l1.1-0.1l2.8,0.1h1l0.8,0.4l0.7,0.8l2.6,2.9l0.7,1l2.1,3l0.7,1l2.4,2.9l0.7,1
		l2.3,2.9l0.7,0.8l0.7,0.4h0.7l0.7-0.4l0.7-0.7l2.2-2.9l0.7-1l2.3-2.9l0.7-1l2.6-2.9l0.7-1l1.9-2.3l0.6-0.8l0.6-0.6l0.7-0.4l1,0.1
		l3.9,0.2l3.4,0.1h1.2l2.2-0.1l1.2,0.1l0.9,0.1l0.5,0.1l0.4,0.4l0.1,0.6l-0.1,0.9l-0.3,3.3l-0.1,1.2l0.1,3.9v1.2l-0.1,3.9v1.2
		l0.1,3.9v1.2l0.3,4v1.2l-0.3,3.9v1.2l0.2,3.9v1.2l-0.3,3.9v1.2L332.7,337.6z"/>
	<path class="st2" d="M401,342.1l0.2,1l-0.5,0.8l-0.8,0.4l-1,0.1h-1l-1.7-0.1l-1.1-0.1h-3.3l-4.5,0.3l-1-0.4l-0.4-0.5l-0.4-0.8
		l-2.3-6.2l-0.5-0.7l-0.7-0.1l-0.9-0.1l-4.4-0.3h-1.2l-5.5-0.1l-4.4-0.1h-1.1l-1.1,0.1h-3.4l-1,0.1l-0.6,0.4l-0.4,0.9l-1.7,5
		l-0.4,1.2l-0.8,1l-1.1,0.4H353l-4.3-0.2h-1.2l-4.5,0.3l-1,0.1l-0.9-0.4l-0.6-0.8l0.1-1l0.1-0.6l0.4-1.2l1-2.3l0.4-1.1l1.8-4.1
		l0.4-1l1.9-4.1l0.4-1.1l1.7-4l0.4-1.1l2-4.1l0.4-1l2.6-6l2.1-4.4l0.5-1.2l1.6-3.3l0.5-1.2l1.4-3.4l0.4-1.1l1.3-3l0.4-0.8l0.7-0.4
		l1.1-0.2l3.4-0.1h5.7l3.4,0.1l1.2,0.2l0.8,0.6l0.4,1l1,2.9l0.4,1.1l1.8,3.4l0.4,1l1.6,3.6l0.4,1l1.3,3.7l0.4,1l1.6,3.5l0.4,1
		l1.6,3.6l0.4,1l1.5,3.7l0.4,1l2.3,4.5l1.8,3.4l0.5,1l2,4.6L401,342.1z M376.5,321.4l-0.3-1l-1.6-5l-0.4-1.1l-1.5-4.3l-0.4-1
		l-0.7-0.5l-1-0.2l-0.8,0.2l-0.7,0.7l-2,5l-0.4,1.1l-1.9,4.9l-0.2,1.1l0.2,0.9l0.8,0.4l1,0.1h4.6l3.4,0.2l1-0.3l0.6-0.6L376.5,321.4
		z"/>
	<path class="st2" d="M456.2,310.1l0.1,1.1l-0.1,1.1l-0.1,1.2l-0.4,1.8l-0.2,1.2l-0.6,1.5l-0.4,1l-0.7,1.4l-0.7,1l-1,1.4l-0.8,0.9
		l-1,0.9l-1,0.8l-1,0.7l-1,0.7l-1.6,0.7l-1.1,0.5l-1.2,0.5l-1.1,0.4l-1.6,0.4l-1.1,0.2l-1.1,0.1l-1.2,0.1l-1.9,0.1h-6.2l-1.2-0.1
		l-1.2,0.1l-1.2,0.1l-0.9,0.1l-0.2,0.5l-0.1,1l-0.3,4.9v1.2l0.1,2.2L424,341l-0.1,1.6l-0.1,0.8l-0.2,0.4l-0.4,0.1l-0.8,0.1l-2.3,0.1
		l-2.9-0.1H416l-2.3,0.1l-1.2-0.1l-1.7-0.1l-1-0.3l-0.4-0.4l-0.1-0.9l-0.1-1.1l-0.1-1.2v-7.8l0.3-3.9v-1.2l-0.3-3.9v-1.2l-0.1-8.9
		v-1.2l0.3-4v-1.2l-0.2-3.9V302l0.3-3.9V297l-0.1-2.2l0.1-1.1l0.1-0.6l0.1-0.8l0.2-0.4l0.4-0.4l0.8-0.1l2.1-0.1l1.7,0.1h1.1l4.9-0.1
		h4.9l4.9,0.3h4.8l2.8-0.1l1,0.1h0.6l1.1,0.2l1.7,0.4l1.2,0.4l1.2,0.4l1.1,0.5l1.1,0.7l1,0.7l1.3,1.2l0.9,0.7l0.4,0.4l1.3,1.3l0.7,1
		l0.4,0.4l0.5,0.9l0.3,0.4l0.4,1l0.4,1.1l0.3,1l0.1,0.5l0.3,1l0.1,0.6l0.3,1l0.4,2.1V310.1z M441,311.5v-1.8l-0.2-1.1l-0.2-0.6
		l-0.4-1l-0.3-0.4l-0.8-0.9l-0.6-0.4l-1.1-0.6l-1.9-0.5l-1.2-0.1h-1.7l-2.2,0.1l-3.2-0.2H426l-0.6,0.1l-0.8,0.1l-0.3,0.2l-0.2,0.5
		l-0.1,0.9v1.7l0.2,2.7l0.1,1.2l0.1,4.3l0.1,0.9l0.2,0.5l0.8,0.3l3.8,0.3l5-0.3l1.3-0.1l1.2-0.3l0.6-0.2l1-0.6l0.4-0.3l0.7-0.7
		l0.3-0.4l0.5-1l0.2-0.5l0.3-1.2L441,311.5z"/>
	<path class="st2" d="M504.4,340.8l-0.1,1.2v0.7l-0.2,0.9l-0.4,0.5l-0.5,0.2l-0.7,0.1h-0.6l-1,0.1l-8.1-0.4h-5.5l-6.6,0.4l-4.3-0.3
		h-5.4l-3.4,0.2h-1.1l-1-0.1l-0.8-0.1l-0.5-0.3l-0.4-0.4l-0.1-0.9v-1.2l0.4-2.8l0.1-1.1l-0.3-3.9v-1.2l0.1-3.9v-1.2l0.1-8.9v-1.2
		l-0.3-8.9v-1.2l-0.1-3.9V297l-0.1-2.2v-1.1l0.1-0.7l0.2-1l0.3-0.4l0.5-0.2l0.8-0.1h0.6l1.1-0.1l3.6,0.2h1.2l5.2-0.1h0.7l0.5,0.3
		l0.4,0.5v6.4l0.1,4.3v1.2l-0.2,4.3v1.2l0.1,4.3v1.2l0.2,4.3v1.2l-0.4,9.7l0.1,0.7l0.1,0.4l0.1,0.4l0.4,0.3l0.9,0.1l2.5,0.1l2.2-0.1
		h1.2l10.6-0.1l1.2-0.1l2.5-0.3l1.2-0.1h1.1l0.9,0.2l0.5,0.4l0.2,0.5l0.1,0.8l0.1,4.1l0.1,1.2L504.4,340.8z"/>
	<path class="st2" d="M554.8,337.4l-0.1,1.2l-0.3,4l-0.1,0.7l-0.3,0.5l-0.4,0.3l-9.6,0.3h-1.2L539,344l-1.2,0.1l-3.8,0.3l-1.2,0.1
		h-5.1l-3.8-0.3h-1.2l-6.3,0.4l-2.5-0.1l-0.9-0.1l-0.5-0.4l-0.2-0.5l-0.1-0.8l-0.1-1.7l-0.1-1.2l0.1-1.1v-1.1l0.3-3.9v-1.2l0.1-3.9
		l-0.1-1.2l-0.2-3.9l-0.1-1.2l0.1-4v-6.2l0.3-3.9l-0.1-1.2l-0.2-3.9l-0.1-1.2v-1.8l0.1-2.2v-1.1l0.2-3.8l0.1-1l0.2-0.6l0.4-0.3
		l0.6-0.1l1-0.1l4.8,0.3l4.5-0.1h1.2l4.4,0.3h1.2l4.4-0.3h1.2l10,0.1l1.2-0.1l2.5-0.2h1.8l1,0.2l0.4,0.4l0.1,0.5l0.1,1v2l-0.1,1.8
		v1.2l0.1,1.8l0.1,1.1l-0.1,1.1l-0.1,0.9l-0.3,0.5l-0.4,0.3l-0.9,0.1h-0.6l-1.2,0.1l-6.9-0.1h-1.2l-3.7,0.1h-1.2l-3.8-0.1l-3.3-0.2
		h-1.1l-0.6,0.1l-0.7,0.1l-0.4,0.4l-0.1,0.4l-0.1,0.8l-0.1,1.8v1.2l0.1,1.2l0.1,0.8l0.1,0.5l0.3,0.4l0.8,0.2l2.3,0.1l2.3-0.1h7
		l8.2-0.4l2.3,0.1l0.8,0.1l0.4,0.4l0.2,0.4l0.1,0.8l0.1,1.2l0.1,1.2v2.4l0.1,1.7l-0.1,2.2l-0.1,0.9l-0.3,0.5l-0.5,0.4l-0.7,0.1H549
		l-3.3-0.4l-1.2-0.1l-5.9,0.4l-4.7-0.1h-1.2l-2.9-0.2l-1.2,0.1l-0.9,0.1l-0.4,0.2l-0.2,0.5l-0.1,1.1l-0.2,1.8l-0.1,1.2v1.6l0.1,0.7
		l0.2,0.5l0.3,0.3l0.8,0.1l4,0.1h1.2l4-0.3l5.2,0.3h1.2l5.2-0.3h1.1l1.1,0.1l2.6,0.3l0.4,0.2l0.3,0.4l0.1,0.8L554.8,337.4z"/>
	<path class="st2" d="M633.7,340.8l-0.1,1.2v0.7l-0.2,0.9l-0.4,0.5l-0.5,0.2l-0.7,0.1h-0.6l-1,0.1l-8.1-0.4h-5.5l-6.6,0.4l-4.3-0.3
		h-5.4l-3.4,0.2h-1.1l-1-0.1l-0.8-0.1l-0.5-0.3l-0.4-0.4l-0.1-0.9v-1.2l0.4-2.8l0.1-1.1l-0.3-3.9v-1.2l0.1-3.9v-1.2l0.1-8.9v-1.2
		l-0.3-8.9v-1.2l-0.1-3.9V297l-0.1-2.2v-1.1l0.1-0.7l0.2-1l0.3-0.4l0.5-0.2l0.8-0.1h0.6l1.1-0.1l3.6,0.2h1.2l5.2-0.1h0.7l0.5,0.3
		l0.4,0.5v6.4l0.1,4.3v1.2l-0.2,4.3v1.2l0.1,4.3v1.2l0.2,4.3v1.2l-0.4,9.7l0.1,0.7l0.1,0.4l0.1,0.4l0.4,0.3l0.9,0.1l2.5,0.1l2.2-0.1
		h1.2l10.6-0.1l1.2-0.1l2.5-0.3l1.2-0.1h1.1l0.9,0.2l0.5,0.4l0.2,0.5l0.1,0.8l0.1,4.1l0.1,1.2L633.7,340.8z"/>
	<path class="st2" d="M684.1,337.4l-0.1,1.2l-0.3,4l-0.1,0.7l-0.3,0.5L683,344l-9.6,0.3h-1.2l-3.9-0.3l-1.2,0.1l-3.8,0.3l-1.2,0.1
		h-5.1l-3.8-0.3h-1.2l-6.3,0.4l-2.5-0.1l-0.9-0.1l-0.5-0.4l-0.2-0.5l-0.1-0.8l-0.1-1.7l-0.1-1.2l0.1-1.1v-1.1l0.3-3.9v-1.2l0.1-3.9
		l-0.1-1.2l-0.2-3.9l-0.1-1.2l0.1-4v-6.2l0.3-3.9l-0.1-1.2l-0.2-3.9l-0.1-1.2v-1.8l0.1-2.2v-1.1l0.2-3.8l0.1-1l0.2-0.6l0.4-0.3
		l0.6-0.1l1-0.1l4.8,0.3l4.5-0.1h1.2l4.4,0.3h1.2l4.4-0.3h1.2l10,0.1l1.2-0.1l2.5-0.2h1.8l1,0.2l0.4,0.4l0.1,0.5l0.1,1v2l-0.1,1.8
		v1.2l0.1,1.8l0.1,1.1l-0.1,1.1l-0.1,0.9l-0.3,0.5l-0.4,0.3l-0.9,0.1h-0.6l-1.2,0.1l-6.9-0.1h-1.2l-3.7,0.1h-1.2l-3.8-0.1l-3.3-0.2
		h-1.1l-0.6,0.1l-0.7,0.1l-0.4,0.4l-0.1,0.4l-0.1,0.8l-0.1,1.8v1.2l0.1,1.2l0.1,0.8l0.1,0.5l0.3,0.4l0.8,0.2l2.3,0.1l2.3-0.1h7
		l8.2-0.4l2.3,0.1l0.8,0.1l0.4,0.4l0.2,0.4l0.1,0.8l0.1,1.2l0.1,1.2v2.4l0.1,1.7l-0.1,2.2l-0.1,0.9l-0.3,0.5l-0.5,0.4l-0.7,0.1h-1.5
		l-3.3-0.4l-1.2-0.1l-5.9,0.4l-4.7-0.1h-1.2l-2.9-0.2l-1.2,0.1l-0.9,0.1l-0.4,0.2l-0.2,0.5l-0.1,1.1l-0.2,1.8l-0.1,1.2v1.6l0.1,0.7
		l0.2,0.5l0.3,0.3l0.8,0.1l4,0.1h1.2l4-0.3l5.2,0.3h1.2l5.2-0.3h1.1l1.1,0.1l2.6,0.3l0.4,0.2l0.3,0.4l0.1,0.8L684.1,337.4z"/>
	<path class="st2" d="M750.3,342.1l0.2,1L750,344l-0.8,0.4l-1,0.1h-1l-1.7-0.1l-1.1-0.1h-3.3l-4.5,0.3l-1-0.4l-0.4-0.5l-0.4-0.8
		l-2.3-6.2L732,336l-0.7-0.1l-0.9-0.1l-4.4-0.3h-1.2l-5.5-0.1l-4.4-0.1h-1.1l-1.1,0.1h-3.4l-1,0.1l-0.6,0.4l-0.4,0.9l-1.7,5
		l-0.4,1.2l-0.8,1l-1.1,0.4h-1.2L698,344h-1.2l-4.5,0.3l-1,0.1l-0.9-0.4l-0.6-0.8l0.1-1l0.1-0.6l0.4-1.2l1-2.3l0.4-1.1l1.8-4.1
		l0.4-1l1.9-4.1l0.4-1.1l1.7-4l0.4-1.1l2-4.1l0.4-1l2.6-6l2.1-4.4l0.5-1.2l1.6-3.3l0.5-1.2l1.4-3.4l0.4-1.1l1.3-3l0.4-0.8l0.7-0.4
		l1.1-0.2l3.4-0.1h5.7l3.4,0.1l1.2,0.2l0.8,0.6l0.4,1l1,2.9l0.4,1.1l1.8,3.4l0.4,1l1.6,3.6l0.4,1l1.3,3.7l0.4,1l1.6,3.5l0.4,1
		l1.6,3.6l0.4,1l1.5,3.7l0.4,1l2.3,4.5l1.8,3.4l0.5,1l2,4.6L750.3,342.1z M725.8,321.4l-0.3-1l-1.6-5l-0.4-1.1l-1.5-4.3l-0.4-1
		l-0.7-0.5l-1-0.2l-0.8,0.2l-0.7,0.7l-2,5l-0.4,1.1l-1.9,4.9l-0.2,1.1l0.2,0.9l0.8,0.4l1,0.1h4.6l3.4,0.2l1-0.3l0.6-0.6L725.8,321.4
		z"/>
	<path class="st2" d="M799,299.9l0.1,1.2l-0.1,1.1l-0.1,0.8l-0.2,0.5l-0.4,0.4l-0.8,0.2h-1.5l-2.2-0.3l-1.2-0.1h-4.8l-8.4,0.3
		l-3.3-0.2h-1.6l-0.7,0.2l-0.3,0.5l-0.1,1l-0.1,6.5l0.1,0.8l0.1,0.4l0.4,0.3l0.9,0.2h1.9l2.5-0.2l1.2-0.1l4.4,0.1h5.6l1.1-0.1
		l2.8-0.2h1.8l0.8,0.1l0.4,0.4l0.3,0.6l0.1,0.9l0.1,0.6l0.1,1.1l-0.1,2.2v1.1l0.1,1.7l-0.1,1.1l-0.1,1.2l-0.1,0.9l-0.2,0.6l-0.4,0.3
		l-0.9,0.2h-1.8l-2.7-0.4l-1.2-0.1l-4.4,0.1h-1.2l-7.9-0.1l-1.1,0.1l-1,0.1l-0.7,0.2l-0.3,0.4v1l-0.1,4.2v1.2l-0.3,4.1v1.2l0.1,1.6
		l-0.1,1.2l-0.1,1.2l-0.1,0.9l-0.2,0.4l-0.4,0.2l-0.8,0.1l-1.2,0.1l-1.2,0.1l-2.7-0.1h-1.2l-3,0.2l-2.2-0.1l-0.8-0.1l-0.4-0.3
		l-0.1-0.5l-0.1-0.8l-0.2-3.9l-0.1-1.2l-0.1-3.9l0.1-1.2l0.3-3.9l0.1-1.2l-0.2-3.9v-1.2l-0.2-4v-1.2l0.1-3.9v-6.2l0.1-3.9v-6.2
		l0.1-3.9l0.1-0.9l0.1-0.5l0.4-0.2l0.7-0.1h1.6l2.8,0.2h1.2l4.3-0.2h1.2l4.3,0.2h1.2l4.3-0.2l1.2-0.1l4.3,0.2h1.2l4.3-0.2h1.2
		l1.8,0.1l1.2,0.1l1.2,0.1l0.8,0.1l0.4,0.2l0.3,0.4l0.1,0.8l0.1,0.7v1.1l-0.1,2.2v1.2L799,299.9z"/>
	<path class="st2" d="M847.6,307.8l-0.1,1.2l-0.3,1.2l-0.4,1.1l-0.6,1l-0.7,1l-0.9,0.9l-0.9,0.8l-1,0.8l-1,0.7l-3.2,2.3l-1,0.7
		l-1,0.9l-1.6,1.8l-0.7,1l-0.6,1.2l-0.5,2.1l-0.2,0.3l-0.2,0.1l-0.4,0.1l-0.8,0.1l-0.7,0.1l-2.4,0.1h-3.4l-0.6,0.1l-2.6,0.1
		l-1.2-0.1l-0.7-0.1l-0.9-0.1l-0.4-0.2l-0.2-0.3l-0.1-0.4l0.1-0.8v-0.5l0.1-1.1l0.1-0.5l0.3-1.2l0.4-1.3l0.4-1.1l0.3-0.5l0.5-1
		l0.2-0.4l0.8-1l1-1l0.9-0.8l0.4-0.4l0.9-0.6l0.4-0.2l0.9-0.5l0.4-0.2l1.1-0.6l1.2-0.7l0.5-0.4l1-0.7l0.4-0.4l0.7-1l0.5-1.2l0.1-1.1
		l-0.2-1l-0.5-1l-0.7-0.9l-0.8-0.7l-0.8-0.4l-1-0.4l-1.2-0.2h-1.2l-1.1,0.2l-1,0.4l-1,0.4l-0.9,0.6l-0.7,0.7l-0.6,0.8l-0.4,1.1
		l-0.2,0.7l-0.2,0.4l-0.3,0.2l-0.4,0.1l-0.8,0.1l-0.5,0.1l-1.2,0.1h-4.7l-3.4-0.2l-1.1-0.2l-0.7-0.1l-0.2-0.1l-0.2-0.3l-0.1-0.7
		v-0.6l0.1-1v-0.4l0.2-1.2l0.3-1.4l0.4-1.1l0.1-0.5l0.4-0.9l0.2-0.5l0.6-1.1l0.9-1.2l1-1l0.9-0.7l0.4-0.3l0.8-0.5l0.4-0.3l0.9-0.4
		l0.5-0.2l2.2-1l0.5-0.1l1.2-0.4l1.2-0.4l0.4-0.1l1-0.2l0.4-0.1l1.1-0.1l1.8-0.1l1.1-0.1h1.7l2.6,0.3l3.9,0.5l1.2,0.2l1.2,0.3
		l1.2,0.4l1.2,0.5l1.2,0.6l2.2,1.3l1,0.7l1,0.8l1,0.9l0.7,1l0.6,1.2l0.5,1.2l0.7,2.5l0.2,1.2l0.1,1.3V307.8z M834.1,338.2l-0.2,1.2
		l-0.4,1.2l-0.6,1.1l-0.7,1l-1,0.9l-1,0.6l-1.1,0.5l-1.2,0.3l-1.3,0.1l-1.4-0.1l-1.3-0.1l-1.2-0.4l-1.1-0.5l-1-0.6l-0.9-0.8l-0.7-1
		l-0.6-1.1l-0.4-1.2l-0.2-1.2V337l0.2-1.2l0.4-1.2l0.6-1l0.7-1l1-0.7l1-0.7l1.1-0.4l1.1-0.3l1.3-0.2h1.4l1.3,0.1l1.2,0.3l1.1,0.4
		l1,0.7l1,0.8l0.8,1l0.6,1l0.4,1.2l0.2,1.2L834.1,338.2z"/>
</g>
<g>
	<path class="st2" d="M242.9,306.1c-0.6-0.1-1.1,0.1-1.4,0.7c-1,2.7-2,5.4-3.1,7.8c-0.3,0.6,0,1.1,0.6,1.4c0.1,0,0.3,0.1,0.4,0.1
		c0.4,0,0.8-0.3,1-0.6c1.1-2.5,2.3-5.4,3.1-8.1C243.8,306.9,243.5,306.2,242.9,306.1z"/>
	<path class="st2" d="M242.5,275.1c0.1,0,0.3,0,0.4,0c0.6-0.1,0.8-0.8,0.6-1.4l-24.6-64.3c-0.1-0.6-0.8-0.8-1.4-0.6
		c-0.6,0.1-0.8,0.8-0.6,1.4l24.6,64.3C241.7,275,242.1,275.1,242.5,275.1z"/>
	<path class="st2" d="M155.3,229.3c-0.3-0.7-1.1-1-1.8-0.7c-9.2,4.1-18.4,7.6-27.3,10.3c-0.4,0.1-0.7,0.4-0.8,0.8s-0.1,0.8,0,1.1
		l5.4,10.6c0.3,0.4,0.7,0.7,1.3,0.7c0.1,0,0.3,0,0.3,0c9.3-2.4,18.6-5.8,27.7-10.5c0.7-0.3,1-1.3,0.6-1.8L155.3,229.3z M132.7,249.3
		l-4.1-8.1c8.1-2.5,16.4-5.7,24.7-9.3l4.1,8.2C149.4,244,141.2,247.1,132.7,249.3z"/>
	<path class="st2" d="M235.3,192.5c-0.3-0.7-1.1-1.1-1.8-0.8l-3.2,1.3c-0.7,0.3-1.1,1.1-0.8,1.8c0.3,0.6,0.7,0.8,1.3,0.8
		c0.1,0,0.3,0,0.6-0.1l3.2-1.3C235.3,194,235.6,193.2,235.3,192.5z"/>
	<path class="st2" d="M233.5,187.1c-0.3-0.7-1.1-1-1.8-0.7l-3.4,1.4c-0.7,0.3-1.1,1.1-0.7,1.8c0.3,0.6,0.7,0.8,1.3,0.8
		c0.1,0,0.4,0,0.6-0.1l3.4-1.4C233.5,188.7,233.8,187.8,233.5,187.1z"/>
	<path class="st2" d="M239.8,233c2.8,9.6,5.7,19.6,7.9,27.1c0.1,0.4,0.6,0.7,1,0.7c0.1,0,0.1,0,0.3,0c0.6-0.1,0.8-0.7,0.7-1.3
		c-2.3-7.5-5.1-17.5-7.9-27.1c-2.7-9.5-5.2-18.2-7.1-24c-0.1-0.6-0.7-0.8-1.3-0.7c-0.6,0.1-0.8,0.7-0.7,1.3
		C234.5,214.8,237,223.7,239.8,233z"/>
	<path class="st2" d="M249.3,265.1c0,0.3,0.1,0.6,0.1,0.7c0.1,0.4,0.6,0.8,1,0.8c0.6,0,1.1-0.4,1.1-1.1c0-0.3-0.1-0.6-0.1-0.7
		c-0.1-0.4-0.6-0.8-1-0.8C249.7,264.1,249.3,264.5,249.3,265.1z"/>
	<path class="st2" d="M190.5,247.3l-1.3-2.3c-0.3-0.6-1-0.7-1.4-0.4c-0.6,0.3-0.7,1-0.4,1.4l1.3,2.3c0.1,0.3,0.6,0.6,1,0.6
		c0.1,0,0.4,0,0.6-0.1C190.5,248.6,190.8,247.8,190.5,247.3z"/>
	<path class="st2" d="M192.4,251.2c-0.3-0.6-0.8-0.7-1.4-0.4s-0.7,0.8-0.4,1.4l6.5,12.7c0.1,0.4,0.6,0.6,1,0.6c0.1,0,0.3,0,0.4-0.1
		c0.6-0.3,0.7-0.8,0.4-1.4L192.4,251.2z"/>
	<path class="st2" d="M201.8,270c-0.3-0.6-0.8-0.7-1.4-0.4c-0.6,0.3-0.7,0.8-0.4,1.4l0.1,0.3c0.1,0.4,0.6,0.6,1,0.6
		c0.1,0,0.3,0,0.4-0.1c0.6-0.3,0.7-0.8,0.4-1.4L201.8,270z"/>
	<path class="st2" d="M72.4,329.1l-18.2,18.1c-0.4,0.4-0.4,1.1,0,1.6c0.3,0.3,0.6,0.3,0.8,0.3c0.3,0,0.6-0.1,0.8-0.3l18.2-17.9
		c0.4-0.4,0.4-1.1,0-1.6C73.7,328.8,73,328.7,72.4,329.1z"/>
	<path class="st2" d="M39.1,353.5c0.1,0.1,0.3,0.1,0.6,0.1c0.4,0,0.8-0.3,1-0.6l26.8-52.7c0.3-0.6,0-1.3-0.4-1.6
		c-0.6-0.3-1.3,0-1.6,0.4L38.7,352C38.4,352.5,38.5,353.2,39.1,353.5z"/>
	<path class="st2" d="M35.3,348.3L35.3,348.3c0.7,0,1.1-0.4,1.1-1.1l2.7-44.4c0-0.6-0.4-1.1-1.1-1.1c-0.6,0-1.1,0.4-1.1,1.1
		l-2.7,44.4C34.1,347.7,34.6,348.3,35.3,348.3z"/>
	<path class="st2" d="M27.9,347.2L27.9,347.2c0.7,0,1.1-0.6,1.1-1.3l-3-34.9c0-0.6-0.6-1.1-1.3-1c-0.6,0-1.1,0.6-1,1.3l3,34.9
		C26.8,346.7,27.4,347.2,27.9,347.2z"/>
	<path class="st2" d="M30.5,305.8L30.5,305.8c0.7,0,1.1-0.6,1.1-1.1L30.9,271c0-0.6-0.6-1.1-1.1-1.1l0,0c-0.6,0-1.1,0.6-1.1,1.1
		l0.7,33.6C29.3,305.3,29.9,305.8,30.5,305.8z"/>
	<path class="st2" d="M50.7,308.5c0.1,0,0.1,0,0.3,0c0.6,0,1-0.4,1.1-0.8l5.1-26c0.1-0.6-0.3-1.3-0.8-1.3c-0.6-0.1-1.3,0.3-1.3,0.8
		l-5.1,26C49.7,307.7,50.1,308.3,50.7,308.5z"/>
	<path class="st2" d="M73.3,318.8c0.3,0,0.7-0.1,0.8-0.4l6.4-7.6c0.4-0.4,0.3-1.1-0.1-1.6c-0.4-0.4-1.1-0.3-1.6,0.1l-6.4,7.6
		c-0.4,0.4-0.3,1.1,0.1,1.6C72.7,318.6,73,318.8,73.3,318.8z"/>
	<path class="st2" d="M61.4,369.6l32.4-4.1c0.6-0.1,1-0.7,1-1.3s-0.7-1-1.3-1l-32.4,4.1c-0.6,0.1-1,0.7-1,1.3c0.1,0.6,0.6,1,1.1,1
		H61.4z"/>
	<path class="st2" d="M55.6,387.3c0.1,0,0.3,0.1,0.4,0.1c0.4,0,0.8-0.3,1-0.7c0.3-0.6,0-1.3-0.6-1.6l-5.5-2.5
		c-0.6-0.3-1.3,0-1.6,0.6c-0.3,0.6,0,1.3,0.6,1.6L55.6,387.3z"/>
	<path class="st2" d="M50.9,393.5c-0.4-0.4-1.1-0.4-1.6,0c-0.4,0.4-0.4,1.1,0,1.6l7.8,7.8c0.3,0.3,0.6,0.3,0.8,0.3
		c0.3,0,0.6-0.1,0.8-0.3c0.4-0.4,0.4-1.1,0-1.6L50.9,393.5z"/>
	<path class="st2" d="M36.5,408.3c-0.6,0-1.1,0.6-1.1,1.1v6.1c0,0.6,0.6,1.1,1.1,1.1s1.1-0.6,1.1-1.1v-6.1
		C37.7,408.9,37.1,408.3,36.5,408.3z"/>
	<path class="st2" d="M70.6,412.1c-0.1-0.6-0.8-1-1.4-0.7c-0.6,0.1-0.8,0.8-0.7,1.4l1,3c0.1,0.4,0.6,0.7,1.1,0.7c0.1,0,0.3,0,0.4,0
		c0.6-0.1,0.8-0.8,0.7-1.4L70.6,412.1z"/>
	<path class="st2" d="M82.2,393.8c-0.4-0.4-1.1-0.3-1.6,0.1c-0.4,0.4-0.3,1.1,0.1,1.6l4.5,3.7c0.1,0.1,0.4,0.3,0.7,0.3
		s0.7-0.1,0.8-0.4c0.4-0.4,0.3-1.1-0.1-1.6L82.2,393.8z"/>
	<path class="st2" d="M99.5,378.8l-7.2-0.7c-0.6,0-1.1,0.4-1.3,1c0,0.6,0.4,1.1,1,1.3l7.2,0.7h0.1c0.6,0,1.1-0.4,1.1-1
		C100.5,379.4,100.1,378.8,99.5,378.8z"/>
	<path class="st2" d="M74,378.5l-26.1-4.1c-0.6-0.1-1.1,0.3-1.3,1c-0.1,0.6,0.3,1.1,1,1.3l26.1,4.1h0.1c0.6,0,1-0.4,1.1-1
		S74.7,378.7,74,378.5z"/>
	<path class="st2" d="M19.9,383.9c-0.6-0.1-1.1,0.3-1.3,1l-1.8,10.6c-0.1,0.6,0.3,1.1,1,1.3h0.1c0.6,0,1-0.4,1.1-1l1.8-10.6
		C21,384.6,20.6,384,19.9,383.9z"/>
	<path class="st2" d="M31.3,380.5c-0.6-0.1-1.1,0.4-1.3,1l-4.8,44.1c0,0.6,0.4,1.1,1,1.3h0.1c0.6,0,1-0.4,1.1-1l4.8-44.1
		C32.3,381.1,31.9,380.6,31.3,380.5z"/>
	<path class="st2" d="M52.8,406.6c-0.1-0.6-0.7-1-1.4-0.8c-0.6,0.1-1,0.7-0.8,1.4l1.4,5.7c0.1,0.6,0.6,0.8,1.1,0.8
		c0.1,0,0.1,0,0.3,0c0.6-0.1,1-0.7,0.8-1.4L52.8,406.6z"/>
	<path class="st2" d="M292.9,367.2c-0.7-0.1-6.2-1.1-12.6-2.1c-8.3-1.4-18.1-3.1-20.2-3.5c-3.4-0.6-14.6-7.1-18.1-9.2l-1-0.6
		c-0.4-0.3-1-0.6-1.6-1c-1.8-1.1-4.2-2.7-7.2-4c3.5-3.7,6.5-7.9,9-13.1c7.5-14.8,16-35.5,17.2-40.5l0.1-0.6
		c1.3-5.2,3.5-15.1-1.6-31.1c-2.3-7.3-5.7-19.2-9-30.8c-4.1-14-7.9-27.1-9.3-31.4c0-0.1-0.1-0.3-0.3-0.4l3.1-1.3c0.1,0,0.3,0,0.4,0
		c3.5-1.3,0.7-9.7,0.1-11.4c-0.6-1.7-3.7-10-7.3-8.8c-0.1,0-0.1,0.1-0.3,0.1l-4.1,1.6c-1-1.7-2.5-3.5-4.8-5.4
		c-0.1-0.1-0.3-0.4-0.4-0.6c-0.1-0.1-0.4-0.3-0.6-0.3c-2.3-1.7-4.9-3.1-7.8-4.1c-0.1,0-0.3-0.1-0.4-0.1c-0.3-0.1-0.6-0.3-0.8-0.3
		c-8.8-2.4-36-7.5-46.9-6.2c-11.4,1.3-15.1,2.5-19.8,4.4c-4.7,2.1-34.6,15.5-38.9,17.7c-4.2,2.1-7.5,4.9-11.4,13
		c-3,6.2-6.5,16.4-6.5,29.7c0,11.2,8.6,28.3,10.2,31.5l-1.1,4.9c0,0.1,0,0.4,0,0.6c0,0.3,0,0.4,0.1,0.7l2.8,5.7
		c0.3,0.4,0.7,0.8,1.3,0.8c0.1,0,0.3,0,0.6-0.1l2.3-0.8l-1.4,2.7l0,0l0,0v0.1c0,0.1,0,0.3,0,0.3c0,0.1,0,0.1,0,0.3
		c0,0.1,0,0.3,0.1,0.3c0,0,0,0,0,0.1l17.7,35.2c0.3,0.4,0.7,0.8,1.3,0.8c0.1,0,0.3,0,0.4-0.1l2.8-1c0.1,0.1,0.3,0.6,0.8,1.7
		c0.3,0.6,0.7,0.8,1.3,0.8c0.1,0,0.4,0,0.6-0.1c0.7-0.3,1-1.1,0.7-1.8c-0.3-0.7-0.6-1.1-0.7-1.6l26.6-9l0.3,0.4l-40.7,21.6
		c-0.4-0.1-1-0.1-1.6,0.1L29,367.5c-1,0.6-1.3,1.7-0.8,2.7c0.4,0.7,1,1,1.7,1c0.3,0,0.6-0.1,1-0.3l87.4-46.5c0.4-0.3,0.7-0.7,1-1.1
		l40.8-21.6l16.8,29.2c0.8,1.7,2.3,3.1,3.8,4c-0.1,0.4-0.1,0.7,0.1,1.1l7.2,12.6c-5.8,1.1-10.3,1.7-11.4,1.7c-0.6,0-1.1,0.4-1.1,1
		s0.4,1.1,1,1.1c0.1,0,0.3,0,0.4,0c2.3,0,7.6-0.8,12.3-1.8l2,3.4c-3.8,1.8-6.9,3.7-8.3,5.2c0,0,0,0,0,0.1
		c-7.5-1.7-14.7-5.2-23.5-11.3c-8.2-5.8-16.2-19.4-22.5-30.5c-0.4-0.7-1.3-1-2-0.6s-1,1.3-0.6,2c6.4,11.4,14.7,25.3,23.3,31.4
		c5.4,3.8,13.6,9,23.3,11.4c-1.6,2.7-1.8,6.1-0.7,8.9c1.4,3.7,4.5,6.1,8.2,6.8c-2.4,2.8-3.2,6.8-2,10.6c1.7,4.4,5.7,6.9,10,6.9
		c0.6,0,1,0,1.6-0.1c-0.1,0.3-0.3,0.4-0.3,0.7c-1,2.7-1,5.5,0.1,8.2c1.7,4,5.7,6.4,9.7,6.4c1.4,0,2.8-0.3,4.2-0.8l0,0l0,0
		c0.1-0.1,0.3-0.1,0.6-0.3c0,0.1-0.1,0.1-0.1,0.3c-0.8,2.7-0.6,5.7,0.7,8.1c2,3.7,5.7,5.8,9.5,5.8c1.7,0,3.2-0.4,4.8-1.3l0,0l0,0
		c8.1-4.7,15.5-10.5,22.2-17.2c0.6-0.6,0.6-1.4,0-2s-1.4-0.6-2,0c-6.5,6.6-13.7,12.1-21.6,16.7c-3.8,2-8.5,0.4-10.5-3.4
		c-1-1.8-1.1-4-0.6-5.9c0.7-2,2-3.7,4-4.7c0.1,0,0.1-0.1,0.3-0.1c5.5-3.2,10.7-7.1,16.1-11.7c0.6-0.6,0.7-1.4,0.1-2s-1.4-0.7-2-0.1
		c-7.5,6.5-14.8,11.4-22.7,15.1c-4,1.7-8.6-0.1-10.3-4.1c-0.8-2-0.8-4.1-0.1-6.1c0.6-1.4,1.6-2.7,2.7-3.5c7.2-3.1,14.1-7.5,21.3-13
		c0.6-0.4,0.7-1.4,0.3-2c-0.4-0.6-1.4-0.7-2-0.3c-6.4,4.9-12.6,8.8-18.8,11.7c-0.1,0-0.3,0-0.4,0.1c-0.6,0.3-1.1,0.6-1.6,0.8
		c-0.8,0.4-1.7,0.7-2.5,1.1c-4.1,1.4-8.5-0.6-10-4.7c-1.4-4,0.6-8.2,4.4-9.9c0.1,0,0.3-0.1,0.4-0.1l0,0l0,0
		c8.2-3.2,16.1-7.9,24.2-14.1c0.6-0.4,0.7-1.4,0.3-2s-1.4-0.7-2-0.3c-7.9,6.1-15.5,10.6-23.5,13.7c-0.1,0-0.1,0-0.3,0
		c-0.1,0-0.1,0.1-0.3,0.1c-4,1.1-8.2-0.8-9.6-4.8c-1-2.8-0.3-6.1,1.8-8.3c0.1-0.1,0.1-0.3,0.3-0.4c4.4-4.5,27.4-13,36.6-13.4
		c7.5-0.3,13,3.2,16.2,5.4c0.7,0.4,1.3,0.8,1.7,1.1l1,0.6c7.1,4.1,15.7,8.9,19.1,9.5c2.3,0.4,12,2.1,20.3,3.5
		c6.4,1.1,11.9,2,12.4,2.1c0.1,0,0.1,0,0.3,0c0.7,0,1.3-0.4,1.4-1.1C294.2,368.1,293.7,367.4,292.9,367.2z M231.9,198.7
		c-0.7-0.4-2.5-2.5-4-6.9c-1.4-4.4-1.6-7.2-1.3-7.9c0.1,0,0.3-0.1,0.3-0.3l5.8-2.3c0,0.3,0,0.6,0,0.8c0.1,2,0.7,4.4,1.6,6.8
		c0.4,1.1,1.8,4.8,3.7,7.2L231.9,198.7z M239.4,187.2c1.3,3.5,1.6,6.2,1.4,7.5c-0.8-0.8-2.3-3.1-3.5-6.6c-1.3-3.5-1.6-6.2-1.4-7.5
		C236.6,181.4,238.1,183.7,239.4,187.2z M220.1,177.8l-5.2-4.5l1.3-1.6c2.3,0.7,4.4,1.8,6.1,3.1L220.1,177.8z M173.6,231.6
		c1.8-0.7,3.5-1.6,5.4-2.5l-3.4,6.5l-3.1,1.1L173.6,231.6z M185.9,229.8c0.4,0.7,0.4,1.3,0.4,1.6c-0.3-0.1-0.7-0.6-1-1.3
		c-0.3-0.7-0.4-1.3-0.4-1.6l0,0C185.2,228.6,185.6,229.1,185.9,229.8z M179.8,239.9l-1.7-3.2l4.4-8.3c0,0.8,0.1,1.8,0.7,2.7
		c0.4,0.8,1,1.7,1.7,2.1c0.4,0.3,0.8,0.4,1.1,0.6l0.1,0.3L179.8,239.9z M172.7,239.5l3.1-1.1l1.6,3l-3.2,1.3l-1.4-2.8
		C172.7,239.8,172.7,239.7,172.7,239.5z M170.5,241.8l1.7,3.2c0.3,0.4,0.7,0.8,1.3,0.8c0.1,0,0.3,0,0.6-0.1l5.9-2.3
		c0.1,0,0.3-0.1,0.4-0.3l3-2.7l-3.4,6.8L111,271l1.3-2.5c0,0,0.1,0,0.1-0.1l8.6-7.9c0,0,0-0.1,0.1-0.1c0-0.1,0.1-0.1,0.1-0.3
		c0-0.1,0.1-0.1,0.1-0.3v-0.1C138.4,257.6,158.3,249.4,170.5,241.8z M118.2,259.1l-6.4,5.9l-1.7-3.2l4.5-8.5L118.2,259.1z
		 M107.6,260.7l-3.1,1.1l0.7-3c0-0.1,0-0.1,0-0.3l0.4-1.7c1.8-0.7,3.5-1.6,5.4-2.5L107.6,260.7z M104.6,264.8l3.2-1.1l1.6,3
		l-3.2,1.3L104.6,264.8z M126.5,306.9l-16.4-32.6l69.9-24l16.4,32.6l-17,5.8l-1-1.7l13.3-4.7c0.4-0.1,0.7-0.4,0.8-0.8
		c0.1-0.4,0.1-0.8,0-1.1l-13.4-26.7c-0.3-0.6-1-1-1.7-0.7l-62.7,21.8c-0.4,0.1-0.7,0.4-0.8,0.8s-0.1,0.8,0,1.1l13.4,26.8
		c0.3,0.4,0.7,0.8,1.3,0.8c0.1,0,0.3,0,0.4-0.1l26.8-9.2l1,1.6L126.5,306.9z M146.3,288.2l2.4-11c0.1-0.6,0.7-1,1.3-0.8
		c0.7,0.1,1,0.7,0.8,1.3l-2.4,11c-0.1,0.6-0.6,0.8-1,0.8c-0.1,0-0.1,0-0.3,0C146.6,289.4,146.2,288.8,146.3,288.2z M141.5,294.9
		c-0.1,0.6-0.6,0.8-1,0.8c-0.1,0-0.1,0-0.3,0c-0.6-0.1-1-0.7-0.8-1.3l5.8-26.1c0.1-0.6,0.7-1,1.3-0.8c0.6,0.1,1,0.7,0.8,1.3
		L141.5,294.9z M150.7,274.7c-0.1,0-0.1,0-0.3,0c-0.6-0.1-1-0.7-0.8-1.3l0.3-1c0.1-0.6,0.7-1,1.3-0.8c0.7,0,1,0.7,0.8,1.3l-0.3,1
		C151.5,274.3,151.1,274.7,150.7,274.7z M179.4,329.8l-21.5-37.3c-1.1-2-1.4-4.2-0.8-6.4s2-3.8,3.8-4.8l1.3-0.7
		c1.3-0.7,2.7-1.1,4.2-1.1c0.7,0,1.6,0.1,2.3,0.3c2.1,0.6,3.8,2,4.8,3.8l22.7,39.4c0.7,1.3,1,2.8,0.6,4.2c-0.4,1.6-1.4,2.8-2.7,3.5
		l0,0l-3.4,2c-2,1.1-4.2,1.4-6.4,0.8C182,333,180.4,331.6,179.4,329.8z M193.8,353l-9.5-16.4c0.7,0.1,1.4,0.3,2.1,0.3
		c2,0,3.8-0.6,5.7-1.6l3.4-2c1.6-0.8,2.8-2.3,3.5-4l10.5,18.1C204.2,349,198.6,351,193.8,353C193.8,353.1,193.8,353,193.8,353z
		 M221.5,345c-2.3,0.1-5.5,0.7-9.2,1.7l-1.1-1.8c11.2-4.5,20.1-12.7,26.6-24.2c0.3-0.6,0.1-1.1-0.4-1.4c-0.6-0.3-1.1-0.1-1.4,0.4
		c-6.2,11.2-14.8,18.9-25.7,23.3l-10.3-17.7l-0.1-0.1c-0.1-1.3-0.4-2.4-1.1-3.5l-17.5-30.5l17.9-6.1l0,0c0.1,0,0.3-0.1,0.4-0.3
		l7.9-7.2c0.6-0.6,0.6-1.4,0.1-2c-0.6-0.6-1.4-0.6-2-0.1l-6.5,5.9l-16.5-32.9l5.7-11.2l17.5,35.5c0.3,0.6,0.7,0.8,1.3,0.8
		c0.1,0,0.4,0,0.6-0.1c0.7-0.3,1-1.1,0.6-1.8l-18.8-38l0,0l0,0l-0.7-1.3c0.4-1,0.3-2.4-0.4-3.7c-0.7-1.4-1.8-2.4-3-2.7l-1.7-1.7
		h-0.1l-0.1-0.1l0,0l0,0H183h-0.1h-0.1h-0.1h-0.1h-0.1c0,0-0.1,0-0.1,0.1H182c-3.4,2.1-6.6,3.8-9.9,5.1c0,0-0.1,0-0.1,0.1
		c-0.1,0-0.1,0.1-0.3,0.1l-0.1,0.1c0,0-0.1,0.1-0.1,0.3c0,0.1-0.1,0.1-0.1,0.3v0.1l-1.7,7.9c0,0.1,0,0.3,0,0.6c0,0.1,0,0.4,0.1,0.6
		c-12.1,7.6-32.2,15.8-49,17.8l-4.4-7.2l0,0l0,0l0,0c0-0.1-0.1-0.1-0.1-0.1l-0.1-0.1c0,0,0,0-0.1,0l0,0h-0.1c0,0-0.1,0-0.1-0.1
		c0,0,0,0-0.1,0s-0.1,0-0.3,0h-0.1c0,0,0,0-0.1,0s-0.1,0-0.3,0.1h-0.1l0,0l0,0c-3.4,2.1-6.6,3.8-9.9,5.1c0,0,0,0-0.1,0
		s-0.1,0-0.1,0.1c-2.8-5.9-8.6-19.1-8.6-27.7c0-12.9,3.4-22.6,6.2-28.5c3.5-7.2,6.4-9.7,10-11.6c4.2-2.1,34.2-15.4,38.7-17.4
		c4.4-1.7,7.6-2.8,18.9-4.1c9.6-1.1,34,3.2,44.1,5.7l-1.3,1.6c0,0.1-0.1,0.1-0.1,0.3c0,0.1-0.1,0.1-0.1,0.1c0,0.1,0,0.1,0,0.3
		c0,0.1,0,0.1,0,0.3s0,0.1,0,0.3c0,0.1,0,0.1,0.1,0.3c0,0.1,0.1,0.1,0.1,0.1c0,0.1,0.1,0.1,0.1,0.3l7.3,6.4l0,0l0,0
		c0.1,0,0.1,0.1,0.3,0.1c0,0,0.1,0,0.1,0.1c0.1,0,0.3,0.1,0.4,0.1l0,0l0,0c0.1,0,0.4,0,0.6-0.1l0.1-0.1c0.1,0,0.3-0.1,0.3-0.3l0,0
		l0,0l3.1-4.1c1.4,1.3,2.5,2.5,3.2,3.7l-2,0.8c-0.3,0.1-0.4,0.3-0.6,0.4c-0.3,0.1-0.6,0.4-0.7,0.8c-1.3,2.5,0.4,8.5,1,10.2
		c1,3.2,3.7,8.9,6.6,8.9c0.3,0,0.4,0,0.7-0.1l0,0l0,0l3.1-1.3c0,0.1,0,0.1,0,0.3c1.4,4.2,5.2,17.4,9.3,31.4
		c3.4,11.6,6.8,23.5,9,30.8c4.8,15.3,2.7,24.6,1.6,29.5h-0.6c-1,4.5-9,24.3-17,40c-2.7,5.4-5.8,9.7-9.6,13.4
		C226.8,345.3,224.3,344.9,221.5,345z"/>
	<path class="st2" d="M277.3,438.3c-0.7-0.3-18.6-8.3-21.1-9.3l-0.6-0.3c-3-1.1-12-4.8-14.4-11.6c-0.3-0.7-1.1-1.1-1.8-0.8
		c-0.7,0.3-1.1,1.1-0.8,1.8c2.7,7.9,12.7,11.9,16,13.3l0.6,0.1c2.4,1,20.8,9.2,21.1,9.3c0.1,0.1,0.4,0.1,0.6,0.1
		c0.6,0,1-0.3,1.3-0.8C278.3,439.4,278,438.6,277.3,438.3z"/>
	<path class="st2" d="M252.4,366.7c-0.3-0.6-0.8-0.7-1.4-0.4c-0.6,0.3-0.7,0.8-0.4,1.4c1.1,2.3,1.7,5.4,1.6,9.5
		c-0.3-0.1-0.7-0.1-1.1,0c-0.4,0.3-0.6,1-0.3,1.4c1.8,2.8,3.1,6.9,3.5,12.4c0,0.6,0.6,1,1,1c0,0,0,0,0.1,0c0.6,0,1-0.6,1-1.1
		c-0.3-4.2-1.1-7.8-2.3-10.5C254.5,374.3,254,369.8,252.4,366.7z"/>
	<path class="st2" d="M188,317.5c0.1,0,0.3,0,0.4-0.1c0.3-0.1,0.4-0.6,0.3-1l-16.1-27.3c-0.1-0.3-0.7-0.4-1-0.3
		c-0.3,0.1-0.4,0.6-0.3,1l16.1,27.3C187.6,317.4,187.7,317.5,188,317.5z"/>
	<path class="st2" d="M190.5,322.2c0.1,0.3,0.4,0.4,0.6,0.4c0.1,0,0.3,0,0.3-0.1c0.3-0.1,0.4-0.6,0.3-1l-1.1-2
		c-0.1-0.3-0.6-0.4-1-0.3c-0.3,0.1-0.4,0.6-0.3,1L190.5,322.2z"/>
</g>
</svg>
