<?xml version="1.0" encoding="utf-8"?>
<!-- Generator: Adobe Illustrator 19.0.0, SVG Export Plug-In . SVG Version: 6.00 Build 0)  -->
<svg version="1.1" id="Calque_1" xmlns="http://www.w3.org/2000/svg" xmlns:xlink="http://www.w3.org/1999/xlink" x="0px" y="0px"
	 viewBox="20 31 1000 500" style="enable-background:new 20 31 1000 500;" xml:space="preserve">
<style type="text/css">
	.st0{display:none;}
	.st1{display:inline;fill:#161616;}
	.st2{fill:#F2DBC2;}
	.st3{fill:#C1272D;}
</style>
<g id="Calque_2" class="st0">
	<rect id="XMLID_1_" x="254" y="240" class="st1" width="1000" height="500"/>
</g>
<g>
	<path class="st2" d="M538.5,260.8l-0.1,1.9l-0.2,3.2l-0.4,1.8l-0.8,2.6l-0.7,1.7l-1.2,2.3l-1.1,1.6l-1.9,2.3l-1.3,1.3l-3,2.2
		l-1.6,1l-1.7,0.8l-1.8,0.9l-1.9,0.6l-1.8,0.6l-5.5,1.1l-2.8,0.4l-1.9,0.1l-2.9,0.2h-1.9l-6.7,0.2h-10.6l-6.8-0.4h-1.9l-6.7,0.2
		h-1.8l-4.6-0.1l-1.9-0.2l-1.7-0.2l-1-0.4l-0.6-0.6l-0.2-1.3l-0.1-1.7l0.1-1.8v-1.9l0.1-1v-2.1l0.4-6.4l-0.1-1.9l-0.1-3l-0.1-1.8
		l-0.1-1.7v-1.8l0.1-3V251l0.5-6.4v-1.9l-0.2-6.4v-1.9l-0.1-6.4l0.1-1.9l0.4-6.4l0.1-1.9l-0.5-6.4l-0.1-1.9l-0.4-3.6v-2.8l0.5-1.6
		l1.2-0.7l1.7-0.2l1.9-0.1l13.2-0.4l10.6,0.6l6.6-0.2h1.9l6.7,0.1h1.9l7,0.5l2.1,0.2l2.1,0.4l4.6,1.5l1.8,0.9l2.3,1.2l1.6,1.1
		l2.1,1.7l1.2,1.3l1.7,2.1l0.9,1.6l1.3,2.3l0.7,1.7l0.6,1.8l0.4,1.9l0.5,3.2l0.1,1.9l-0.1,2.1l-0.4,2.1l-0.7,2.8l-0.7,1.7l-1.3,2.3
		l-1.2,1.3l-1.9,1.8l-1,1l-0.4,0.9l0.4,1l1.1,1.2l1.5,1.3l1.5,1.6l1.8,2.6l1.1,1.8l0.9,1.9l0.5,1l0.6,1.9l0.5,2.1l0.2,2.1
		L538.5,260.8z M483.2,227.7l0.1,1l0.1,1.9l0.2,1.3l0.5,0.7l1,0.5l1.5,0.1h4.9l2.1-0.1h2.1l2.8,0.2l4.1,0.2h2.7l1.6-0.4l1.5-0.7
		l1.2-0.9l0.9-1l0.7-1.2l0.4-1.7v-2.1l-0.4-1.6l-1.1-1.6l-1.7-1.2l-0.7-0.2l-1.8-0.5l-0.9-0.1l-2.1-0.2h-1.1l-4.7-0.6h-1.8l-3,0.1
		l-1.9,0.1h-2.6l-1.2,0.2l-1.1,0.1l-0.7,0.4l-0.5,0.6l-0.4,1.6l-0.4,2.9L483.2,227.7z M511.1,266.8l1-0.9l0.5-0.7l0.9-1.8l0.4-1.9
		l0.1-0.7l-0.1-1.7l-0.4-1.7l-1-1.7l-0.7-0.8l-1.6-1.6l-1.9-1.1l-1.8-0.6l-0.9-0.2l-1.7-0.1l-5.5,0.2l-2.1,0.1h-7.2l-1.8,0.1
		l-2.2,0.4l-1.1,0.4l-0.4,0.6l-0.1,1.5v2.1l0.1,1.9v2.7l-0.2,2.1v2.4l0.2,1.3l0.5,0.7l0.9,0.5l1.6,0.2l17.1-0.4l4.1-0.2l1.9-0.4
		L511.1,266.8z"/>
	<path class="st2" d="M619.3,281.8l-0.1,1.9v1.1l-0.4,1.5l-0.7,0.9l-0.9,0.4l-1.2,0.2h-1l-1.7,0.1l-13.5-0.7h-9.1l-10.9,0.7l-7-0.5
		h-9l-5.6,0.4h-1.8l-1.7-0.1l-1.3-0.2l-0.8-0.5l-0.6-0.7l-0.2-1.5v-1.9l0.6-4.6l0.1-1.8l-0.5-6.4V268l0.2-6.4v-1.9l0.2-14.8v-1.9
		l-0.5-14.8v-1.9l-0.1-6.4v-10.3l-0.2-3.6v-1.8l0.1-1.1l0.4-1.6l0.5-0.7l0.8-0.4l1.3-0.2h1l1.8-0.1l6,0.4h1.9l8.6-0.1h1.2l0.9,0.5
		l0.6,0.9v10.6l0.2,7v1.9l-0.4,7v1.9l0.2,7v1.9l0.4,7v1.9l-0.7,16l0.1,1.2l0.1,0.6l0.2,0.6l0.6,0.5l1.5,0.2l4.1,0.2l3.6-0.2h1.9
		l17.5-0.2l1.9-0.1l4.1-0.5l1.9-0.1h1.8l1.5,0.4l0.9,0.7l0.4,0.8l0.1,1.3l0.1,6.8l0.1,1.9L619.3,281.8z"/>
	<path class="st2" d="M718.8,242.7l-0.1,1.9l-0.2,2.8l-0.2,1.8l-0.7,3.6l-0.2,2.8l-0.2,1.8l-0.4,1.9l-0.5,1.8l-1.2,2.6l-0.8,1.7
		l-3.3,5.5l-1.1,1.6l-1.2,1.6l-1.2,1.3l-1.9,2.1l-1.3,1.2l-1.6,1.2l-1.5,1.1l-2.2,1.5l-1.6,1l-1.8,1l-1.7,0.7l-2.4,1l-1.8,0.5
		l-3.9,1.2l-2.1,0.6l-1.9,0.5l-2.1,0.5l-2.1,0.4l-2.1,0.1h-6.6l-4.1-0.2l-4-0.5l-1.7-0.4l-1.8-0.5l-6.6-2.2l-1.9-0.6l-2.1-0.8
		l-3.9-1.7l-1.8-1L639,281l-1.6-1.2l-1.6-1.3l-1.5-1.6l-1.3-1.6l-3.3-3.3l-1.2-1.5l-1.2-1.6l-1-1.6l-1-2.4l-1.8-5.5l-0.7-2.6
		l-0.4-1.8l-0.4-1.9l-0.4-1.8l-0.4-2.7l-0.1-1.8l-0.1-2.1v-2.1l0.1-2.1l0.1-2.2l0.2-2.1l0.4-2.1l0.5-2.1l0.6-2.1l0.6-1.8l0.7-1.9
		l0.8-2.8l0.9-1.9l0.5-1.1l1-1.8l1.7-2.7l1.2-1.7l0.6-1l1.5-1.5l2.1-1.7l1.6-1.2l1.6-1.1l3.6-2.4l1.6-1l1.7-1l1.7-0.9l2.5-1.1
		l1.7-0.6l1.8-0.6l1.8-0.5l4.6-0.9l1.8-0.4l6.1-0.7l3.9-0.2l3.6,0.2l2.9,0.1l2.1,0.2l2.1,0.4l2.1,0.5l2.1,0.4l1.9,0.5l1.8,0.5
		l1.8,0.6l2.5,1l1.7,0.7l4,2.3l1.6,1.1l1.6,1.2l2.1,1.9l1.3,1.2l1.3,1.3l1.1,1.5l1.7,2.3l1,1.6l0.8,1.6l1,1.6l1.3,2.4l1,1.6l0.9,1.8
		l0.6,1.7l0.6,2.8l0.7,3.6l0.2,2.1l0.4,2.1L718.8,242.7z M689.2,258.5l1.1-1.7l1.2-2.7l0.7-1.8l0.6-2.8l0.2-1.8l0.2-2.9v-2.1
		l-0.1-2.1l-0.1-1.9l-0.7-3.6l-0.5-1.7l-1.3-2.7l-1-1.6l-1.7-2.2l-1.2-1.3l-1.8-1.9l-1.3-1.1l-3.2-1.8l-1.7-0.7l-1.9-0.6l-1.9-0.4
		l-3.9-0.2l-1.8,0.1l-2.7,0.1l-1.8,0.4l-3.2,0.9l-1.9,0.7l-2.8,1.5l-1.7,1.1l-1.9,1.7l-1.3,1.5l-1.3,1.8l-1,1.6l-0.4,0.7l-1.1,2.6
		l-0.6,1.8l-0.4,0.9l-0.4,1.7l-0.2,1.7l-0.1,1.7l-0.1,1.8v1.8l0.1,1.9l0.4,1.9l0.1,1.1l0.5,1.8l0.2,0.9l0.6,1.7l0.5,1l1,1.7l0.6,1
		l1.3,1.7l0.7,0.9l1.5,1.5l2.4,2.1l1.7,1.1l1.9,1l1.8,0.7l2.6,0.9l1.8,0.4l3,0.4l2.1,0.1l3-0.2l1.9-0.2l2.7-0.6l1.7-0.7l2.7-1.7
		l1.5-1.1l1.9-1.9l1.2-1.3L689.2,258.5z"/>
	<path class="st2" d="M813.7,237.8l0.1,2.1l-0.5,7.9v11.4l-0.2,5.1v7.2l-0.1,1.3l-0.7,1.2l-1,1.6l-1.1,1.6l-2.1,2.1l-1.5,1.3
		l-0.7,0.7l-1.6,1.1l-0.8,0.5l-1.6,1l-2.4,1.2l-1.8,0.7l-1.7,0.6l-2.8,0.9l-1.8,0.5l-1.9,0.4l-1.8,0.4l-2.8,0.4l-1.7,0.2l-1.8,0.4
		l-4.9,0.6l-1.8,0.1l-3.8-0.2l-2.8-0.2l-1.9-0.2l-1.9-0.4l-1.8-0.5l-4.3-1.2l-1.8-0.5l-1.8-0.6l-2.4-0.8l-1.6-0.9l-2.4-1.3l-1.5-1.1
		l-1.6-1.1l-1.5-1.2l-1.5-1.1l-1.3-1.2l-1.9-1.9l-1.2-1.5l-1.3-1.8l-1.1-1.7l-3-5.5l-0.9-1.9l-0.8-1.8l-0.6-1.9l-0.6-2.1l-0.4-1.9
		l-0.4-2.1l-0.2-1.9l-0.5-2.7l-0.2-1.9l-0.1-1.8v-1.8l0.4-5.5l0.2-1l0.4-2.1l0.5-2.1l0.6-1.9l0.6-2.1l0.6-1.9l0.6-1.8l0.9-1.9
		l0.8-2.1l0.9-1.7l1.6-2.2l1.1-1.5l1.3-1.6l1.3-1.5l1.5-1.3l3.2-2.7l1.6-1.2l1.5-1.1l1.5-1l4-2.3l1.8-1.1l2.1-0.9l2.1-0.6l1.9-0.5
		l4.5-0.7l3.5-0.5l1.8-0.4l1.8-0.2l2.8-0.2l1.9-0.1l2.7,0.2l1.8,0.1l2.8,0.4l1.7,0.4l2.7,0.5l1.8,0.5l2.7,0.9l1.8,0.6l4.4,2.2
		l1.8,1.1l1.6,1.1l0.6,0.4l1.3,0.9l1.3,1l0.6,0.6l1.3,1l0.7,0.6l0.7,0.9v0.9l-0.4,0.9l-0.7,1.1l-1.1,1.6l-1.2,1.3l-3.4,3.4l-2.2,1.9
		l-1.5,1.2l-1.3,1l-1,0.7l-0.7,0.5l-1,0.1l-1.3-0.9l-1.6-1.1l-1.6-1l-1.7-1l-1.9-0.9l-1.9-0.7l-2.1-0.5l-2.1-0.4l-5.7-0.4h-0.8
		l-1.9,0.1l-3.2,0.2l-1.9,0.5l-3.6,1.7l-1.6,1.1l-1.6,1.2l-1.3,1.3l-1.2,1.6l-1.1,1.6l-1,1.7l-0.7,1.8l-0.6,1.9l-0.5,1.8l-0.7,3.6
		l-0.4,1.9l-0.1,2.1v2.1l0.2,2.9l0.4,1.9l0.6,2.8l0.6,1.9l1.2,2.9l0.9,1.7l1.5,2.2l1.2,1.5l2.2,2.1l1.6,1.2l2.4,1.3l1.8,0.7l3.6,0.9
		l2.1,0.2l2.1,0.1h1.9l1.9-0.2l1.8-0.4l6.6-1.6l1.9-0.7l1.8-0.8l1.2-0.9l0.4-0.7v-1.3l0.1-1.1v-1.8l-0.2-3.6V254l-0.5-0.7l-1.3-0.2
		h-2.9l-1.9,0.1l-2.8,0.4l-1.9,0.1h-2.8l-1.9-0.1l-4.1-0.7l-0.7-0.2l-0.5-0.6l-0.2-1.5l-0.1-1l-0.1-1.9l0.1-3l-0.2-3.6l-0.2-1.8
		v-2.6l0.4-1.3l0.6-0.6l1.5-0.2l3-0.4l2.1-0.1h5.6l7.9-0.4l9.7,0.6h1.9l5-0.6l1.9-0.1l1,0.1l1.8,0.4l0.9,0.5l0.2,0.7l0.4,1.7
		L813.7,237.8z"/>
	<path class="st3" d="M537,342.1l0.1,1.8l-0.1,1.8l-0.1,2.1l-0.6,3l-0.4,1.9l-1,2.4l-0.7,1.7l-1.2,2.3l-1.1,1.6l-1.7,2.3l-1.3,1.5
		l-1.6,1.5l-1.6,1.3l-1.6,1.1l-1.7,1.1l-2.7,1.2l-1.8,0.8l-2.1,0.9l-1.8,0.6l-2.7,0.7l-1.8,0.4l-1.8,0.2l-1.9,0.1l-3.2,0.2h-10.2
		l-2.1-0.1l-2.1,0.1l-2.1,0.2l-1.5,0.2l-0.4,0.9l-0.1,1.6l-0.5,8.1v1.9l0.1,3.6l-0.1,1.8l-0.1,2.7l-0.2,1.3l-0.4,0.7l-0.6,0.2
		l-1.3,0.2l-3.9,0.2l-4.7-0.2h-1.9l-3.9,0.2l-1.9-0.1l-2.8-0.1l-1.6-0.5l-0.7-0.7l-0.2-1.5l-0.2-1.8L459,392v-13l0.5-6.4v-1.9
		l-0.5-6.4v-1.9l-0.2-14.8v-1.9l0.5-6.6V337l-0.4-6.4v-1.9l0.5-6.4v-1.8l-0.2-3.6l0.1-1.8l0.1-1l0.2-1.3l0.4-0.7l0.6-0.6l1.3-0.1
		l3.5-0.2l2.8,0.1h1.8l8.1-0.1h8.1l8.1,0.5h8l4.6-0.2l1.7,0.1h1l1.8,0.4l2.8,0.7l1.9,0.6l1.9,0.7l1.8,0.8l1.8,1.1l1.6,1.2l2.2,1.9
		l1.5,1.2l0.6,0.7l2.2,2.2l1.2,1.6l0.6,0.7l0.8,1.5l0.5,0.7l0.7,1.6l0.6,1.8l0.5,1.7l0.1,0.9l0.5,1.7l0.2,1l0.5,1.7l0.7,3.4V342.1z
		 M500.7,354l2.2-0.2l2.1-0.5l1-0.4l1.7-1l0.7-0.5l1.2-1.2l0.5-0.7l0.9-1.6l0.4-0.8l0.5-1.9l0.1-0.9v-3l-0.4-1.8l-0.4-1l-0.7-1.6
		l-0.5-0.7l-1.3-1.5l-1-0.6l-1.8-1l-3.2-0.8l-1.9-0.2h-2.8l-3.6,0.2l-5.3-0.4h-1.8l-1,0.1l-1.3,0.2l-0.5,0.4l-0.4,0.8l-0.2,1.5v2.8
		l0.4,4.5l0.1,1.9l0.1,7l0.1,1.5l0.4,0.9l1.3,0.5l6.3,0.5L500.7,354z"/>
	<path class="st3" d="M642.9,353.7l-0.1,1.9l-0.2,2.8l-0.2,1.8l-0.7,3.6l-0.2,2.8l-0.2,1.8l-0.4,1.9l-0.5,1.8l-1.2,2.6l-0.8,1.7
		l-3.3,5.5l-1.1,1.6l-1.2,1.6l-1.2,1.3l-1.9,2.1l-1.3,1.2l-1.6,1.2l-1.5,1.1l-2.2,1.5l-1.6,1l-1.8,1l-1.7,0.7l-2.4,1l-1.8,0.5
		l-3.9,1.2l-2.1,0.6l-1.9,0.5l-2.1,0.5l-2.1,0.4l-2.1,0.1h-6.6l-4.1-0.2l-4-0.5l-1.7-0.4l-1.8-0.5l-6.6-2.2l-1.9-0.6l-2.1-0.8
		l-3.9-1.7l-1.8-1l-1.8-1.1l-1.6-1.2l-1.6-1.3l-1.5-1.6l-1.3-1.6l-3.3-3.3l-1.2-1.5l-1.2-1.6l-1-1.6l-1-2.4l-1.8-5.5L547,368
		l-0.4-1.8l-0.4-1.9l-0.4-1.8l-0.4-2.7l-0.1-1.8l-0.1-2.1v-2.1l0.1-2.1l0.1-2.2l0.2-2.1l0.4-2.1l0.5-2.1l0.6-2.1l0.6-1.8l0.7-1.9
		l0.8-2.8l0.9-1.9l0.5-1.1l1-1.8l1.7-2.7l1.2-1.7l0.6-1l1.5-1.5l2.1-1.7l1.6-1.2l1.6-1.1l3.6-2.4l1.6-1l1.7-1l1.7-0.9l2.5-1.1
		l1.7-0.6l1.8-0.6l1.8-0.5l4.6-0.9l1.8-0.4l6.1-0.7l3.9-0.2l3.6,0.2l2.9,0.1l2.1,0.2l2.1,0.4l2.1,0.5l2.1,0.4l1.9,0.5l1.8,0.5
		l1.8,0.6l2.5,1l1.7,0.7l4,2.3l1.6,1.1l1.6,1.2l2.1,1.9l1.3,1.2l1.3,1.3l1.1,1.5l1.7,2.3l1,1.6l0.8,1.6l1,1.6l1.3,2.4l1,1.6l0.9,1.8
		l0.6,1.7l0.6,2.8l0.7,3.6l0.2,2.1l0.4,2.1L642.9,353.7z M613.3,369.5l1.1-1.7l1.2-2.7l0.7-1.8l0.6-2.8l0.2-1.8l0.2-2.9v-2.1
		l-0.1-2.1l-0.1-1.9l-0.7-3.6l-0.5-1.7l-1.3-2.7l-1-1.6l-1.7-2.2l-1.2-1.3l-1.8-1.9l-1.3-1.1l-3.2-1.8l-1.7-0.7l-1.9-0.6l-1.9-0.4
		l-3.9-0.2l-1.8,0.1l-2.7,0.1l-1.8,0.4l-3.2,0.9l-1.9,0.7l-2.8,1.5l-1.7,1.1l-1.9,1.7l-1.3,1.5l-1.3,1.8l-1,1.6l-0.4,0.7l-1.1,2.6
		l-0.6,1.8l-0.4,0.9l-0.4,1.7l-0.2,1.7l-0.1,1.7l-0.1,1.8v1.8l0.1,1.9l0.4,1.9l0.1,1.1l0.5,1.8l0.2,0.8l0.6,1.7l0.5,1l1,1.7l0.6,1
		l1.3,1.7l0.7,0.9l1.5,1.5l2.4,2.1l1.7,1.1l1.9,1l1.8,0.7l2.6,0.9l1.8,0.4l3,0.4l2.1,0.1l3-0.2l1.9-0.2l2.7-0.6l1.7-0.7l2.7-1.7
		l1.5-1.1l1.9-1.9l1.2-1.3L613.3,369.5z"/>
	<path class="st3" d="M726,371.4l-0.1,2.1l-0.2,2.1l-0.4,1.9l-0.6,2.7l-0.6,1.7l-1.1,2.4l-0.9,1.6l-1.5,2.2l-1.2,1.5l-1.5,1.5
		l-1.5,1.3l-2.4,1.6l-1.6,1.1l-1.8,1l-1.7,0.9l-2.8,1l-3.6,1.2l-1.9,0.4l-3,0.5l-1.8,0.2l-2.7,0.2l-1.7,0.1l-2.8,0.1l-5.8,0.4h-2.7
		l-1.7-0.1l-2.8-0.2l-1.8-0.2l-2.1-0.4l-1.8-0.6l-2.7-0.8l-1.7-0.9l-1.8-0.8l-1.7-0.9l-1.6-1l-3.9-2.7L655,391l-2.2-1.7l-1.5-1.2
		l-1.3-1.3l-1-1.1l-0.1-0.9l0.6-1.1l0.5-0.6l1.2-1.3l3.4-3.2l1.1-1.3l2.1-3.2l1.1-1.3l1.2-1.3l1.3-0.7l1.3,0.2l1.3,1l3.9,2.7l1.8,1
		l1.7,0.9l2.8,1.3l1.8,0.6l1.9,0.6l1.9,0.4l2.8,0.1l1.9,0.1l7.7-0.5l1.9-0.2l1-0.2l1.8-0.7l1.6-1l1.2-1.2l0.6-0.8l0.7-1.8l-0.1-2.1
		l-0.2-1l-1-1.7l-0.6-0.7l-1.6-1.2l-1-0.4l-1.8-0.7l-2.1-0.5l-2.1-0.4l-11.5-1.1l-3.6-0.7l-1.9-0.5l-2.7-1l-1.8-0.6l-1.8-0.9
		l-4.1-2.1l-1.6-1.1l-1.8-1.1l-1.6-1.1l-2.1-1.7l-1.1-1.6l-1.1-1.8l-0.7-1.8l-0.9-2.6l-0.4-1.8l-0.4-2.7l-0.2-3.9l0.1-1.9l0.2-2.9
		l0.4-1.8l0.5-1.6l0.6-1.8l1.2-2.7l0.9-1.7l1-1.5l1.2-1.3l1.9-1.8l1.6-1.2l1.6-1.1l1.7-0.8l2.3-1.3l3.6-1.5l1.8-0.6l2.8-0.5l1.9-0.4
		l3.6-0.5l2.7-0.5l1.9-0.2l1.8-0.1h1.9l3.6,0.4l1.8,0.2l0.9,0.2l1.9,0.2l4.1,0.7l2.1,0.5l1.9,0.6l2.1,0.6l1.9,0.7l1.8,0.8l1.8,0.7
		l2.3,1.3l1.7,0.9l1.6,1.1l1.1,1.1v1.2l-0.7,1.3l-1.3,2.4l-1,1.5l-4.6,6.1l-1.3,1.7l-1.5,1.2l-1,0.4l-0.8-0.1l-1.2-0.6l-1.8-1.1
		l-1.8-0.7l-0.8-0.4l-1.8-0.6l-1-0.2l-2.1-0.5l-2.8-0.6l-1.9-0.1l-3.2-0.2h-3.2l-2.1,0.1l-2.1,0.4l-1.9,0.6l-0.7,0.4l-1.5,1.1
		l-0.6,0.7l-0.8,1.7l-0.2,1.9l0.4,1.6l1,1.6l1.3,1.2l1.5,0.7l0.9,0.4l1.8,0.4l3,0.4l4.1,0.2l2.1,0.4l4.1,1l3.9,1.2l2.8,0.6l1.8,0.5
		l3.4,1.2l2.4,1.1l1.7,0.8l1.7,1l1.6,1l3.5,2.9l1.3,1.5l1.2,1.5l1.5,2.2l1,1.6l0.9,1.8l0.5,1.8l0.5,2.7l0.2,1.8L726,371.4z"/>
	<path class="st3" d="M804.3,320.5l-0.1,1.8l0.1,3.6l-0.1,1.9l-0.1,1l-0.2,1.5l-0.4,0.9l-0.7,0.6l-1.5,0.2h-1.9l-3.6-0.4l-1.9-0.1
		l-5.6,0.4h-1.9l-3-0.2h-1.8l-0.8,0.1l-1.2,0.4l-0.5,0.7l-0.1,1.6l-0.5,7.2v1.9l0.5,7.3l-0.1,1.9l-0.5,7.3L778,362l0.2,7.2v11.2
		l-0.2,7.2l0.1,1.8l0.6,5.5l0.1,1.9l-0.4,1.5l-0.6,0.6l-1.6,0.2l-2.3-0.1l-3-0.4l-2.1-0.1l-5.5,0.4h-1.9l-5.5-0.4l-1.5-0.1l-0.7-0.4
		l-0.2-1.3v-2.1l0.4-5.1l0.1-1.9v-9.1l0.1-7.3v-1.9l0.1-7.2v-1.9l-0.5-7.3l-0.1-1.9v-9.2l-0.2-7.2v-1.7l-0.4-1l-1.2-0.2H750
		l-3.9,0.2h-2.2l-3.3-0.2l-2.1-0.1l-2.1,0.1l-2.8,0.1h-1.8l-1-0.1l-1.3-0.2l-0.7-0.5l-0.5-0.7l-0.2-1.2V328l-0.1-1.9l0.2-3.6v-1.8
		l-0.4-4.6l0.1-1.9l0.4-1.6l0.5-0.8l0.7-0.4l1.2-0.2h2.8l4.5,0.4h1.9l7-0.5h1.9l7.2,0.6h1.9l9-0.6l7,0.1h1.9l9.1-0.1h9l4-0.2
		l2.1,0.1l1,0.1l1.5,0.2l0.9,0.5l0.6,0.8l0.2,1.5v0.8l0.1,1.8L804.3,320.5z"/>
</g>
<g>
	<path class="st2" d="M416.9,286.6v76.1c0,12.8-10.3,23.1-23.1,23.2l-27.8,0.2l-21,21c-1.5,1.5-3.4,2.3-5.5,2.3
		c-2.1,0-4-0.8-5.5-2.3l-20.9-21.2h-58.6c-6.2,0-12.1-2.4-16.4-6.8c-4.4-4.3-6.8-10.2-6.8-16.4v-147c0-6.2,2.4-12.1,6.8-16.4
		c4.4-4.4,10.2-6.8,16.4-6.8h139.2c6.2,0,12.1,2.4,16.4,6.8c4.4,4.3,6.8,10.2,6.8,16.4v1.7c5.4,0.5,10.5,2.9,14.3,6.7l7.7,7.7
		c4.4,4.4,6.8,10.3,6.8,16.4c0,6.2-2.4,12.1-6.8,16.4L416.9,286.6z M401.4,221.5v-5.9c0-2-0.8-4-2.3-5.5c-1.5-1.5-3.4-2.3-5.5-2.3
		H254.5c-2,0-4,0.8-5.5,2.3c-1.5,1.5-2.3,3.4-2.3,5.5v147c0,2,0.8,4,2.3,5.5c1.5,1.5,3.4,2.3,5.5,2.3h61.9c2.1,0,4.1,0.8,5.5,2.3
		l17.7,17.9l17.7-17.7c1.4-1.4,3.4-2.3,5.4-2.3l31-0.2c4.3,0,7.7-3.5,7.7-7.7v-60.6L379,324.6c-3,3-6.7,5.1-10.8,6.1l-35.3,8.8
		c-2.6,0.7-5.4-0.1-7.3-2c-1.9-1.9-2.7-4.7-2-7.3l8.8-35.3c1-4.1,3.1-7.8,6.1-10.8l60-60C399.4,223.2,400.4,222.3,401.4,221.5
		L401.4,221.5z M413.7,267.9l-18.6-18.6l-38.3,38.3l18.6,18.6L413.7,267.9z M406.1,238.3l18.6,18.6l3.3-3.3c1.5-1.4,2.3-3.4,2.3-5.5
		c0-2-0.8-4-2.3-5.5l-7.7-7.7c-0.9-0.9-2.1-1.6-3.4-2c-0.7-0.2-1.4-0.3-2.1-0.3c-2.1,0-4,0.8-5.5,2.3L406.1,238.3z M347.1,299.8
		l-5.4,21.5l21.5-5.4L347.1,299.8z M300.9,222.9c4.3,0,7.7,3.5,7.7,7.7c0,4.3-3.5,7.7-7.7,7.7c-4.3,0-7.7-3.5-7.7-7.7
		C293.2,226.3,296.6,222.9,300.9,222.9z M270,222.9c4.3,0,7.7,3.5,7.7,7.7c0,4.3-3.5,7.7-7.7,7.7c-4.3,0-7.7-3.5-7.7-7.7
		C262.2,226.3,265.7,222.9,270,222.9z M270,332c-4.3,0-7.7-3.5-7.7-7.7s3.5-7.7,7.7-7.7h30.9c4.3,0,7.7,3.5,7.7,7.7
		s-3.5,7.7-7.7,7.7H270z M270,270.1c-4.3,0-7.7-3.5-7.7-7.7s3.5-7.7,7.7-7.7h61.9c4.3,0,7.7,3.5,7.7,7.7s-3.5,7.7-7.7,7.7H270z
		 M270,301c-4.3,0-7.7-3.5-7.7-7.7s3.5-7.7,7.7-7.7h42.5c4.3,0,7.7,3.5,7.7,7.7s-3.5,7.7-7.7,7.7H270z"/>
</g>
</svg>
