<?xml version="1.0" encoding="utf-8"?>
<!-- Generator: Adobe Illustrator 19.0.0, SVG Export Plug-In . SVG Version: 6.00 Build 0)  -->
<svg version="1.1" id="Calque_1" xmlns="http://www.w3.org/2000/svg" xmlns:xlink="http://www.w3.org/1999/xlink" x="0px" y="0px"
	 viewBox="20 31 1000 500" style="enable-background:new 20 31 1000 500;" xml:space="preserve">
<style type="text/css">
	.st0{display:none;}
	.st1{display:inline;fill:#161616;}
	.st2{fill:#F2DBC2;}
	.st3{fill:#C1272D;}
</style>
<g id="Calque_2" class="st0">
	<rect id="XMLID_1_" x="234" y="209" class="st1" width="1000" height="500"/>
</g>
<g>
	<path class="st2" d="M427.2,229.1l0.1,0.9l-0.1,0.9l-0.1,1.1l-0.3,1.6l-0.2,1l-0.5,1.2l-0.4,0.9l-0.6,1.2l-0.6,0.8l-0.9,1.2
		l-0.7,0.7l-0.8,0.7l-0.8,0.7l-0.8,0.6l-0.9,0.6l-1.4,0.6l-0.9,0.4l-1.1,0.4l-0.9,0.3l-1.4,0.4l-0.9,0.2l-0.9,0.1l-1,0.1l-1.6,0.1
		h-5.2l-1.1-0.1l-1.1,0.1l-1.1,0.1l-0.7,0.1l-0.2,0.4l-0.1,0.8l-0.2,4.2v1l0.1,1.9l-0.1,0.9l-0.1,1.4l-0.1,0.7l-0.2,0.4l-0.3,0.1
		l-0.7,0.1l-2,0.1l-2.4-0.1h-1l-2,0.1l-1-0.1l-1.4-0.1l-0.8-0.2l-0.4-0.4l-0.1-0.7l-0.1-0.9l-0.1-1V248l0.2-3.3v-1l-0.2-3.3v-1
		l-0.1-7.6v-1l0.2-3.4v-1l-0.2-3.3v-1l0.2-3.3v-0.9l-0.1-1.9l0.1-0.9l0.1-0.5l0.1-0.7l0.2-0.4l0.3-0.3l0.7-0.1l1.8-0.1l1.4,0.1h0.9
		l4.2-0.1h4.2l4.2,0.2h4.1l2.4-0.1l0.9,0.1h0.5l0.9,0.2l1.4,0.4l1,0.3l1,0.4l0.9,0.4l0.9,0.6l0.8,0.6l1.1,1l0.7,0.6l0.3,0.4l1.1,1.1
		l0.6,0.8l0.3,0.4l0.4,0.7l0.2,0.4l0.4,0.8l0.3,0.9l0.2,0.9l0.1,0.4l0.2,0.9l0.1,0.5l0.2,0.9l0.4,1.7v0.6H427.2z M408.6,235.2
		l1.1-0.1l1.1-0.2l0.5-0.2l0.9-0.5l0.4-0.2l0.6-0.6l0.2-0.4l0.4-0.8l0.2-0.4l0.2-1l0.1-0.4v-1.6l-0.2-0.9l-0.2-0.5l-0.4-0.8
		l-0.2-0.4l-0.7-0.7l-0.5-0.3l-0.9-0.5l-1.6-0.4l-1-0.1h-1.4l-1.9,0.1l-2.7-0.2h-0.9l-0.5,0.1l-0.7,0.1l-0.2,0.2l-0.2,0.4l-0.1,0.7
		v1.4l0.2,2.3l0.1,1l0.1,3.6l0.1,0.7l0.2,0.4l0.7,0.2l3.2,0.2L408.6,235.2z"/>
	<path class="st2" d="M469.6,252.2l-0.1,1l-0.2,3.4l-0.1,0.6l-0.2,0.4l-0.3,0.2l-8.2,0.2h-1l-3.3-0.2l-1,0.1l-3.2,0.2l-1,0.1h-4.3
		l-3.2-0.2h-1l-5.4,0.3l-2.1-0.1l-0.7-0.1l-0.4-0.3l-0.2-0.4l-0.1-0.7l-0.1-1.4l-0.1-1l0.1-0.9v-0.9l0.2-3.3v-1l0.1-3.3l-0.1-1
		l-0.2-3.3l-0.1-1l0.1-3.4v-5.3l0.2-3.3l-0.1-1l-0.2-3.3l-0.1-1v-1.5l0.1-1.9V218l0.2-3.2l0.1-0.9l0.2-0.5l0.3-0.2l0.5-0.1l0.8-0.1
		l4,0.2l3.8-0.1h1l3.7,0.2h1l3.7-0.2h1l8.5,0.1l1.1-0.1l2.1-0.2h1.6l0.9,0.2l0.4,0.3l0.1,0.4l0.1,0.8v1.7l-0.1,1.6v1.1l0.1,1.6
		l0.1,0.9l-0.1,0.9l-0.1,0.7l-0.2,0.4l-0.3,0.2l-0.7,0.1h-0.5l-1,0.1l-5.9-0.1h-1l-3.2,0.1h-1l-3.2-0.1l-2.8-0.2h-0.9l-0.5,0.1
		l-0.6,0.1l-0.3,0.3l-0.1,0.4l-0.1,0.7l-0.1,1.5v1l0.1,1.1l0.1,0.7l0.1,0.4l0.2,0.3l0.7,0.2l2,0.1l2-0.1h5.9l7-0.4l1.9,0.1l0.7,0.1
		l0.4,0.3l0.2,0.4l0.1,0.7l0.1,1.1l0.1,1.1v2.1l0.1,1.4l-0.1,1.9l-0.1,0.7l-0.2,0.4l-0.4,0.3l-0.6,0.1h-1.2l-2.8-0.3l-1-0.1l-5,0.3
		l-4-0.1h-1l-2.5-0.2l-1.1,0.1l-0.7,0.1l-0.3,0.2l-0.2,0.4l-0.1,0.9l-0.2,1.6l-0.1,1v1.4l0.1,0.6l0.2,0.4l0.2,0.2l0.7,0.1l3.4,0.1h1
		l3.4-0.2l4.4,0.2h1l4.4-0.2h0.9l0.9,0.1l2.2,0.2l0.4,0.2l0.2,0.4l0.1,0.7L469.6,252.2z"/>
	<path class="st2" d="M512.9,218l-0.1,0.9l0.1,1.9l-0.1,1l-0.1,0.5l-0.1,0.7l-0.2,0.4l-0.4,0.3l-0.7,0.1h-1l-1.9-0.2l-1-0.1
		l-2.9,0.2h-1l-1.6-0.1H501l-0.4,0.1l-0.6,0.2l-0.2,0.4l-0.1,0.8l-0.2,3.7v1l0.2,3.7l-0.1,1l-0.2,3.7l-0.1,1l0.1,3.7v5.7l-0.1,3.7
		l0.1,0.9l0.3,2.8l0.1,1l-0.2,0.7l-0.3,0.3l-0.8,0.1l-1.2-0.1l-1.6-0.2l-1.1-0.1l-2.8,0.2h-1l-2.8-0.2l-0.7-0.1l-0.4-0.2l-0.1-0.7
		V256l0.2-2.6l0.1-1v-4.7l0.1-3.7v-1l0.1-3.7v-1l-0.2-3.7l-0.1-1v-4.7l-0.1-3.7v-0.9l-0.2-0.5l-0.6-0.1h-0.9l-2,0.1H482l-1.7-0.1
		l-1.1-0.1l-1.1,0.1l-1.4,0.1h-0.9l-0.5-0.1l-0.7-0.1l-0.4-0.2L474,223l-0.1-0.6V222l-0.1-1l0.1-1.9v-0.9l-0.2-2.4l0.1-1l0.2-0.8
		l0.2-0.4l0.4-0.2l0.6-0.1h1.4l2.3,0.2h1l3.6-0.2h1l3.7,0.3h1l4.6-0.3l3.6,0.1h1l4.7-0.1h4.6l2.1-0.1l1.1,0.1l0.5,0.1l0.7,0.1
		l0.4,0.2l0.3,0.4l0.1,0.7v0.4l0.1,0.9L512.9,218z"/>
	<path class="st2" d="M532.1,248.3v1l-0.2,3.4v1l-0.1,3.4v0.7l-0.2,0.4l-0.5,0.1l-0.9,0.1l-3.2-0.1h-3.9l-3.1-0.2l-0.4-0.1l-0.2-0.2
		V257l-0.1-1.6v-1l-0.1-0.9v-0.9l-0.2-3.4l0.1-1l0.2-3.4l0.1-1l-0.2-3.4v-1l-0.1-3.4v-5.4l-0.1-3.4v-1l0.1-3.4v-5.4L519,214l0.2-0.7
		l0.4-0.2l0.6-0.1h0.5l0.9-0.1l1.5,0.1h1l2.9-0.1h3.9l0.7,0.1l0.1,0.4l0.1,0.7l0.1,1.6l0.1,1v6.1l0.1,3.4v1l-0.1,3.4v1l0.1,3.4v1
		l-0.1,3.4v5.4L532.1,248.3z"/>
	<path class="st2" d="M577.2,218l-0.1,0.9l0.1,1.9l-0.1,1l-0.1,0.5l-0.1,0.7l-0.2,0.4l-0.4,0.3l-0.7,0.1h-1l-1.9-0.2l-1-0.1
		l-2.9,0.2h-1l-1.6-0.1h-0.9l-0.4,0.1l-0.6,0.2l-0.2,0.4l-0.1,0.8l-0.2,3.7v1l0.2,3.7l-0.1,1l-0.2,3.7l-0.1,1l0.1,3.7v5.7l-0.1,3.7
		l0.1,0.9l0.3,2.8l0.1,1l-0.2,0.7l-0.3,0.3l-0.8,0.1l-1.2-0.1l-1.6-0.2l-1,0.2l-2.8,0.2h-1l-2.8-0.2l-0.7-0.1l-0.4-0.2l-0.1-0.7v-1
		l0.2-2.6l0.1-1v-4.7l0.1-3.7v-1l0.1-3.7v-1l-0.2-3.7l-0.1-1v-4.7l-0.1-3.7v-0.9l-0.2-0.5l-0.6-0.1h-0.9l-2,0.1h-1.1l-1.7-0.1
		l-1.1-0.1l-1.1,0.1l-1.4,0.1h-0.9l-0.5-0.1l-0.7-0.1l-0.4-0.2l-0.2-0.4l-0.1-0.6V222l-0.1-1l0.1-1.9v-0.9l-0.2-2.4l0.1-1l0.2-0.8
		l0.2-0.4l0.4-0.2l0.6-0.1h1.4l2.3,0.2h1l3.6-0.2h1l3.7,0.3h1l4.6-0.3l3.6,0.1h1l4.7-0.1h4.6l2.1-0.1l1.1,0.1l0.5,0.1l0.7,0.1
		l0.4,0.2l0.3,0.4l0.1,0.7v0.4l0.1,0.9L577.2,218z"/>
	<path class="st2" d="M657.2,256.2l0.2,0.9l-0.4,0.7l-0.7,0.3l-0.8,0.1h-0.9l-1.4-0.1l-0.9-0.1h-2.8l-3.9,0.2l-0.8-0.3l-0.4-0.4
		l-0.3-0.7l-1.9-5.2l-0.4-0.6l-0.6-0.1l-0.7-0.1l-3.7-0.2h-1l-4.7-0.1l-3.7-0.1h-0.9l-0.9,0.1h-2.9l-0.8,0.1l-0.5,0.3l-0.4,0.7
		l-1.4,4.2l-0.4,1l-0.7,0.8l-0.9,0.3h-1l-3.6-0.2h-1l-4,0.3l-0.8,0.1l-0.7-0.4L606,257l0.1-0.8l0.1-0.5l0.4-1l0.9-1.9l0.4-0.9
		l1.6-3.5l0.4-0.9l1.6-3.5l0.4-0.9l1.4-3.4l0.4-0.9l1.7-3.5l0.4-0.9l2.2-5.1l1.7-3.7l0.4-1l1.4-2.8l0.4-1l1.2-2.9l0.4-0.9l1.1-2.6
		l0.3-0.7l0.6-0.4l0.9-0.2l2.9-0.1h4.9l2.9,0.1l1.1,0.2l0.7,0.5l0.3,0.8l0.9,2.4l0.4,0.9l1.6,2.9l0.4,0.9l1.4,3.1l0.4,0.9l1.1,3.2
		l0.4,0.9l1.4,3l0.4,0.9l1.4,3.1l0.4,0.9l1.2,3.1l0.4,0.9l1.9,3.9l1.5,2.9l0.4,0.9l1.7,3.9L657.2,256.2z M635.9,206.9l-0.8,0.2
		l-0.4,0.1h-1l-2.8-0.2l-1.9,0.1h-1l-0.5-0.1l-0.8-0.1l-0.6-0.2l-0.5-0.6l-3.2-3.8l-1.7-1.9l-0.6-0.8l-0.2-0.4l-0.2-0.8l0.2-0.5
		l0.8-0.2l0.6-0.1h1.1l2.9,0.2l4.2-0.2l0.9,0.1h0.5l0.8,0.1l0.6,0.4l0.4,0.7l0.2,0.5l0.4,0.9l0.6,1.4l0.4,0.9l1,1.7l0.4,1l0.2,0.9
		L635.9,206.9z M636.4,238.7l-0.2-0.8l-1.4-4.2l-0.3-0.9l-1.2-3.7l-0.3-0.8l-0.6-0.4l-0.8-0.2l-0.7,0.2l-0.6,0.6l-1.7,4.2l-0.4,0.9
		l-1.6,4.2l-0.2,0.9l0.2,0.7l0.7,0.3l0.9,0.1h3.9l2.9,0.2l0.8-0.2l0.5-0.5L636.4,238.7z"/>
	<path class="st2" d="M729,229.1l0.1,0.9l-0.1,1l-0.1,1.1l-0.3,1.6l-0.2,1l-0.5,1.2l-0.4,0.9l-0.6,1.2l-0.6,0.8l-0.9,1.2l-0.7,0.7
		l-0.8,0.7l-0.8,0.7l-0.8,0.6l-0.9,0.6l-1.4,0.6l-0.9,0.4l-1.1,0.4l-0.9,0.3l-1.4,0.4l-0.9,0.2l-0.9,0.1l-1,0.1l-1.6,0.1h-5.2
		l-1.1-0.1l-1.1,0.1l-1.1,0.1l-0.7,0.1l-0.2,0.4l-0.1,0.8l-0.2,4.2v1l0.1,1.9l-0.1,0.9l-0.1,1.4l-0.1,0.7l-0.2,0.4l-0.3,0.1
		l-0.7,0.1l-2,0.1l-2.4-0.1h-1l-2,0.1l-1-0.1l-1.4-0.1l-0.8-0.2l-0.4-0.4l-0.1-0.7l-0.1-0.9l-0.1-1V248l0.3-3.3v-1l-0.3-3.3v-1
		l-0.1-7.6v-1l0.2-3.4v-1l-0.2-3.3v-1l0.2-3.3v-0.9l-0.1-1.9l0.1-0.9l0.1-0.5l0.1-0.7l0.2-0.4l0.3-0.3l0.7-0.1l1.8-0.1l1.4,0.1h0.9
		l4.2-0.1h4.2l4.2,0.2h4.1l2.4-0.1l0.9,0.1h0.5l0.9,0.2l1.4,0.4l1,0.3l1,0.4l0.9,0.4l0.9,0.6l0.8,0.6l1.1,1l0.7,0.6l0.3,0.4l1.1,1.1
		l0.6,0.8l0.3,0.4l0.4,0.7l0.2,0.4l0.4,0.8l0.3,0.9l0.2,0.9l0.1,0.4l0.2,0.9l0.1,0.5l0.3,0.9l0.4,1.7v0.6H729z M716.1,230.2v-1.6
		l-0.2-0.9l-0.2-0.5l-0.4-0.8l-0.2-0.4l-0.7-0.7l-0.5-0.3l-0.9-0.5l-1.6-0.4l-1-0.1H709h-2l-2.7-0.2h-0.9l-0.5,0.1l-0.7,0.1
		l-0.3,0.2l-0.2,0.4l-0.1,0.7v1.4l0.2,2.3l0.1,1l0.1,3.6l0.1,0.7l0.2,0.4l0.7,0.2l3.2,0.2l4.2-0.2l1.1-0.1l1.1-0.2l0.5-0.2l0.9-0.5
		l0.4-0.2l0.6-0.6l0.3-0.4l0.4-0.8l0.2-0.4l0.2-1V230.2z"/>
	<path class="st2" d="M771.4,252.2l-0.1,1l-0.3,3.4l-0.1,0.6l-0.2,0.4l-0.3,0.2l-8.2,0.2h-1l-3.3-0.2l-1,0.1l-3.2,0.2l-1,0.1h-4.3
		l-3.2-0.2h-1l-5.4,0.3l-2.1-0.1L736,258l-0.4-0.3l-0.2-0.4l-0.1-0.7l-0.1-1.4l-0.1-1l0.1-0.9v-0.9l0.2-3.3v-1l0.1-3.3l-0.1-1
		l-0.2-3.3l-0.1-1l0.1-3.4v-5.3l0.2-3.3l-0.1-1l-0.2-3.3l-0.1-1v-1.5l0.1-1.9v-0.9l0.2-3.2l0.1-0.9l0.2-0.5l0.3-0.2l0.5-0.1l0.8-0.1
		l4,0.2l3.8-0.1h1l3.7,0.2h1l3.7-0.2h1l8.5,0.1l1.1-0.1l2.1-0.2h1.6l0.9,0.2l0.4,0.3l0.1,0.4l0.1,0.8v1.7l-0.1,1.6v1.1l0.1,1.6
		l0.1,0.9l-0.1,0.9l-0.1,0.7l-0.2,0.4l-0.3,0.2l-0.7,0.1h-0.5l-1,0.1l-5.9-0.1h-1l-3.2,0.1h-1l-3.2-0.1l-2.8-0.2h-0.9l-0.5,0.1
		l-0.6,0.1L748,224l-0.1,0.4l-0.1,0.7l-0.1,1.5v1l0.1,1.1l0.1,0.7l0.1,0.4l0.2,0.3l0.7,0.2l2,0.1l2-0.1h5.9l7-0.4l1.9,0.1l0.7,0.1
		l0.4,0.3l0.2,0.4l0.1,0.7l0.1,1.1l0.1,1.1v2.1l0.1,1.4l-0.1,1.9l-0.1,0.7l-0.2,0.4l-0.4,0.3l-0.6,0.1h-1.2l-2.8-0.3l-1-0.1l-5,0.3
		l-4-0.1h-1l-2.5-0.2l-1.1,0.1l-0.7,0.1l-0.3,0.2l-0.2,0.4l-0.1,0.9l-0.2,1.6l-0.1,1v1.4l0.1,0.6l0.2,0.4l0.2,0.2l0.7,0.1l3.4,0.1h1
		l3.4-0.2l4.4,0.2h1l4.4-0.2h0.9l0.9,0.1l2.2,0.2l0.4,0.2l0.2,0.4l0.1,0.7L771.4,252.2z"/>
	<path class="st2" d="M814.6,218l-0.1,0.9l0.1,1.9l-0.1,1l-0.1,0.5l-0.1,0.7l-0.2,0.4l-0.4,0.3l-0.7,0.1h-1l-1.9-0.2l-1-0.1
		l-2.9,0.2h-1l-1.6-0.1h-0.9l-0.4,0.1l-0.6,0.2l-0.2,0.4l-0.1,0.8l-0.2,3.7v1l0.2,3.7l-0.1,1l-0.2,3.7l-0.1,1l0.1,3.7v5.7l-0.1,3.7
		l0.1,0.9l0.3,2.8l0.1,1l-0.2,0.7L801,258l-0.8,0.1L799,258l-1.6-0.2l-1.1-0.1l-2.8,0.2h-1l-2.8-0.2l-0.7-0.1l-0.4-0.2l-0.1-0.7V256
		l0.2-2.6l0.1-1v-4.7l0.1-3.7v-1l0.1-3.7v-1l-0.2-3.7l-0.1-1v-4.7l-0.1-3.7v-0.9l-0.2-0.5l-0.6-0.1h-0.9l-2,0.1h-1.1l-1.7-0.1
		l-1.1-0.1l-1.1,0.1l-1.4,0.1h-0.9l-0.5-0.1l-0.7-0.1l-0.4-0.2l-0.2-0.4l-0.1-0.6V222l-0.1-1l0.1-1.9v-0.9l-0.2-2.4l0.1-1l0.2-0.8
		l0.2-0.4l0.4-0.2l0.6-0.1h1.4l2.3,0.2h1l3.6-0.2h1l3.7,0.3h1l4.6-0.3l3.6,0.1h1l4.7-0.1h4.6l2.1-0.1l1.1,0.1l0.5,0.1l0.7,0.1
		l0.4,0.2l0.3,0.4l0.1,0.7v0.4l0.1,0.9L814.6,218z"/>
	<path class="st2" d="M833.8,248.3v1l-0.2,3.4v1l-0.1,3.4v0.7l-0.2,0.4l-0.5,0.1l-0.9,0.1l-3.2-0.1h-3.9l-3.1-0.2l-0.4-0.1l-0.2-0.2
		V257l-0.1-1.6v-1l-0.1-0.9v-0.9l-0.2-3.4l0.1-1l0.2-3.4l0.1-1l-0.2-3.4v-1l-0.1-3.4v-5.4l-0.1-3.4v-1l0.1-3.4v-5.4l-0.1-3.4
		l0.2-0.7l0.4-0.2l0.6-0.1h0.5l0.9-0.1l1.5,0.1h1l2.9-0.1h3.9l0.7,0.1l0.1,0.4l0.1,0.7l0.1,1.6l0.1,1v6.1l0.1,3.4v1l-0.1,3.4v1
		l0.1,3.4v1l-0.1,3.4v5.4L833.8,248.3z"/>
	<path class="st2" d="M878.9,218l-0.1,0.9l0.1,1.9l-0.1,1l-0.1,0.5l-0.1,0.7l-0.2,0.4l-0.4,0.3l-0.7,0.1h-1l-1.9-0.2l-1-0.1
		l-2.9,0.2h-1l-1.6-0.1H867l-0.4,0.1l-0.6,0.2l-0.2,0.4l-0.1,0.8l-0.3,3.7v1l0.3,3.7l-0.1,1l-0.2,3.7l-0.1,1l0.1,3.7v5.7l-0.1,3.7
		l0.1,0.9l0.3,2.8l0.1,1l-0.2,0.7l-0.3,0.3l-0.8,0.1l-1.2-0.1l-1.6-0.2l-1.1-0.1l-2.8,0.2h-1l-2.8-0.2l-0.7-0.1l-0.4-0.2l-0.1-0.7
		V256l0.2-2.6l0.1-1v-4.7l0.1-3.7v-1l0.1-3.7v-1l-0.2-3.7l-0.1-1v-4.7l-0.1-3.7v-0.9l-0.2-0.5l-0.6-0.1h-0.9l-2,0.1H848l-1.7-0.1
		l-1.1-0.1l-1.1,0.1l-1.4,0.1h-0.9l-0.5-0.1l-0.7-0.1l-0.4-0.2L840,223l-0.1-0.6V222l-0.1-1l0.1-1.9v-0.9l-0.2-2.4l0.1-1l0.2-0.8
		l0.2-0.4l0.4-0.2l0.6-0.1h1.4l2.3,0.2h1l3.6-0.2h1l3.7,0.3h1l4.6-0.3l3.6,0.1h1l4.7-0.1h4.6l2.1-0.1l1.1,0.1l0.5,0.1l0.7,0.1
		l0.4,0.2l0.3,0.4l0.1,0.7v0.4l0.1,0.9L878.9,218z"/>
	<path class="st2" d="M421.9,329.8l-0.1,1v0.6l-0.2,0.7l-0.4,0.4l-0.4,0.2l-0.6,0.1h-0.5l-0.9,0.1l-6.9-0.4h-4.7l-5.6,0.4l-3.6-0.2
		h-4.6l-2.9,0.2h-0.9l-0.9-0.1l-0.7-0.1l-0.4-0.2l-0.3-0.4l-0.1-0.7v-1l0.3-2.4l0.1-0.9l-0.2-3.3v-1l0.1-3.3v-1l0.1-7.6v-1l-0.2-7.6
		v-1l-0.1-3.3v-5.3l-0.1-1.9v-0.9l0.1-0.6l0.2-0.8l0.2-0.4l0.4-0.2l0.7-0.1h0.5l0.9-0.1l3.1,0.2h1l4.4-0.1h0.6l0.4,0.2l0.3,0.4v5.4
		l0.1,3.6v1l-0.2,3.6v1l0.1,3.6v1l0.2,3.6v1l-0.4,8.2l0.1,0.6l0.1,0.3l0.1,0.3l0.3,0.2l0.7,0.1l2.1,0.1l1.9-0.1h1l9-0.1l1-0.1
		l2.1-0.2l1-0.1h0.9l0.7,0.2l0.4,0.4l0.2,0.4l0.1,0.7l0.1,3.5l0.1,1L421.9,329.8z"/>
	<path class="st2" d="M432.5,289.7l-0.4,1.5l-0.3,1l-0.7,1.4l-0.4,1l-0.6,1.4l-0.4,1l-0.5,1.5l-0.3,1l-0.4,1.5l-0.3,1l-0.6,1.4
		l-0.4,0.7l-0.4,0.4l-0.7,0.1l-0.9,0.1l-1.7-0.1l-1.8,0.1h-0.9l-0.9-0.1l-0.8-0.2l-0.5-0.6l-0.1-0.9l0.2-1.4l0.2-1l0.4-1.4l0.2-1
		l0.3-1.5l0.2-1l0.3-1.4l0.2-1l0.1-1.5l0.2-1l0.3-1.4l0.3-0.8l0.5-0.4l0.7-0.1l1.4-0.1h2.3l0.9-0.1l1.4-0.1h0.9l1.4,0.1l0.9,0.2
		l0.5,0.7L432.5,289.7z"/>
	<path class="st2" d="M484.5,309.8l-0.1,1l-0.1,1.4l-0.1,0.9l-0.4,1.9l-0.1,1.4l-0.1,0.9l-0.2,1l-0.2,0.9l-0.6,1.3l-0.4,0.9
		l-1.7,2.8l-0.6,0.8l-0.6,0.8l-0.6,0.7l-1,1.1l-0.7,0.6l-0.8,0.6l-0.7,0.6l-1.1,0.7l-0.8,0.5l-0.9,0.5l-0.9,0.4l-1.2,0.5l-0.9,0.2
		l-2,0.6l-1.1,0.3l-1,0.2l-1.1,0.2l-1.1,0.2l-1.1,0.1h-3.4l-2.1-0.1l-2.1-0.3l-0.9-0.2l-0.9-0.2l-3.4-1.1l-1-0.3l-1.1-0.4l-2-0.9
		l-0.9-0.5l-0.9-0.6l-0.8-0.6l-0.8-0.7l-0.7-0.8l-0.7-0.8l-1.7-1.7l-0.6-0.7l-0.6-0.8l-0.5-0.8l-0.5-1.2l-0.9-2.8l-0.4-1.3l-0.2-0.9
		l-0.2-1l-0.2-0.9l-0.2-1.4l-0.1-0.9l-0.1-1.1v-1.1l0.1-1.1l0.1-1.1l0.1-1.1l0.2-1.1l0.2-1.1l0.3-1.1l0.3-0.9l0.4-1l0.4-1.4l0.4-1
		l0.2-0.6l0.5-0.9l0.9-1.4l0.6-0.9l0.3-0.5l0.7-0.7l1.1-0.9l0.8-0.6l0.8-0.6l1.9-1.2l0.8-0.5l0.9-0.5l0.9-0.4l1.3-0.6l0.9-0.3
		l0.9-0.3l0.9-0.2l2.4-0.4l0.9-0.2l3.1-0.4l2-0.1l1.9,0.1l1.5,0.1l1.1,0.1l1.1,0.2l1.1,0.2l1.1,0.2l1,0.2l0.9,0.2l0.9,0.3l1.3,0.5
		l0.9,0.4l2.1,1.2l0.8,0.6l0.8,0.6l1.1,1l0.7,0.6l0.7,0.7l0.6,0.7l0.9,1.2l0.5,0.8l0.4,0.8l0.5,0.8l0.7,1.2l0.5,0.8l0.4,0.9l0.3,0.9
		l0.3,1.4l0.4,1.9l0.1,1.1l0.2,1.1L484.5,309.8z M471.4,310.8v-1.1l-0.1-1.1l-0.1-1l-0.4-1.9l-0.2-0.9l-0.7-1.4l-0.5-0.8l-0.9-1.1
		L468,301l-0.9-1l-0.7-0.6l-1.6-0.9l-0.9-0.4l-1-0.3l-1-0.2l-2-0.1l-0.9,0.1l-1.4,0.1l-0.9,0.2l-1.6,0.4l-1,0.4l-1.4,0.7l-0.9,0.6
		l-1,0.9l-0.7,0.7l-0.7,0.9l-0.5,0.8l-0.2,0.4l-0.6,1.3l-0.3,0.9l-0.2,0.4l-0.2,0.9l-0.1,0.9l-0.1,0.9l-0.1,0.9v0.9l0.1,1l0.2,1
		l0.1,0.6l0.2,0.9l0.1,0.4l0.3,0.9l0.2,0.5l0.5,0.9l0.3,0.5l0.7,0.9l0.4,0.4l0.7,0.7l1.2,1.1l0.9,0.6l1,0.5l0.9,0.4l1.3,0.4l0.9,0.2
		l1.6,0.2l1.1,0.1l1.6-0.1l1-0.1l1.4-0.3l0.9-0.4l1.4-0.9l0.7-0.6l1-1l0.6-0.7l0.8-1l0.6-0.9l0.6-1.4l0.4-0.9l0.3-1.4l0.1-0.9
		L471.4,310.8z"/>
	<path class="st2" d="M503.6,323v1l-0.2,3.4v1l-0.1,3.4v0.7l-0.2,0.4l-0.5,0.1l-0.9,0.1l-3.2-0.1h-3.9l-3.1-0.2l-0.4-0.1l-0.2-0.2
		v-0.6l-0.1-1.6v-1l-0.1-0.9v-0.9l-0.2-3.4l0.1-1l0.2-3.4l0.1-1l-0.2-3.4v-1l-0.1-3.4v-5.4l-0.1-3.4v-1l0.1-3.4v-5.4l-0.1-3.4
		l0.2-0.7l0.4-0.2l0.6-0.1h0.5l0.9-0.1l1.5,0.1h1l2.9-0.1h3.9l0.7,0.1l0.1,0.4l0.1,0.7l0.1,1.6l0.1,1v6.1l0.1,3.4v1l-0.1,3.4v1
		l0.1,3.4v1l-0.1,3.4v5.4L503.6,323z"/>
	<path class="st2" d="M549.8,318.8l-0.1,1.1l-0.1,1.1l-0.2,1l-0.3,1.4l-0.3,0.9l-0.6,1.2l-0.4,0.8l-0.7,1.1l-0.6,0.7l-0.7,0.7
		l-0.7,0.7l-1.2,0.8l-0.8,0.6l-0.9,0.5l-0.9,0.4l-1.4,0.5l-1.9,0.6l-1,0.2l-1.6,0.3l-0.9,0.1l-1.4,0.1l-0.9,0.1l-1.4,0.1l-3,0.2
		h-1.4l-0.9-0.1l-1.4-0.1l-0.9-0.1l-1.1-0.2l-0.9-0.3l-1.4-0.4l-0.9-0.4L518,332l-0.9-0.4l-0.8-0.5l-2-1.4l-0.7-0.6l-1.1-0.9
		l-0.7-0.6l-0.7-0.7l-0.5-0.6l-0.1-0.4l0.3-0.6l0.2-0.3l0.6-0.7l1.7-1.6l0.6-0.7l1.1-1.6l0.6-0.7l0.6-0.7l0.7-0.4l0.7,0.1l0.7,0.5
		l2,1.4l0.9,0.5l0.9,0.4l1.4,0.7l0.9,0.3l1,0.3l1,0.2l1.4,0.1l1,0.1l3.9-0.2l1-0.1l0.5-0.1l0.9-0.4l0.8-0.5l0.6-0.6l0.3-0.4l0.4-0.9
		l-0.1-1.1l-0.1-0.5l-0.5-0.9l-0.3-0.4l-0.8-0.6l-0.5-0.2l-0.9-0.4l-1.1-0.2l-1.1-0.2l-5.9-0.6l-1.9-0.4l-1-0.2l-1.4-0.5l-0.9-0.3
		l-0.9-0.4l-2.1-1.1l-0.8-0.6l-0.9-0.6l-0.8-0.6l-1.1-0.9l-0.6-0.8l-0.6-0.9l-0.4-0.9l-0.4-1.3l-0.2-0.9l-0.2-1.4l-0.1-2l0.1-1
		l0.1-1.5l0.2-0.9l0.2-0.8l0.3-0.9l0.6-1.4l0.4-0.9l0.5-0.7l0.6-0.7l1-0.9l0.8-0.6l0.8-0.6l0.9-0.4l1.2-0.7l1.9-0.7l0.9-0.3l1.4-0.2
		l1-0.2l1.9-0.2l1.4-0.2l1-0.1l0.9-0.1h1l1.9,0.2l0.9,0.1l0.4,0.1l1,0.1l2.1,0.4l1.1,0.2l1,0.3l1.1,0.3l1,0.4l0.9,0.4l0.9,0.4
		l1.2,0.7l0.9,0.4l0.8,0.6l0.6,0.6v0.6l-0.4,0.7l-0.7,1.2l-0.5,0.7l-2.4,3.1l-0.7,0.9l-0.7,0.6l-0.5,0.2l-0.4-0.1l-0.6-0.3l-0.9-0.6
		l-0.9-0.4l-0.4-0.2l-0.9-0.3l-0.5-0.1l-1.1-0.2l-1.4-0.3l-1-0.1l-1.6-0.1h-1.6l-1.1,0.1l-1.1,0.2l-1,0.3l-0.4,0.2L525,299l-0.3,0.4
		l-0.4,0.9l-0.1,1l0.2,0.8l0.5,0.8l0.7,0.6l0.7,0.4l0.4,0.2l0.9,0.2l1.6,0.2l2.1,0.1l1.1,0.2l2.1,0.5l2,0.6l1.4,0.3l0.9,0.2l1.7,0.6
		l1.2,0.6l0.9,0.4l0.9,0.5l0.8,0.5l1.8,1.5l0.7,0.7l0.6,0.7l0.7,1.1l0.5,0.8l0.4,0.9l0.2,0.9l0.2,1.4l0.1,0.9L549.8,318.8z"/>
	<path class="st2" d="M592,326.9l-0.1,1l-0.2,3.4l-0.1,0.6l-0.2,0.4l-0.3,0.2l-8.2,0.2h-1l-3.3-0.2l-1,0.1l-3.2,0.3l-1,0.1h-4.3
		l-3.2-0.2h-1l-5.4,0.3l-2.1-0.1l-0.7-0.1l-0.4-0.3l-0.2-0.4l-0.1-0.7l-0.1-1.4l-0.1-1l0.1-0.9V327l0.2-3.3v-1l0.1-3.3l-0.1-1
		l-0.2-3.3l-0.1-1l0.1-3.4v-5.3l0.2-3.3l-0.1-1l-0.2-3.3l-0.1-1v-1.5l0.1-1.9v-0.9l0.2-3.2l0.1-0.9l0.2-0.5l0.3-0.2l0.5-0.1l0.8-0.1
		l4,0.2l3.8-0.1h1l3.7,0.2h1l3.7-0.2h1l8.5,0.1l1.1-0.1l2.1-0.2h1.6l0.9,0.2l0.4,0.3l0.1,0.4l0.1,0.8v1.7l-0.1,1.6v1.1l0.1,1.6
		l0.1,0.9l-0.1,0.9l-0.1,0.7l-0.2,0.4l-0.3,0.2l-0.7,0.1h-0.5l-1,0.1l-5.9-0.1h-1l-3.2,0.1h-1l-3.2-0.1l-2.8-0.2h-0.9l-0.5,0.1
		l-0.6,0.1l-0.3,0.3l-0.1,0.4l-0.1,0.7l-0.1,1.5v1l0.1,1.1l0.1,0.7l0.1,0.4l0.3,0.3l0.7,0.2l2,0.1l2-0.1h5.9l7-0.4l1.9,0.1l0.7,0.1
		l0.4,0.3l0.2,0.4l0.1,0.7l0.1,1.1l0.1,1.1v2.1l0.1,1.4l-0.1,1.9l-0.1,0.7l-0.2,0.4l-0.4,0.3l-0.6,0.1h-1.2l-2.8-0.3l-1-0.1l-5,0.3
		l-4-0.1h-1l-2.5-0.2l-1.1,0.1l-0.7,0.1l-0.3,0.2l-0.2,0.4l-0.1,0.9l-0.2,1.6l-0.1,1v1.4l0.1,0.6l0.2,0.4l0.2,0.2l0.7,0.1l3.4,0.1h1
		l3.4-0.2l4.4,0.2h1l4.4-0.2h0.9l0.9,0.1l2.2,0.2l0.4,0.2l0.2,0.4l0.1,0.7L592,326.9z"/>
	<path class="st2" d="M648.2,331l0.2,0.9l-0.4,0.7l-0.7,0.3l-0.8,0.1h-0.9l-1.4-0.1l-0.9-0.1h-2.8l-3.9,0.2l-0.8-0.3l-0.4-0.4
		l-0.3-0.7l-1.9-5.2l-0.4-0.6l-0.6-0.1l-0.7-0.1l-3.7-0.2h-1l-4.7-0.1l-3.7-0.1h-0.9l-0.9,0.1h-2.9l-0.8,0.1l-0.5,0.3l-0.4,0.7
		l-1.4,4.2l-0.4,1l-0.7,0.8l-0.9,0.3h-1l-3.6-0.2h-1l-3.9,0.2l-0.8,0.1l-0.7-0.4l-0.5-0.7l0.1-0.8l0.1-0.5l0.4-1l0.9-1.9l0.4-0.9
		l1.6-3.5l0.4-0.9l1.6-3.5l0.4-0.9l1.4-3.4l0.4-0.9l1.7-3.5l0.4-0.9l2.2-5.1l1.7-3.7l0.4-1l1.4-2.8l0.4-1l1.2-2.9l0.4-0.9l1.1-2.6
		l0.3-0.7l0.6-0.4l0.9-0.2l2.9-0.1h4.9l2.9,0.1l1.1,0.2l0.7,0.5l0.3,0.8l0.9,2.4l0.4,0.9l1.6,2.9l0.4,0.9l1.4,3.1l0.4,0.9l1.1,3.2
		l0.4,0.9l1.4,3l0.4,0.9l1.4,3.1l0.4,0.9l1.2,3.1l0.4,0.9l1.9,3.9l1.5,2.9l0.4,0.9l1.7,3.9L648.2,331z M627.4,313.4l-0.2-0.8
		l-1.4-4.2l-0.3-0.9l-1.2-3.7L624,303l-0.6-0.4l-0.8-0.2l-0.7,0.2l-0.6,0.6l-1.7,4.2l-0.4,0.9l-1.6,4.2l-0.2,0.9l0.2,0.7l0.7,0.3
		l0.9,0.1h3.9l2.9,0.2l0.8-0.2l0.5-0.5L627.4,313.4z"/>
	<path class="st2" d="M691.8,310.8l0.1,2l-0.1,0.9l-0.1,1.4l-0.1,0.9l-0.2,1.5l-0.2,1l-0.2,1.4l-0.2,0.9l-0.5,1.3L690,323l-0.6,1.3
		l-0.4,0.9l-0.8,1.2l-0.6,0.8l-0.7,0.8l-0.8,0.7l-1.2,1l-0.8,0.6l-1.2,0.7l-0.8,0.4l-1.3,0.6l-0.9,0.3l-1.4,0.5l-0.9,0.2l-1.4,0.2
		l-0.9,0.2l-1.9,0.1h-2.9l-1.4-0.1l-0.9-0.1l-3.4-0.4l-1-0.2l-0.6-0.1l-1-0.3l-0.5-0.2l-1-0.4l-1.4-0.6L658,331l-0.9-0.6l-1.6-1.4
		l-0.7-0.7l-0.8-1.1l-0.6-0.7l-1-1.6l-0.6-0.9l-0.5-0.9l-0.4-1l-0.4-0.9l-0.3-0.9l-0.2-0.9l-0.3-1.4l-0.2-1.1l-0.1-1.1l-0.1-2.1
		l-0.1-1l0.2-3.8v-1l-0.1-3.8v-1l0.2-3.8v-5.8l-0.1-2v-1.1l0.1-1.1l0.2-1l0.4-0.6l0.8-0.2l2.1-0.1l2.4,0.2h1l2.1-0.1l0.9,0.1
		l1.4,0.1l0.8,0.2l0.5,0.5l0.2,0.8l0.1,0.9v0.9l-0.1,2.4v1l0.2,3.8v1l-0.1,3.8v1l-0.2,3.8v1l-0.1,3.8l0.1,1l0.1,1.6l0.2,1l0.4,1.4
		l0.4,0.9l0.6,1.4l0.6,0.7l1,1.1l0.8,0.5l1.4,0.5l0.9,0.2l1.6,0.1h1l1.6-0.3l0.9-0.2l1.2-0.6l0.8-0.5l1-0.9l0.6-0.7l0.7-1.3l0.4-0.9
		l0.3-1l0.2-1l0.2-1.9l0.1-1L679,309v-1l0.2-3.9v-1l0.1-3.8v-1l-0.1-3.9l-0.1-1l-0.2-2.6v-1.6l0.2-0.9l0.6-0.5l0.8-0.2h1.3l3.2,0.2
		h1l2.5-0.2h1l0.9,0.1l0.8,0.2l0.5,0.4l0.1,0.7l0.1,1.9v0.9l-0.1,1.4v1l0.2,3.9v1l-0.1,3.8v1l-0.3,3.9L691.8,310.8z"/>
	<path class="st2" d="M759.5,295.2l0.1,1l-0.1,0.9l-0.1,0.7l-0.2,0.4l-0.4,0.3l-0.7,0.2h-1.3l-1.9-0.2l-1-0.1h-4l-7.1,0.2l-2.8-0.2
		h-1.4l-0.6,0.2l-0.2,0.4l-0.1,0.9l-0.1,5.5l0.1,0.7l0.1,0.4l0.3,0.2l0.7,0.2h1.6l2.1-0.2l1-0.1l3.7,0.1h4.7l0.9-0.1l2.4-0.2h1.5
		l0.7,0.1l0.4,0.3l0.3,0.5l0.1,0.7l0.1,0.5l0.1,0.9l-0.1,1.9v0.9l0.1,1.4l-0.1,0.9l-0.1,1l-0.1,0.7l-0.2,0.5l-0.3,0.2l-0.7,0.2h-1.5
		l-2.3-0.3l-1-0.1l-3.7,0.1h-1l-6.7-0.1l-0.9,0.1l-0.9,0.1l-0.6,0.2l-0.2,0.4v0.8l-0.1,3.5v1l-0.2,3.5v1l0.1,1.4l-0.1,1l-0.1,1.1
		l-0.1,0.7l-0.2,0.4l-0.4,0.2l-0.7,0.1l-1.1,0.1l-1,0.1l-2.3-0.1h-1l-2.6,0.2l-1.9-0.1l-0.7-0.1l-0.4-0.2l-0.1-0.4l-0.1-0.7l-0.1-3
		l-0.1-1l-0.1-3.3l0.1-1l0.2-3.3l0.1-1l-0.2-3.3v-1l-0.2-3.4v-1l0.1-3.3v-5.3l0.1-3.3v-5.3l0.1-3.3l0.1-0.7l0.1-0.4l0.4-0.2l0.6-0.1
		h1.4l2.4,0.2h1l3.7-0.2h1l3.6,0.2h1l3.7-0.2l1-0.1l3.7,0.2h1l3.7-0.2h1l1.6,0.1l1,0.1l1.1,0.1l0.7,0.1l0.4,0.2l0.2,0.4l0.1,0.7
		l0.1,0.6v0.9l-0.1,1.9v1L759.5,295.2z"/>
	<path class="st2" d="M810.8,331l0.2,0.9l-0.4,0.7l-0.7,0.3l-0.8,0.1h-0.9l-1.4-0.1l-0.9-0.1H803l-3.9,0.2l-0.8-0.3l-0.4-0.4
		l-0.3-0.7l-1.9-5.2l-0.4-0.6l-0.6-0.1l-0.7-0.1l-3.7-0.2h-1l-4.7-0.1l-3.7-0.1H780l-0.9,0.1h-2.9l-0.8,0.1l-0.5,0.3l-0.4,0.7
		l-1.4,4.2l-0.4,1l-0.7,0.8l-0.9,0.3h-1l-3.6-0.2h-1l-3.9,0.2l-0.8,0.1l-0.7-0.4l-0.5-0.7l0.1-0.8l0.1-0.5l0.4-1l0.9-1.9l0.4-0.9
		l1.6-3.5l0.4-0.9l1.6-3.5l0.4-0.9l1.4-3.4l0.4-0.9l1.7-3.5l0.4-0.9l2.2-5.1l1.7-3.7l0.4-1l1.4-2.8l0.4-1l1.2-2.9l0.4-0.9l1.1-2.6
		l0.3-0.7l0.6-0.4l0.9-0.2l2.9-0.1h4.9l2.9,0.1l1.1,0.2l0.7,0.5l0.3,0.8l0.9,2.4l0.4,0.9l1.6,2.9l0.4,0.9l1.4,3.1l0.4,0.9l1.1,3.2
		l0.4,0.9l1.4,3l0.4,0.9l1.4,3.1l0.4,0.9l1.2,3.1l0.4,0.9l1.9,3.9l1.5,2.9l0.4,0.9l1.7,3.9L810.8,331z M790,313.4l-0.2-0.8l-1.4-4.2
		l-0.3-0.9l-1.2-3.7l-0.3-0.8l-0.6-0.4l-0.8-0.2l-0.7,0.2l-0.6,0.6l-1.7,4.2l-0.4,0.9l-1.6,4.2l-0.2,0.9l0.2,0.7l0.7,0.3l0.9,0.1
		h3.9l2.9,0.2l0.8-0.2l0.5-0.5L790,313.4z"/>
	<path class="st2" d="M830.5,323v1l-0.2,3.4v1l-0.1,3.4v0.7l-0.2,0.4l-0.5,0.1l-0.9,0.1l-3.2-0.1h-3.9l-3.1-0.2l-0.4-0.1l-0.2-0.2
		v-0.6l-0.1-1.6v-1l-0.1-0.9v-0.9l-0.2-3.4l0.1-1l0.2-3.4l0.1-1l-0.2-3.4v-1l-0.1-3.4v-5.4l-0.1-3.4v-1l0.1-3.4v-5.4l-0.1-3.4
		l0.2-0.7l0.4-0.2l0.6-0.1h0.5l0.9-0.1l1.5,0.1h1l2.9-0.1h3.9l0.7,0.1l0.1,0.4l0.1,0.7l0.1,1.6l0.1,1v6.1l0.1,3.4v1l-0.1,3.4v1
		l0.1,3.4v1l-0.1,3.4v5.4L830.5,323z"/>
	<path class="st2" d="M875.6,292.7l-0.1,0.9l0.1,1.9l-0.1,1l-0.1,0.5l-0.1,0.7l-0.2,0.4l-0.4,0.3l-0.7,0.1h-1l-1.9-0.2l-1-0.1
		l-2.9,0.2h-1l-1.6-0.1h-0.9l-0.4,0.1l-0.6,0.2l-0.2,0.4l-0.1,0.8l-0.3,3.7v1l0.3,3.7l-0.1,1l-0.2,3.7l-0.1,1l0.1,3.7v5.7L862,327
		l0.1,0.9l0.3,2.8l0.1,1l-0.2,0.7l-0.3,0.3l-0.8,0.1l-1.2-0.1l-1.6-0.2l-1.1-0.1l-2.8,0.2h-1l-2.8-0.2l-0.7-0.1l-0.4-0.2l-0.1-0.7
		v-1.1l0.2-2.6l0.1-1V322l0.1-3.7v-1l0.1-3.7v-1l-0.2-3.7l-0.1-1v-4.7l-0.1-3.7V299l-0.2-0.5l-0.6-0.1h-0.9l-2,0.1h-1.1l-1.7-0.1
		l-1.1-0.1l-1.1,0.1l-1.4,0.1h-0.9l-0.5-0.1l-0.7-0.1L837,298l-0.2-0.4l-0.1-0.6v-0.4l-0.1-1l0.1-1.9v-0.9l-0.2-2.4l0.1-1l0.2-0.8
		l0.2-0.4l0.4-0.2l0.6-0.1h1.4l2.3,0.2h1l3.6-0.2h1l3.7,0.3h1l4.6-0.3l3.6,0.1h1l4.7-0.1h4.6l2.1-0.1l1.1,0.1l0.5,0.1l0.7,0.1
		l0.4,0.2l0.3,0.4l0.1,0.7v0.4l0.1,0.9L875.6,292.7z"/>
	<path class="st3" d="M424.8,393.5l-0.1,1.1l-0.1,1.1l-0.2,1l-0.3,1.4l-0.3,0.9l-0.6,1.2l-0.4,0.8l-0.7,1.1l-0.6,0.7l-0.7,0.7
		l-0.7,0.7l-1.2,0.8l-0.8,0.6l-0.9,0.5l-0.9,0.4l-1.4,0.5l-1.9,0.6l-1,0.2l-1.6,0.3l-0.9,0.1l-1.4,0.1l-0.9,0.1l-1.4,0.1l-3,0.2
		h-1.4l-0.9-0.1l-1.4-0.1l-0.9-0.1l-1.1-0.2l-0.9-0.3l-1.4-0.4l-0.9-0.4l-0.9-0.4l-0.9-0.4l-0.8-0.5l-2-1.4l-0.7-0.6l-1.1-0.9
		l-0.7-0.6l-0.7-0.7l-0.5-0.6l-0.1-0.4l0.3-0.6l0.2-0.3l0.6-0.7l1.7-1.6l0.6-0.7l1.1-1.6l0.6-0.7l0.6-0.7l0.7-0.4l0.7,0.1l0.7,0.5
		l2,1.4l0.9,0.5l0.9,0.4l1.4,0.7l0.9,0.3l1,0.3l1,0.2l1.4,0.1l1,0.1l3.9-0.2l1-0.1l0.5-0.1l0.9-0.4l0.8-0.5l0.6-0.6l0.3-0.4l0.4-0.9
		l-0.1-1.1l-0.1-0.5l-0.5-0.9l-0.3-0.4l-0.8-0.6l-0.5-0.2l-0.9-0.4l-1.1-0.2l-1.1-0.2l-5.9-0.6L399,389l-1-0.2l-1.4-0.5l-0.9-0.3
		l-0.9-0.4l-2.1-1.1l-0.8-0.6l-0.9-0.6l-0.8-0.6l-1.1-0.9l-0.6-0.8l-0.6-0.9l-0.4-0.9l-0.4-1.3L387,379l-0.2-1.4l-0.1-2l0.1-1
		l0.1-1.5l0.2-0.9l0.2-0.8l0.3-0.9l0.6-1.4l0.4-0.9l0.5-0.7l0.6-0.7l1-0.9l0.8-0.6l0.8-0.6l0.9-0.4l1.2-0.7l1.9-0.7l0.9-0.3l1.4-0.2
		l1-0.2l1.9-0.2l1.4-0.2l1-0.1l0.9-0.1h1l1.9,0.2l0.9,0.1l0.4,0.1l1,0.1l2.1,0.4l1.1,0.2l1,0.3l1.1,0.3l1,0.4l0.9,0.4l0.9,0.4
		l1.2,0.7l0.9,0.4l0.8,0.6l0.6,0.6v0.6l-0.4,0.7l-0.7,1.2L420,370l-2.4,3.1l-0.7,0.9l-0.7,0.6l-0.5,0.2l-0.4-0.1l-0.6-0.3l-0.9-0.6
		l-0.9-0.4l-0.4-0.2l-0.9-0.3l-0.5-0.1l-1.1-0.2l-1.4-0.3l-1-0.1l-1.6-0.1h-1.6l-1.1,0.1l-1.1,0.2l-1,0.3l-0.4,0.2l-0.7,0.6
		l-0.3,0.4l-0.4,0.9l-0.1,1l0.2,0.8l0.5,0.8l0.7,0.6l0.7,0.4l0.4,0.2l0.9,0.2l1.6,0.2l2.1,0.1l1.1,0.2l2.1,0.5l2,0.6l1.4,0.3
		l0.9,0.2l1.7,0.6l1.2,0.6l0.9,0.4l0.9,0.5l0.8,0.5l1.8,1.5l0.7,0.7l0.6,0.7l0.7,1.1l0.5,0.8l0.4,0.9l0.2,0.9l0.2,1.4l0.1,0.9
		L424.8,393.5z"/>
	<path class="st3" d="M477.1,384.5l-0.1,1l-0.1,1.4l-0.1,0.9l-0.4,1.9l-0.1,1.4l-0.1,0.9l-0.2,1l-0.2,0.9l-0.6,1.3l-0.4,0.9L473,399
		l-0.6,0.8l-0.6,0.8l-0.6,0.7l-1,1.1l-0.7,0.6l-0.8,0.6l-0.7,0.6l-1.1,0.7l-0.8,0.5l-0.9,0.5l-0.9,0.4l-1.2,0.5L462,407l-2,0.6
		l-1,0.4l-1,0.2l-1.1,0.2l-1.1,0.2l-1.1,0.1h-3.4l-2.1-0.1l-2.1-0.3l-0.9-0.2l-0.9-0.2l-3.4-1.1l-1-0.3l-1.1-0.4l-2-0.9l-0.9-0.5
		l-0.9-0.6l-0.8-0.6l-0.8-0.7l-0.7-0.8l-0.7-0.8l-1.7-1.7l-0.6-0.7l-0.6-0.8l-0.5-0.8l-0.5-1.2l-0.9-2.8l-0.4-1.3l-0.2-0.9l-0.2-1
		l-0.2-0.9l-0.2-1.4l-0.1-0.9l-0.1-1.1v-1.1l0.1-1.1l0.1-1.1l0.1-1.1l0.2-1.1l0.2-1.1l0.3-1.1l0.3-0.9l0.4-1l0.4-1.4l0.4-1l0.2-0.6
		l0.5-0.9l0.9-1.4l0.6-0.9l0.3-0.5l0.7-0.7l1.1-0.9l0.8-0.6l0.8-0.6l1.9-1.2l0.8-0.5l0.9-0.5l0.9-0.4l1.3-0.6l0.9-0.3l0.9-0.3
		l0.9-0.2l2.4-0.4l0.9-0.2l3.1-0.4l2-0.1l1.9,0.1l1.5,0.1l1.1,0.1l1.1,0.2l1.1,0.2l1.1,0.2l1,0.2l0.9,0.2l0.9,0.3l1.3,0.5l0.9,0.4
		l2.1,1.2l0.8,0.6l0.8,0.6l1.1,1l0.7,0.6l0.7,0.7l0.6,0.7l0.9,1.2l0.5,0.8l0.4,0.8l0.5,0.8l0.7,1.2l0.5,0.8l0.4,0.9l0.3,0.9l0.3,1.4
		l0.4,1.9l0.1,1.1l0.2,1.1L477.1,384.5z M464,385.6v-1.1l-0.1-1.1l-0.1-1l-0.4-1.9l-0.2-0.9l-0.7-1.4l-0.5-0.8l-0.9-1.1l-0.6-0.7
		l-0.9-1l-0.7-0.6l-1.6-0.9l-0.9-0.4l-1-0.3l-1-0.2l-2-0.1l-0.9,0.1l-1.4,0.1l-0.9,0.2l-1.6,0.4l-1,0.4l-1.4,0.7l-0.9,0.6l-1,0.9
		l-0.7,0.7l-0.7,0.9l-0.5,0.8l-0.2,0.4l-0.6,1.3l-0.3,0.9l-0.2,0.4l-0.2,0.9l-0.1,0.9l-0.1,0.9l-0.1,0.9v0.9l0.1,1l0.2,1l0.1,0.6
		l0.2,0.9l0.1,0.4l0.3,0.9l0.2,0.5l0.5,0.9l0.3,0.5l0.7,0.9l0.4,0.4l0.7,0.7l1.2,1.1l0.9,0.6l1,0.5l0.9,0.4l1.3,0.4l0.9,0.2l1.6,0.2
		l1.1,0.1l1.6-0.1l1-0.1l1.4-0.3l0.9-0.4l1.4-0.9l0.7-0.6l1-1l0.6-0.7l0.8-1l0.6-0.9l0.6-1.4l0.4-0.9l0.3-1.4l0.1-0.9L464,385.6z"/>
	<path class="st3" d="M525.6,372.3l-0.1,1v9.2l0.2,3.6v1l0.1,8.2v1.1l-0.1,0.5l-0.1,1.1l-0.2,3l0.1,3.6l-0.1,0.9l-0.2,0.7l-0.5,0.7
		l-0.6,0.4l-0.6,0.2l-0.9,0.1l-3.2,0.1l-1,0.1l-1.6,0.1h-1l-0.8-0.2l-0.7-0.3l-0.7-0.6L513,406l-0.9-1.8l-0.6-0.8l-2.4-3.1l-0.6-0.7
		l-2.4-3l-0.6-0.8l-2.2-3.2l-0.6-0.7l-2.4-3l-0.6-0.7l-2.3-3.1l-0.6-0.5l-0.4,0.2l-0.2,0.7l-0.1,3.1v1l0.1,3.1v1l0.1,3.5v1l-0.2,3.5
		l0.1,1l0.4,2.5l0.1,1l-0.2,0.8l-0.4,0.4l-0.4,0.1l-0.7,0.1l-0.5,0.1l-1.1,0.1l-2.9-0.1h-1l-2.6,0.1h-1l-0.9-0.1l-0.7-0.1l-0.5-0.3
		l-0.2-0.4l-0.1-0.6l-0.1-0.4V405l0.1-2.1l0.1-1l-0.2-3.3v-1l0.1-7.6l0.1-1l0.2-3.3l0.1-1v-4.3l-0.2-3.3v-1l0.2-3.3l-0.1-1l-0.2-3.4
		l-0.1-1V366l0.1-0.9l0.1-0.9l0.1-0.7l0.2-0.4l0.4-0.2l0.7-0.1l1.9-0.1l1.9,0.1h4.7l0.7,0.1l0.3,0.2l0.4,0.6l2.6,2.8l0.6,0.7l2.3,3
		l0.6,0.7l2.3,3l0.6,0.7l2.2,3.1l0.6,0.7l2.4,3l0.6,0.7l2.2,3.1l0.5,0.4l0.5,0.1l0.4-0.3v-0.7l-0.4-2.6l-0.1-1l0.2-2.7v-1l-0.2-3.8
		v-1l0.2-3.8l-0.1-1l-0.2-2.3V364l0.2-0.8l0.2-0.5l0.4-0.2l0.7-0.1h0.6l1.1-0.1l2.8,0.2h1l2.1-0.1l0.9,0.1l1.4,0.1l0.7,0.1l0.4,0.2
		l0.4,0.4l0.1,0.9l0.1,0.6l0.1,1.1l-0.1,1.9l-0.1,1L525.6,372.3z"/>
	<path class="st3" d="M601.6,372.3l-0.1,1v9.2l0.2,3.6v1l0.1,8.2v1.1l-0.1,0.5l-0.1,1.1l-0.2,3l0.1,3.6l-0.1,0.9l-0.2,0.7l-0.5,0.7
		l-0.6,0.4l-0.6,0.2l-0.9,0.1l-3.2,0.1l-1,0.1l-1.6,0.1h-1l-0.8-0.2l-0.7-0.3l-0.7-0.6L589,406l-0.9-1.8l-0.6-0.8l-2.4-3.1l-0.6-0.7
		l-2.4-3l-0.6-0.8l-2.2-3.2l-0.6-0.7l-2.4-3l-0.6-0.7l-2.3-3.1l-0.6-0.5l-0.4,0.2l-0.2,0.7l-0.1,3.1v1l0.1,3.1v1l0.1,3.5v1l-0.2,3.5
		l0.1,1l0.4,2.5l0.1,1l-0.2,0.8l-0.4,0.4l-0.4,0.1l-0.7,0.1l-0.5,0.1l-1.1,0.1l-2.9-0.1h-1l-2.6,0.1h-1l-0.9-0.1l-0.7-0.1l-0.5-0.3
		l-0.2-0.4l-0.1-0.6l-0.1-0.4V405l0.1-2.1l0.1-1l-0.2-3.3v-1l0.1-7.6l0.1-1l0.2-3.3l0.1-1v-4.3l-0.2-3.3v-1l0.2-3.3l-0.1-1l-0.2-3.4
		l-0.1-1V366l0.1-0.9l0.1-0.9l0.1-0.7l0.2-0.4l0.4-0.2l0.7-0.1l1.9-0.1l1.9,0.1h4.7l0.7,0.1l0.3,0.2l0.4,0.6l2.6,2.8l0.6,0.7l2.3,3
		l0.6,0.7l2.3,3l0.6,0.7l2.2,3.1l0.6,0.7l2.4,3l0.6,0.7l2.2,3.1l0.5,0.4l0.5,0.1l0.4-0.3v-0.7l-0.4-2.6l-0.1-1l0.2-2.7v-1l-0.2-3.8
		v-1l0.2-3.8l-0.1-1l-0.2-2.3V364l0.2-0.8l0.2-0.5l0.4-0.2l0.7-0.1h0.6l1.1-0.1l2.8,0.2h1l2.1-0.1l0.9,0.1l1.4,0.1l0.7,0.1l0.4,0.2
		l0.4,0.4l0.1,0.9l0.1,0.6l0.1,1.1l-0.1,1.9l-0.1,1L601.6,372.3z"/>
	<path class="st3" d="M623.4,397.7v1l-0.2,3.4v1l-0.1,3.4v0.7l-0.2,0.4l-0.5,0.1l-0.9,0.1l-3.2-0.1h-3.9l-3.1-0.2l-0.4-0.1l-0.2-0.2
		v-0.6l-0.1-1.6v-1l-0.1-0.9v-0.9l-0.2-3.4l0.1-1l0.2-3.4l0.1-1l-0.2-3.4v-1l-0.1-3.4v-5.4l-0.1-3.4v-1l0.1-3.4V367l-0.1-3.4
		l0.2-0.7l0.4-0.2l0.6-0.1h0.5l0.9-0.1l1.5,0.1h1l2.9-0.1h3.9l0.7,0.1l0.1,0.4l0.1,0.7l0.1,1.6l0.1,1v6.1l0.1,3.4v1l-0.1,3.4v1
		l0.1,3.4v1l-0.1,3.4v5.4L623.4,397.7z"/>
	<path class="st3" d="M674.9,386.2l-0.1,1.1l-0.1,1.5l-0.2,1l-0.4,1.4l-0.3,1l-0.4,0.9l-0.4,1l-0.4,1.1l-0.4,0.9l-0.7,1.4l-0.5,0.8
		l-0.9,1l-0.6,0.7l-1.1,1l-1.4,1.4l-0.8,0.7L665,404l-0.8,0.5l-1.2,0.7l-0.8,0.4L661,406l-0.9,0.3l-1,0.2l-1,0.2l-3.8,0.6l-0.9,0.1
		l-1.4,0.1h-1l-2-0.1l-1.6-0.1h-1l-2,0.1l-1.6,0.1l-1.1,0.1l-0.9-0.1h-4.4l-0.9-0.1l-2.7-0.2l-0.5-0.2l-0.3-0.3l-0.1-0.7l-0.1-1
		l0.1-0.5l0.1-1.9v-0.9l0.1-1.4v-0.9l0.1-1v-1l-0.1-3.3v-1l-0.1-3.3l0.1-0.9l0.1-1.4l0.1-0.9l0.1-1.1v-1l-0.1-1.6l-0.1-1.1v-0.6
		l-0.1-1.1l0.2-3.3v-1l-0.1-3.3v-1l-0.2-3.3v-2.4l0.1-1l0.2-0.9l0.1-0.7l0.2-0.4l0.7-0.2l1.1-0.1l0.9-0.1l1-0.1l5.5,0.1h1l3,0.2
		l0.5,0.1h1.1l2.6-0.1l0.9-0.1h1l1.6,0.1l2,0.1l1,0.1l1.6,0.2l1,0.2l0.9,0.2l2.2,0.8l0.9,0.4l0.9,0.5l0.9,0.5l2.1,1.4l0.8,0.7
		l0.7,0.6l1.4,1.3l0.6,0.6l0.6,0.7l0.4,0.8l0.7,1.4l0.4,0.9l0.3,1l0.4,1l0.3,1l0.2,1l0.2,1.4l0.2,1l0.2,1.1l0.1,1l0.1,1.5l0.1,1
		L674.9,386.2z M660.7,391.5l0.4-0.9l0.4-1.1l0.2-0.9l0.2-1.4l0.1-0.9l0.1-1.4v-2l-0.1-1l-0.2-1.4l-0.2-0.9l-0.1-0.4l-0.5-0.9
		l-0.9-1.3l-0.3-0.3l-0.6-0.7l-0.7-0.7l-0.7-0.6l-1.4-0.8l-0.9-0.4l-0.9-0.2l-1-0.2L652,373l-1,0h-1.6l-1.4-0.1l-0.9,0.1l-1.4,0.2
		l-0.7,0.2l-0.3,0.3l-0.2,0.7l-0.1,0.6l-0.1,0.9l0.1,1.9l0.1,1l0.1,1.4l0.1,1l0.1,1v1l-0.1,1.4v3l-0.1,1.1l-0.1,1l-0.1,1.4v0.9
		l-0.1,1.4l0.1,0.9l0.2,1.5l0.2,0.7l0.4,0.3l0.7,0.1l5.8-0.4l1.4-0.1l1-0.2l1.1-0.3l1-0.4l0.9-0.4l0.8-0.6l1.1-1l0.6-0.7
		L660.7,391.5z"/>
</g>
<path class="st2" d="M101.6,409.4c-0.1,0.4,0,0.8,0.2,1.1c0.2,0.3,0.6,0.5,1,0.6c5.1,0.8,10.2,1.2,15,1.2c15.1,0,28.2-3.9,36.1-11
	c3.1-2.8,5.3-6.1,6.7-9.7l41.3,2.6c0.1,0,0.3,0,0.5,0l160.3,10h0.1c0.8,0,1.4-0.6,1.5-1.4s-0.6-1.5-1.4-1.5l-104.4-6.6
	c-1.4-4.9,0.5-9.5,3.8-12.8c22.4,0.4,45.3,0.5,68.3,0.5c11.5,0,23.1,0,34.7-0.1c0.8,0,1.4-0.7,1.4-1.5s-0.7-1.4-1.5-1.4l0,0
	c-31.4,0.2-62.7,0.1-93.3-0.2c-1.3-7.6,1.8-16,9.8-26.3c0,0,0,0,0-0.1c4.9-1,9.8-2.4,14.7-4c26.1-8.9,45.9-25.7,54.7-46.2
	c10.4,0.7,22.2-3.9,29.9-11.8c5.4-5.5,7.9-11.8,7.2-17.7c-0.3-2.1-1.4-3.2-2.3-3.7c-2.8-1.5-7.5-0.6-14.8,2.7
	c-22.5,10.3-43.5-0.3-70.3-35.6c-7.6-10-11.6-18.4-15.2-25.8c-4.5-9.2-8.3-17.2-17.3-26c-14-13.9-32.4-21.5-50.3-21
	c-36,1.1-60.3,23-66.9,60.1c-11,0.9-20.7,4.1-29.3,9.8c-0.4,0.3-0.6,0.7-0.7,1.1c0,0.4,0.1,0.9,0.5,1.2c7.9,7,17,11.6,28.1,13.9
	c0.5,8.7,1.9,17.3,4,25.6c8.2,31.2,21.9,51.4,43,63.7c10.5,6.1,21.7,10.4,33.4,13.1c-4.2,5.8-6.7,11.6-7.5,17.4
	c-9.2,1.5-15.5,4.2-19.1,8c-10.8-0.3-21.1-0.7-30.7-1c-1.5,0-3-0.2-4.5-0.6c-1.2-21.7-23.5-39.1-53.1-41c-0.8,0-1.5,0.5-1.5,1.3
	c-2.2,15.2,10.8,31.1,23.8,39.5c0.3,0.2,0.6,0.4,0.9,0.6C115.3,386.5,103.6,397.1,101.6,409.4L101.6,409.4z M168.1,229.3
	c1.2,1.7,1.7,4.5,1.6,9c-0.1,4.5-1,7.4-2.8,8.9c-1.3,1.2-3.1,1.6-5.5,1.5c-3.8-0.3-7.1-0.7-10-1.3h-0.1c-10.4-2-18.9-6-26.3-12.1
	c8.1-4.9,17.1-7.7,27.4-8.4l0,0c1.4-0.1,2.8-0.2,4.1-0.2h0.4c1.3,0,2.6,0,3.9,0C164.6,226.7,166.8,227.6,168.1,229.3L168.1,229.3z
	 M205.6,208.7c5.3,0.7,9,6.5,8.2,12.9s-5.9,11-11.2,10.3c-5.4-0.7-9-6.4-8.2-12.8C195.2,212.6,200.2,208,205.6,208.7L205.6,208.7z
	 M222.8,378.2c-1.3,0-2.7,0-4-0.1c1.2-0.8,2.4-1.4,3.7-2C222.6,376.8,222.6,377.5,222.8,378.2z M295.6,316.3
	c-5.4-0.1-11.7-2.6-17.4-6.6c-3,5.4-8.2,8.5-14.5,8.7H263c-10.7,0-22.9-7.8-29.8-19.2c-4.8-7.9-11.2-24.3,0.5-45.2
	c0.4-0.7,1.3-1,2-0.6s1,1.3,0.6,2c-11,19.6-5.1,34.9-0.6,42.3c6.6,10.8,18,18,27.9,17.8c3.9-0.1,9.1-1.5,12.3-7.5
	c-3.2-2.6-6.2-5.7-8.7-9.1c-0.5-0.7-0.3-1.5,0.3-2c0.7-0.5,1.5-0.3,2,0.3c6.9,9.5,17.7,16.2,26.1,16.3c5.7,0.1,9.7-2.4,10.4-4.9
	c0.5-1.9-1-4-4.3-5.8c-0.1,0-0.1-0.1-0.2-0.1c-0.4-0.1-0.8-0.3-1.3-0.4c-0.7-0.3-1.2-1.1-0.9-1.9c0.3-0.8,1.1-1.2,1.9-0.9
	c6,2.1,11.3,2.8,16,2.2c3.8-0.5,6.3-1.9,7.5-4s0.9-5.1-0.7-8.5c-4.1-8.8-16.6-20.9-38.4-37.3c-0.7-0.5-0.8-1.4-0.3-2
	c0.5-0.7,1.4-0.8,2-0.3c22.1,16.6,35,29.2,39.3,38.4c2.5,5.5,1.7,9.1,0.6,11.2c-1.6,3-5,4.9-9.7,5.5c-1.3,0.2-2.6,0.2-3.9,0.2
	c-1.9,0-3.9-0.2-5.9-0.5c1.4,2.1,1.3,3.9,1,5.1c-1.1,4.1-6.5,7-12.9,7L295.6,316.3L295.6,316.3z M277.5,353.6
	c-4.4,6.1-7.1,11.6-8.3,16.8c-9.1,1.5-16.1,4.4-20.5,8.5c-7.5-0.1-15.1-0.3-23.1-0.5c-1.5-8.6,0.8-16.7,7.4-25.3
	c7.8,1.5,15.7,2.3,23.7,2.3C263.7,355.4,270.7,354.8,277.5,353.6L277.5,353.6z M265.8,379c1-0.6,2-1.1,3-1.6c0,0.5,0.1,1.1,0.2,1.6
	C267.9,379,266.8,379,265.8,379z M246.7,394c-0.9-3.6-0.4-7,1.5-10c0.6-0.9,1.2-1.7,2-2.5c0.2-0.1,0.3-0.3,0.4-0.4
	c3.8-3.6,10-6.3,18.2-7.7c0,0.3-0.1,0.7-0.1,1c-8.3,3-15.4,10.9-13.4,20.2L246.7,394L246.7,394z M212.3,391.8c-1-4.3,0.4-8,3.1-10.9
	c10.8,0.3,21,0.5,30.9,0.7c-0.2,0.3-0.3,0.5-0.5,0.7c-2.1,3.4-2.9,7.3-2,11.4L212.3,391.8L212.3,391.8z M203.3,391.3
	c-1-4-0.7-7.3,1-9.9c2.6-4.1,8.7-6.9,18-8.6v0.3c-9.3,3.4-14.4,10.8-13.1,18.6L203.3,391.3L203.3,391.3z M161.4,388.7
	c0.5-2,0.7-4.1,0.6-6.3c2.1-0.4,4-1.2,5.7-2.3c0.4-0.2,0.6-0.6,0.7-1c1.5,0.3,2.9,0.5,4.4,0.5c9,0.3,18.7,0.7,28.7,1
	c-1.6,3-2,6.4-1.2,10.5L161.4,388.7z"/>
</svg>
