<?xml version="1.0" encoding="utf-8"?>
<!-- Generator: Adobe Illustrator 19.0.0, SVG Export Plug-In . SVG Version: 6.00 Build 0)  -->
<svg version="1.1" id="Calque_1" xmlns="http://www.w3.org/2000/svg" xmlns:xlink="http://www.w3.org/1999/xlink" x="0px" y="0px"
	 viewBox="20 31 1000 500" style="enable-background:new 20 31 1000 500;" xml:space="preserve">
<style type="text/css">
	.st0{display:none;}
	.st1{display:inline;fill:#161616;}
	.st2{fill:#FFFFFF;}
</style>
<g id="Calque_2" class="st0">
	<rect id="XMLID_1_" x="214" y="178" class="st1" width="1000" height="500"/>
</g>
<g>
	<path class="st2" d="M348.4,174.8l0.2,3.2l-0.2,3l-0.2,2.2l-0.6,1.4l-1.2,1l-2.2,0.6h-4.2l-6-0.8l-3.2-0.2h-13.1l-23,0.8l-9.1-0.6
		h-4.4l-2,0.6l-0.8,1.4l-0.2,2.8l-0.4,17.9l0.2,2.2l0.2,1.2l1,0.8l2.4,0.6h5.2l6.9-0.6l3.2-0.2l12.1,0.4h15.3l3-0.2l7.7-0.6h4.8
		l2.2,0.4l1.2,1l0.8,1.6l0.4,2.4l0.2,1.6l0.2,3l-0.4,6v3l0.2,4.6l-0.2,3l-0.2,3.2l-0.4,2.4l-0.6,1.6l-1,0.8l-2.4,0.6h-4.8l-7.5-1
		l-3.2-0.2l-12.1,0.4h-3.2l-21.8-0.4l-3,0.2l-2.8,0.4l-2,0.6l-0.8,1.2v2.6l-0.2,11.5v3.2l-0.8,11.3v3.2l0.2,4.4l-0.2,3.2l-0.2,3.4
		l-0.2,2.4l-0.6,1.2l-1.2,0.6l-2.2,0.4l-3.4,0.4l-3.2,0.2l-7.5-0.2h-3.2l-8.3,0.6l-6-0.4l-2.2-0.4l-1.2-0.8l-0.4-1.4l-0.2-2.2
		l-0.6-10.7l-0.2-3.2l-0.2-10.7l0.2-3.2l0.8-10.7l0.2-3.2l-0.6-10.7v-3.2l-0.6-10.9v-3.2l0.4-10.7v-17.1l0.4-10.7v-17.1l0.4-10.7
		l0.2-2.4l0.4-1.4l1.2-0.6l2-0.4h4.4l7.7,0.6h3.2l11.9-0.6h3.2l11.7,0.6h3.2l11.9-0.6l3.2-0.2l11.9,0.6h3.2l11.9-0.6h3.2l5,0.2
		l3.2,0.2l3.4,0.4l2.2,0.2l1.2,0.6l0.8,1.2l0.2,2.2l0.2,1.8v3l-0.4,6v3.2L348.4,174.8z"/>
	<path class="st2" d="M392.1,282.8l-0.6,3.2l-1,3.2l-1.4,3l-1.8,2.8l-2.6,2.4l-2.8,1.6l-3,1l-3.2,0.4l-3.6,0.2h-3.6l-1.4-0.2l-3-0.2
		l-1.4-0.4l-3.2-1l-3.2-1.8l-2.6-2l-0.8-1.2l-1.8-2.2l-0.6-1.2l-1.2-2.6l-0.4-1.2l-0.6-2.8v-5.4l0.8-2.6l0.4-1.4l1.4-2.4l0.6-1.2
		l1.8-2.2l0.8-1l2.6-2.2l3.2-2.2l3-1.4l1.2-0.6l3-0.6h4.8l3.6,0.6l3,1.2l2.8,1.6l2.6,1.8l2.6,2l2.2,2.4l1.4,2.8l1.2,3.2l0.6,3.2
		L392.1,282.8z"/>
	<path class="st2" d="M569.5,290.9l0.6,2.8l-1.4,2.2l-2.2,1l-2.6,0.4H561l-4.6-0.4l-3-0.2h-9.1l-12.5,0.8l-2.6-0.8l-1.2-1.6l-1-2.2
		l-6.2-16.9l-1.4-2l-1.8-0.4l-2.4-0.2l-12.1-0.8h-3.2l-15.1-0.4l-12.1-0.2h-3l-3,0.2h-9.3l-2.6,0.4l-1.6,1l-1.2,2.4l-4.6,13.7
		l-1.2,3.2l-2.2,2.6l-3,1.2l-3.2-0.2l-11.7-0.6h-3.2l-12.5,0.8l-2.6,0.2l-2.4-1.2l-1.6-2.2l0.2-2.6l0.4-1.6l1.2-3.2l2.8-6.2l1.2-3
		l5-11.3l1.2-2.8l5.2-11.3l1.2-3l4.6-10.9l1.2-3l5.4-11.3l1.2-2.8l7.3-16.5l5.6-12.1l1.4-3.2l4.4-9.1l1.4-3.2l3.8-9.3l1.2-3l3.6-8.3
		l1-2.2l2-1.2l3-0.6l9.3-0.4h15.7l9.3,0.2l3.4,0.6l2.2,1.6l1,2.6l2.8,7.9l1.2,3l5,9.5l1.2,2.8l4.4,9.9l1.2,2.8l3.6,10.3l1.2,2.8
		l4.4,9.7l1.2,2.8l4.4,9.9l1.2,2.8l4,10.1l1.2,2.8l6.2,12.5l4.8,9.5l1.4,2.8l5.4,12.7L569.5,290.9z M502.2,234l-0.8-2.6l-4.4-13.7
		l-1-3l-4-11.9l-1-2.6l-2-1.4l-2.6-0.6l-2.2,0.6l-2,2l-5.4,13.7l-1.2,3l-5.2,13.5l-0.6,3l0.6,2.4l2.2,1l2.8,0.4h12.7l9.5,0.6
		l2.6-0.8l1.6-1.6L502.2,234z"/>
	<path class="st2" d="M629.6,282.8L629,286l-1,3.2l-1.4,3l-1.8,2.8l-2.6,2.4l-2.8,1.6l-3,1l-3.2,0.4l-3.6,0.2h-3.6l-1.4-0.2l-3-0.2
		l-1.4-0.4l-3.2-1l-3.2-1.8l-2.6-2l-0.8-1.2l-1.8-2.2l-0.6-1.2l-1.2-2.6l-0.4-1.2l-0.6-2.8v-5.4l0.8-2.6l0.4-1.4l1.4-2.4l0.6-1.2
		l1.8-2.2l0.8-1l2.6-2.2l3.2-2.2l3-1.4l1.2-0.6l3-0.6h4.8l3.6,0.6l3,1.2l2.8,1.6l2.6,1.8l2.6,2l2.2,2.4l1.4,2.8l1.2,3.2l0.6,3.2
		L629.6,282.8z"/>
	<path class="st2" d="M806.7,285.2l-1.6,1.8l-10.1,9.9l-2.4,2.2l-10.3,10.1l-2.2,1.4l-1.6,0.2l-1.6-1.6l-5.4-6.7l-2.2-2.4l-5.8-5.6
		l-2-1.2l-2.4,0.4l-3,1l-3.2,1l-3,0.6l-6.5,1.6l-3.2,0.6l-3,0.6l-3.4,0.2l-1.8,0.2h-7.7l-3,0.2l-4.6,0.2l-3,0.2h-3l-3.2-0.2l-6-1.2
		l-4.6-1l-3-0.8l-6.4-2.4l-3.4-1.4l-3-1.6l-6-3.6l-7.9-5.6l-2.6-2l-3.4-3.2l-2-2.2l-2.6-3.6l-1.6-2.6l-1.6-3l-1.6-2.8l-2.2-4
		l-1.4-2.8l-1.2-2.6l-1-3l-1.4-4.6l-1.2-6l-0.2-3l0.2-4.6l0.2-3.2l0.2-3v-3l-0.2-3.2l-0.2-3v-4.6l0.4-3.2l0.6-3.4l0.8-3.4l1-3.4
		l1.2-3.2l1.4-3.4l1.4-3l3.2-5.6l4.2-6.9l3.6-4.4l5.8-4.8l2.6-2l6.9-4.4l2.8-1.4l8.7-4l3-1.2l6.4-2l4.4-1l3.2-0.6l9.5-1.4l3.4-0.4
		l3.4-0.2h3.2l4.6,0.2h3l3.2,0.2l3.2,0.6l4.6,0.8l3,0.8l2.8,0.8l7.3,2.6l2.8,1.2l2.6,1.4l2.6,1.2l3,1l6.9,3.4l2.6,2l2.4,2.4l2.4,2.6
		l4.4,5.2l2.4,2.6l2.2,2.8l1.8,2.6l1.8,2.8l1.4,3l1.2,2.8l1.4,4.2l1.2,3l1,3.4l0.8,3.2l0.8,3.4l0.6,3.2l0.2,3.4v3.6l-0.2,3.4v9.5
		l-0.4,5l-0.4,3l-1,4.4l-1,3l-1.2,3.4l-1.2,3.2l-1,3.2l-1.2,3l-2,4.2l-0.8,2v1.4l1.6,2l11.1,11.5l1.6,2.2L806.7,285.2z M721.1,265.7
		h3.2l5-0.8l3-0.6l4.6-1.4l7.5-3.2l2.6-1.8l3.6-2.8l2-2.4l2.6-3.8l1.4-2.8l1.8-4.6l1-3l1-3.2l0.6-3.2l0.6-6v-3.2l-0.2-4.4l-0.6-3.2
		l-1.4-4.8l-1-3l-2.8-5.2l-1.6-2.8l-2.2-2.6l-2.2-2.2l-3.4-3.2l-2.6-1.8l-4-2.4l-2.8-1.2l-4.6-1.4l-3-0.6l-4.8-0.6h-3.4l-3.4,0.2
		l-3.2,0.6l-5.8,1.8l-2.8,1l-3,1.4l-2.6,1.8l-5,3.8l-2.2,2.4l-2.8,3.8l-1.6,2.8l-2,4.4l-1,3l-0.8,3.4l-0.4,3l-0.6,9.1l0.2,4.6l0.4,3
		l1,5l1,3l1.6,4.4l1.6,2.8l2.8,4.2l2.2,2.4l4,2.6l2.8,1.6l7.5,3l4.4,1.4l3,0.8L721.1,265.7z"/>
</g>
<rect x="825.4" y="252.1" class="st2" width="20" height="118.7"/>
<polygon class="st2" points="842.7,350.7 340,350.7 340,350.8 276.1,414.7 276.1,370.7 276.1,350.7 256.1,350.7 206,350.7 
	206,370.7 256.1,370.7 256.1,434.7 256.1,462.8 256.1,462.9 348.3,370.7 842.7,370.7 "/>
</svg>
