<?xml version="1.0" encoding="utf-8"?>
<!-- Generator: Adobe Illustrator 19.0.0, SVG Export Plug-In . SVG Version: 6.00 Build 0)  -->
<svg version="1.1" id="Calque_1" xmlns="http://www.w3.org/2000/svg" xmlns:xlink="http://www.w3.org/1999/xlink" x="0px" y="0px"
	 viewBox="194 147 1000 500" style="enable-background:new 194 147 1000 500;" xml:space="preserve">
<style type="text/css">
	.st0{display:none;}
	.st1{display:inline;fill:#161616;}
	.st2{display:inline;}
	.st3{fill:#F2DBC2;}
	.st4{display:inline;fill:#F2DBC2;}
	.st5{display:inline;fill:url(#XMLID_5_);}
	.st6{clip-path:url(#SVGID_2_);fill:#C1272D;}
	.st7{clip-path:url(#SVGID_4_);fill:#C1272D;}
	.st8{clip-path:url(#SVGID_6_);fill:#C1272D;}
	.st9{clip-path:url(#SVGID_8_);fill:#C1272D;}
	.st10{clip-path:url(#SVGID_10_);fill:#C1272D;}
	.st11{clip-path:url(#SVGID_12_);fill:#C1272D;}
	.st12{clip-path:url(#SVGID_14_);fill:#C1272D;}
	.st13{clip-path:url(#SVGID_16_);fill:#C1272D;}
	.st14{clip-path:url(#SVGID_18_);fill:#C1272D;}
	.st15{clip-path:url(#SVGID_20_);fill:#C1272D;}
	.st16{clip-path:url(#SVGID_22_);fill:#C1272D;}
	.st17{clip-path:url(#SVGID_24_);fill:#C1272D;}
	.st18{display:inline;fill:#C1272D;}
	.st19{display:none;fill:url(#XMLID_6_);}
	.st20{clip-path:url(#SVGID_26_);}
	.st21{fill:#C1272D;}
	.st22{clip-path:url(#SVGID_28_);fill:#C1272D;}
	.st23{clip-path:url(#SVGID_30_);fill:#C1272D;}
	.st24{clip-path:url(#SVGID_32_);}
	.st25{clip-path:url(#SVGID_34_);}
	.st26{clip-path:url(#SVGID_36_);}
	.st27{clip-path:url(#SVGID_38_);}
	.st28{clip-path:url(#SVGID_40_);}
	.st29{clip-path:url(#SVGID_42_);}
	.st30{clip-path:url(#SVGID_44_);}
	.st31{clip-path:url(#SVGID_46_);fill:#C1272D;}
	.st32{clip-path:url(#SVGID_48_);fill:#C1272D;}
	.st33{clip-path:url(#SVGID_50_);fill:#C1272D;}
	.st34{fill:#C1282D;}
</style>
<g id="Logo">
	<g id="Calque_2" class="st0">
		<rect id="XMLID_1_" x="857.3" y="473.5" class="st1" width="1000" height="500"/>
	</g>
</g>
<g id="Search" class="st0">
	<text transform="matrix(1 0 0 1 770.6946 1038.519)" class="st4" style="font-family:'NexaSlab-Bold'; font-size:20.7076px;">Search</text>
	<g class="st2">
		<path class="st3" d="M793.4,1020.2h-5.7c-3.3,0-5.2-1.7-7.6-4.1l0,0l0,0l-8.6-10.6c-1.3-1.6-1-4,0.6-5.3s4-1,5.3,0.6l1.2,1.5
			v-20.1c0-2.1,1.6-3.8,3.7-3.8c2.1-0.1,3.8,1.6,3.9,3.7v0.1v9.1c0.6-0.3,1.3-0.5,2-0.4c1.6,0.1,2.9,1.2,3.3,2.7
			c0.6-0.3,1.2-0.5,1.8-0.5l0,0c1,0,1.9,0.4,2.6,1.1c0.3,0.3,0.6,0.7,0.7,1c0.6-0.4,1.4-0.7,2.2-0.7c2,0,3.7,1.8,3.7,3.8v3.6v1v8.1
			C802.5,1016.1,798.4,1020.2,793.4,1020.2z M781.6,1014.8c2.4,2.4,3.8,3.4,6.1,3.4h5.7c3.9,0,7.1-3.2,7.1-7.1v-7.1v-1v-4.6
			c0-1-0.8-1.8-1.7-1.8s-1.6,0.6-1.8,1.5l0,0c-0.1,0.5-0.5,0.9-1.1,0.9l0,0c-0.5,0-1-0.5-1-1v-1c0-0.5-0.2-1-0.5-1.3
			s-0.8-0.5-1.2-0.5c-0.8,0-1.5,0.6-1.7,1.4l0,0c-0.1,0.5-0.6,0.9-1.1,0.8l0,0c-0.5,0-0.9-0.5-0.9-1v-1.7c0-0.9-0.7-1.7-1.6-1.8
			c-0.9-0.1-1.7,0.6-1.9,1.5l0,0c-0.1,0.5-0.5,0.9-1.1,0.9l0,0c-0.5,0-0.9-0.5-0.9-1v-12c0-0.4-0.2-0.9-0.5-1.2
			c-0.3-0.4-0.8-0.6-1.3-0.6c-0.9,0-1.7,0.8-1.7,1.8v21.8l0,0v1.2c0,0.4-0.3,0.8-0.7,1l0,0c-0.4,0.1-0.9,0-1.1-0.3l0,0l-3-3.7
			c-0.3-0.4-0.9-0.7-1.4-0.6c-0.3,0-0.5,0.1-0.8,0.2c-0.8,0.5-1.1,1.5-0.7,2.4c0,0.1,0.1,0.2,0.2,0.3L781.6,1014.8z"/>
	</g>
	<path class="st4" d="M814.1,984.3c-7,5.8-7.9,16.3-2.1,23.3c5.6,6.6,15.1,7.8,22,3l1.4,1.6c-0.8,1-0.8,2.3,0,3.3l9.1,11
		c0.9,1.1,2.5,1.2,3.5,0.3l1.8-1.5c1-0.9,1.2-2.5,0.3-3.5l-9.2-11c-0.8-1-2.2-1.2-3.2-0.6l-1.4-1.6c5.9-6,6.4-15.6,0.9-22.2
		C831.5,979.3,821.1,978.4,814.1,984.3z M813.7,1002.1c-2.8-6.1-0.2-13.3,5.9-16.1c6.1-2.8,13.3-0.2,16.1,5.9
		c2.8,6.1,0.2,13.3-5.9,16.1C823.7,1010.8,816.5,1008.1,813.7,1002.1z"/>
</g>
<g id="Repères" class="st0">
	<g id="Exterieurs" class="st2">
	</g>
	<g id="Interieurs" class="st2">
	</g>
</g>
<g id="XMLID_34_" class="st0">
	
		<linearGradient id="XMLID_5_" gradientUnits="userSpaceOnUse" x1="1224" y1="-16562.9492" x2="1347" y2="-16562.9492" gradientTransform="matrix(1 0 0 -1 0 -15636)">
		<stop  offset="0" style="stop-color:#FFFFFF"/>
		<stop  offset="1" style="stop-color:#000000"/>
	</linearGradient>
	<rect id="XMLID_14_" x="1224" y="865.2" class="st5" width="123" height="123.5"/>
	<g id="XMLID_25_" class="st2">
		<g>
			<g>
				<g>
					<g>
						<defs>
							<rect id="SVGID_1_" x="1224" y="865.2" width="123" height="123.5"/>
						</defs>
						<clipPath id="SVGID_2_">
							<use xlink:href="#SVGID_1_"  style="overflow:visible;"/>
						</clipPath>
						<path id="_x32__2_" class="st6" d="M1271.5,1011.4c0,0,8.3-4,13.6-8.5c10.3-9,18.1-11.8,35.6-8.5s22.1,1.9,23,1.4l5.7-6.7
							c0,0,15.5,4.5,3.4-3.3c-24.6-15.8-47.8-6.4-58.6,1.3c-13.9,9.8-10.5,23.6-30.3,23.9L1271.5,1011.4z"/>
					</g>
				</g>
			</g>
		</g>
	</g>
	<g id="XMLID_24_" class="st2">
		<g>
			<g>
				<g>
					<g>
						<defs>
							<rect id="SVGID_3_" x="1224" y="865.2" width="123" height="123.5"/>
						</defs>
						<clipPath id="SVGID_4_">
							<use xlink:href="#SVGID_3_"  style="overflow:visible;"/>
						</clipPath>
						<path id="_x33__2_" class="st7" d="M1250.8,1006.9c0,0,12.7,8.3,41.4-20.1c28.6-28.4,68.8-6.6,81.7-1l2.8-15.7
							c0,0-43.4-18.7-85.2,6.8c-41.8,25.4-55.3,14.9-71.2,7.7l19.9,14.4c0,0,29.1,0.7,43.3-11.2c0,0-16.8,17.1-39.4,16.4
							L1250.8,1006.9z"/>
					</g>
				</g>
			</g>
		</g>
	</g>
	<g id="XMLID_23_" class="st2">
		<g>
			<g>
				<g>
					<g>
						<defs>
							<rect id="SVGID_5_" x="1224" y="865.2" width="123" height="123.5"/>
						</defs>
						<clipPath id="SVGID_6_">
							<use xlink:href="#SVGID_5_"  style="overflow:visible;"/>
						</clipPath>
						<path id="_x34__2_" class="st8" d="M1220.4,983.9c0,0,40.6,5.4,73.1-24.1s70.6-41.4,97.8-30.9l-11.5,37.5
							c0,0-31.8-25-78.8-0.7C1253.8,990,1245.1,989.3,1220.4,983.9z"/>
					</g>
				</g>
			</g>
		</g>
	</g>
	<g id="XMLID_22_" class="st2">
		<g>
			<g>
				<g>
					<g>
						<defs>
							<rect id="SVGID_7_" x="1224" y="865.2" width="123" height="123.5"/>
						</defs>
						<clipPath id="SVGID_8_">
							<use xlink:href="#SVGID_7_"  style="overflow:visible;"/>
						</clipPath>
						<path id="_x35__2_" class="st9" d="M1214.3,980.7c0,0,41.9,5.7,59-14.3c17.2-19.9,39.4-86.9,106-74.1l8.8,32.8
							c0,0-44.8-24.4-86.9,24.9C1301.2,950,1264.1,991.5,1214.3,980.7z"/>
					</g>
				</g>
			</g>
		</g>
	</g>
	<g id="XMLID_21_" class="st2">
		<g>
			<g>
				<g>
					<g>
						<defs>
							<rect id="SVGID_9_" x="1224" y="865.2" width="123" height="123.5"/>
						</defs>
						<clipPath id="SVGID_10_">
							<use xlink:href="#SVGID_9_"  style="overflow:visible;"/>
						</clipPath>
						<path id="_x36__2_" class="st10" d="M1213.2,978.5c0,0,31.5,6,40.3-7.4s15-19.6,13.6-25.5c-1.5-5.9-14.2-17.5-17.3-22.1
							c-3.1-4.6-14.9-17-38.9,0s-25.3,25.2-30.2,24.7l6.9,5.1c0,0,26-18.6,30.5-20.7c4.5-2.1,18-10.6,26.1-0.3
							c8.2,10.2,14.4,11.9,9.4,21.2c-5,9.4-13.8,20-48,16.3L1213.2,978.5z"/>
					</g>
				</g>
			</g>
		</g>
	</g>
	<g id="XMLID_20_" class="st2">
		<g>
			<g>
				<g>
					<g>
						<defs>
							<rect id="SVGID_11_" x="1224" y="865.2" width="123" height="123.5"/>
						</defs>
						<clipPath id="SVGID_12_">
							<use xlink:href="#SVGID_11_"  style="overflow:visible;"/>
						</clipPath>
						<path id="_x37__2_" class="st11" d="M1188.2,953.9c0,0,29.8-22.3,40.8-25.4c0,0,12-4.4,15.7,7.9c0,0,2.5,5.4,5.6,7.8
							c0,0,11.8,8.9-10.3,21.6c0,0-10.9,6.7-35.6,3.4l-4-3.9c0,0,34.1,8.9,45.2-11.8c0,0,2.4-6.8-1.5-8.2c-3.8-1.4-6.9-6.2-7.2-6.9
							c-0.3-0.7-2.9-8.5-10.7-2.8C1218.5,941.2,1206.7,946.6,1188.2,953.9z"/>
					</g>
				</g>
			</g>
		</g>
	</g>
	<g id="XMLID_19_" class="st2">
		<g>
			<g>
				<g>
					<g>
						<defs>
							<rect id="SVGID_13_" x="1224" y="865.2" width="123" height="123.5"/>
						</defs>
						<clipPath id="SVGID_14_">
							<use xlink:href="#SVGID_13_"  style="overflow:visible;"/>
						</clipPath>
						<path id="_x38__2_" class="st12" d="M1199.6,927.7c0,0,14.7-18.3,78.2-26c63.5-7.6,80.3-9.1,102.8-24.7
							c0,0-20.7-0.7-30.3-12.2c0,0-20,28.5-72.7,34.4C1224.8,905.1,1218.3,910.9,1199.6,927.7z"/>
					</g>
				</g>
			</g>
		</g>
	</g>
	<g id="XMLID_18_" class="st2">
		<g>
			<g>
				<g>
					<g>
						<defs>
							<rect id="SVGID_15_" x="1224" y="865.2" width="123" height="123.5"/>
						</defs>
						<clipPath id="SVGID_16_">
							<use xlink:href="#SVGID_15_"  style="overflow:visible;"/>
						</clipPath>
						<path id="_x39__2_" class="st13" d="M1201.2,923.8c0,0,20.2-19.8,46.8-23.1s74-10.6,99-39.9c0,0-5.3,0-9.3-2.5
							c0,0-19.6,28.7-55.2,35c-35.6,6.2-48.8,2.6-82,30.5C1170.1,949.3,1201.2,923.8,1201.2,923.8z"/>
					</g>
				</g>
			</g>
		</g>
	</g>
	<g id="XMLID_17_" class="st2">
		<g>
			<g>
				<g>
					<g>
						<defs>
							<rect id="SVGID_17_" x="1224" y="865.2" width="123" height="123.5"/>
						</defs>
						<clipPath id="SVGID_18_">
							<use xlink:href="#SVGID_17_"  style="overflow:visible;"/>
						</clipPath>
						<path id="_x31_0_2_" class="st14" d="M1201.4,914.9c0,0,23-20.3,65.6-20.8c42.7-0.5,68-36.1,64.9-50.1h-19.3
							c0,0,2,49.3-46.9,48.2C1217,891.1,1206,908,1201.4,914.9z"/>
					</g>
				</g>
			</g>
		</g>
	</g>
	<g id="XMLID_16_" class="st2">
		<g>
			<g>
				<g>
					<g>
						<defs>
							<rect id="SVGID_19_" x="1224" y="865.2" width="123" height="123.5"/>
						</defs>
						<clipPath id="SVGID_20_">
							<use xlink:href="#SVGID_19_"  style="overflow:visible;"/>
						</clipPath>
						<path id="_x31_1_2_" class="st15" d="M1197.2,918.8c0,0,16-29,54.3-28.7s51.3-16.1,53.2-24.7c2-8.6,3.7-20.4-4.5-36.6
							l-6.2,12.1c0,0,20,26.9-16.5,41.3C1247.3,894.2,1225,874.6,1197.2,918.8z"/>
					</g>
				</g>
			</g>
		</g>
	</g>
	<g id="XMLID_15_" class="st2">
		<g>
			<g>
				<g>
					<g>
						<defs>
							<rect id="SVGID_21_" x="1224" y="865.2" width="123" height="123.5"/>
						</defs>
						<clipPath id="SVGID_22_">
							<use xlink:href="#SVGID_21_"  style="overflow:visible;"/>
						</clipPath>
						<path id="_x31_2_2_" class="st16" d="M1204.3,896.2c0,0,11.4-10.9,37.4-11.7s51.5-9.6,49.5-28.3c-2-18.6-12.6-22.2-12.6-22.2
							l-14.7,7.7c0,0,37.5,16.2,3.5,30.9C1233.3,887.3,1223.3,876.9,1204.3,896.2z"/>
					</g>
				</g>
			</g>
		</g>
	</g>
	<g id="XMLID_2_" class="st2">
		<g>
			<g>
				<g>
					<g>
						<defs>
							<rect id="SVGID_23_" x="1224" y="865.2" width="123" height="123.5"/>
						</defs>
						<clipPath id="SVGID_24_">
							<use xlink:href="#SVGID_23_"  style="overflow:visible;"/>
						</clipPath>
						<path id="_x31_3_2_" class="st17" d="M1211.1,881.6c0,0,38.9-2.3,50.3-14.5c11.4-12.3,3.6-22.4-2.9-25.2c0,0-2.5,6.9-15.4,8.8
							C1243.1,850.7,1282,866.9,1211.1,881.6z"/>
					</g>
				</g>
			</g>
		</g>
	</g>
	<path id="XMLID_27_" class="st18" d="M1326.3,898.5c0,0-19.7,8.9-27.9,21.7c-8.2,12.8-15.2,20.6-21,33.3s-11.6,19.2-21.9,22.9
		S1232,981,1224,981v-0.8c0,0,17.2,1.3,31.3-4.8c14-6.1,20.2-28.9,16.4-39.7C1267.9,925.1,1286.9,901.8,1326.3,898.5z"/>
</g>
<g>
	<g id="XMLID_4_">
		<g id="XMLID_42_">
			
				<linearGradient id="XMLID_6_" gradientUnits="userSpaceOnUse" x1="586.9019" y1="-16004.0713" x2="746.3019" y2="-16004.0713" gradientTransform="matrix(1 0 0 -1 0 -15636)">
				<stop  offset="0" style="stop-color:#FFFFFF"/>
				<stop  offset="1" style="stop-color:#000000"/>
			</linearGradient>
			<rect id="XMLID_114_" x="586.9" y="288.1" class="st19" width="159.4" height="160"/>
			<g id="XMLID_107_">
				<g id="XMLID_108_">
					<g id="XMLID_109_">
						<g>
							<defs>
								<path id="SVGID_25_" d="M568.9,345.3l-32.6,12.2v-19c0-2.6-1.8-5-4.6-6c-2.8-1-6-0.2-8,1.6l-42.1,41.1l20.5-85.8l0,0
									c0.6-2.4-0.4-4.8-2.6-6.3c-2.2-1.6-5-1.8-7.4-0.8l-24.7,9.4l-18.3-25.6c-1.4-1.8-3.6-3-6.3-3c-2.6,0-4.8,1.2-6.3,3
									l-18.2,25.6l-24.7-9.4l0,0c-2.4-1-5.5-0.6-7.4,0.8c-2.2,1.6-3,4-2.6,6.3l20.5,85.8l-42-41.1c-2-2-5.2-2.6-8-1.6
									s-4.6,3.4-4.6,6V359l-33.5-7.6c-2.8-0.6-6,0.4-7.6,2.4c-1.8,2.2-1.8,5-0.2,7.2l19.2,27.3l-15.2,8.4c-2,1.2-3.2,3-3.4,5.2
									c-0.2,2,1,4,2.8,5.5l61.5,41.5l-18.2,29.2l0,0c-1.2,2-1.2,4.6,0.4,6.6c1.4,2,4,3,6.8,2.8l73.6-6.3v31.1
									c0,3.6,3.2,6.4,7.2,6.4s7.2-2.8,7.2-6.4v-31.2l73.6,6.3c0.2,0,0.4,0,0.6,0c2.6,0,5-1.2,6.3-3.2c1.4-2,1.4-4.4,0.2-6.4
									l-18.5-29.3l61.5-41.5c1.8-1.2,3-3.2,2.8-5.5c-0.2-2-1.4-4-3.4-5.2l-15.6-8.8l20-33.9c1.4-2.4,1-5.2-1.2-7.2
									C575,344.9,571.8,344.3,568.9,345.3L568.9,345.3z"/>
							</defs>
							<clipPath id="SVGID_26_">
								<use xlink:href="#SVGID_25_"  style="overflow:visible;"/>
							</clipPath>
							<g id="XMLID_110_" class="st20">
								<path id="XMLID_112_" class="st21" d="M571.6,476.3v24.2c34.1,6.4,63.6,21.6,78.1,27.9l6.6-36.6
									C656.4,491.8,620.9,476.5,571.6,476.3z"/>
								<path id="XMLID_111_" class="st21" d="M494.9,489.5c-12.4,4.6-24.9,10.5-37.4,18.1c-97.6,59.3-129.2,34.9-166.3,18.1
									l46.5,33.7c0,0,67.9,1.6,101.2-26.3c0,0-39.3,39.9-92,38.3l15.5,6.4c0,0,29.7,19.5,96.8-46.9c11.4-11.3,23.4-19.1,35.8-24.4
									L494.9,489.5L494.9,489.5z"/>
							</g>
						</g>
					</g>
				</g>
			</g>
			<g id="XMLID_102_">
				<g id="XMLID_103_">
					<g id="XMLID_104_">
						<g>
							<defs>
								<path id="SVGID_27_" d="M568.9,345.3l-32.6,12.2v-19c0-2.6-1.8-5-4.6-6c-2.8-1-6-0.2-8,1.6l-42.1,41.1l20.5-85.8l0,0
									c0.6-2.4-0.4-4.8-2.6-6.3c-2.2-1.6-5-1.8-7.4-0.8l-24.7,9.4l-18.3-25.6c-1.4-1.8-3.6-3-6.3-3c-2.6,0-4.8,1.2-6.3,3
									l-18.2,25.6l-24.7-9.4l0,0c-2.4-1-5.5-0.6-7.4,0.8c-2.2,1.6-3,4-2.6,6.3l20.5,85.8l-42-41.1c-2-2-5.2-2.6-8-1.6
									s-4.6,3.4-4.6,6V359l-33.5-7.6c-2.8-0.6-6,0.4-7.6,2.4c-1.8,2.2-1.8,5-0.2,7.2l19.2,27.3l-15.2,8.4c-2,1.2-3.2,3-3.4,5.2
									c-0.2,2,1,4,2.8,5.5l61.5,41.5l-18.2,29.2l0,0c-1.2,2-1.2,4.6,0.4,6.6c1.4,2,4,3,6.8,2.8l73.6-6.3v31.1
									c0,3.6,3.2,6.4,7.2,6.4s7.2-2.8,7.2-6.4v-31.2l73.6,6.3c0.2,0,0.4,0,0.6,0c2.6,0,5-1.2,6.3-3.2c1.4-2,1.4-4.4,0.2-6.4
									l-18.5-29.3l61.5-41.5c1.8-1.2,3-3.2,2.8-5.5c-0.2-2-1.4-4-3.4-5.2l-15.6-8.8l20-33.9c1.4-2.4,1-5.2-1.2-7.2
									C575,344.9,571.8,344.3,568.9,345.3L568.9,345.3z"/>
							</defs>
							<clipPath id="SVGID_28_">
								<use xlink:href="#SVGID_27_"  style="overflow:visible;"/>
							</clipPath>
							<path id="XMLID_105_" class="st22" d="M468.5,462c-2.1,1.9-4.3,3.8-6.4,5.7c-76,68.9-170.8,56.3-170.8,56.3
								c55.8,12.2,76.5,14.1,177.2-36.9V462z"/>
						</g>
					</g>
				</g>
			</g>
			<g id="XMLID_97_">
				<g id="XMLID_98_">
					<g id="XMLID_99_">
						<g>
							<defs>
								<path id="SVGID_29_" d="M568.9,345.3l-32.6,12.2v-19c0-2.6-1.8-5-4.6-6c-2.8-1-6-0.2-8,1.6l-42.1,41.1l20.5-85.8l0,0
									c0.6-2.4-0.4-4.8-2.6-6.3c-2.2-1.6-5-1.8-7.4-0.8l-24.7,9.4l-18.3-25.6c-1.4-1.8-3.6-3-6.3-3c-2.6,0-4.8,1.2-6.3,3
									l-18.2,25.6l-24.7-9.4l0,0c-2.4-1-5.5-0.6-7.4,0.8c-2.2,1.6-3,4-2.6,6.3l20.5,85.8l-42-41.1c-2-2-5.2-2.6-8-1.6
									s-4.6,3.4-4.6,6V359l-33.5-7.6c-2.8-0.6-6,0.4-7.6,2.4c-1.8,2.2-1.8,5-0.2,7.2l19.2,27.3l-15.2,8.4c-2,1.2-3.2,3-3.4,5.2
									c-0.2,2,1,4,2.8,5.5l61.5,41.5l-18.2,29.2l0,0c-1.2,2-1.2,4.6,0.4,6.6c1.4,2,4,3,6.8,2.8l73.6-6.3v31.1
									c0,3.6,3.2,6.4,7.2,6.4s7.2-2.8,7.2-6.4v-31.2l73.6,6.3c0.2,0,0.4,0,0.6,0c2.6,0,5-1.2,6.3-3.2c1.4-2,1.4-4.4,0.2-6.4
									l-18.5-29.3l61.5-41.5c1.8-1.2,3-3.2,2.8-5.5c-0.2-2-1.4-4-3.4-5.2l-15.6-8.8l20-33.9c1.4-2.4,1-5.2-1.2-7.2
									C575,344.9,571.8,344.3,568.9,345.3L568.9,345.3z"/>
							</defs>
							<clipPath id="SVGID_30_">
								<use xlink:href="#SVGID_29_"  style="overflow:visible;"/>
							</clipPath>
							<path id="XMLID_100_" class="st23" d="M468.5,402.1c-22.4,32.1-38.8,64-53.5,81.1c-40.1,46.7-137.9,33.5-137.9,33.5
								c91.2,19.8,164-35.4,191.4-60.3V402.1z"/>
						</g>
					</g>
				</g>
			</g>
			<g id="XMLID_92_">
				<g id="XMLID_93_">
					<g id="XMLID_94_">
						<g>
							<defs>
								<path id="SVGID_31_" d="M568.9,345.3l-32.6,12.2v-19c0-2.6-1.8-5-4.6-6c-2.8-1-6-0.2-8,1.6l-42.1,41.1l20.5-85.8l0,0
									c0.6-2.4-0.4-4.8-2.6-6.3c-2.2-1.6-5-1.8-7.4-0.8l-24.7,9.4l-18.3-25.6c-1.4-1.8-3.6-3-6.3-3c-2.6,0-4.8,1.2-6.3,3
									l-18.2,25.6l-24.7-9.4l0,0c-2.4-1-5.5-0.6-7.4,0.8c-2.2,1.6-3,4-2.6,6.3l20.5,85.8l-42-41.1c-2-2-5.2-2.6-8-1.6
									s-4.6,3.4-4.6,6V359l-33.5-7.6c-2.8-0.6-6,0.4-7.6,2.4c-1.8,2.2-1.8,5-0.2,7.2l19.2,27.3l-15.2,8.4c-2,1.2-3.2,3-3.4,5.2
									c-0.2,2,1,4,2.8,5.5l61.5,41.5l-18.2,29.2l0,0c-1.2,2-1.2,4.6,0.4,6.6c1.4,2,4,3,6.8,2.8l73.6-6.3v31.1
									c0,3.6,3.2,6.4,7.2,6.4s7.2-2.8,7.2-6.4v-31.2l73.6,6.3c0.2,0,0.4,0,0.6,0c2.6,0,5-1.2,6.3-3.2c1.4-2,1.4-4.4,0.2-6.4
									l-18.5-29.3l61.5-41.5c1.8-1.2,3-3.2,2.8-5.5c-0.2-2-1.4-4-3.4-5.2l-15.6-8.8l20-33.9c1.4-2.4,1-5.2-1.2-7.2
									C575,344.9,571.8,344.3,568.9,345.3L568.9,345.3z"/>
							</defs>
							<clipPath id="SVGID_32_">
								<use xlink:href="#SVGID_31_"  style="overflow:visible;"/>
							</clipPath>
							<g id="XMLID_95_" class="st24">
								<path id="_x36__3_" class="st21" d="M274.4,511.4c0,0,73.6,14,94.2-17.2c20.6-31.3,35-45.7,31.9-59.5
									c-3.4-13.9-33.2-40.8-40.5-51.7c-7.2-10.8-34.9-39.7-91,0s-59.2,58.9-70.5,57.7l16,11.8c0,0,60.7-43.5,71.3-48.3
									c10.6-4.8,42.1-24.8,61-0.6c19.2,23.9,33.7,27.9,22.1,49.5c-11.6,22.1-32.3,46.7-112.3,38.1L274.4,511.4z"/>
							</g>
						</g>
					</g>
				</g>
			</g>
			<g id="XMLID_87_">
				<g id="XMLID_88_">
					<g id="XMLID_89_">
						<g>
							<defs>
								<path id="SVGID_33_" d="M568.9,345.3l-32.6,12.2v-19c0-2.6-1.8-5-4.6-6c-2.8-1-6-0.2-8,1.6l-42.1,41.1l20.5-85.8l0,0
									c0.6-2.4-0.4-4.8-2.6-6.3c-2.2-1.6-5-1.8-7.4-0.8l-24.7,9.4l-18.3-25.6c-1.4-1.8-3.6-3-6.3-3c-2.6,0-4.8,1.2-6.3,3
									l-18.2,25.6l-24.7-9.4l0,0c-2.4-1-5.5-0.6-7.4,0.8c-2.2,1.6-3,4-2.6,6.3l20.5,85.8l-42-41.1c-2-2-5.2-2.6-8-1.6
									s-4.6,3.4-4.6,6V359l-33.5-7.6c-2.8-0.6-6,0.4-7.6,2.4c-1.8,2.2-1.8,5-0.2,7.2l19.2,27.3l-15.2,8.4c-2,1.2-3.2,3-3.4,5.2
									c-0.2,2,1,4,2.8,5.5l61.5,41.5l-18.2,29.2l0,0c-1.2,2-1.2,4.6,0.4,6.6c1.4,2,4,3,6.8,2.8l73.6-6.3v31.1
									c0,3.6,3.2,6.4,7.2,6.4s7.2-2.8,7.2-6.4v-31.2l73.6,6.3c0.2,0,0.4,0,0.6,0c2.6,0,5-1.2,6.3-3.2c1.4-2,1.4-4.4,0.2-6.4
									l-18.5-29.3l61.5-41.5c1.8-1.2,3-3.2,2.8-5.5c-0.2-2-1.4-4-3.4-5.2l-15.6-8.8l20-33.9c1.4-2.4,1-5.2-1.2-7.2
									C575,344.9,571.8,344.3,568.9,345.3L568.9,345.3z"/>
							</defs>
							<clipPath id="SVGID_34_">
								<use xlink:href="#SVGID_33_"  style="overflow:visible;"/>
							</clipPath>
							<g id="XMLID_90_" class="st25">
								<path id="_x37__3_" class="st21" d="M216.1,453.9c0,0,69.5-52.1,95.4-59.3c0,0,28.1-10.2,36.6,18.4c0,0,5.8,12.6,13,18.2
									c0,0,27.6,20.8-24,50.5c0,0-25.5,15.6-83.2,8l-9.4-9c0,0,79.8,20.8,105.6-27.6c0,0,5.6-15.8-3.4-19.2
									c-8.8-3.2-16-14.4-16.8-16c-0.6-1.6-6.8-19.8-25-6.6C286.8,424.3,259.2,436.9,216.1,453.9z"/>
							</g>
						</g>
					</g>
				</g>
			</g>
			<g id="XMLID_79_">
				<g id="XMLID_80_">
					<g id="XMLID_81_">
						<g>
							<defs>
								<path id="SVGID_35_" d="M568.9,345.3l-32.6,12.2v-19c0-2.6-1.8-5-4.6-6c-2.8-1-6-0.2-8,1.6l-42.1,41.1l20.5-85.8l0,0
									c0.6-2.4-0.4-4.8-2.6-6.3c-2.2-1.6-5-1.8-7.4-0.8l-24.7,9.4l-18.3-25.6c-1.4-1.8-3.6-3-6.3-3c-2.6,0-4.8,1.2-6.3,3
									l-18.2,25.6l-24.7-9.4l0,0c-2.4-1-5.5-0.6-7.4,0.8c-2.2,1.6-3,4-2.6,6.3l20.5,85.8l-42-41.1c-2-2-5.2-2.6-8-1.6
									s-4.6,3.4-4.6,6V359l-33.5-7.6c-2.8-0.6-6,0.4-7.6,2.4c-1.8,2.2-1.8,5-0.2,7.2l19.2,27.3l-15.2,8.4c-2,1.2-3.2,3-3.4,5.2
									c-0.2,2,1,4,2.8,5.5l61.5,41.5l-18.2,29.2l0,0c-1.2,2-1.2,4.6,0.4,6.6c1.4,2,4,3,6.8,2.8l73.6-6.3v31.1
									c0,3.6,3.2,6.4,7.2,6.4s7.2-2.8,7.2-6.4v-31.2l73.6,6.3c0.2,0,0.4,0,0.6,0c2.6,0,5-1.2,6.3-3.2c1.4-2,1.4-4.4,0.2-6.4
									l-18.5-29.3l61.5-41.5c1.8-1.2,3-3.2,2.8-5.5c-0.2-2-1.4-4-3.4-5.2l-15.6-8.8l20-33.9c1.4-2.4,1-5.2-1.2-7.2
									C575,344.9,571.8,344.3,568.9,345.3L568.9,345.3z"/>
							</defs>
							<clipPath id="SVGID_36_">
								<use xlink:href="#SVGID_35_"  style="overflow:visible;"/>
							</clipPath>
							<g id="XMLID_82_" class="st26">
								<path id="XMLID_85_" class="st21" d="M606.2,303.7c22.2-6.9,39.9-15.8,59.4-29.4c0,0-48.3-1.6-70.8-28.4
									c0,0-23.5,33.5-81.1,57.9L606.2,303.7L606.2,303.7z"/>
								<path id="XMLID_84_" class="st21" d="M468.5,326.9v-8.3c-13.3,3.2-27.8,5.9-43.5,7.6c-115.4,12.8-136,25.5-173.9,59.2
									c17.1-13,64.3-39.9,174.5-53.4C441,330.2,455.3,328.5,468.5,326.9z"/>
								<path id="XMLID_83_" class="st21" d="M242.8,392.8c2.9-2.6,5.6-5,8.2-7.4C245.1,390,242.8,392.8,242.8,392.8z"/>
							</g>
						</g>
					</g>
				</g>
			</g>
			<g id="XMLID_74_">
				<g id="XMLID_75_">
					<g id="XMLID_76_">
						<g>
							<defs>
								<path id="SVGID_37_" d="M568.9,345.3l-32.6,12.2v-19c0-2.6-1.8-5-4.6-6c-2.8-1-6-0.2-8,1.6l-42.1,41.1l20.5-85.8l0,0
									c0.6-2.4-0.4-4.8-2.6-6.3c-2.2-1.6-5-1.8-7.4-0.8l-24.7,9.4l-18.3-25.6c-1.4-1.8-3.6-3-6.3-3c-2.6,0-4.8,1.2-6.3,3
									l-18.2,25.6l-24.7-9.4l0,0c-2.4-1-5.5-0.6-7.4,0.8c-2.2,1.6-3,4-2.6,6.3l20.5,85.8l-42-41.1c-2-2-5.2-2.6-8-1.6
									s-4.6,3.4-4.6,6V359l-33.5-7.6c-2.8-0.6-6,0.4-7.6,2.4c-1.8,2.2-1.8,5-0.2,7.2l19.2,27.3l-15.2,8.4c-2,1.2-3.2,3-3.4,5.2
									c-0.2,2,1,4,2.8,5.5l61.5,41.5l-18.2,29.2l0,0c-1.2,2-1.2,4.6,0.4,6.6c1.4,2,4,3,6.8,2.8l73.6-6.3v31.1
									c0,3.6,3.2,6.4,7.2,6.4s7.2-2.8,7.2-6.4v-31.2l73.6,6.3c0.2,0,0.4,0,0.6,0c2.6,0,5-1.2,6.3-3.2c1.4-2,1.4-4.4,0.2-6.4
									l-18.5-29.3l61.5-41.5c1.8-1.2,3-3.2,2.8-5.5c-0.2-2-1.4-4-3.4-5.2l-15.6-8.8l20-33.9c1.4-2.4,1-5.2-1.2-7.2
									C575,344.9,571.8,344.3,568.9,345.3L568.9,345.3z"/>
							</defs>
							<clipPath id="SVGID_38_">
								<use xlink:href="#SVGID_37_"  style="overflow:visible;"/>
							</clipPath>
							<g id="XMLID_77_" class="st27">
								<path id="_x39__3_" class="st21" d="M246.3,383.5c0,0,47.1-46.3,109.4-53.9c62.1-7.6,172.9-24.8,231.3-93.2
									c0,0-12.4,0-21.6-5.8c0,0-45.7,67.1-129.1,81.8c-83.2,14.4-114,6-191.6,71.3C173.8,443.3,246.3,383.5,246.3,383.5z"/>
							</g>
						</g>
					</g>
				</g>
			</g>
			<g id="XMLID_69_">
				<g id="XMLID_70_">
					<g id="XMLID_71_">
						<g>
							<defs>
								<path id="SVGID_39_" d="M568.9,345.3l-32.6,12.2v-19c0-2.6-1.8-5-4.6-6c-2.8-1-6-0.2-8,1.6l-42.1,41.1l20.5-85.8l0,0
									c0.6-2.4-0.4-4.8-2.6-6.3c-2.2-1.6-5-1.8-7.4-0.8l-24.7,9.4l-18.3-25.6c-1.4-1.8-3.6-3-6.3-3c-2.6,0-4.8,1.2-6.3,3
									l-18.2,25.6l-24.7-9.4l0,0c-2.4-1-5.5-0.6-7.4,0.8c-2.2,1.6-3,4-2.6,6.3l20.5,85.8l-42-41.1c-2-2-5.2-2.6-8-1.6
									s-4.6,3.4-4.6,6V359l-33.5-7.6c-2.8-0.6-6,0.4-7.6,2.4c-1.8,2.2-1.8,5-0.2,7.2l19.2,27.3l-15.2,8.4c-2,1.2-3.2,3-3.4,5.2
									c-0.2,2,1,4,2.8,5.5l61.5,41.5l-18.2,29.2l0,0c-1.2,2-1.2,4.6,0.4,6.6c1.4,2,4,3,6.8,2.8l73.6-6.3v31.1
									c0,3.6,3.2,6.4,7.2,6.4s7.2-2.8,7.2-6.4v-31.2l73.6,6.3c0.2,0,0.4,0,0.6,0c2.6,0,5-1.2,6.3-3.2c1.4-2,1.4-4.4,0.2-6.4
									l-18.5-29.3l61.5-41.5c1.8-1.2,3-3.2,2.8-5.5c-0.2-2-1.4-4-3.4-5.2l-15.6-8.8l20-33.9c1.4-2.4,1-5.2-1.2-7.2
									C575,344.9,571.8,344.3,568.9,345.3L568.9,345.3z"/>
							</defs>
							<clipPath id="SVGID_40_">
								<use xlink:href="#SVGID_39_"  style="overflow:visible;"/>
							</clipPath>
							<g id="XMLID_72_" class="st28">
								<path id="_x31_0_3_" class="st21" d="M247,362.9c0,0,53.7-47.5,153.4-48.5c99.8-1.2,158.9-84.4,151.8-117.1h-45.1
									c0,0,4.6,115.2-109.7,112.6C283.2,307.2,257.6,346.7,247,362.9z"/>
							</g>
						</g>
					</g>
				</g>
			</g>
			<g id="XMLID_64_">
				<g id="XMLID_65_">
					<g id="XMLID_66_">
						<g>
							<defs>
								<path id="SVGID_41_" d="M568.9,345.3l-32.6,12.2v-19c0-2.6-1.8-5-4.6-6c-2.8-1-6-0.2-8,1.6l-42.1,41.1l20.5-85.8l0,0
									c0.6-2.4-0.4-4.8-2.6-6.3c-2.2-1.6-5-1.8-7.4-0.8l-24.7,9.4l-18.3-25.6c-1.4-1.8-3.6-3-6.3-3c-2.6,0-4.8,1.2-6.3,3
									l-18.2,25.6l-24.7-9.4l0,0c-2.4-1-5.5-0.6-7.4,0.8c-2.2,1.6-3,4-2.6,6.3l20.5,85.8l-42-41.1c-2-2-5.2-2.6-8-1.6
									s-4.6,3.4-4.6,6V359l-33.5-7.6c-2.8-0.6-6,0.4-7.6,2.4c-1.8,2.2-1.8,5-0.2,7.2l19.2,27.3l-15.2,8.4c-2,1.2-3.2,3-3.4,5.2
									c-0.2,2,1,4,2.8,5.5l61.5,41.5l-18.2,29.2l0,0c-1.2,2-1.2,4.6,0.4,6.6c1.4,2,4,3,6.8,2.8l73.6-6.3v31.1
									c0,3.6,3.2,6.4,7.2,6.4s7.2-2.8,7.2-6.4v-31.2l73.6,6.3c0.2,0,0.4,0,0.6,0c2.6,0,5-1.2,6.3-3.2c1.4-2,1.4-4.4,0.2-6.4
									l-18.5-29.3l61.5-41.5c1.8-1.2,3-3.2,2.8-5.5c-0.2-2-1.4-4-3.4-5.2l-15.6-8.8l20-33.9c1.4-2.4,1-5.2-1.2-7.2
									C575,344.9,571.8,344.3,568.9,345.3L568.9,345.3z"/>
							</defs>
							<clipPath id="SVGID_42_">
								<use xlink:href="#SVGID_41_"  style="overflow:visible;"/>
							</clipPath>
							<g id="XMLID_67_" class="st29">
								<path id="_x31_1_3_" class="st21" d="M237.1,371.9c0,0,37.4-67.7,126.9-67.1c89.6,0.6,119.9-37.7,124.3-57.7
									c4.6-20,8.6-47.7-10.5-85.6l-14.4,28.2c0,0,46.7,62.9-38.5,96.4C354.2,314.4,302.1,268.7,237.1,371.9z"/>
							</g>
						</g>
					</g>
				</g>
			</g>
			<g id="XMLID_56_">
				<g id="XMLID_57_">
					<g id="XMLID_59_">
						<g>
							<defs>
								<path id="SVGID_43_" d="M568.9,345.3l-32.6,12.2v-19c0-2.6-1.8-5-4.6-6c-2.8-1-6-0.2-8,1.6l-42.1,41.1l20.5-85.8l0,0
									c0.6-2.4-0.4-4.8-2.6-6.3c-2.2-1.6-5-1.8-7.4-0.8l-24.7,9.4l-18.3-25.6c-1.4-1.8-3.6-3-6.3-3c-2.6,0-4.8,1.2-6.3,3
									l-18.2,25.6l-24.7-9.4l0,0c-2.4-1-5.5-0.6-7.4,0.8c-2.2,1.6-3,4-2.6,6.3l20.5,85.8l-42-41.1c-2-2-5.2-2.6-8-1.6
									s-4.6,3.4-4.6,6V359l-33.5-7.6c-2.8-0.6-6,0.4-7.6,2.4c-1.8,2.2-1.8,5-0.2,7.2l19.2,27.3l-15.2,8.4c-2,1.2-3.2,3-3.4,5.2
									c-0.2,2,1,4,2.8,5.5l61.5,41.5l-18.2,29.2l0,0c-1.2,2-1.2,4.6,0.4,6.6c1.4,2,4,3,6.8,2.8l73.6-6.3v31.1
									c0,3.6,3.2,6.4,7.2,6.4s7.2-2.8,7.2-6.4v-31.2l73.6,6.3c0.2,0,0.4,0,0.6,0c2.6,0,5-1.2,6.3-3.2c1.4-2,1.4-4.4,0.2-6.4
									l-18.5-29.3l61.5-41.5c1.8-1.2,3-3.2,2.8-5.5c-0.2-2-1.4-4-3.4-5.2l-15.6-8.8l20-33.9c1.4-2.4,1-5.2-1.2-7.2
									C575,344.9,571.8,344.3,568.9,345.3L568.9,345.3z"/>
							</defs>
							<clipPath id="SVGID_44_">
								<use xlink:href="#SVGID_43_"  style="overflow:visible;"/>
							</clipPath>
							<g id="XMLID_60_" class="st30">
								<g id="XMLID_62_">
									<path id="_x31_2_3_" class="st21" d="M253.6,319.3c0,0,26.6-25.5,87.4-27.3c60.7-1.8,120.3-22.4,115.6-66.1
										c-4.6-43.5-29.5-51.9-29.5-51.9l-34.2,18.1c0,0,87.6,37.9,8.2,72.1C321.3,298.4,298.1,274.1,253.6,319.3z"/>
								</g>
							</g>
						</g>
					</g>
				</g>
			</g>
			<g id="XMLID_45_">
				<g id="XMLID_48_">
					<g id="XMLID_51_">
						<g>
							<defs>
								<path id="SVGID_45_" d="M568.9,345.3l-32.6,12.2v-19c0-2.6-1.8-5-4.6-6c-2.8-1-6-0.2-8,1.6l-42.1,41.1l20.5-85.8l0,0
									c0.6-2.4-0.4-4.8-2.6-6.3c-2.2-1.6-5-1.8-7.4-0.8l-24.7,9.4l-18.3-25.6c-1.4-1.8-3.6-3-6.3-3c-2.6,0-4.8,1.2-6.3,3
									l-18.2,25.6l-24.7-9.4l0,0c-2.4-1-5.5-0.6-7.4,0.8c-2.2,1.6-3,4-2.6,6.3l20.5,85.8l-42-41.1c-2-2-5.2-2.6-8-1.6
									s-4.6,3.4-4.6,6V359l-33.5-7.6c-2.8-0.6-6,0.4-7.6,2.4c-1.8,2.2-1.8,5-0.2,7.2l19.2,27.3l-15.2,8.4c-2,1.2-3.2,3-3.4,5.2
									c-0.2,2,1,4,2.8,5.5l61.5,41.5l-18.2,29.2l0,0c-1.2,2-1.2,4.6,0.4,6.6c1.4,2,4,3,6.8,2.8l73.6-6.3v31.1
									c0,3.6,3.2,6.4,7.2,6.4s7.2-2.8,7.2-6.4v-31.2l73.6,6.3c0.2,0,0.4,0,0.6,0c2.6,0,5-1.2,6.3-3.2c1.4-2,1.4-4.4,0.2-6.4
									l-18.5-29.3l61.5-41.5c1.8-1.2,3-3.2,2.8-5.5c-0.2-2-1.4-4-3.4-5.2l-15.6-8.8l20-33.9c1.4-2.4,1-5.2-1.2-7.2
									C575,344.9,571.8,344.3,568.9,345.3L568.9,345.3z"/>
							</defs>
							<clipPath id="SVGID_46_">
								<use xlink:href="#SVGID_45_"  style="overflow:visible;"/>
							</clipPath>
							<path id="XMLID_54_" class="st31" d="M468.5,342.1c-43.8,20.2-63.5,51.9-57.2,69.3c8.8,25.3-5.6,78.6-38.3,92.8
								c-32.9,14.2-73.2,11.3-73.2,11.3v1.8c18.7,0,49.5-2.2,73.6-10.8c24-8.6,37.4-23.9,51.1-53.5c12.4-27,27.1-44.5,44-69.8V342.1
								L468.5,342.1z"/>
						</g>
					</g>
				</g>
			</g>
		</g>
		<g id="XMLID_29_">
			<g id="XMLID_30_">
				<g id="XMLID_31_">
					<g>
						<defs>
							<path id="SVGID_47_" d="M568.9,345.3l-32.6,12.2v-19c0-2.6-1.8-5-4.6-6c-2.8-1-6-0.2-8,1.6l-42.1,41.1l20.5-85.8l0,0
								c0.6-2.4-0.4-4.8-2.6-6.3c-2.2-1.6-5-1.8-7.4-0.8l-24.7,9.4l-18.3-25.6c-1.4-1.8-3.6-3-6.3-3c-2.6,0-4.8,1.2-6.3,3
								l-18.2,25.6l-24.7-9.4l0,0c-2.4-1-5.5-0.6-7.4,0.8c-2.2,1.6-3,4-2.6,6.3l20.5,85.8l-42-41.1c-2-2-5.2-2.6-8-1.6
								s-4.6,3.4-4.6,6V359l-33.5-7.6c-2.8-0.6-6,0.4-7.6,2.4c-1.8,2.2-1.8,5-0.2,7.2l19.2,27.3l-15.2,8.4c-2,1.2-3.2,3-3.4,5.2
								c-0.2,2,1,4,2.8,5.5l61.5,41.5l-18.2,29.2l0,0c-1.2,2-1.2,4.6,0.4,6.6c1.4,2,4,3,6.8,2.8l73.6-6.3v31.1
								c0,3.6,3.2,6.4,7.2,6.4s7.2-2.8,7.2-6.4v-31.2l73.6,6.3c0.2,0,0.4,0,0.6,0c2.6,0,5-1.2,6.3-3.2c1.4-2,1.4-4.4,0.2-6.4
								l-18.5-29.3l61.5-41.5c1.8-1.2,3-3.2,2.8-5.5c-0.2-2-1.4-4-3.4-5.2l-15.6-8.8l20-33.9c1.4-2.4,1-5.2-1.2-7.2
								C575,344.9,571.8,344.3,568.9,345.3L568.9,345.3z"/>
						</defs>
						<clipPath id="SVGID_48_">
							<use xlink:href="#SVGID_47_"  style="overflow:visible;"/>
						</clipPath>
						<path id="XMLID_35_" class="st32" d="M390.5,498.8c0,0-3-20,6.3-32.7s7.8-21.4,7.8-21.4s-5,16.3-10.8,20.2
							c-5.8,3.8-18.9,24.8-16.6,35.5L390.5,498.8z"/>
					</g>
				</g>
			</g>
		</g>
		<g id="XMLID_9_">
			<g id="XMLID_11_">
				<g id="XMLID_13_">
					<g>
						<defs>
							<path id="SVGID_49_" d="M568.9,345.3l-32.6,12.2v-19c0-2.6-1.8-5-4.6-6c-2.8-1-6-0.2-8,1.6l-42.1,41.1l20.5-85.8l0,0
								c0.6-2.4-0.4-4.8-2.6-6.3c-2.2-1.6-5-1.8-7.4-0.8l-24.7,9.4l-18.3-25.6c-1.4-1.8-3.6-3-6.3-3c-2.6,0-4.8,1.2-6.3,3
								l-18.2,25.6l-24.7-9.4l0,0c-2.4-1-5.5-0.6-7.4,0.8c-2.2,1.6-3,4-2.6,6.3l20.5,85.8l-42-41.1c-2-2-5.2-2.6-8-1.6
								s-4.6,3.4-4.6,6V359l-33.5-7.6c-2.8-0.6-6,0.4-7.6,2.4c-1.8,2.2-1.8,5-0.2,7.2l19.2,27.3l-15.2,8.4c-2,1.2-3.2,3-3.4,5.2
								c-0.2,2,1,4,2.8,5.5l61.5,41.5l-18.2,29.2l0,0c-1.2,2-1.2,4.6,0.4,6.6c1.4,2,4,3,6.8,2.8l73.6-6.3v31.1
								c0,3.6,3.2,6.4,7.2,6.4s7.2-2.8,7.2-6.4v-31.2l73.6,6.3c0.2,0,0.4,0,0.6,0c2.6,0,5-1.2,6.3-3.2c1.4-2,1.4-4.4,0.2-6.4
								l-18.5-29.3l61.5-41.5c1.8-1.2,3-3.2,2.8-5.5c-0.2-2-1.4-4-3.4-5.2l-15.6-8.8l20-33.9c1.4-2.4,1-5.2-1.2-7.2
								C575,344.9,571.8,344.3,568.9,345.3L568.9,345.3z"/>
						</defs>
						<clipPath id="SVGID_50_">
							<use xlink:href="#SVGID_49_"  style="overflow:visible;"/>
						</clipPath>
						<path id="XMLID_26_" class="st33" d="M468.5,336.4v-5.5c-36.6,2.1-104.2,8.7-161.9,30.1c0,0,41.6-9,58.4,17.6
							c16.4,26.6,24.2,32.3,30.7,34.9c6.3,2.6,10,9.2,11.3,21c0,0,4.6-9.7-4.8-33.2C394.3,382.5,431.6,350.2,468.5,336.4z"/>
					</g>
				</g>
			</g>
		</g>
	</g>
</g>
<g>
	<path class="st3" d="M538.6,351.6l0.1,1.3l-0.3,5.1v7.3l-0.2,3.3v4.6l-0.1,0.9l-0.5,0.8l-0.6,1l-0.7,1l-1.3,1.3l-0.9,0.9l-0.5,0.5
		l-1,0.7l-0.5,0.3l-1,0.6l-1.6,0.8l-1.2,0.5l-1.1,0.4l-1.8,0.5l-1.2,0.3l-1.2,0.2l-1.2,0.2l-1.8,0.2l-1.1,0.2l-1.2,0.2l-3.1,0.4
		l-1.2,0.1l-2.4-0.2l-1.8-0.2l-1.2-0.2l-1.2-0.2l-1.2-0.3l-2.7-0.8l-1.2-0.3l-1.2-0.4l-1.6-0.5l-1-0.5l-1.6-0.9l-0.9-0.7l-1-0.7
		l-0.9-0.8l-0.9-0.7l-0.9-0.8l-1.2-1.2l-0.8-0.9l-0.9-1.2l-0.7-1.1l-1.9-3.5l-0.5-1.2l-0.5-1.2l-0.4-1.2l-0.4-1.3l-0.2-1.2l-0.2-1.3
		l-0.2-1.2l-0.3-1.7l-0.2-1.2l-0.1-1.2v-1.2l0.2-3.5l0.2-0.6l0.2-1.3l0.3-1.3l0.4-1.2l0.4-1.3l0.4-1.2l0.4-1.2l0.5-1.2l0.5-1.3
		l0.5-1.1l1-1.4l0.7-0.9l0.9-1l0.9-0.9l0.9-0.9l2-1.7l1-0.8l0.9-0.7l0.9-0.6l2.6-1.5l1.2-0.7l1.3-0.5l1.3-0.4l1.2-0.3l2.9-0.5
		l2.3-0.3l1.2-0.2l1.2-0.2l1.8-0.2l1.2-0.1l1.7,0.2l1.2,0.1l1.8,0.2l1.1,0.2l1.7,0.3l1.2,0.3l1.7,0.5l1.2,0.4l2.8,1.4l1.2,0.7l1,0.7
		l0.4,0.2l0.9,0.5l0.9,0.6l0.4,0.4l0.9,0.6l0.5,0.4l0.5,0.5v0.5l-0.2,0.5l-0.5,0.7l-0.7,1l-0.8,0.9l-2.2,2.2l-1.4,1.2l-0.9,0.8
		l-0.9,0.6l-0.6,0.5l-0.5,0.3l-0.6,0.1l-0.9-0.5l-1-0.7l-1-0.6l-1.1-0.6l-1.2-0.5l-1.2-0.5l-1.3-0.3l-1.3-0.2l-3.7-0.2H513l-1.2,0.1
		l-2,0.2l-1.2,0.3l-2.3,1.1l-1,0.7l-1,0.8l-0.9,0.9l-0.8,1l-0.7,1l-0.6,1.1l-0.5,1.2l-0.4,1.2L500,350l-0.5,2.3l-0.2,1.2l-0.1,1.3
		v1.3l0.2,1.9l0.2,1.2l0.4,1.8l0.4,1.2l0.8,1.9l0.5,1.1l0.9,1.4l0.8,0.9l1.4,1.3l1,0.8l1.6,0.9l1.2,0.5l2.3,0.5l1.3,0.2l1.3,0.1h1.2
		l1.2-0.2l1.2-0.2l4.2-1l1.2-0.5l1.2-0.5l0.8-0.5l0.2-0.5v-0.9l0.1-0.7v-1.2l-0.2-2.3v-1.3l-0.3-0.5l-0.9-0.2h-1.9l-1.2,0.1
		l-1.8,0.2l-1.2,0.1h-1.8l-1.2-0.1l-2.6-0.5l-0.5-0.2l-0.3-0.4l-0.2-0.9l-0.1-0.6l-0.1-1.2l0.1-1.9l-0.2-2.3l-0.2-1.2v-1.6l0.2-0.9
		l0.4-0.4l0.9-0.2l1.9-0.2l1.3-0.1h3.6l5.1-0.2l6.2,0.4h1.2l3.2-0.4l1.2-0.1l0.6,0.1l1.2,0.2l0.5,0.3l0.2,0.5l0.2,1.1L538.6,351.6z"
		/>
	<path class="st3" d="M600.2,356.1l0.2,2.5l-0.1,1.2l-0.1,1.8l-0.2,1.2l-0.3,1.9l-0.2,1.2l-0.3,1.8l-0.3,1.2l-0.6,1.6l-0.4,1.1
		l-0.7,1.6l-0.5,1.1l-1,1.6l-0.8,1l-0.9,1l-1,0.9l-1.6,1.2l-1,0.7l-1.6,0.9l-1,0.5l-1.6,0.8l-1.2,0.4l-1.7,0.6l-1.2,0.3l-1.8,0.3
		l-1.2,0.2l-2.4,0.2h-3.6l-1.8-0.2l-1.2-0.1l-4.3-0.5l-1.2-0.2l-0.7-0.1l-1.2-0.4l-0.6-0.2l-1.2-0.5l-1.7-0.8l-1.2-0.7l-1.2-0.8
		l-2-1.7l-0.9-0.9l-1-1.3l-0.7-0.9l-1.2-2l-0.7-1.1l-0.6-1.2l-0.5-1.2l-0.5-1.2l-0.3-1.1l-0.3-1.2l-0.3-1.7l-0.2-1.3l-0.2-1.3
		l-0.2-2.6l-0.1-1.2l0.2-4.8v-1.2l-0.2-4.8v-1.2l0.2-4.8v-7.2l-0.2-2.5v-1.3l0.1-1.3l0.2-1.2l0.5-0.7l1-0.2l2.6-0.2l3,0.2h1.2
		l2.6-0.1l1.2,0.1l1.8,0.1l1,0.2l0.6,0.6l0.2,1l0.1,1.1v1.2l-0.2,3v1.2l0.2,4.8v1.2l-0.1,4.8v1.2l-0.2,4.8v1.2l-0.1,4.8l0.1,1.2
		l0.2,1.9l0.2,1.2l0.5,1.7l0.5,1.2l0.8,1.8l0.8,0.9l1.2,1.3l1,0.6l1.7,0.6l1.2,0.3l2,0.2h1.2l2-0.4l1.2-0.3l1.5-0.7l1-0.6l1.2-1.1
		l0.8-0.9l0.9-1.6l0.5-1.2l0.4-1.2l0.2-1.2l0.3-2.3l0.1-1.2l-0.3-4.8v-1.2l0.2-4.8v-1.2l0.2-4.8v-1.2l-0.2-4.8l-0.1-1.2l-0.2-3.3
		v-1.9l0.3-1.1l0.7-0.6l1-0.2h1.6l4,0.3h1.2l3.1-0.2h1.2l1.2,0.1l1,0.2l0.6,0.5l0.1,0.9l0.1,2.3v1.2l-0.1,1.8v1.2l0.2,4.8v1.2
		l-0.2,4.8v1.2l-0.3,4.8L600.2,356.1z"/>
	<path class="st3" d="M626.7,371.3v1.2l-0.3,4.2v1.2l-0.1,4.3v0.9l-0.2,0.5l-0.6,0.2l-1.1,0.1l-4-0.1h-4.8l-3.9-0.3l-0.5-0.2
		l-0.2-0.2v-0.8l-0.2-1.9v-1.2l-0.1-1.2v-1.2l-0.2-4.2l0.1-1.2l0.2-4.2l0.1-1.2l-0.2-4.3v-1.2l-0.1-4.2v-6.7l-0.1-4.3v-1.2l0.1-4.2
		V333l-0.2-4.3l0.2-0.9l0.5-0.3l0.8-0.1h0.6l1.2-0.1l1.9,0.1h1.2l3.6-0.2h4.8l0.9,0.2l0.2,0.5l0.1,0.9l0.2,2l0.1,1.2v7.6l0.1,4.2
		v1.2l-0.1,4.3v1.2l0.1,4.2v1.2l-0.2,4.2v6.8L626.7,371.3z"/>
	<path class="st3" d="M691.2,356.9l-0.1,1.3l-0.1,1.9l-0.2,1.2l-0.5,1.8l-0.4,1.2l-0.5,1.2l-0.5,1.2l-0.5,1.3l-0.5,1.2l-0.9,1.7
		l-0.6,1l-1.1,1.2l-0.8,0.9l-1.3,1.2l-1.7,1.7l-1,0.9l-1.5,1.2l-1,0.6l-1.6,0.9l-1,0.5l-1.7,0.6l-1.2,0.4l-1.2,0.3l-1.2,0.2
		l-4.8,0.7l-1.2,0.1l-1.7,0.2h-1.2l-2.5-0.1l-2-0.2h-1.2l-2.5,0.2l-1.9,0.1l-1.3,0.1l-1.2-0.1h-5.5l-1.2-0.1l-3.3-0.3l-0.6-0.3
		l-0.4-0.4l-0.2-0.9l-0.1-1.2l0.1-0.6l0.2-2.3v-1.1l0.1-1.8v-1.2l0.1-1.2v-1.2l-0.1-4.1v-1.2l-0.2-4.1l0.1-1.2l0.1-1.7l0.2-1.2
		l0.1-1.3v-1.2l-0.2-2l-0.1-1.3v-0.7l-0.1-1.3l0.3-4.1V344l-0.1-4.1v-1.2l-0.2-4.1v-3l0.1-1.2l0.2-1.2l0.2-0.9l0.3-0.5l0.9-0.2
		l1.3-0.2l1.2-0.2l1.2-0.1l6.9,0.1h1.2l3.7,0.2l0.6,0.1h1.4l3.3-0.2l1.2-0.1h1.2l1.9,0.2l2.5,0.2l1.2,0.2l2,0.3l1.2,0.2l1.2,0.3
		l2.8,1l1.2,0.5l1.2,0.6l1.1,0.6l2.6,1.8l1,0.9l0.9,0.8l1.7,1.6l0.8,0.8l0.7,0.9l0.5,1l0.9,1.7l0.5,1.2l0.4,1.2l0.5,1.2l0.4,1.2
		l0.3,1.2l0.3,1.7l0.2,1.2l0.2,1.3l0.2,1.2l0.1,1.9l0.1,1.2L691.2,356.9z M673.4,363.6l0.5-1.2l0.5-1.3l0.3-1.2l0.3-1.7l0.1-1.1
		l0.1-1.8v-2.5l-0.1-1.2l-0.2-1.8l-0.3-1.2l-0.2-0.5l-0.6-1.2l-1.2-1.6l-0.4-0.4l-0.8-0.9l-0.9-0.9l-0.9-0.7l-1.7-1l-1.1-0.5
		l-1.1-0.2l-1.2-0.2l-1.9-0.1l-1.3-0.1h-1.9l-1.7-0.1l-1.2,0.1l-1.7,0.2l-0.9,0.2l-0.4,0.4l-0.2,0.9l-0.1,0.7l-0.1,1.2l0.2,2.3
		l0.1,1.2l0.2,1.7l0.2,1.2l0.1,1.2v1.2l-0.1,1.7v3.7l-0.1,1.3l-0.1,1.2l-0.2,1.7v1.1l-0.1,1.8l0.1,1.2l0.2,1.9l0.3,0.9l0.5,0.4
		l0.9,0.1l7.2-0.5l1.8-0.1l1.2-0.2l1.3-0.4l1.2-0.5l1.2-0.5l1-0.7l1.4-1.2l0.8-0.9L673.4,363.6z"/>
	<path class="st3" d="M744.1,376.2l-0.1,1.2l-0.3,4.2l-0.1,0.8l-0.3,0.5l-0.4,0.3l-10.2,0.3h-1.2l-4.1-0.3l-1.2,0.1l-4.1,0.3
		l-1.2,0.1h-5.4l-4.1-0.3h-1.2l-6.7,0.4l-2.6-0.2l-0.9-0.2l-0.5-0.4l-0.2-0.5l-0.2-0.9l-0.2-1.8l-0.1-1.2l0.1-1.2v-1.2l0.3-4.1V371
		l0.1-4.1l-0.1-1.2l-0.2-4.1l-0.1-1.2l0.2-4.2v-6.6l0.3-4.1l-0.1-1.2l-0.2-4.1l-0.1-1.2v-1.9l0.2-2.3v-1.2l0.2-4.1l0.1-1.1l0.2-0.6
		l0.4-0.3l0.6-0.1l1-0.2l5.1,0.3l4.8-0.1h1.2l4.7,0.3h1.2l4.7-0.3h1.2l10.6,0.2l1.3-0.1l2.6-0.2h1.9l1.1,0.2l0.5,0.4l0.2,0.5l0.2,1
		v2.1l-0.2,1.9v1.3l0.1,1.9l0.1,1.2l-0.1,1.2l-0.2,0.9l-0.3,0.5l-0.4,0.3l-0.9,0.2h-0.6l-1.2,0.1l-7.3-0.2h-1.2l-4,0.2h-1.2l-4-0.2
		l-3.5-0.2h-1.2l-0.6,0.1l-0.8,0.2l-0.4,0.4l-0.1,0.5l-0.2,0.9l-0.2,1.9v1.2l0.1,1.3l0.1,0.9l0.2,0.5l0.3,0.4l0.9,0.2l2.5,0.2
		l2.5-0.2h7.4l8.7-0.5l2.4,0.2l0.9,0.2l0.5,0.4l0.2,0.5l0.1,0.9l0.2,1.3l0.1,1.3v2.6l0.2,1.8l-0.2,2.3l-0.2,0.9l-0.3,0.5l-0.5,0.4
		l-0.8,0.2H738l-3.5-0.4l-1.2-0.1l-6.2,0.4l-5-0.2h-1.2l-3.1-0.2l-1.3,0.1l-0.9,0.1l-0.4,0.2l-0.2,0.5l-0.1,1.2l-0.2,1.9l-0.1,1.2
		v1.7l0.1,0.8l0.2,0.5l0.3,0.3l0.9,0.1l4.3,0.2h1.2l4.2-0.3l5.5,0.3h1.2l5.5-0.3h1.2l1.2,0.1l2.8,0.3l0.5,0.2l0.3,0.5l0.1,0.9
		L744.1,376.2z"/>
	<path class="st3" d="M799.5,366.1l-0.1,1.3l-0.2,1.3l-0.2,1.2l-0.4,1.7l-0.4,1.1l-0.7,1.6l-0.5,1l-0.9,1.4l-0.8,0.9l-0.9,0.9
		l-0.9,0.9l-1.6,1l-1,0.7l-1.2,0.6l-1.1,0.5l-1.8,0.6l-2.3,0.8l-1.2,0.2l-1.9,0.3l-1.2,0.2l-1.7,0.2l-1.1,0.1l-1.8,0.1l-3.7,0.2
		h-1.7L769,385l-1.8-0.2l-1.2-0.2l-1.3-0.2l-1.2-0.4l-1.7-0.5l-1.1-0.5l-1.2-0.5l-1.1-0.5l-1-0.6l-2.5-1.7l-0.9-0.8l-1.4-1.1
		l-0.9-0.8l-0.9-0.9l-0.6-0.7l-0.1-0.5l0.4-0.7l0.3-0.4l0.8-0.9l2.2-2l0.7-0.9l1.3-2l0.7-0.9l0.8-0.9l0.9-0.5l0.9,0.2l0.9,0.6
		l2.5,1.7l1.2,0.6l1.1,0.5l1.8,0.9l1.2,0.4l1.2,0.4l1.2,0.2l1.8,0.1l1.2,0.1l4.9-0.3l1.2-0.2l0.6-0.2l1.2-0.5l1-0.6l0.8-0.8l0.4-0.5
		l0.5-1.2l-0.1-1.3l-0.2-0.6l-0.6-1.1l-0.4-0.5l-1-0.8l-0.6-0.2l-1.2-0.5l-1.3-0.3l-1.3-0.2l-7.4-0.7l-2.3-0.5l-1.2-0.3l-1.7-0.6
		l-1.2-0.4l-1.2-0.5l-2.6-1.3l-1-0.7l-1.2-0.7l-1-0.7l-1.3-1.1l-0.7-1l-0.7-1.2l-0.5-1.2l-0.5-1.6l-0.2-1.2l-0.2-1.7l-0.2-2.5
		l0.1-1.2l0.2-1.9l0.2-1.2l0.3-1l0.4-1.2l0.8-1.7l0.5-1.1l0.6-0.9l0.8-0.9l1.2-1.2l1-0.8l1-0.7l1.1-0.5l1.5-0.9l2.3-0.9l1.2-0.4
		l1.8-0.3l1.2-0.2l2.3-0.3l1.7-0.3l1.2-0.2l1.2-0.1h1.2l2.3,0.2l1.2,0.2l0.5,0.2l1.2,0.2l2.6,0.5l1.3,0.3l1.2,0.4l1.3,0.4l1.2,0.5
		l1.2,0.5l1.2,0.5l1.5,0.9l1.1,0.5l1,0.7l0.7,0.7v0.8l-0.5,0.9l-0.9,1.6l-0.6,0.9l-3,3.9l-0.9,1.1l-0.9,0.8l-0.6,0.2l-0.5-0.1
		l-0.8-0.4l-1.2-0.7l-1.2-0.5l-0.5-0.2l-1.2-0.4l-0.6-0.2l-1.3-0.3l-1.8-0.4l-1.2-0.1l-2-0.2h-2l-1.3,0.1l-1.3,0.2l-1.2,0.4
		l-0.5,0.2l-0.9,0.7l-0.4,0.5l-0.5,1.1l-0.2,1.2l0.2,1l0.6,1l0.9,0.8l0.9,0.5l0.5,0.2l1.2,0.2l1.9,0.2l2.6,0.2l1.3,0.2l2.6,0.6
		l2.5,0.8l1.8,0.4l1.2,0.3l2.2,0.8l1.6,0.7l1.1,0.5l1.1,0.6l1,0.6l2.3,1.9l0.9,0.9l0.8,0.9l0.9,1.4l0.6,1l0.5,1.2l0.3,1.2l0.3,1.7
		l0.2,1.2L799.5,366.1z"/>
</g>
<path class="st34" d="M539.9,446.8v1.2l-0.1,0.7v1.2l-0.2,2.8v1.4l-0.1,0.2h-0.1l-0.7,0.1l-1.2,0.2h-2.7l-1.3-0.2l-2.6-0.6l-1.2-0.5
	l-1.1-0.7l-0.9-0.9l-0.8-1.1l-0.7-1.2l-0.4-0.7l-0.2-0.2h-0.4l-0.6,0.6l-1,0.9l-1.6,1.1l-1.1,0.8l-1.3,0.7l-1.2,0.6l-1.7,0.8
	l-1.1,0.4l-0.5,0.1l-1.2,0.3l-1.5,0.2h-6.2l-1.9-0.2l-1.3-0.1l-1.9-0.3l-1.2-0.3l-1.8-0.4l-1.2-0.5l-1.2-0.5l-0.5-0.2l-0.9-0.5
	l-0.4-0.2l-0.9-0.6l-0.5-0.3l-0.9-0.9l-1.1-1.1l-0.9-1.2l-0.6-1.1l-0.2-0.5l-0.4-1l-0.2-0.5l-0.3-1.2l-0.3-1.5l-0.2-1.2v-0.5
	l-0.1-1.1l-0.1-0.6v-1.2l0.1-1.2l0.2-1.2l0.3-1.2l0.5-1.1l0.5-1.1l0.7-1.1l0.8-0.9l0.9-0.9l0.9-0.9l1-0.8l1.6-1.1l0.1-0.2v-0.2
	l-0.1-0.2l-0.5-0.3l-0.5-0.3l-0.9-0.7l-0.5-0.3l-0.7-0.8l-0.4-0.5l-0.7-1.1l-0.6-1.2l-0.2-0.5l-0.4-1.1l-0.1-0.6l-0.2-1.1v-0.5
	l-0.1-1.2v-1.4l0.2-1.4l0.2-1.3l0.3-1.2l0.4-1.3l0.5-1.2l0.6-1.2l0.7-1.1l0.9-1l1-0.9l1-0.9l1.2-0.8l1.2-0.7l1.2-0.5l2.6-0.9
	l1.3-0.5l4-0.9l1.3-0.2l1.4-0.2l1.3-0.1h2.6l1.9,0.2l1.2,0.1l2.9,0.5l1.6,0.2l1.8,0.4l1.4,0.4l1.2,0.5l1.4,0.7l0.5,0.3l1.1,0.6
	l1.2,0.9l1.1,1.1l0.8,1l0.2,0.4l0.5,0.9l0.2,0.5l0.4,0.9l0.2,0.5l0.4,1.2l0.4,1.4l0.2,1.3v0.5l0.1,1.1l0.1,0.5v0.7l-0.5,0.2h-2.2
	l-3,0.2l-0.6,0.1h-1.4l-1.9-0.1l-4.4-0.2l-0.2-0.1l-0.2-0.2l-0.2-0.5l-0.2-0.6l-0.4-1l-0.2-0.5l-0.9-1l-1.1-0.8l-0.5-0.2l-1.1-0.3
	l-0.5-0.2l-1.1-0.1h-0.5l-1.1,0.1l-0.6,0.2l-1.1,0.2l-0.5,0.2l-1.1,0.4l-0.5,0.2l-0.9,0.5l-0.5,0.3l-0.7,0.8l-0.2,0.4l-0.4,1
	l-0.2,0.5v1.2l0.3,1.3l0.5,1.1l0.8,0.9l0.9,0.7l1.1,0.6l1.2,0.3l1.2,0.2h1.2l0.5,0.1h1.1l2.3,0.1h1.6l0.5,0.1h1.1l2.3,0.2h1.6
	l0.5-0.1l1.1-0.1l1.1-0.2l1.1-0.1l0.5-0.1h1.1l0.5,0.1h1.1l1.1,0.2l1.1,0.1l0.5,0.1h1.1l0.5-0.1h4.6v1.2l0.1,1.2l0.2,1v5.3l-0.1,1.1
	v1.2l-0.2,0.1h-0.9l-1.2,0.1l-1,0.2l-2.1,0.2l-0.1,0.7v1.8l-0.1,0.9l0.2,1.3l0.1,0.7l0.5,1.2l0.4,0.5l0.9,0.9l0.6,0.3l1.2,0.3
	l1.2,0.1l0.7,0.1l0.1,0.2v0.2l-0.1,0.7l0.1,0.7l0.1,1.2l0.2,1.4l0.1,1.3L539.9,446.8z M519.5,431.8l-0.2-0.2l-0.7-0.1H516l-1.9,0.2
	h-3.8l-1.3,0.2l-1.3,0.3l-1.3,0.5l-1.2,0.6l-1.1,0.7l-0.8,1l-0.4,1.3l-0.1,1.5l0.4,1.3l0.6,1.1l0.9,0.9l1.1,0.6l1.2,0.4l1.3,0.3
	l1.4,0.2l1.2,0.1l1.6-0.2l0.5-0.2l1-0.4l0.5-0.2l0.9-0.5l0.5-0.3l1.1-0.7l0.9-0.9l0.3-0.5l0.5-0.9l0.2-0.5l0.2-1l0.1-0.5l0.1-1.1
	l0.1-1.2l0.2-1.2L519.5,431.8z"/>
<g>
	<path class="st3" d="M602.4,454l-1,0.3H596l-4.3-0.1h-1.2l-3.5,0.2h-1l-0.7-0.3l-0.6-0.6l-2.5-3.5l-0.7-0.9l-2.5-3.3l-0.7-0.9
		l-2.2-3.6l-0.7-0.9l-2.5-3.3l-0.5-0.6l-0.5-0.2l-0.9-0.1l-2.5-0.2l-1,0.1l-0.6,0.5l-0.2,1l-0.2,4.3l0.1,1.2l0.3,4.4l0.1,1.2
		l0.1,1.9v1.2l-0.1,1.2l-0.2,0.9l-0.4,0.4l-0.9,0.2h-1.2l-3.7-0.2l-3.6,0.2h-1.2l-3.6-0.2l-0.9-0.2l-0.5-0.3l-0.2-0.8l-0.1-1.1
		l-0.1-1.2l0.2-2l0.1-1.2l0.3-4.2V442l-0.2-4.2l-0.1-1.2l-0.1-4.1v-1.2l0.2-4.2v-1.2l-0.2-4.2v-1.2l0.2-4.2v-1.2l0.2-4.1v-1.2
		l-0.1-4.2v-1.2l-0.2-2.6l0.1-1.2l0.1-0.5l0.2-1l0.5-0.6l0.9-0.2l0.6-0.1l1.2-0.1l3.5,0.2l9.3,0.3l5.3-0.3h1.2l5.1,0.3h3l1.3,0.1
		l1.2,0.2l1.6,0.5l1.2,0.4l1.2,0.5l1.2,0.5l1.2,0.5l1,0.6l1.5,1l0.9,0.7l0.8,0.8l0.8,0.9l1.1,1.6l0.7,1l0.9,1.5l0.5,1.1l0.5,1.2
		l0.4,1.2l0.2,1.2l0.1,1.2l0.2,1.7v1.2l-0.1,1.2l-0.2,1.3l-0.2,1.3l-0.3,1.2l-0.5,1.2l-0.5,1.2l-0.7,1.2l-0.7,1l-0.7,0.9l-0.7,0.9
		l-1.2,1.2l-0.9,0.7l-1.6,0.9l-0.9,0.5l-1,0.5l-1,0.2l-0.6,0.2l0.3,0.6l2.8,4l0.7,0.9l2.8,3.8l0.8,0.9l2.8,3.9l0.8,0.9l2.4,2.8
		l0.7,0.9l0.4,0.9L602.4,454z M578.8,424l1.7-0.3l1-0.4l0.9-0.5l0.8-0.9l0.5-1.2l0.3-1.2l0.1-1.2l-0.1-1.3l-0.2-1.3l-0.3-1.2
		l-0.5-1.2l-0.7-0.9l-0.9-0.7l-1.1-0.5l-1.7-0.4l-1.2-0.2l-3.9-0.1h-1.2l-4,0.2l-0.9,0.1l-0.5,0.2l-0.5,0.5l-0.1,0.9l0.1,1.8
		l0.2,1.2l0.2,1.3l0.1,1.3l-0.2,4.3l0.1,0.9l0.2,0.5l0.5,0.2l0.9,0.2l4.1,0.3h1.2L578.8,424z"/>
	<path class="st3" d="M654.8,447l-0.1,1.2l-0.3,4.2l-0.1,0.8l-0.3,0.5l-0.4,0.3l-10.2,0.3h-1.2l-4.1-0.3l-1.2,0.1l-4.1,0.3l-1.2,0.1
		h-5.4l-4.1-0.3h-1.2l-6.7,0.4l-2.6-0.2l-0.9-0.2l-0.5-0.4l-0.2-0.5l-0.2-0.9l-0.2-1.8l-0.1-1.2l0.1-1.2v-1.2l0.3-4.1v-1.2l0.1-4.1
		l-0.1-1.2l-0.2-4.1l-0.1-1.2l0.2-4.2v-6.6l0.3-4.1l-0.1-1.2l-0.2-4.1l-0.1-1.2v-1.9l0.2-2.3v-1.2l0.2-4.1l0.1-1.1l0.2-0.6l0.4-0.3
		l0.6-0.1l1-0.2l5.1,0.3l4.8-0.1h1.2l4.7,0.3h1.2l4.7-0.3h1.2l10.6,0.2l1.3-0.1l2.6-0.2h1.9l1.1,0.2l0.5,0.4l0.2,0.5l0.2,1v2.1
		l-0.2,1.9v1.3l0.1,1.9l0.1,1.2l-0.1,1.2l-0.2,0.9l-0.3,0.5l-0.4,0.3l-0.9,0.2h-0.6l-1.2,0.1l-7.3-0.2h-1.2l-4,0.2h-1.2l-4-0.2
		l-3.5-0.2h-1.2l-0.6,0.1l-0.8,0.2l-0.4,0.4l-0.1,0.5l-0.2,0.9l-0.2,1.9v1.2l0.1,1.3l0.1,0.9l0.2,0.5l0.3,0.4l0.9,0.2l2.5,0.2
		l2.5-0.2h7.4l8.7-0.5l2.4,0.2l0.9,0.2l0.5,0.4l0.2,0.5l0.1,0.9l0.2,1.3l0.1,1.3v2.6l0.2,1.8l-0.2,2.3l-0.2,0.9l-0.3,0.5l-0.5,0.4
		l-0.8,0.2h-1.6l-3.5-0.4l-1.2-0.1l-6.2,0.4l-5-0.2h-1.2l-3.1-0.2l-1.3,0.1l-0.9,0.1l-0.4,0.2l-0.2,0.5l-0.1,1.2l-0.2,1.9l-0.1,1.2
		v1.7l0.1,0.8l0.2,0.5l0.3,0.3l0.9,0.1l4.3,0.2h1.2l4.2-0.3l5.5,0.3h1.2l5.5-0.3h1.2l1.2,0.1l2.8,0.3l0.5,0.2l0.3,0.5l0.1,0.9
		L654.8,447z"/>
	<path class="st3" d="M710.2,436.9l-0.1,1.3l-0.2,1.3l-0.2,1.2l-0.4,1.7l-0.4,1.1l-0.7,1.6l-0.5,1l-0.9,1.4l-0.8,0.9l-0.9,0.9
		l-0.9,0.9l-1.6,1l-1,0.7l-1.2,0.6l-1.1,0.5l-1.8,0.6l-2.3,0.8l-1.2,0.2l-1.9,0.3l-1.2,0.2l-1.7,0.2l-1.1,0.1l-1.8,0.1l-3.7,0.2
		h-1.7l-1.1-0.1l-1.8-0.2l-1.2-0.2l-1.3-0.2l-1.2-0.4l-1.7-0.5l-1.1-0.5l-1.2-0.5l-1.1-0.5l-1-0.6l-2.5-1.7l-0.9-0.8l-1.4-1.1
		l-0.9-0.8l-0.9-0.9l-0.6-0.7l-0.1-0.5l0.4-0.7l0.3-0.4l0.8-0.9l2.2-2l0.7-0.9l1.3-2l0.7-0.9l0.8-0.9l0.9-0.5l0.9,0.2l0.9,0.6
		l2.5,1.7l1.2,0.6l1.1,0.5l1.8,0.9l1.2,0.4l1.2,0.4l1.2,0.2l1.8,0.1l1.2,0.1l4.9-0.3l1.2-0.2l0.6-0.2l1.2-0.5l1-0.6l0.8-0.8l0.4-0.5
		l0.5-1.2l-0.1-1.3l-0.2-0.6l-0.6-1.1l-0.4-0.5l-1-0.8l-0.6-0.2l-1.2-0.5l-1.3-0.3l-1.3-0.2l-7.4-0.7l-2.3-0.5l-1.2-0.3l-1.7-0.6
		l-1.2-0.4l-1.2-0.5l-2.6-1.3l-1-0.7l-1.2-0.7l-1-0.7l-1.3-1.1l-0.7-1l-0.7-1.2l-0.5-1.2l-0.5-1.6l-0.2-1.2l-0.2-1.7l-0.2-2.5
		l0.1-1.2l0.2-1.9l0.2-1.2l0.3-1l0.4-1.2l0.8-1.7l0.5-1.1l0.6-0.9l0.8-0.9l1.2-1.2l1-0.8l1-0.7l1.1-0.5l1.5-0.9l2.3-0.9l1.2-0.4
		l1.8-0.3l1.2-0.2l2.3-0.3l1.7-0.3l1.2-0.2l1.2-0.1h1.2l2.3,0.2l1.2,0.2l0.5,0.2l1.2,0.2l2.6,0.5l1.3,0.3l1.2,0.4l1.3,0.4l1.2,0.5
		l1.2,0.5l1.2,0.5l1.5,0.9l1.1,0.5l1,0.7l0.7,0.7v0.8l-0.5,0.9l-0.9,1.6l-0.6,0.9l-3,3.9l-0.9,1.1l-0.9,0.8l-0.6,0.2l-0.5-0.1
		l-0.8-0.4l-1.2-0.7l-1.2-0.5l-0.5-0.2l-1.2-0.4l-0.6-0.2l-1.3-0.3l-1.8-0.4l-1.2-0.1l-2-0.2h-2l-1.3,0.1l-1.3,0.2l-1.2,0.4
		l-0.5,0.2l-0.9,0.7l-0.4,0.5l-0.5,1.1l-0.2,1.2l0.2,1l0.6,1l0.9,0.8l0.9,0.5l0.5,0.2l1.2,0.2l1.9,0.2l2.6,0.2l1.3,0.2l2.6,0.6
		l2.5,0.8l1.8,0.4l1.2,0.3l2.2,0.8l1.6,0.7l1.1,0.5l1.1,0.6l1,0.6l2.3,1.9l0.9,0.9l0.8,0.9l0.9,1.4l0.6,1l0.5,1.2l0.3,1.2l0.3,1.7
		l0.2,1.2L710.2,436.9z"/>
	<path class="st3" d="M762.5,436.9l-0.1,1.3l-0.2,1.3l-0.2,1.2l-0.4,1.7l-0.4,1.1l-0.7,1.6l-0.5,1l-0.9,1.4l-0.8,0.9l-0.9,0.9
		l-0.9,0.9l-1.6,1l-1,0.7l-1.2,0.6l-1.1,0.5l-1.8,0.6l-2.3,0.8l-1.2,0.2l-1.9,0.3l-1.2,0.2l-1.7,0.2l-1.1,0.1l-1.8,0.1l-3.7,0.2
		h-1.7l-1.1-0.1l-1.8-0.2l-1.2-0.2l-1.3-0.2l-1.2-0.4l-1.7-0.5l-1.1-0.5l-1.2-0.5l-1.1-0.5l-1-0.6l-2.5-1.7l-0.9-0.8l-1.4-1.1
		l-0.9-0.8l-0.9-0.9l-0.6-0.7l-0.1-0.5l0.4-0.7l0.3-0.4l0.8-0.9l2.2-2l0.7-0.9l1.3-2l0.7-0.9l0.8-0.9l0.9-0.5l0.9,0.2l0.9,0.6
		l2.5,1.7l1.2,0.6l1.1,0.5l1.8,0.9l1.2,0.4l1.2,0.4l1.2,0.2l1.8,0.1l1.2,0.1l4.9-0.3l1.2-0.2l0.6-0.2l1.2-0.5l1-0.6l0.8-0.8l0.4-0.5
		l0.5-1.2l-0.1-1.3l-0.2-0.6l-0.6-1.1l-0.4-0.5l-1-0.8l-0.6-0.2l-1.2-0.5l-1.3-0.3l-1.3-0.2l-7.4-0.7l-2.3-0.5L729,431l-1.7-0.6
		l-1.2-0.4l-1.2-0.5l-2.6-1.3l-1-0.7l-1.2-0.7l-1-0.7l-1.3-1.1l-0.7-1l-0.7-1.2l-0.5-1.2l-0.5-1.6l-0.2-1.2l-0.2-1.7l-0.2-2.5
		l0.1-1.2l0.2-1.9l0.2-1.2l0.3-1l0.4-1.2l0.8-1.7l0.5-1.1l0.6-0.9l0.8-0.9l1.2-1.2l1-0.8l1-0.7l1.1-0.5l1.5-0.9l2.3-0.9l1.2-0.4
		l1.8-0.3l1.2-0.2l2.3-0.3l1.7-0.3l1.2-0.2l1.2-0.1h1.2l2.3,0.2l1.2,0.2l0.5,0.2l1.2,0.2l2.6,0.5l1.3,0.3l1.2,0.4l1.3,0.4l1.2,0.5
		l1.2,0.5l1.2,0.5l1.5,0.9l1.1,0.5l1,0.7l0.7,0.7v0.8l-0.5,0.9l-0.9,1.6l-0.6,0.9l-3,3.9l-0.9,1.1l-0.9,0.8l-0.6,0.2l-0.5-0.1
		l-0.8-0.4l-1.2-0.7l-1.2-0.5l-0.5-0.2l-1.2-0.4l-0.6-0.2l-1.3-0.3l-1.8-0.4l-1.2-0.1l-2-0.2h-2l-1.3,0.1l-1.3,0.2l-1.2,0.4
		l-0.5,0.2l-0.9,0.7l-0.4,0.5l-0.5,1.1l-0.2,1.2l0.2,1l0.6,1l0.9,0.8l0.9,0.5l0.5,0.2l1.2,0.2l1.9,0.2l2.6,0.2l1.3,0.2l2.6,0.6
		l2.5,0.8l1.8,0.4l1.2,0.3l2.2,0.8l1.6,0.7l1.1,0.5l1.1,0.6l1,0.6l2.3,1.9l0.9,0.9l0.8,0.9l0.9,1.4l0.6,1l0.5,1.2l0.3,1.2l0.3,1.7
		l0.2,1.2L762.5,436.9z"/>
	<path class="st3" d="M827.9,425.6l-0.1,1.2l-0.2,1.8l-0.2,1.2l-0.5,2.3l-0.2,1.8l-0.2,1.2l-0.2,1.2l-0.3,1.2l-0.8,1.6l-0.5,1.1
		l-2.1,3.5l-0.7,1l-0.8,1l-0.8,0.9l-1.2,1.3l-0.9,0.8l-1,0.8l-0.9,0.7l-1.4,0.9l-1,0.6l-1.2,0.6l-1.1,0.5l-1.6,0.6l-1.2,0.3
		l-2.5,0.8l-1.3,0.4l-1.2,0.3l-1.3,0.3l-1.3,0.2l-1.3,0.1h-4.2l-2.6-0.2l-2.6-0.3l-1.1-0.2l-1.2-0.3l-4.2-1.4l-1.2-0.4l-1.3-0.5
		l-2.5-1.1l-1.2-0.6l-1.2-0.7l-1-0.8l-1-0.9l-0.9-1l-0.9-1l-2.1-2.1l-0.8-0.9l-0.8-1l-0.6-1l-0.6-1.6l-1.2-3.5l-0.5-1.6l-0.2-1.2
		l-0.2-1.2l-0.2-1.2l-0.2-1.7l-0.1-1.2l-0.1-1.3v-1.3l0.1-1.3l0.1-1.4l0.2-1.3l0.2-1.3l0.3-1.3l0.4-1.3l0.4-1.2l0.5-1.2l0.5-1.8
		l0.5-1.2l0.3-0.7l0.6-1.2l1.1-1.7l0.8-1.1l0.4-0.6l0.9-0.9l1.3-1.1l1-0.8l1-0.7l2.3-1.6l1-0.6l1.1-0.6l1.1-0.5l1.6-0.7l1.1-0.4
		l1.2-0.4l1.2-0.3l3-0.5l1.2-0.2l3.9-0.5l2.5-0.2l2.3,0.2l1.9,0.1l1.3,0.2l1.3,0.2l1.3,0.3l1.3,0.2l1.2,0.3l1.2,0.3l1.2,0.4l1.6,0.6
		l1.1,0.5l2.6,1.5l1,0.7l1,0.8l1.3,1.2l0.9,0.8l0.9,0.9l0.7,0.9l1.1,1.5l0.6,1l0.5,1l0.6,1l0.9,1.6l0.6,1l0.5,1.2l0.4,1.1l0.4,1.8
		l0.5,2.3l0.2,1.3l0.2,1.3L827.9,425.6z M811.6,426.9v-1.3l-0.1-1.3l-0.1-1.2l-0.5-2.3l-0.3-1.1l-0.9-1.7l-0.6-1l-1.1-1.4l-0.8-0.9
		l-1.2-1.2l-0.9-0.7l-2-1.2l-1.1-0.5l-1.2-0.4l-1.2-0.2l-2.5-0.2l-1.2,0.1l-1.7,0.1l-1.2,0.2l-2,0.5l-1.2,0.5l-1.8,0.9l-1.1,0.7
		l-1.2,1.1l-0.9,0.9l-0.9,1.2l-0.6,1l-0.2,0.5l-0.7,1.6l-0.4,1.2l-0.2,0.5l-0.2,1.1l-0.2,1.1l-0.1,1.1l-0.1,1.2v1.2l0.1,1.2l0.2,1.2
		l0.1,0.7l0.3,1.2l0.2,0.5l0.4,1.1l0.3,0.6l0.6,1.1l0.4,0.6l0.9,1.1l0.5,0.5l0.9,0.9l1.6,1.3l1.1,0.7l1.2,0.6l1.2,0.5l1.6,0.5
		l1.2,0.2l1.9,0.2l1.3,0.1l1.9-0.2l1.2-0.2l1.7-0.4l1.1-0.5l1.7-1.1l0.9-0.7l1.2-1.2l0.8-0.9l1-1.2l0.7-1.1l0.8-1.7l0.5-1.2l0.4-1.8
		l0.2-1.2L811.6,426.9z"/>
	<path class="st3" d="M888.1,426.9l0.2,2.5l-0.1,1.2l-0.1,1.8l-0.2,1.2l-0.3,1.9l-0.2,1.2l-0.3,1.8l-0.3,1.2l-0.6,1.6l-0.4,1.1
		L885,444l-0.5,1.1l-1,1.6l-0.8,1l-0.9,1l-1,0.9l-1.6,1.2l-1,0.7l-1.6,0.9l-1,0.5l-1.6,0.8l-1.2,0.4l-1.7,0.6l-1.2,0.3l-1.8,0.3
		l-1.2,0.2l-2.4,0.2H861l-1.8-0.2l-1.2-0.1l-4.3-0.5l-1.2-0.2l-0.7-0.1l-1.2-0.4l-0.6-0.2l-1.2-0.5l-1.7-0.8l-1.2-0.7l-1.2-0.8
		l-2-1.7l-0.9-0.9l-1-1.3l-0.7-0.9l-1.2-2l-0.7-1.1l-0.6-1.2l-0.5-1.2l-0.5-1.2l-0.3-1.1l-0.3-1.2l-0.3-1.7l-0.2-1.3l-0.2-1.3
		l-0.2-2.6l-0.1-1.2l0.2-4.8v-1.2l-0.2-4.8v-1.2l0.2-4.8v-7.2l-0.2-2.5v-1.3l0.1-1.3l0.2-1.2l0.5-0.7l1-0.2l2.6-0.2l3,0.2h1.2
		l2.6-0.1l1.2,0.1l1.8,0.1l1,0.2l0.6,0.6l0.2,1l0.1,1.1v1.2l-0.2,3v1.2l0.2,4.8v1.2l-0.1,4.8v1.2l-0.2,4.8v1.2l-0.1,4.8l0.1,1.2
		l0.2,1.9l0.2,1.2l0.5,1.7l0.5,1.2l0.8,1.8l0.8,0.9l1.2,1.3l1,0.6l1.7,0.6l1.2,0.3l2,0.2h1.2l2-0.4l1.2-0.3l1.5-0.7l1-0.6l1.2-1.1
		l0.8-0.9l0.9-1.6l0.5-1.2l0.4-1.2l0.2-1.2l0.3-2.3l0.1-1.2l-0.3-4.8v-1.2l0.2-4.8v-1.2l0.2-4.8v-1.2l-0.2-4.8l-0.1-1.2L872,402V400
		l0.3-1.1l0.7-0.6l1-0.2h1.6l4,0.3h1.2l3.1-0.2h1.2l1.2,0.1l1,0.2l0.6,0.5l0.1,0.9l0.1,2.3v1.2l-0.1,1.8v1.2l0.2,4.8v1.2l-0.2,4.8
		v1.2l-0.3,4.8L888.1,426.9z"/>
	<path class="st3" d="M950.4,454l-1,0.3h-5.5l-4.3-0.1h-1.2l-3.5,0.2h-1l-0.7-0.3l-0.6-0.6l-2.5-3.5l-0.7-0.9l-2.5-3.3l-0.7-0.9
		l-2.2-3.6l-0.7-0.9l-2.5-3.3l-0.5-0.6l-0.5-0.2l-0.9-0.1l-2.5-0.2l-1,0.1l-0.6,0.5l-0.2,1l-0.2,4.3l0.1,1.2l0.3,4.4l0.1,1.2
		l0.1,1.9v1.2l-0.1,1.2l-0.2,0.9l-0.4,0.4l-0.9,0.2h-1.2l-3.7-0.2l-3.6,0.2h-1.2l-3.6-0.2l-0.9-0.2l-0.5-0.3l-0.2-0.8l-0.1-1.1
		l-0.1-1.2l0.2-2l0.1-1.2l0.3-4.2V442l-0.2-4.2l-0.1-1.2l-0.1-4.1v-1.2l0.2-4.2v-1.2l-0.2-4.2v-1.2l0.2-4.2v-1.2l0.2-4.1v-1.2
		l-0.1-4.2v-1.2l-0.2-2.6l0.1-1.2l0.1-0.5l0.2-1l0.5-0.6l0.9-0.2l0.6-0.1l1.2-0.1l3.5,0.2l9.3,0.3l5.3-0.3h1.2l5.1,0.3h3l1.3,0.1
		l1.2,0.2l1.6,0.5l1.2,0.4l1.2,0.5l1.2,0.5l1.2,0.5l1,0.6l1.5,1l0.9,0.7l0.8,0.8l0.8,0.9l1.1,1.6l0.7,1l0.9,1.5l0.5,1.1l0.5,1.2
		l0.4,1.2l0.2,1.2l0.1,1.2l0.2,1.7v1.2l-0.1,1.2l-0.2,1.3l-0.2,1.3l-0.3,1.2l-0.5,1.2l-0.5,1.2l-0.7,1.2l-0.7,1l-0.7,0.9l-0.7,0.9
		l-1.2,1.2l-0.9,0.7l-1.6,0.9l-0.9,0.5l-1,0.5l-1,0.2l-0.6,0.2l0.3,0.6l2.8,4l0.7,0.9l2.8,3.8l0.8,0.9l2.8,3.9l0.8,0.9l2.4,2.8
		l0.7,0.9l0.4,0.9L950.4,454z M928.5,423.7l1-0.4l0.9-0.5l0.8-0.9l0.5-1.2l0.3-1.2l0.1-1.2l-0.1-1.3l-0.2-1.3l-0.3-1.2l-0.5-1.2
		l-0.7-0.9l-0.9-0.7l-1.1-0.5l-1.7-0.4l-1.2-0.2l-3.9-0.1h-1.2l-4,0.2l-0.9,0.1l-0.5,0.2l-0.5,0.5l-0.1,0.9l0.1,1.8l0.2,1.2l0.2,1.3
		l0.1,1.3l-0.2,4.3l0.1,0.9l0.2,0.5l0.5,0.2l0.9,0.2l4.1,0.3h1.2l5.1-0.3L928.5,423.7z"/>
	<path class="st3" d="M1006.4,447.3l-0.6,0.6l-1.4,1.2l-0.9,0.7l-1.5,1.1l-0.9,0.6l-1.6,0.9l-1,0.5l-1.8,0.9l-1.2,0.4l-1.3,0.4
		l-1.3,0.2l-1.9,0.4l-2.7,0.3l-1.4,0.1l-1.9,0.2h-4l-1.3-0.1l-1.3-0.2l-1.3-0.2l-1.3-0.3l-1.2-0.4l-3.5-0.9l-1.7-0.6l-1-0.5
		l-1.5-0.9l-0.9-0.7l-1-0.7l-1.1-0.7l-2-1.7l-0.9-0.9l-0.9-1l-0.9-1.2l-0.7-1.1l-0.6-1.1l-0.5-1.1l-0.8-1.6l-1.2-3.3l-0.5-1.6
		l-0.8-2.3l-0.2-1.2l-0.1-1.8l0.1-1.2l0.1-1.2V426l0.2-2.6l0.1-1.2l0.2-1.2l0.3-1.7l0.3-1.2l0.4-1.2l0.4-1.1l0.5-1.6l0.5-1.1
		l0.5-1.2l0.6-1.2l0.7-1.2l0.7-1.1l0.8-1l0.9-1.1l0.9-1l0.9-0.9l1-0.9l0.9-0.8l2.5-1.7l1-0.6l1.1-0.6l2.3-1.1l1.3-0.5l1.2-0.4
		l2.6-0.6l1.3-0.2l1.3-0.2l2.4-0.2l1.7-0.2l1.2,0.1l1.7,0.1l2.9,0.4l1.1,0.2l1.8,0.3l2.7,0.8l1.1,0.5l1.7,1l1.1,0.6l2,1.4l2.4,1.7
		l0.9,0.6l0.5,0.4l0.5,0.5l0.2,0.6l-0.1,0.6l-0.5,0.6l-0.7,0.9l-0.9,0.9l-0.9,0.8l-0.9,0.7l-0.9,0.9l-1.3,1.6l-0.9,0.9l-0.4,0.4
		l-0.7,0.6l-0.5,0.2l-0.5,0.1l-0.5-0.2l-0.9-0.5l-1.5-1.1l-1-0.5l-1.7-0.8l-1.1-0.4l-1.7-0.5l-1.2-0.2l-1.9-0.2h-1.2l-1.7,0.2
		l-1.2,0.3l-1.7,0.5l-1.2,0.5l-1,0.4l-1.6,0.8l-1.1,0.8l-0.5,0.5l-0.9,1l-0.7,1.1l-0.5,1l-0.5,1.1l-0.5,1.2l-0.4,1.2l-0.2,1.3
		l-0.2,1.2l-0.2,2.3v1.2l0.1,1.9l0.1,1.2l0.4,1.8l0.4,1.2l0.5,1.3l0.6,1.2l1.2,1.7l0.9,0.9l1.5,1.2l1,0.7l1.6,0.8l1.2,0.5l1.7,0.5
		l1.2,0.2l1.9,0.1h1.8l1.1-0.2l0.6-0.2l1.2-0.4l1.9-0.7l1.2-0.5l1.2-0.5l1-0.5l1.5-0.9l1-0.8l0.8-0.5l0.5-0.2l0.7,0.2l0.9,0.5
		l0.9,0.8l0.3,0.5l0.8,0.9l1.2,1.6l0.8,0.9l2.1,2.4l0.7,0.9l0.4,0.4l0.4,0.7V447.3z"/>
	<path class="st3" d="M1058.5,447l-0.1,1.2l-0.3,4.2l-0.1,0.8l-0.3,0.5l-0.4,0.3l-10.2,0.3h-1.2l-4.1-0.3l-1.2,0.1l-4.1,0.3
		l-1.2,0.1h-5.4l-4.1-0.3h-1.2l-6.7,0.4l-2.6-0.2l-0.9-0.2l-0.5-0.4l-0.2-0.5l-0.2-0.9l-0.2-1.8l-0.1-1.2l0.1-1.2v-1.2l0.3-4.1v-1.2
		l0.1-4.1l-0.1-1.2l-0.2-4.1l-0.1-1.2l0.2-4.2v-6.6l0.3-4.1l-0.1-1.2l-0.2-4.1l-0.1-1.2v-1.9l0.2-2.3v-1.2l0.2-4.1l0.1-1.1l0.2-0.6
		l0.4-0.3l0.6-0.1l1-0.2l5.1,0.3l4.8-0.1h1.2l4.7,0.3h1.2l4.7-0.3h1.2l10.6,0.2l1.3-0.1l2.6-0.2h1.9l1.1,0.2l0.5,0.4l0.2,0.5l0.2,1
		v2.1l-0.2,1.9v1.3l0.1,1.9l0.1,1.2l-0.1,1.2l-0.2,0.9l-0.3,0.5l-0.4,0.3l-0.9,0.2h-0.6l-1.2,0.1l-7.3-0.2h-1.2l-4,0.2h-1.2l-4-0.2
		l-3.5-0.2h-1.2l-0.6,0.1l-0.8,0.2l-0.4,0.4l-0.1,0.5l-0.2,0.9l-0.2,1.9v1.2l0.1,1.3l0.1,0.9l0.2,0.5l0.3,0.4l0.9,0.2l2.5,0.2
		l2.5-0.2h7.4l8.7-0.5l2.4,0.2l0.9,0.2l0.5,0.4l0.2,0.5l0.1,0.9l0.2,1.3l0.1,1.3v2.6l0.2,1.8l-0.2,2.3l-0.2,0.9l-0.3,0.5l-0.5,0.4
		l-0.8,0.2h-1.6l-3.5-0.4l-1.2-0.1l-6.2,0.4l-5-0.2h-1.2l-3.1-0.2l-1.3,0.1l-0.9,0.1l-0.4,0.2l-0.2,0.5l-0.1,1.2l-0.2,1.9l-0.1,1.2
		v1.7l0.1,0.8l0.2,0.5l0.3,0.3l0.9,0.1l4.3,0.2h1.2l4.2-0.3l5.5,0.3h1.2l5.5-0.3h1.2l1.2,0.1l2.8,0.3l0.5,0.2l0.3,0.5l0.1,0.9
		L1058.5,447z"/>
	<path class="st3" d="M1113.9,436.9l-0.1,1.3l-0.2,1.3l-0.2,1.2l-0.4,1.7l-0.4,1.1l-0.7,1.6l-0.5,1l-0.9,1.4l-0.8,0.9l-0.9,0.9
		l-0.9,0.9l-1.6,1l-1,0.7l-1.2,0.6l-1.1,0.5l-1.8,0.6l-2.3,0.8l-1.2,0.2l-1.9,0.3l-1.2,0.2l-1.7,0.2l-1.1,0.1l-1.8,0.1l-3.7,0.2
		h-1.7l-1.1-0.1l-1.8-0.2l-1.2-0.2l-1.3-0.2l-1.2-0.4l-1.7-0.5l-1.1-0.5l-1.2-0.5l-1.1-0.5l-1-0.6l-2.5-1.7l-0.9-0.8l-1.4-1.1
		l-0.9-0.8l-0.9-0.9l-0.6-0.7l-0.1-0.5l0.4-0.7l0.3-0.4l0.8-0.9l2.2-2l0.7-0.9l1.3-2l0.7-0.9l0.8-0.9l0.9-0.5l0.9,0.2l0.9,0.6
		l2.5,1.7l1.2,0.6l1.1,0.5l1.8,0.9l1.2,0.4l1.2,0.4l1.2,0.2l1.8,0.1l1.2,0.1l4.9-0.3l1.2-0.2l0.6-0.2l1.2-0.5l1-0.6l0.8-0.8l0.4-0.5
		l0.5-1.2l-0.1-1.3l-0.2-0.6l-0.6-1.1l-0.4-0.5l-1-0.8l-0.6-0.2l-1.2-0.5l-1.3-0.3l-1.3-0.2l-7.4-0.7l-2.3-0.5l-1.2-0.3l-1.7-0.6
		l-1.2-0.4l-1.2-0.5l-2.6-1.3l-1-0.7l-1.2-0.7l-1-0.7l-1.3-1.1l-0.7-1l-0.7-1.2l-0.5-1.2l-0.5-1.6l-0.2-1.2l-0.2-1.7l-0.2-2.5
		l0.1-1.2l0.2-1.9l0.2-1.2l0.3-1l0.4-1.2l0.8-1.7l0.5-1.1l0.6-0.9l0.8-0.9l1.2-1.2l1-0.8l1-0.7l1.1-0.5l1.5-0.9l2.3-0.9l1.2-0.4
		l1.8-0.3l1.2-0.2l2.3-0.3l1.7-0.3l1.2-0.2l1.2-0.1h1.2l2.3,0.2l1.2,0.2l0.5,0.2l1.2,0.2l2.6,0.5l1.3,0.3l1.2,0.4l1.3,0.4l1.2,0.5
		l1.2,0.5l1.2,0.5l1.5,0.9l1.1,0.5l1,0.7l0.7,0.7v0.8l-0.5,0.9l-0.9,1.6l-0.6,0.9l-3,3.9l-0.9,1.1l-0.9,0.8l-0.6,0.2l-0.5-0.1
		l-0.8-0.4l-1.2-0.7l-1.2-0.5l-0.5-0.2l-1.2-0.4l-0.6-0.2l-1.3-0.3l-1.8-0.4l-1.2-0.1l-2-0.2h-2l-1.3,0.1l-1.3,0.2l-1.2,0.4
		l-0.5,0.2l-0.9,0.7l-0.4,0.5l-0.5,1.1l-0.2,1.2l0.2,1l0.6,1l0.9,0.8l0.9,0.5l0.5,0.2l1.2,0.2l1.9,0.2l2.6,0.2l1.3,0.2l2.6,0.6
		l2.5,0.8l1.8,0.4l1.2,0.3l2.2,0.8l1.6,0.7l1.1,0.5l1.1,0.6l1,0.6l2.3,1.9l0.9,0.9l0.8,0.9l0.9,1.4l0.6,1l0.5,1.2l0.3,1.2l0.3,1.7
		l0.2,1.2L1113.9,436.9z"/>
</g>
</svg>
