<?xml version="1.0" encoding="utf-8"?>
<!-- Generator: Adobe Illustrator 19.0.0, SVG Export Plug-In . SVG Version: 6.00 Build 0)  -->
<svg version="1.1" id="Calque_1" xmlns="http://www.w3.org/2000/svg" xmlns:xlink="http://www.w3.org/1999/xlink" x="0px" y="0px"
	 viewBox="20 31 1000 500" style="enable-background:new 20 31 1000 500;" xml:space="preserve">
<style type="text/css">
	.st0{display:none;}
	.st1{display:inline;fill:#161616;}
	.st2{fill:#F2DBC2;}
	.st3{fill:#C1272D;}
</style>
<g id="Calque_2" class="st0">
	<rect id="XMLID_1_" x="234" y="209" class="st1" width="1000" height="500"/>
</g>
<g>
	<path class="st2" d="M171.4,261.7l0.1,1.4l-0.3,5.4v7.8l-0.2,3.5v4.9l-0.1,0.9l-0.5,0.8l-0.7,1.1l-0.8,1.1l-1.4,1.4l-1,0.9
		l-0.5,0.5l-1.1,0.8l-0.6,0.3l-1.1,0.7l-1.7,0.8l-1.3,0.5l-1.2,0.4l-1.9,0.6l-1.3,0.3l-1.3,0.3l-1.3,0.3l-1.9,0.3l-1.2,0.2l-1.3,0.3
		l-3.3,0.4l-1.3,0.1l-2.6-0.2l-1.9-0.2l-1.3-0.2l-1.3-0.3l-1.3-0.3l-2.9-0.8l-1.3-0.3l-1.3-0.4l-1.7-0.6l-1.1-0.6l-1.7-0.9l-1-0.8
		l-1.1-0.8l-1-0.8l-1-0.8l-0.9-0.8l-1.3-1.3l-0.8-1l-0.9-1.3l-0.8-1.2l-2.1-3.8l-0.6-1.3l-0.6-1.3l-0.4-1.3l-0.4-1.4l-0.3-1.3
		l-0.3-1.4l-0.2-1.3l-0.3-1.8l-0.2-1.3l-0.1-1.3v-1.3l0.3-3.8l0.2-0.7l0.3-1.4l0.3-1.4l0.4-1.3l0.4-1.4l0.4-1.3l0.4-1.3l0.6-1.3
		l0.6-1.4l0.6-1.2l1.1-1.5l0.8-1l0.9-1.1l0.9-1l1-0.9l2.2-1.8l1.1-0.8l1-0.8l1-0.7l2.8-1.6l1.3-0.8l1.4-0.6l1.4-0.4l1.3-0.3l3.1-0.5
		l2.4-0.3l1.3-0.3l1.3-0.2l1.9-0.2l1.3-0.1l1.8,0.2l1.3,0.1l1.9,0.3l1.2,0.3l1.8,0.3l1.3,0.3l1.8,0.6l1.3,0.4l3,1.5l1.3,0.8l1.1,0.8
		l0.4,0.3l0.9,0.6l0.9,0.7l0.4,0.4l0.9,0.7l0.5,0.4l0.5,0.6v0.6l-0.3,0.6l-0.5,0.8l-0.8,1.1l-0.8,0.9l-2.3,2.3l-1.5,1.3l-1,0.8
		l-0.9,0.7l-0.7,0.5l-0.5,0.3l-0.7,0.1l-0.9-0.6l-1.1-0.8l-1.1-0.7l-1.2-0.7l-1.3-0.6l-1.3-0.5l-1.4-0.3l-1.4-0.3l-3.9-0.3H144
		l-1.3,0.1l-2.2,0.2l-1.3,0.3l-2.5,1.2l-1.1,0.8l-1.1,0.8l-0.9,0.9l-0.8,1.1L132,255l-0.7,1.2l-0.5,1.3l-0.4,1.3l-0.3,1.3l-0.5,2.5
		l-0.3,1.3l-0.1,1.4v1.4l0.2,2l0.3,1.3l0.4,1.9l0.4,1.3l0.8,2l0.6,1.2l1,1.5l0.8,1l1.5,1.4l1.1,0.8l1.7,0.9l1.3,0.5l2.5,0.6l1.4,0.2
		l1.4,0.1h1.3l1.3-0.2l1.3-0.3l4.5-1.1l1.3-0.5l1.3-0.6l0.8-0.6l0.3-0.5v-0.9l0.1-0.8v-1.3l-0.2-2.5v-1.4l-0.3-0.5l-0.9-0.2h-2
		l-1.3,0.1l-1.9,0.3l-1.3,0.1H147l-1.3-0.1l-2.8-0.5l-0.5-0.2l-0.3-0.4l-0.2-1l-0.1-0.7l-0.1-1.3l0.1-2.1l-0.2-2.5l-0.2-1.3v-1.8
		l0.3-0.9l0.4-0.4l1-0.2l2.1-0.3l1.4-0.1h3.8l5.4-0.3l6.7,0.4h1.3l3.4-0.4l1.3-0.1l0.7,0.1l1.3,0.3l0.6,0.3l0.2,0.5l0.3,1.2
		L171.4,261.7z"/>
	<path class="st2" d="M237.4,266.6l0.2,2.7l-0.1,1.3l-0.1,1.9l-0.2,1.3l-0.3,2l-0.3,1.3l-0.3,1.9l-0.3,1.3l-0.7,1.8l-0.4,1.2
		l-0.8,1.8l-0.6,1.2l-1.1,1.7l-0.8,1.1l-1,1.1l-1.1,0.9l-1.7,1.3l-1.1,0.8l-1.7,1l-1.1,0.6l-1.8,0.8l-1.3,0.4l-1.8,0.7l-1.3,0.3
		l-1.7,0l-1.3,0.3l-2.6,0.2h-3.8l-1.9-0.2l-1.3-0.1l-4.6-0.5l-1.3-0.3l-0.8-0.1l-1.3-0.4l-0.7-0.3l-1.3-0.6l-1.8-0.8l-1.3-0.8
		l-1.3-0.8l-2.2-1.8l-0.9-0.9l-1.1-1.4l-0.8-1l-1.3-2.2l-0.8-1.2l-0.7-1.3l-0.6-1.3l-0.5-1.3l-0.3-1.2l-0.3-1.3l-0.3-1.8l-0.3-1.4
		l-0.2-1.4l-0.2-2.8l-0.1-1.3l0.3-5.1v-1.3l-0.2-5.1v-1.3l0.3-5.1v-7.8l-0.2-2.7v-1.4l0.1-1.4l0.3-1.3l0.6-0.8l1.1-0.3l2.8-0.2
		l3.2,0.3h1.3l2.8-0.1l1.3,0.1l1.9,0.1l1.1,0.3l0.7,0.7l0.3,1.1l0.1,1.2v1.3l-0.2,3.3v1.3l0.3,5.1v1.3l-0.1,5.1v1.3l-0.3,5.1v1.3
		l-0.1,5.1l0.1,1.3l0.2,2.1l0.3,1.3l0.5,1.8l0.5,1.3l0.8,1.9l0.8,1l1.3,1.4l1.1,0.7l1.8,0.7l1.3,0.3l2.2,0.2h1.3l2.2-0.4l1.3-0.3
		l1.6-0.8l1.1-0.7l1.3-1.2l0.8-1l0.9-1.8l0.6-1.3l0.4-1.3l0.3-1.3l0.3-2.5l0.1-1.3l-0.3-5.1v-1.3l0.3-5.2v-1.3l0.2-5.1v-1.3
		l-0.2-5.2l-0.1-1.3l-0.3-3.5v-2.1l0.3-1.2l0.8-0.7l1.1-0.3h1.8l4.3,0.3h1.3l3.3-0.3h1.3l1.3,0.1l1.1,0.3l0.7,0.6l0.1,1l0.1,2.5v1.3
		l-0.1,1.9v1.3l0.3,5.2v1.3l-0.2,5.1v1.3l-0.3,5.2L237.4,266.6z"/>
	<path class="st2" d="M265.7,282.8v1.3l-0.3,4.5v1.3l-0.1,4.6v0.9l-0.3,0.5l-0.7,0.2l-1.2,0.1l-4.3-0.1h-5.2l-4.2-0.3l-0.5-0.2
		l-0.3-0.3v-0.8l-0.2-2.1v-1.3l-0.1-1.3v-1.3L248,284l0.1-1.3l0.3-4.5l0.1-1.3l-0.3-4.6V271l-0.1-4.5v-7.2l-0.1-4.6v-1.3l0.1-4.5
		v-7.2l-0.2-4.6l0.3-0.9l0.5-0.3l0.8-0.1h0.7l1.3-0.1l2,0.1h1.3l3.8-0.2h5.2l0.9,0.2l0.2,0.5l0.1,0.9l0.2,2.2l0.1,1.3v8.2l0.1,4.5
		v1.3l-0.1,4.6v1.3l0.1,4.5v1.3l-0.2,4.5v7.3L265.7,282.8z"/>
	<path class="st2" d="M334.7,267.4l-0.1,1.4l-0.1,2l-0.3,1.3l-0.6,1.9l-0.4,1.3l-0.5,1.3l-0.5,1.3l-0.5,1.4l-0.5,1.3l-0.9,1.8
		l-0.7,1.1l-1.2,1.3l-0.8,0.9l-1.4,1.3l-1.8,1.8l-1.1,0.9l-1.6,1.3l-1.1,0.7l-1.7,0.9l-1.1,0.5l-1.8,0.7l-1.3,0.4l-1.3,0.3l-1.3,0.3
		l-5.1,0.8l-1.3,0.1l-1.8,0.2h-1.3l-2.7-0.1l-2.2-0.2h-1.3l-2.7,0.2l-2.1,0.1l-1.4,0.1l-1.3-0.1h-5.8l-1.3-0.1l-3.6-0.3l-0.7-0.3
		l-0.4-0.4l-0.2-0.9l-0.1-1.3l0.1-0.7l0.2-2.5v-1.2l0.1-1.9V285l0.1-1.3v-1.3l-0.1-4.4v-1.3l-0.2-4.4l0.1-1.3l0.1-1.8l0.2-1.3
		l0.1-1.4v-1.3l-0.2-2.2l-0.1-1.4v-0.8l-0.1-1.4l0.3-4.4v-1.3l-0.1-4.4V248l-0.3-4.4v-3.3l0.1-1.3l0.3-1.3l0.2-0.9l0.3-0.5l0.9-0.3
		l1.4-0.2l1.3-0.2l1.3-0.1l7.3,0.1h1.3l4,0.3l0.7,0.1h1.5l3.5-0.2l1.3-0.1h1.3l2.1,0.2l2.7,0.2l1.3,0.2l2.2,0.3l1.3,0.3l1.3,0.3
		l3,1.1l1.3,0.6l1.3,0.7l1.2,0.7l2.8,1.9l1.1,0.9l1,0.8l1.8,1.8l0.8,0.8l0.8,0.9l0.6,1.1l0.9,1.8l0.5,1.3l0.4,1.3l0.5,1.3l0.4,1.3
		l0.3,1.3l0.3,1.8l0.3,1.3l0.3,1.4l0.2,1.3l0.1,2l0.1,1.3L334.7,267.4z M315.7,274.6l0.6-1.3l0.5-1.4l0.3-1.3l0.3-1.8l0.1-1.2
		l0.1-1.9V263l-0.1-1.3l-0.3-1.9l-0.3-1.3l-0.2-0.5l-0.7-1.3l-1.3-1.8l-0.4-0.4l-0.8-0.9l-0.9-0.9l-1-0.8l-1.8-1.1l-1.2-0.5
		l-1.2-0.3l-1.3-0.3l-2.1-0.1l-1.4-0.1h-2.1l-1.8-0.1l-1.3,0.1l-1.8,0.3l-0.9,0.3l-0.4,0.4l-0.3,1l-0.1,0.8l-0.1,1.3l0.2,2.5
		l0.1,1.3l0.2,1.8l0.2,1.3l0.1,1.3v1.3l-0.1,1.8v4l-0.1,1.4l-0.1,1.3l-0.2,1.8v1.2l-0.1,1.9l0.1,1.3l0.3,2l0.3,0.9l0.5,0.4l1,0.1
		l7.8-0.5l1.9-0.1l1.3-0.3l1.4-0.4l1.3-0.5l1.3-0.6l1.1-0.8l1.5-1.3l0.8-1L315.7,274.6z"/>
	<path class="st2" d="M391.4,288.1l-0.1,1.3l-0.3,4.5l-0.1,0.8l-0.3,0.6l-0.4,0.3l-10.9,0.3H378l-4.4-0.3l-1.3,0.1L368,296l-1.3,0.1
		h-5.8l-4.3-0.3H355l-7.2,0.4L345,296l-1-0.2l-0.6-0.4l-0.3-0.6L343,294l-0.2-1.9l-0.1-1.3l0.1-1.3v-1.3l0.3-4.4v-1.3l0.1-4.4
		l-0.1-1.3l-0.3-4.4l-0.1-1.3l0.2-4.5v-7.1l0.3-4.4l-0.1-1.3l-0.3-4.4l-0.1-1.3v-2l0.2-2.5v-1.3l0.3-4.3l0.1-1.2l0.3-0.7l0.4-0.3
		l0.7-0.1l1.1-0.2l5.4,0.3l5.1-0.1h1.3l5,0.3h1.3l5-0.3h1.3l11.3,0.2l1.4-0.1l2.8-0.3h2.1l1.2,0.3l0.5,0.4l0.2,0.6l0.2,1.1v2.3
		l-0.2,2.1v1.4l0.1,2.1l0.1,1.3l-0.1,1.3l-0.2,1l-0.3,0.6l-0.4,0.3l-1,0.2h-0.7l-1.3,0.1l-7.8-0.2h-1.3l-4.3,0.2h-1.3l-4.3-0.2
		l-3.8-0.3h-1.3l-0.7,0.1l-0.8,0.2l-0.4,0.4l-0.1,0.5l-0.2,0.9l-0.2,2v1.3l0.1,1.4l0.1,0.9l0.2,0.6l0.3,0.4l0.9,0.3l2.7,0.2l2.7-0.2
		h7.9l9.3-0.5l2.6,0.2l0.9,0.2l0.5,0.4l0.3,0.5l0.1,0.9l0.2,1.4l0.1,1.4v2.8l0.2,1.9l-0.2,2.5l-0.2,1l-0.3,0.6l-0.6,0.4l-0.8,0.2
		h-1.7l-3.8-0.4l-1.3-0.1l-6.7,0.4l-5.3-0.2h-1.3l-3.3-0.3l-1.4,0.1l-1,0.1l-0.4,0.3l-0.3,0.6l-0.1,1.3l-0.3,2.1l-0.1,1.3v1.8
		l0.1,0.8l0.3,0.6l0.3,0.3l0.9,0.1l4.6,0.2h1.3l4.5-0.3l5.9,0.3h1.3l5.9-0.3h1.3l1.3,0.1l3,0.3l0.5,0.3l0.3,0.5l0.1,0.9L391.4,288.1
		z"/>
	<path class="st2" d="M450.6,277.3l-0.1,1.4l-0.2,1.4l-0.3,1.3l-0.4,1.8l-0.4,1.2l-0.8,1.7l-0.6,1.1l-1,1.5l-0.8,1l-1,1l-1,0.9
		l-1.7,1.1l-1.1,0.8l-1.3,0.7l-1.2,0.6l-1.9,0.7l-2.5,0.8l-1.3,0.3l-2.1,0.3l-1.3,0.2l-1.8,0.2l-1.2,0.1l-1.9,0.1l-4,0.3h-1.8
		l-1.2-0.1l-1.9-0.2l-1.3-0.2l-1.4-0.3l-1.3-0.4L410,296l-1.2-0.6l-1.3-0.6l-1.2-0.6l-1.1-0.7l-2.7-1.8l-1-0.8l-1.5-1.2l-1-0.8
		l-0.9-0.9l-0.7-0.8l-0.1-0.6l0.4-0.8l0.3-0.4l0.8-0.9l2.3-2.2l0.8-0.9l1.4-2.2l0.8-0.9l0.8-0.9l0.9-0.5l0.9,0.2l0.9,0.7l2.7,1.8
		l1.3,0.7l1.2,0.6l1.9,0.9l1.3,0.4l1.3,0.4l1.3,0.3l1.9,0.1l1.3,0.1l5.3-0.3l1.3-0.2l0.7-0.2l1.3-0.5l1.1-0.7l0.8-0.8l0.4-0.6
		l0.5-1.3l-0.1-1.4l-0.2-0.7l-0.7-1.2l-0.4-0.5l-1.1-0.8l-0.7-0.3l-1.3-0.5l-1.4-0.3l-1.4-0.3l-7.9-0.8l-2.5-0.5l-1.3-0.3l-1.8-0.7
		l-1.3-0.4l-1.3-0.6l-2.8-1.4l-1.1-0.8l-1.3-0.8l-1.1-0.8l-1.4-1.2l-0.8-1.1l-0.8-1.3l-0.5-1.3l-0.6-1.8l-0.3-1.3l-0.3-1.8l-0.2-2.7
		l0.1-1.3l0.2-2l0.3-1.3l0.3-1.1l0.4-1.3l0.8-1.8l0.6-1.2l0.7-1l0.8-0.9l1.3-1.3l1.1-0.8l1.1-0.8l1.2-0.6l1.6-0.9l2.5-1l1.3-0.4
		l1.9-0.3l1.3-0.3l2.5-0.3l1.8-0.3l1.3-0.2l1.3-0.1h1.3l2.5,0.3l1.3,0.2l0.6,0.2l1.3,0.2l2.8,0.5l1.4,0.3l1.3,0.4l1.4,0.4l1.3,0.5
		l1.3,0.6l1.3,0.5l1.6,0.9l1.2,0.6l1.1,0.8l0.8,0.8v0.8l-0.5,0.9l-0.9,1.7l-0.7,1l-3.2,4.2l-0.9,1.2l-1,0.8l-0.7,0.3l-0.6-0.1
		l-0.8-0.4l-1.3-0.8l-1.3-0.5l-0.6-0.3l-1.3-0.4l-0.7-0.2l-1.4-0.3l-1.9-0.4l-1.3-0.1l-2.2-0.2H423l-1.4,0.1l-1.4,0.3l-1.3,0.4
		l-0.5,0.3l-1,0.8l-0.4,0.5l-0.6,1.2l-0.2,1.3l0.3,1.1l0.7,1.1l0.9,0.8l1,0.5l0.6,0.3l1.3,0.3l2.1,0.3l2.8,0.2l1.4,0.3l2.8,0.7
		l2.7,0.8l1.9,0.4l1.3,0.3l2.3,0.8l1.7,0.8l1.2,0.6l1.2,0.7l1.1,0.7l2.4,2l0.9,1l0.8,1l1,1.5l0.7,1.1l0.6,1.3l0.3,1.3l0.3,1.8
		l0.2,1.3L450.6,277.3z"/>
	<path class="st2" d="M545.9,287.9v1.3l-0.1,0.8v1.3l-0.2,3v1.5l-0.1,0.2h-0.1l-0.8,0.1l-1.3,0.2h-2.9l-1.4-0.2l-2.8-0.7l-1.3-0.6
		l-1.2-0.8l-0.9-1l-0.8-1.2l-0.8-1.3l-0.4-0.8l-0.2-0.2h-0.4l-0.7,0.7l-1.1,1l-1.7,1.2l-1.2,0.8l-1.4,0.8l-1.3,0.7l-1.8,0.8
		l-1.2,0.4l-0.5,0.1l-1.3,0.3l-1.6,0.2h-6.7l-2.1-0.2l-1.4-0.1l-2-0.3l-1.3-0.3l-1.9-0.4l-1.3-0.5l-1.3-0.5l-0.6-0.3l-1-0.6
		l-0.4-0.3l-0.9-0.7L495,292l-1-0.9l-1.2-1.2l-0.9-1.3l-0.7-1.2l-0.2-0.6l-0.4-1.1l-0.3-0.5l-0.3-1.3l-0.3-1.6l-0.3-1.3v-0.5
		l-0.1-1.2l-0.1-0.7v-1.3l0.1-1.3l0.3-1.3l0.3-1.3l0.5-1.2l0.6-1.2l0.8-1.2l0.8-1l0.9-1l0.9-0.9l1.1-0.8l1.8-1.2l0.1-0.2v-0.2
		l-0.1-0.2l-0.6-0.3l-0.5-0.3l-0.9-0.8l-0.5-0.3l-0.8-0.8l-0.4-0.5l-0.8-1.2l-0.7-1.3l-0.2-0.6l-0.4-1.2l-0.1-0.7l-0.3-1.2v-0.5
		l-0.1-1.3v-1.5l0.2-1.5l0.3-1.4l0.3-1.3l0.4-1.4l0.6-1.3l0.7-1.3l0.8-1.2l0.9-1.1l1.1-1l1.1-0.9l1.3-0.8l1.3-0.8l1.3-0.6l2.8-1
		l1.4-0.5l4.3-1l1.4-0.3l1.5-0.2l1.4-0.1h2.8l2.1,0.2l1.3,0.1l3.1,0.5l1.8,0.3l1.9,0.4l1.5,0.4l1.3,0.6l1.5,0.8l0.5,0.3l1.2,0.7
		l1.3,1l1.2,1.2l0.8,1.1l0.3,0.4l0.6,1l0.3,0.5l0.4,1l0.3,0.6l0.4,1.3l0.4,1.5l0.3,1.4v0.5l0.1,1.2l0.1,0.6v0.8l-0.6,0.3h-2.3
		l-3.2,0.2l-0.7,0.1h-1.5l-2.1-0.1l-4.7-0.3l-0.3-0.1l-0.2-0.2l-0.2-0.6l-0.2-0.7l-0.4-1.1l-0.3-0.5l-0.9-1.1l-1.2-0.8l-0.5-0.3
		l-1.2-0.3l-0.5-0.2l-1.2-0.1h-0.6l-1.2,0.1l-0.7,0.2l-1.2,0.3l-0.5,0.2l-1.2,0.4l-0.5,0.3l-1,0.6l-0.5,0.3l-0.8,0.8l-0.3,0.4
		l-0.4,1.1l-0.2,0.5v1.3l0.3,1.4l0.5,1.2l0.8,1l1,0.8l1.2,0.7l1.3,0.3l1.3,0.2h1.3l0.6,0.1h1.2l2.4,0.1h1.7l0.6,0.1h1.2l2.4,0.2h1.8
		l0.6-0.1l1.2-0.1l1.2-0.2l1.2-0.1l0.6-0.1h1.2l0.6,0.1h1.2l1.2,0.2l1.2,0.1l0.6,0.1h1.2l0.6-0.1h4.9v1.3l0.1,1.3l0.2,1.1v5.7
		l-0.1,1.2v1.3l-0.3,0.1h-0.9l-1.3,0.1l-1.1,0.2l-2.3,0.2l-0.1,0.8v1.9l-0.1,1l0.2,1.4l0.1,0.8l0.5,1.3l0.4,0.5l0.9,0.9l0.7,0.3
		l1.3,0.3l1.3,0.1l0.8,0.1l0.1,0.2v0.2l-0.1,0.8l0.1,0.8l0.1,1.3l0.2,1.5l0.1,1.4L545.9,287.9z M524.1,271.8l-0.2-0.3l-0.8-0.1h-2.9
		l-2.1,0.2H514l-1.4,0.2l-1.4,0.3l-1.4,0.5l-1.3,0.7l-1.2,0.8l-0.8,1.1l-0.4,1.4l-0.1,1.6l0.4,1.4l0.7,1.2l1,1l1.2,0.7l1.3,0.4
		l1.4,0.3l1.5,0.2l1.3,0.1l1.8-0.3l0.5-0.2l1.1-0.4l0.6-0.2l1-0.5l0.5-0.3l1.2-0.8l0.9-0.9l0.3-0.5l0.5-0.9l0.3-0.6l0.3-1.1l0.1-0.6
		l0.1-1.2l0.1-1.3l0.2-1.3L524.1,271.8z"/>
	<path class="st3" d="M172.2,367.5l-0.1,1.4l-0.1,2l-0.3,1.3l-0.6,1.9l-0.4,1.3l-0.5,1.3l-0.5,1.3l-0.5,1.4l-0.5,1.3l-0.9,1.8
		l-0.7,1.1L166,385l-0.8,0.9l-1.4,1.3L162,389l-1.1,0.9l-1.6,1.3l-1.1,0.7l-1.7,0.9l-1.1,0.5l-1.8,0.7l-1.3,0.4l-1.3,0.3l-1.3,0.3
		l-5.1,0.8l-1.3,0.1l-1.8,0.2h-1.3l-2.7-0.1l-2.2-0.2H134l-2.7,0.2l-2.1,0.1l-1.4,0.1l-1.3-0.1h-5.8l-1.3-0.1l-3.6-0.3l-0.7-0.3
		l-0.4-0.4l-0.2-0.9l-0.1-1.3l0.1-0.7l0.2-2.5v-1.2l0.1-1.9v-1.3l0.1-1.3v-1.3l-0.1-4.4v-1.3l-0.2-4.4l0.1-1.3l0.1-1.8l0.2-1.3
		l0.1-1.4v-1.3L115,363l-0.1-1.4v-0.8l-0.1-1.4l0.3-4.4v-1.3l-0.1-4.4V348l-0.3-4.4v-3.3l0.1-1.3l0.3-1.3l0.2-0.9l0.3-0.5l0.9-0.3
		l1.4-0.2l1.3-0.2l1.3-0.1l7.3,0.1h1.3l4,0.3l0.7,0.1h1.5l3.5-0.2l1.3-0.1h1.3l2.1,0.2l2.7,0.2l1.3,0.2l2.2,0.3l1.3,0.3l1.3,0.3
		l3,1.1l1.3,0.6l1.3,0.7l1.2,0.7l2.8,1.9l1.1,0.9l1,0.8l1.8,1.8l0.8,0.8l0.8,0.9l0.6,1.1l0.9,1.8l0.5,1.3l0.4,1.3l0.5,1.3l0.4,1.3
		l0.3,1.3l0.3,1.8l0.3,1.3l0.3,1.4l0.2,1.3l0.1,2l0.1,1.3L172.2,367.5z M153.2,374.6l0.6-1.3l0.5-1.4l0.3-1.3l0.3-1.8l0.1-1.2
		l0.1-1.9V363l-0.1-1.3l-0.3-1.9l-0.3-1.3l-0.2-0.5l-0.7-1.3l-1.3-1.8l-0.4-0.4l-0.8-0.9l-0.9-0.9l-1-0.8l-1.8-1.1l-1.2-0.5
		l-1.2-0.3l-1.3-0.3l-2.1-0.1l-1.4-0.1H138l-1.8-0.1l-1.3,0.1l-1.8,0.3l-0.9,0.3l-0.4,0.4l-0.3,1l-0.1,0.8l-0.1,1.3l0.2,2.5l0.1,1.3
		l0.2,1.8l0.2,1.3l0.1,1.3v1.3l-0.1,1.8v4l-0.1,1.4l-0.1,1.3l-0.2,1.8v1.2l-0.1,1.9l0.1,1.3l0.3,2l0.3,0.9l0.5,0.4l1,0.1l7.8-0.5
		l1.9-0.1l1.3-0.3l1.4-0.4l1.3-0.5l1.3-0.6l1.1-0.8l1.5-1.3l0.8-1L153.2,374.6z"/>
	<path class="st3" d="M244.8,365.2l-0.1,1.3l-0.2,1.9l-0.2,1.3l-0.5,2.5l-0.2,1.9l-0.2,1.3l-0.3,1.3L243,378l-0.8,1.8l-0.6,1.2
		l-2.3,3.8l-0.8,1.1l-0.8,1.1l-0.8,0.9l-1.3,1.4l-0.9,0.8l-1.1,0.8l-1,0.8l-1.5,1l-1.1,0.7l-1.3,0.7l-1.2,0.5l-1.7,0.7l-1.3,0.3
		l-2.7,0.8l-1.4,0.4l-1.3,0.3l-1.4,0.3l-1.4,0.3l-1.4,0.1h-4.5l-2.8-0.2l-2.8-0.3l-1.2-0.3l-1.3-0.3l-4.5-1.5l-1.3-0.4l-1.4-0.6
		l-2.7-1.2l-1.3-0.7l-1.3-0.8l-1.1-0.8l-1.1-0.9l-1-1.1l-0.9-1.1l-2.3-2.3l-0.8-1l-0.8-1.1l-0.7-1.1l-0.7-1.7l-1.3-3.8l-0.5-1.8
		l-0.3-1.3l-0.3-1.3l-0.3-1.3l-0.3-1.8l-0.1-1.3l-0.1-1.4V365l0.1-1.4l0.1-1.5l0.2-1.4l0.3-1.4l0.3-1.4l0.4-1.4l0.4-1.3l0.5-1.3
		l0.6-1.9l0.6-1.3l0.3-0.8l0.7-1.3l1.2-1.8l0.8-1.2l0.4-0.7l1-1l1.4-1.2l1.1-0.8l1.1-0.8l2.5-1.7l1.1-0.7l1.2-0.7l1.2-0.6l1.8-0.8
		l1.2-0.4l1.3-0.4l1.3-0.3l3.2-0.6l1.3-0.3l4.2-0.5l2.7-0.2l2.5,0.2l2,0.1l1.4,0.2l1.4,0.3l1.4,0.3l1.4,0.3l1.3,0.3l1.3,0.3l1.3,0.4
		l1.8,0.7l1.2,0.5l2.8,1.6l1.1,0.8l1.1,0.8l1.4,1.3l0.9,0.8l0.9,0.9l0.8,1l1.2,1.6l0.7,1.1l0.6,1.1l0.7,1.1l0.9,1.7l0.7,1.1l0.6,1.3
		l0.4,1.2l0.4,1.9l0.5,2.5l0.2,1.4l0.3,1.4L244.8,365.2z M227.3,366.6v-1.4l-0.1-1.4l-0.1-1.3l-0.5-2.5l-0.3-1.2l-0.9-1.8l-0.7-1.1
		l-1.2-1.5l-0.8-0.9l-1.3-1.3l-0.9-0.8l-2.2-1.3l-1.2-0.5l-1.3-0.4l-1.3-0.3l-2.7-0.2l-1.3,0.1l-1.8,0.1l-1.3,0.3l-2.2,0.6l-1.3,0.5
		l-1.9,1l-1.2,0.8l-1.3,1.2l-0.9,1l-0.9,1.3l-0.7,1.1l-0.3,0.5l-0.8,1.8l-0.4,1.3l-0.3,0.6l-0.3,1.2l0.1,0.9l-0.1,1.2l-0.1,1.3v1.3
		l0.1,1.3l0.3,1.3l0.1,0.8l0.3,1.3l0.2,0.6l0.4,1.2l0.3,0.7l0.7,1.2l0.4,0.7l0.9,1.2l0.5,0.6l1,1l1.7,1.4l1.2,0.8l1.3,0.7l1.3,0.5
		l1.8,0.6l1.3,0.3l2.1,0.3l1.4,0.1l2.1-0.2l1.3-0.2l1.8-0.4l1.2-0.5l1.8-1.2l1-0.8l1.3-1.3l0.8-0.9l1.1-1.3l0.8-1.2l0.8-1.8l0.5-1.3
		l0.4-1.9l0.2-1.3L227.3,366.6z"/>
	<path class="st3" d="M307.2,388.4l-0.7,0.7l-1.5,1.3l-1,0.8l-1.6,1.2l-1,0.7l-1.7,0.9l-1.1,0.6l-1.9,0.9l-1.3,0.4l-1.4,0.4
		l-1.4,0.3l-2.1,0.4l-2.9,0.3l-1.5,0.1l-2.1,0.2h-4.3l-1.4-0.1l-1.4-0.2l-1.4-0.3l-1.4-0.3l-1.3-0.4l-3.8-1l-1.8-0.7l-1.1-0.5
		l-1.6-0.9l-1-0.8l-1.1-0.8l-1.2-0.8L259,389l-1-1l-0.9-1.1l-0.9-1.3l-0.8-1.2l-0.7-1.2l-0.6-1.2l-0.8-1.8l-1.3-3.5l-0.6-1.7
		l-0.8-2.5l-0.2-1.3l-0.1-1.9l0.1-1.3l0.1-1.3v-1.4l0.2-2.8l0.1-1.3l0.3-1.3l0.3-1.8l0.3-1.3l0.4-1.3l0.4-1.2l0.6-1.7l0.6-1.2
		l0.6-1.3l0.7-1.3l0.8-1.3l0.8-1.2l0.8-1.1l0.9-1.2l1-1.1l1-0.9l1.1-0.9l1-0.8l2.7-1.8l1.1-0.7l1.2-0.7l2.5-1.2l1.4-0.5l1.3-0.4
		l2.8-0.7l1.4-0.3l1.4-0.2l2.6-0.2l1.8-0.2l1.3,0.1l1.8,0.1l3.1,0.4l1.2,0.3l1.9,0.3l2.9,0.8l1.2,0.5l1.8,1.1l1.2,0.7l2.2,1.5
		l2.6,1.8l0.9,0.7l0.5,0.4l0.6,0.6l0.2,0.7l-0.1,0.7l-0.5,0.7l-0.8,0.9l-0.9,0.9l-0.9,0.8l-0.9,0.8l-0.9,0.9l-1.4,1.7l-0.9,1
		l-0.4,0.4l-0.8,0.7l-0.6,0.3l-0.6,0.1l-0.6-0.2l-0.9-0.5l-1.6-1.2l-1.1-0.6l-1.8-0.8l-1.2-0.4l-1.8-0.5l-1.3-0.3l-2.1-0.2h-1.3
		l-1.8,0.2l-1.3,0.3l-1.8,0.6l-1.3,0.5l-1.1,0.4l-1.7,0.8l-1.2,0.8l-0.6,0.5l-1,1.1L270,355l-0.6,1.1L269,358l-0.5,1.3l-0.4,1.3
		l-0.3,1.4l-0.2,1.3l-0.2,2.5v1.3l0.1,2.1l0.1,1.3l0.4,1.9l0.4,1.3l0.6,1.4l0.7,1.3l1.3,1.8l0.9,1l1.6,1.3l1.1,0.8l1.7,0.8l1.3,0.5
		l1.8,0.5l1.3,0.3l2,0.1h1.9l1.2-0.3l0.7-0.2l1.3-0.4l2.1-0.8l1.3-0.6l1.3-0.6l1.1-0.6l1.6-1l1.1-0.8l0.8-0.6l0.5-0.2l0.8,0.2
		l0.9,0.6l0.9,0.8l0.3,0.5l0.8,0.9l1.3,1.7l0.8,1l2.3,2.6l0.8,1l0.4,0.4l0.4,0.8L307.2,388.4L307.2,388.4z"/>
	<path class="st3" d="M369.6,366.6l0.2,2.7l-0.1,1.3l-0.1,1.9l-0.2,1.3l-0.3,2l-0.3,1.3l-0.3,1.9l-0.3,1.3l-0.7,1.8l-0.4,1.2
		l-0.8,1.8l-0.6,1.2l-1.1,1.7l-0.8,1.1l-1,1.1l-1.1,0.9l-1.7,1.3l-1.1,0.8l-1.7,1l-1.1,0.6l-1.8,0.8L353,396l-1.8,0.7l-1.3,0.3
		l-1.9,0.3l-1.3,0.3l-2.6,0.2h-3.8l-1.9-0.2l-1.3-0.1l-4.6-0.5l-1.3-0.3l-0.8-0.1l-1.3-0.4l-0.7-0.3l-1.3-0.6l-1.8-0.8l-1.3-0.8
		l-1.3-0.8l-2.2-1.8L320,390l-1.1-1.4l-0.8-1l-1.3-2.2l-0.8-1.2l-0.7-1.3l-0.6-1.3l-0.5-1.3l-0.3-1.2l-0.3-1.3l-0.3-1.8l-0.3-1.4
		l-0.2-1.4l-0.2-2.8l-0.1-1.3l0.3-5.1v-1.3l-0.2-5.1v-1.3l0.3-5.1v-7.8l-0.2-2.7v-1.4l0.1-1.4l0.3-1.3l0.6-0.8l1.1-0.3l2.8-0.2
		l3.2,0.3h1.3l2.8-0.1l1.3,0.1l1.9,0.1l1.1,0.3l0.7,0.7l0.3,1.1l0.1,1.2v1.3l-0.2,3.3v1.3l0.3,5.1v1.3l-0.1,5.1v1.3l-0.3,5.1v1.3
		l-0.1,5.1l0.1,1.3l0.2,2.1l0.3,1.3l0.5,1.8l0.5,1.3l0.8,1.9l0.8,1l1.3,1.4l1.1,0.7l1.8,0.7l1.3,0.3l2.2,0.2h1.3l2.2-0.4l1.3-0.3
		l1.6-0.8l1.1-0.7l1.3-1.2l0.8-1l0.9-1.8l0.6-1.3l0.4-1.3l0.3-1.3l0.3-2.5l0.1-1.3l-0.3-5.1v-1.3l0.3-5.2v-1.3l0.2-5.1V350l-0.2-5.2
		l-0.1-1.3l-0.3-3.5v-2.1l0.3-1.2l0.8-0.7l1.1-0.3h1.8l4.3,0.3h1.3l3.3-0.3h1.3l1.3,0.1l1.1,0.3l0.7,0.6l0.1,1l0.1,2.5v1.3l-0.1,1.9
		v1.3l0.3,5.2v1.3l-0.2,5.1v1.3l-0.3,5.2L369.6,366.6z"/>
	<path class="st3" d="M447.6,388.4l0.1,1.3l0.3,2.6l0.1,1.3l-0.1,0.7l-0.1,0.9l-0.4,0.7l-0.5,0.4l-0.9,0.2l-1.3,0.1h-1.3l-3.3-0.3
		l-1.4-0.1h-2.1l-1.5-0.1l-3.1-0.4l-0.6-0.2l-0.3-0.4l-0.1-0.8l-0.1-1.2l-0.1-1.3l0.2-2.8v-7.8l-0.3-5.3v-1.3l0.3-5.2v-6.5l-0.2-1
		l-0.5-0.3H430l-0.6,0.8l-0.8,1.2l-3.5,4l-5.1,6.1l-3.3,4.2l-0.8,0.7l-0.6,0.3h-0.7l-0.9-0.2l-1-0.3l-0.9-0.7l-4.2-5l-3.1-4.1
		l-0.8-1l-4.3-4.8l-1.1-1.1l-0.5,0.2l-0.2,0.9l-0.3,5.3v1.3l0.3,5.3v1.3l0.2,5.3v1.3l-0.1,5.2v1.3l0.1,2.5l-0.1,1.3l-0.1,1.4
		l-0.2,1.1l-0.3,0.5l-0.6,0.2l-2.2,0.3l-1.3,0.1l-3.3-0.3l-1.3,0.1l-4,0.3h-1.9l-1-0.2l-0.5-0.5l-0.2-0.6l-0.2-0.8v-1.9l0.2-2.6
		v-12.8l-0.2-4.4v-1.3l0.1-4.4l-0.1-1.3l-0.3-4.5V360l0.3-4.4l0.1-1.3l-0.3-4.4l0.1-1.3l0.3-4.4v-1.3l-0.3-3.1v-1.3l0.2-1.1l0.3-0.6
		l0.5-0.4l0.7-0.2l1.1-0.1l1.4,0.2l1.8,0.4h1.3l2.6-0.3l1.4-0.2l1.3-0.1l3.2,0.1h1.1l0.9,0.4l0.8,0.9l2.9,3.3l0.8,1.1l2.4,3.4
		l0.8,1.1l2.8,3.3l0.8,1.2l2.6,3.3l0.8,0.9l0.8,0.4h0.8l0.8-0.4l0.8-0.8l2.5-3.3l0.8-1.2l2.7-3.3l0.8-1.1l2.9-3.3l0.8-1.1l2.2-2.7
		l0.7-0.9l0.7-0.7l0.8-0.4l1.1,0.1l4.4,0.3l3.9,0.1h1.3l2.5-0.2l1.4,0.1l1,0.2l0.6,0.2l0.5,0.4l0.2,0.7l-0.1,1l-0.3,3.8l-0.1,1.3
		l0.2,4.4v1.3l-0.1,4.4v1.3l0.1,4.4v1.3l0.3,4.5v1.3l-0.3,4.4v1.3l0.3,4.4v1.3l-0.3,4.4v1.3L447.6,388.4z"/>
	<path class="st3" d="M508.3,388.1l-0.1,1.3l-0.3,4.5l-0.1,0.8l-0.3,0.6l-0.4,0.3l-10.9,0.3h-1.3l-4.4-0.3l-1.3,0.1l-4.3,0.3
		l-1.3,0.1h-5.8l-4.3-0.3H472l-7.2,0.4L462,396l-1-0.2l-0.6-0.4l-0.3-0.6l-0.2-0.9l-0.2-1.9l-0.1-1.3l0.1-1.3v-1.3l0.3-4.4v-1.3
		l0.1-4.4l-0.1-1.3l-0.3-4.4l-0.1-1.3l0.2-4.5v-7.1l0.3-4.4l-0.1-1.3l-0.3-4.4l-0.1-1.3v-2l0.2-2.5v-1.3l0.3-4.3l0.1-1.2l0.3-0.7
		l0.4-0.3l0.7-0.1l1.1-0.2l5.4,0.3l5.1-0.1h1.3l5,0.3h1.3l5-0.3h1.3l11.3,0.2l1.4-0.1l2.8-0.3h2.1l1.2,0.3l0.5,0.4l0.2,0.6l0.2,1.1
		v2.3l-0.2,2.1v1.4l0.1,2.1l0.1,1.3l-0.1,1.3l-0.2,1l-0.3,0.6l-0.4,0.3l-1,0.2h-0.7l-1.3,0.1l-7.8-0.2h-1.3l-4.3,0.2h-1.3l-4.3-0.2
		L480,350h-1.3l-0.7,0.1l-0.8,0.2l-0.4,0.4l-0.1,0.5l-0.2,0.9l-0.2,2v1.3l0.1,1.4l0.1,0.9l0.2,0.6l0.3,0.4l0.9,0.3l2.7,0.2l2.7-0.2
		h7.9l9.3-0.5l2.6,0.2l0.9,0.2l0.5,0.4l0.3,0.5l0.1,0.9l0.2,1.4l0.1,1.4v2.8l0.2,1.9l-0.2,2.5l-0.2,1l-0.3,0.6l-0.6,0.4l-0.8,0.2
		h-1.7l-3.8-0.4l-1.3-0.1l-6.7,0.4l-5.3-0.2h-1.3l-3.3-0.3l-1.4,0.1l-1,0.1l-0.4,0.3l-0.3,0.6l-0.1,1.3l-0.3,2.1l-0.1,1.3v1.8
		l0.1,0.8l0.3,0.6l0.3,0.3l0.9,0.1l4.6,0.2h1.3l4.5-0.3l5.9,0.3h1.3l5.9-0.3h1.3l1.3,0.1l3,0.3l0.5,0.3l0.3,0.5l0.1,0.9L508.3,388.1
		z"/>
	<path class="st3" d="M574.7,348.9l-0.1,1.3v12.3l0.3,4.8v1.3l0.2,11v1.4l-0.1,0.7l-0.1,1.4l-0.3,4l0.1,4.8l-0.1,1.2l-0.3,1
		l-0.7,0.9l-0.8,0.6L572,396l-1.2,0.1l-4.3,0.2l-1.3,0.1l-2.1,0.1h-1.3l-1.1-0.3l-1-0.4l-1-0.8l-0.8-1.1l-1.3-2.4l-0.8-1.1l-3.3-4.1
		l-0.8-1l-3.3-4l-0.8-1.1l-2.9-4.3l-0.8-1l-3.3-4l-0.8-1l-3.1-4.1l-0.8-0.7l-0.6,0.3l-0.3,1l-0.2,4.2v1.3l0.1,4.2v1.3l0.1,4.7v1.3
		l-0.3,4.7l0.1,1.3l0.5,3.3l0.1,1.3l-0.3,1.1l-0.6,0.6l-0.6,0.2l-1,0.2l-0.7,0.1l-1.4,0.1l-3.8-0.1h-1.3l-3.4,0.2H521l-1.3-0.1
		l-0.9-0.2l-0.7-0.4l-0.3-0.6l-0.2-0.8l-0.1-0.6v-1.3l0.2-2.8l0.1-1.3l-0.3-4.4v-1.3l0.2-10.2l0.1-1.3l0.3-4.4l0.1-1.3v-5.8
		l-0.3-4.4v-1.3l0.3-4.4l-0.1-1.3l-0.3-4.5l-0.1-1.3v-1.9l0.1-1.3l0.2-1.3l0.2-0.9l0.3-0.6l0.5-0.3l0.9-0.2l2.5-0.2l2.5,0.2h6.3
		l1,0.1l0.4,0.3l0.5,0.8l3.5,3.8l0.8,1l3.1,4l0.8,1l3.1,4.1l0.8,1l3,4.2l0.8,1l3.2,4l0.8,1l3,4.2l0.7,0.6l0.7,0.1l0.6-0.4v-0.9
		l-0.6-3.5l-0.1-1.3l0.3-3.6v-1.3l-0.3-5.1v-1.3l0.3-5.1l-0.1-1.3l-0.3-3.1v-2.1l0.3-1.1l0.3-0.7l0.6-0.3l1-0.2h0.8l1.4-0.1l3.8,0.3
		h1.3l2.8-0.2l1.3,0.1l1.9,0.1l0.9,0.2l0.6,0.3l0.5,0.6l0.2,1.2l0.1,0.8l0.1,1.4l-0.2,2.6l-0.2,1.3L574.7,348.9z"/>
	<path class="st3" d="M635.5,342.4l-0.1,1.3l0.1,2.5l-0.1,1.3l-0.1,0.7l-0.2,1l-0.3,0.6l-0.5,0.4l-1,0.2H632l-2.5-0.3l-1.3-0.1
		l-3.8,0.3h-1.3L621,350h-1.3l-0.6,0.1l-0.8,0.3l-0.3,0.5l0,1.1l-0.3,4.9v1.3l0.3,5l-0.1,1.3l-0.3,5l-0.1,1.3l0.2,4.9v7.7l-0.2,4.9
		l0.1,1.3l0.4,3.8l0.1,1.3l-0.3,1l-0.4,0.4l-1.1,0.2l-1.6-0.1l-2.1-0.3l-1.4-0.1l-3.8,0.3h-1.3l-3.8-0.3l-1-0.1l-0.5-0.3l-0.2-0.9
		v-1.4l0.3-3.5l0.1-1.3V382l0.1-5v-1.3l0.1-4.9v-1.3l-0.3-5l-0.1-1.3v-6.3l-0.2-4.9v-1.2l-0.3-0.7l-0.8-0.2h-1.3l-2.7,0.2H594
		l-2.3-0.2l-1.4-0.1L589,350l-1.9,0.1h-1.3l-0.7-0.1l-0.9-0.2l-0.5-0.3l-0.3-0.5l-0.2-0.8v-0.6l-0.1-1.3l0.2-2.5v-1.3l-0.3-3.2
		l0.1-1.3l0.3-1.1l0.3-0.6l0.5-0.3l0.8-0.2h1.9l3.1,0.3h1.3l4.8-0.3h1.3l4.9,0.4h1.3l6.2-0.4l4.8,0.1h1.3l6.3-0.1h6.2l2.8-0.2
		l1.4,0.1l0.7,0.1l1,0.2l0.6,0.3l0.4,0.6l0.2,1v0.6l0.1,1.3L635.5,342.4z"/>
	<path class="st3" d="M697.7,393.6l0.3,1.2l-0.6,0.9l-0.9,0.4l-1.1,0.2h-1.2l-1.9-0.2L691,396h-3.8l-5.2,0.3l-1.1-0.4l-0.5-0.6
		l-0.4-0.9l-2.6-7l-0.6-0.8l-0.8-0.2l-1-0.1l-5-0.3h-1.3l-6.3-0.2l-5-0.1h-1.3l-1.3,0.1H651l-1.1,0.2l-0.7,0.4l-0.5,1l-1.9,5.7
		l-0.5,1.3l-0.9,1.1l-1.3,0.4h-1.3l-4.8-0.3h-1.3l-5.2,0.3l-1.1,0.1l-1-0.5l-0.7-0.9l0.1-1.1l0.2-0.7l0.5-1.3l1.2-2.6l0.5-1.3
		l2.1-4.7l0.5-1.2l2.2-4.7l0.5-1.3l1.9-4.5l0.5-1.3l2.3-4.7l0.5-1.2l3-6.8l2.3-5l0.6-1.3l1.8-3.8l0.6-1.3l1.6-3.8l0.5-1.3l1.5-3.4
		l0.4-0.9l0.8-0.5l1.3-0.3l3.8-0.2h6.5l3.8,0.1l1.4,0.3l0.9,0.7l0.4,1.1l1.2,3.3l0.5,1.3l2.1,3.9l0.5,1.2l1.8,4.1l0.5,1.2l1.5,4.3
		l0.5,1.2l1.8,4l0.5,1.2l1.8,4.1l0.5,1.2l1.7,4.2l0.5,1.2l2.6,5.2l2,3.9l0.6,1.2l2.3,5.3L697.7,393.6z M669.8,370l-0.3-1.1l-1.8-5.7
		l-0.4-1.3l-1.7-4.9l-0.4-1.1l-0.8-0.6l-1.1-0.3l-0.9,0.3l-0.8,0.8l-2.3,5.7l-0.5,1.3l-2.2,5.6l-0.3,1.3l0.3,1l0.9,0.4l1.2,0.2h5.3
		l3.9,0.3l1.1-0.3l0.7-0.7L669.8,370z"/>
	<path class="st3" d="M743.3,342.4l-0.1,1.3l0.1,2.5l-0.1,1.3l-0.1,0.7l-0.2,1l-0.3,0.6l-0.5,0.4l-1,0.2h-1.3l-2.5-0.3L736,350
		l-3.8,0.3h-1.3l-2.1-0.2h-1.3l-0.6,0.1l-0.8,0.3l-0.3,0.5l-0.1,1.1l-0.3,4.9v1.3l0.3,5l-0.1,1.3l-0.3,5l-0.1,1.3l0.2,4.9v7.7
		l-0.2,4.9l0.1,1.3l0.4,3.8l0.1,1.3l-0.3,1l-0.4,0.4l-1.1,0.2l-1.6-0.1l-2.1-0.3l-1.4-0.1l-3.8,0.3h-1.3l-3.8-0.3l-1-0.1l-0.5-0.3
		l-0.2-0.9v-1.4l0.3-3.5l0.1-1.3v-6.3l0.1-5v-1.3l0.1-4.9v-1.3l-0.3-5l-0.1-1.3V357l-0.2-4.9v-1.2l-0.3-0.7l-0.8-0.2H706l-2.7,0.2
		h-1.5l-2.3-0.2l-1.4-0.1l-1.4,0.1l-1.9,0.1h-1.3l-0.7-0.1l-0.9-0.2l-0.5-0.3l-0.3-0.5l-0.2-0.8v-0.6l-0.1-1.3l0.2-2.5v-1.3
		l-0.3-3.2l0.1-1.3l0.3-1.1l0.3-0.6l0.5-0.3l0.8-0.2h1.9l3.1,0.3h1.3l4.8-0.3h1.3l4.9,0.4h1.3l6.2-0.4l4.8,0.1h1.3l6.3-0.1h6.2
		l2.8-0.2l1.4,0.1l0.7,0.1l1,0.2l0.6,0.3l0.4,0.6l0.2,1v0.6l0.1,1.3L743.3,342.4z"/>
	<path class="st3" d="M768.9,382.9v1.3l-0.3,4.5v1.3l-0.1,4.6v0.9l-0.3,0.5l-0.7,0.2l-1.2,0.1l-4.3-0.1h-5l-4.2-0.3l-0.5-0.2
		l-0.3-0.3v-0.8l-0.2-2.1v-1.3l-0.1-1.3v-1.3l-0.3-4.5l0.1-1.3l0.3-4.5l0.1-1.3l-0.3-4.6v-1.3l-0.1-4.5v-7.2l-0.1-4.6v-1.3l0.1-4.5
		v-7.2l-0.2-4.6l0.3-0.9l0.5-0.3l0.8-0.1h0.7l1.3-0.1l2,0.1h1.3l3.8-0.2h5.2l0.9,0.2l0.2,0.5l0.1,0.9l0.2,2.2l0.1,1.3v8.2l0.1,4.5
		v1.3l-0.1,4.6v1.3l0.1,4.5v1.3l-0.2,4.5v7.3L768.9,382.9z"/>
	<path class="st3" d="M844.8,365.2l-0.1,1.3l-0.2,1.9l-0.2,1.3l-0.5,2.5l-0.2,1.9l-0.2,1.3l-0.3,1.3L843,378l-0.8,1.8l-0.6,1.2
		l-2.3,3.8l-0.8,1.1l-0.8,1.1l-0.8,0.9l-1.3,1.4l-0.9,0.8l-1.1,0.8l-1,0.8l-1.5,1l-1.1,0.7l-1.3,0.7l-1.2,0.5l-1.7,0.7l-1.3,0.3
		l-2.7,0.8l-1.4,0.4l-1.3,0.3l-1.4,0.3l-1.4,0.3l-1.4,0.1h-4.5l-2.8-0.2l-2.8-0.3l-1.2-0.3l-1.3-0.3l-4.5-1.5l-1.3-0.4l-1.4-0.6
		l-2.7-1.2l-1.3-0.7l-1.3-0.8l-1.1-0.8l-1.1-0.9l-1-1.1l-0.9-1.1l-2.3-2.3l-0.8-1l-0.8-1.1l-0.7-1.1l-0.7-1.7l-1.3-3.8l-0.5-1.8
		l-0.3-1.3l-0.3-1.3l-0.3-1.3l-0.3-1.8l-0.1-1.3l-0.1-1.4V365l0.1-1.4l0.1-1.5l0.2-1.4l0.3-1.4l0.3-1.4l0.4-1.4l0.4-1.3l0.5-1.3
		l0.6-1.9l0.6-1.3l0.3-0.8l0.7-1.3l1.2-1.8l0.8-1.2l0.4-0.7l1-1l1.4-1.2l1.1-0.8l1.1-0.8l2.5-1.7l1.1-0.7l1.2-0.7l1.2-0.6l1.8-0.8
		l1.2-0.4l1.3-0.4l1.3-0.3l3.2-0.6l1.3-0.3l4.2-0.5l2.7-0.2l2.5,0.2l2,0.1l1.4,0.2l1.4,0.3l1.4,0.3l1.4,0.3l1.3,0.3l1.3,0.3l1.3,0.4
		l1.8,0.7l1.2,0.5l2.8,1.6l1.1,0.8l1.1,0.8l1.4,1.3l0.9,0.8l0.9,0.9l0.8,1l1.2,1.6l0.7,1.1l0.6,1.1l0.7,1.1l0.9,1.7l0.7,1.1l0.6,1.3
		l0.4,1.2l0.4,1.9l0.5,2.5l0.2,1.4l0.3,1.4L844.8,365.2z M827.3,366.6v-1.4l-0.1-1.4l-0.1-1.3l-0.5-2.5l-0.3-1.2l-0.9-1.8l-0.7-1.1
		l-1.2-1.5l-0.8-0.9l-1.3-1.3l-0.9-0.8l-2.2-1.3l-1.2-0.5l-1.3-0.4l-1.3-0.3l-2.7-0.2l-1.3,0.1l-1.8,0.1l-1.3,0.3l-2.2,0.6l-1.3,0.5
		l-1.9,1l-1,0.7l-1.3,1.2l-0.9,1l-0.9,1.3l-0.7,1.1l-0.3,0.5l-0.8,1.8l-0.4,1.3l-0.3,0.6l-0.3,1.2l-0.1,1l-0.1,1.2l-0.1,1.3v1.3
		l0.1,1.3l0.3,1.3l0.1,0.8l0.3,1.3l0.2,0.6l0.4,1.2l0.3,0.7l0.7,1.2l0.4,0.7l0.9,1.2l0.5,0.6l1,1l1.7,1.4l1.2,0.8l1.3,0.7l1.3,0.5
		l1.8,0.6l1.3,0.3l2.1,0.3l1.4,0.1l2.1-0.2l1.3-0.2l1.8-0.4l1.2-0.5l1.8-1.2l1-0.8l1.3-1.3l0.8-0.9l1.1-1.3l0.8-1.2l0.8-1.8l0.5-1.3
		l0.4-1.9l0.2-1.3L827.3,366.6z"/>
	<path class="st3" d="M909.8,348.9l-0.1,1.3v12.3l0.3,4.8v1.3l0.2,11v1.4l-0.1,0.7l-0.1,1.4l-0.3,4l0.1,4.8l-0.1,1.2l-0.3,1
		l-0.7,0.9l-0.8,0.6l-0.8,0.3l-1.2,0.1l-4.3,0.2l-1.3,0.1l-2.1,0.1h-1.3l-1.1-0.3l-1-0.4l-1-0.8l-0.8-1.1l-1.3-2.4l-0.8-1.1
		l-3.3-4.1l-0.8-1l-3.3-4l-0.8-1.1l-2.9-4.3l-0.8-1l-3.3-4l-0.8-1l-3.1-4.1L871,365l-0.6,0.3l-0.3,1l-0.2,4.2v1.3l0.1,4.2v1.3
		l0.1,4.7v1.3l-0.3,4.7l0.1,1.3l0.5,3.3l0.1,1.3l-0.3,1.1l-0.6,0.6l-0.6,0.2l-1,0.2l-0.7,0.1l-1.4,0.1l-3.8-0.1h-1.3l-3.4,0.2h-1.3
		l-1.3-0.1l-0.9-0.2l-0.7-0.4l-0.3-0.6l-0.2-0.8l-0.1-0.6v-1.3l0.2-2.8l0.1-1.3l-0.3-4.4v-1.3l0.2-10.2l0.1-1.3l0.3-4.4l0.1-1.3
		v-5.8l-0.3-4.4v-1.3l0.3-4.4l-0.1-1.3l-0.3-4.5l-0.1-1.3v-1.9l0.1-1.3l0.2-1.3l0.2-0.9l0.3-0.6l0.5-0.3l0.9-0.2l2.5-0.2l2.5,0.2
		h6.3l1,0.1l0.4,0.3l0.5,0.8l3.5,3.8l0.8,1l3.1,4l0.8,1l3.1,4.1l0.8,1l3,4.2l0.8,1l3.2,4l0.8,1l3,4.2l0.7,0.6l0.7,0.1l0.6-0.4v-0.9
		l-0.6-3.5l-0.1-1.3l0.3-3.6V356l-0.3-5.1v-1.3l0.3-5.1l-0.1-1.3l-0.3-3.1V338l0.3-1.1l0.3-0.7l0.6-0.3l1-0.2h0.8l1.4-0.1l3.8,0.3
		h1.3l2.8-0.2l1.3,0.1l1.9,0.1l0.9,0.2l0.6,0.3l0.5,0.6l0.2,1.2l0.1,0.8l0.1,1.4L910,343l-0.2,1.3L909.8,348.9z"/>
	<path class="st3" d="M971.9,377.3l-0.1,1.4l-0.2,1.4l-0.3,1.3l-0.4,1.8l-0.4,1.2l-0.8,1.7l-0.6,1.1l-1,1.5l-0.8,1l-1,1l-1,0.9
		l-1.7,1.1l-1.1,0.8l-1.3,0.7l-1.2,0.6l-1.9,0.7l-2.5,0.8l-1.3,0.3l-2.1,0.3l-1.3,0.2l-1.8,0.2l-1.2,0.1l-1.9,0.1l-4,0.3h-1.8
		l-1.2-0.1l-1.9-0.2l-1.3-0.2l-1.4-0.3l-1.3-0.4l-1.8-0.6l-1.2-0.6l-1.3-0.6l-1.2-0.6l-1.1-0.7l-2.7-1.8l-1-0.8l-1.5-1.2l-1-0.8
		l-0.9-0.9l-0.7-0.8l-0.1-0.6l0.4-0.8l0.3-0.4l0.8-0.9l2.3-2.2l0.8-0.9l1.4-2.2l0.8-0.9l0.8-0.9l0.9-0.5l0.9,0.2l0.9,0.7l2.7,1.8
		l1.3,0.7l1.2,0.6l1.9,0.9l1.3,0.4l1.3,0.4l1.3,0.3l1.9,0.1l1.3,0.1l5.3-0.3l1.3-0.2l0.7-0.2l1.3-0.5l1.1-0.7l0.8-0.8l0.4-0.6
		l0.5-1.3l-0.1-1.4l-0.2-0.7l-0.7-1.2l-0.4-0.5l-1.1-0.8l-0.7-0.3l-1.3-0.5l-1.4-0.3l-1.4-0.3l-7.9-0.8l-2.5-0.5l-1.3-0.3l-1.8-0.7
		l-1.3-0.4l-1.3-0.6l-2.8-1.4l-1.1-0.8l-1.3-0.8l-1.1-0.8l-1.4-1.2l-0.8-1.1l-0.8-1.3l-0.5-1.3l-0.6-1.8l-0.3-1.3l0.6-1.4l-0.2-2.7
		l0.1-1.3l0.2-2l0.3-1.3l0.3-1.1l0.4-1.3l0.8-1.8l0.6-1.2l0.7-1l0.8-0.9l1.3-1.3l1.1-0.8l1.1-0.8l1.2-0.6l1.6-0.9l2.5-1l1.3-0.4
		l1.9-0.3l1.3-0.3l2.5-0.3l1.8-0.3l1.3-0.2l1.3-0.1h1.3l2.5,0.3l1.3,0.2l0.6,0.2l1.3,0.2l2.8,0.5l1.4,0.3l1.3,0.4l1.4,0.4l1.3,0.5
		l1.3,0.6l1.3,0.5l1.6,0.9l1.2,0.6l1.1,0.8l0.8,0.8v0.8l-0.5,0.9l-0.9,1.7l-0.7,1l-3.2,4.2l-0.9,1.2l-1,0.8l-0.7,0.3l-0.6-0.1
		l-0.8-0.4l-1.3-0.8l-1.3-0.5l-0.6-0.3l-1.3-0.4l-0.7-0.2l-1.4-0.3l-1.9-0.4l-1.3-0.1l-2.2-0.2h-2.2l-1.4,0.1l-1.4,0.3l-1.3,0.4
		l-0.5,0.3l-1,0.8l-0.4,0.5l-0.6,1.2l-0.2,1.3l0.3,1.1l0.7,1.1l0.9,0.8l1,0.5l0.6,0.3l1.3,0.3l2.1,0.3l2.8,0.2l1.4,0.3l2.8,0.7
		l2.7,0.8l1.9,0.4l1.3,0.3l2.3,0.8l1.7,0.8l1.2,0.6l1.2,0.7l1.1,0.7l2.4,2l0.9,1l0.8,1l1,1.5l0.7,1.1l0.6,1.3l0.3,1.3l0.3,1.8
		l0.2,1.3L971.9,377.3z"/>
</g>
</svg>
