<?xml version="1.0" encoding="utf-8"?>
<!-- Generator: Adobe Illustrator 19.0.0, SVG Export Plug-In . SVG Version: 6.00 Build 0)  -->
<svg version="1.1" id="Calque_1" xmlns="http://www.w3.org/2000/svg" xmlns:xlink="http://www.w3.org/1999/xlink" x="0px" y="0px"
	 viewBox="20 31 1000 500" style="enable-background:new 20 31 1000 500;" xml:space="preserve">
<style type="text/css">
	.st0{display:none;}
	.st1{display:inline;fill:#161616;}
	.st2{display:inline;}
	.st3{fill:#F2DBC2;}
	.st4{display:inline;fill:#F2DBC2;}
	.st5{display:inline;fill:url(#XMLID_5_);}
	.st6{clip-path:url(#SVGID_2_);fill:#C1272D;}
	.st7{clip-path:url(#SVGID_4_);fill:#C1272D;}
	.st8{clip-path:url(#SVGID_6_);fill:#C1272D;}
	.st9{clip-path:url(#SVGID_8_);fill:#C1272D;}
	.st10{clip-path:url(#SVGID_10_);fill:#C1272D;}
	.st11{clip-path:url(#SVGID_12_);fill:#C1272D;}
	.st12{clip-path:url(#SVGID_14_);fill:#C1272D;}
	.st13{clip-path:url(#SVGID_16_);fill:#C1272D;}
	.st14{clip-path:url(#SVGID_18_);fill:#C1272D;}
	.st15{clip-path:url(#SVGID_20_);fill:#C1272D;}
	.st16{clip-path:url(#SVGID_22_);fill:#C1272D;}
	.st17{clip-path:url(#SVGID_24_);fill:#C1272D;}
	.st18{display:inline;fill:#C1272D;}
	.st19{display:none;fill:url(#XMLID_6_);}
	.st20{clip-path:url(#XMLID_7_);}
	.st21{fill:#C1272D;}
	.st22{clip-path:url(#XMLID_8_);fill:#C1272D;}
	.st23{clip-path:url(#XMLID_10_);fill:#C1272D;}
	.st24{clip-path:url(#XMLID_12_);}
	.st25{clip-path:url(#XMLID_32_);}
	.st26{clip-path:url(#XMLID_33_);}
	.st27{clip-path:url(#XMLID_36_);}
	.st28{clip-path:url(#XMLID_38_);}
	.st29{clip-path:url(#XMLID_39_);}
	.st30{clip-path:url(#XMLID_40_);}
	.st31{clip-path:url(#XMLID_41_);fill:#C1272D;}
	.st32{clip-path:url(#XMLID_43_);fill:#C1272D;}
	.st33{clip-path:url(#XMLID_44_);fill:#C1272D;}
</style>
<g id="Logo">
	<g id="Calque_2" class="st0">
		<rect id="XMLID_1_" x="663.3" y="326.5" class="st1" width="1000" height="500"/>
	</g>
</g>
<g id="Search" class="st0">
	<text transform="matrix(1 0 0 1 576.6946 891.5191)" class="st4" style="font-family:'NexaSlab-Bold'; font-size:20.7076px;">Search</text>
	<g class="st2">
		<path class="st3" d="M599.4,873.2h-5.7c-3.3,0-5.2-1.7-7.6-4.1l0,0l0,0l-8.6-10.6c-1.3-1.6-1-4,0.6-5.3s4-1,5.3,0.6l1.2,1.5v-20.1
			c0-2.1,1.6-3.8,3.7-3.8c2.1-0.1,3.8,1.6,3.9,3.7v0.1v9.1c0.6-0.3,1.3-0.5,2-0.4c1.6,0.1,2.9,1.2,3.3,2.7c0.6-0.3,1.2-0.5,1.8-0.5
			l0,0c1,0,1.9,0.4,2.6,1.1c0.3,0.3,0.6,0.7,0.7,1c0.6-0.4,1.4-0.7,2.2-0.7c2,0,3.7,1.8,3.7,3.8v3.6v1v8.1
			C608.5,869.1,604.4,873.2,599.4,873.2z M587.6,867.8c2.4,2.4,3.8,3.4,6.1,3.4h5.7c3.9,0,7.1-3.2,7.1-7.1V857v-1v-4.6
			c0-1-0.8-1.8-1.7-1.8s-1.6,0.6-1.8,1.5l0,0c-0.1,0.5-0.5,0.9-1.1,0.9l0,0c-0.5,0-1-0.5-1-1v-1c0-0.5-0.2-1-0.5-1.3
			s-0.8-0.5-1.2-0.5c-0.8,0-1.5,0.6-1.7,1.4l0,0c-0.1,0.5-0.6,0.9-1.1,0.8l0,0c-0.5,0-0.9-0.5-0.9-1v-1.7c0-0.9-0.7-1.7-1.6-1.8
			c-0.9-0.1-1.7,0.6-1.9,1.5l0,0c-0.1,0.5-0.5,0.9-1.1,0.9l0,0c-0.5,0-0.9-0.5-0.9-1v-12c0-0.4-0.2-0.9-0.5-1.2
			c-0.3-0.4-0.8-0.6-1.3-0.6c-0.9,0-1.7,0.8-1.7,1.8v21.8l0,0v1.2c0,0.4-0.3,0.8-0.7,1l0,0c-0.4,0.1-0.9,0-1.1-0.3l0,0l-3-3.7
			c-0.3-0.4-0.9-0.7-1.4-0.6c-0.3,0-0.5,0.1-0.8,0.2c-0.8,0.5-1.1,1.5-0.7,2.4c0,0.1,0.1,0.2,0.2,0.3L587.6,867.8z"/>
	</g>
	<path class="st4" d="M620.1,837.3c-7,5.8-7.9,16.3-2.1,23.3c5.6,6.6,15.1,7.8,22,3l1.4,1.6c-0.8,1-0.8,2.3,0,3.3l9.1,11
		c0.9,1.1,2.5,1.2,3.5,0.3l1.8-1.5c1-0.9,1.2-2.5,0.3-3.5l-9.2-11c-0.8-1-2.2-1.2-3.2-0.6l-1.4-1.6c5.9-6,6.4-15.6,0.9-22.2
		C637.5,832.3,627.1,831.4,620.1,837.3z M619.7,855.1c-2.8-6.1-0.2-13.3,5.9-16.1c6.1-2.8,13.3-0.2,16.1,5.9
		c2.8,6.1,0.2,13.3-5.9,16.1C629.7,863.8,622.5,861.1,619.7,855.1z"/>
</g>
<g id="Repères" class="st0">
	<g id="Exterieurs" class="st2">
	</g>
	<g id="Interieurs" class="st2">
	</g>
</g>
<g id="XMLID_34_" class="st0">
	
		<linearGradient id="XMLID_5_" gradientUnits="userSpaceOnUse" x1="1030" y1="17211.9492" x2="1153" y2="17211.9492" gradientTransform="matrix(1 0 0 1 0 -16432)">
		<stop  offset="0" style="stop-color:#FFFFFF"/>
		<stop  offset="1" style="stop-color:#000000"/>
	</linearGradient>
	<rect id="XMLID_14_" x="1030" y="718.2" class="st5" width="123" height="123.5"/>
	<g id="XMLID_25_" class="st2">
		<g>
			<g>
				<g>
					<defs>
						<rect id="SVGID_1_" x="1030" y="718.2" width="123" height="123.5"/>
					</defs>
					<clipPath id="SVGID_2_">
						<use xlink:href="#SVGID_1_"  style="overflow:visible;"/>
					</clipPath>
					<path id="_x32__2_" class="st6" d="M1077.5,864.4c0,0,8.3-4,13.6-8.5c10.3-9,18.1-11.8,35.6-8.5s22.1,1.9,23,1.4l5.7-6.7
						c0,0,15.5,4.5,3.4-3.3c-24.6-15.8-47.8-6.4-58.6,1.3c-13.9,9.8-10.5,23.6-30.3,23.9L1077.5,864.4z"/>
				</g>
			</g>
		</g>
	</g>
	<g id="XMLID_24_" class="st2">
		<g>
			<g>
				<g>
					<defs>
						<rect id="SVGID_3_" x="1030" y="718.2" width="123" height="123.5"/>
					</defs>
					<clipPath id="SVGID_4_">
						<use xlink:href="#SVGID_3_"  style="overflow:visible;"/>
					</clipPath>
					<path id="_x33__2_" class="st7" d="M1056.8,859.9c0,0,12.7,8.3,41.4-20.1c28.6-28.4,68.8-6.6,81.7-1l2.8-15.7
						c0,0-43.4-18.7-85.2,6.8c-41.8,25.4-55.3,14.9-71.2,7.7l19.9,14.4c0,0,29.1,0.7,43.3-11.2c0,0-16.8,17.1-39.4,16.4
						L1056.8,859.9z"/>
				</g>
			</g>
		</g>
	</g>
	<g id="XMLID_23_" class="st2">
		<g>
			<g>
				<g>
					<defs>
						<rect id="SVGID_5_" x="1030" y="718.2" width="123" height="123.5"/>
					</defs>
					<clipPath id="SVGID_6_">
						<use xlink:href="#SVGID_5_"  style="overflow:visible;"/>
					</clipPath>
					<path id="_x34__2_" class="st8" d="M1026.4,836.9c0,0,40.6,5.4,73.1-24.1s70.6-41.4,97.8-30.9l-11.5,37.5c0,0-31.8-25-78.8-0.7
						C1059.8,843,1051.1,842.3,1026.4,836.9z"/>
				</g>
			</g>
		</g>
	</g>
	<g id="XMLID_22_" class="st2">
		<g>
			<g>
				<g>
					<defs>
						<rect id="SVGID_7_" x="1030" y="718.2" width="123" height="123.5"/>
					</defs>
					<clipPath id="SVGID_8_">
						<use xlink:href="#SVGID_7_"  style="overflow:visible;"/>
					</clipPath>
					<path id="_x35__2_" class="st9" d="M1020.3,833.7c0,0,41.9,5.7,59-14.3c17.2-19.9,39.4-86.9,106-74.1l8.8,32.8
						c0,0-44.8-24.4-86.9,24.9C1107.2,803,1070.1,844.5,1020.3,833.7z"/>
				</g>
			</g>
		</g>
	</g>
	<g id="XMLID_21_" class="st2">
		<g>
			<g>
				<g>
					<defs>
						<rect id="SVGID_9_" x="1030" y="718.2" width="123" height="123.5"/>
					</defs>
					<clipPath id="SVGID_10_">
						<use xlink:href="#SVGID_9_"  style="overflow:visible;"/>
					</clipPath>
					<path id="_x36__2_" class="st10" d="M1019.2,831.5c0,0,31.5,6,40.3-7.4s15-19.6,13.6-25.5c-1.5-5.9-14.2-17.5-17.3-22.1
						c-3.1-4.6-14.9-17-38.9,0s-25.3,25.2-30.2,24.7l6.9,5.1c0,0,26-18.6,30.5-20.7c4.5-2.1,18-10.6,26.1-0.3
						c8.2,10.2,14.4,11.9,9.4,21.2c-5,9.4-13.8,20-48,16.3L1019.2,831.5z"/>
				</g>
			</g>
		</g>
	</g>
	<g id="XMLID_20_" class="st2">
		<g>
			<g>
				<g>
					<defs>
						<rect id="SVGID_11_" x="1030" y="718.2" width="123" height="123.5"/>
					</defs>
					<clipPath id="SVGID_12_">
						<use xlink:href="#SVGID_11_"  style="overflow:visible;"/>
					</clipPath>
					<path id="_x37__2_" class="st11" d="M994.2,806.9c0,0,29.8-22.3,40.8-25.4c0,0,12-4.4,15.7,7.9c0,0,2.5,5.4,5.6,7.8
						c0,0,11.8,8.9-10.3,21.6c0,0-10.9,6.7-35.6,3.4l-4-3.9c0,0,34.1,8.9,45.2-11.8c0,0,2.4-6.8-1.5-8.2c-3.8-1.4-6.9-6.2-7.2-6.9
						c-0.3-0.7-2.9-8.5-10.7-2.8C1024.5,794.2,1012.7,799.6,994.2,806.9z"/>
				</g>
			</g>
		</g>
	</g>
	<g id="XMLID_19_" class="st2">
		<g>
			<g>
				<g>
					<defs>
						<rect id="SVGID_13_" x="1030" y="718.2" width="123" height="123.5"/>
					</defs>
					<clipPath id="SVGID_14_">
						<use xlink:href="#SVGID_13_"  style="overflow:visible;"/>
					</clipPath>
					<path id="_x38__2_" class="st12" d="M1005.6,780.7c0,0,14.7-18.3,78.2-26c63.5-7.6,80.3-9.1,102.8-24.7c0,0-20.7-0.7-30.3-12.2
						c0,0-20,28.5-72.7,34.4C1030.8,758.1,1024.3,763.9,1005.6,780.7z"/>
				</g>
			</g>
		</g>
	</g>
	<g id="XMLID_18_" class="st2">
		<g>
			<g>
				<g>
					<defs>
						<rect id="SVGID_15_" x="1030" y="718.2" width="123" height="123.5"/>
					</defs>
					<clipPath id="SVGID_16_">
						<use xlink:href="#SVGID_15_"  style="overflow:visible;"/>
					</clipPath>
					<path id="_x39__2_" class="st13" d="M1007.2,776.8c0,0,20.2-19.8,46.8-23.1s74-10.6,99-39.9c0,0-5.3,0-9.3-2.5
						c0,0-19.6,28.7-55.2,35c-35.6,6.2-48.8,2.6-82,30.5C976.1,802.3,1007.2,776.8,1007.2,776.8z"/>
				</g>
			</g>
		</g>
	</g>
	<g id="XMLID_17_" class="st2">
		<g>
			<g>
				<g>
					<defs>
						<rect id="SVGID_17_" x="1030" y="718.2" width="123" height="123.5"/>
					</defs>
					<clipPath id="SVGID_18_">
						<use xlink:href="#SVGID_17_"  style="overflow:visible;"/>
					</clipPath>
					<path id="_x31_0_2_" class="st14" d="M1007.4,767.9c0,0,23-20.3,65.6-20.8c42.7-0.5,68-36.1,64.9-50.1h-19.3
						c0,0,2,49.3-46.9,48.2C1023,744.1,1012,761,1007.4,767.9z"/>
				</g>
			</g>
		</g>
	</g>
	<g id="XMLID_16_" class="st2">
		<g>
			<g>
				<g>
					<defs>
						<rect id="SVGID_19_" x="1030" y="718.2" width="123" height="123.5"/>
					</defs>
					<clipPath id="SVGID_20_">
						<use xlink:href="#SVGID_19_"  style="overflow:visible;"/>
					</clipPath>
					<path id="_x31_1_2_" class="st15" d="M1003.2,771.8c0,0,16-29,54.3-28.7c38.3,0.3,51.3-16.1,53.2-24.7c2-8.6,3.7-20.4-4.5-36.6
						l-6.2,12.1c0,0,20,26.9-16.5,41.3C1053.3,747.2,1031,727.6,1003.2,771.8z"/>
				</g>
			</g>
		</g>
	</g>
	<g id="XMLID_15_" class="st2">
		<g>
			<g>
				<g>
					<defs>
						<rect id="SVGID_21_" x="1030" y="718.2" width="123" height="123.5"/>
					</defs>
					<clipPath id="SVGID_22_">
						<use xlink:href="#SVGID_21_"  style="overflow:visible;"/>
					</clipPath>
					<path id="_x31_2_2_" class="st16" d="M1010.3,749.2c0,0,11.4-10.9,37.4-11.7c26-0.8,51.5-9.6,49.5-28.3
						c-2-18.6-12.6-22.2-12.6-22.2l-14.7,7.7c0,0,37.5,16.2,3.5,30.9C1039.3,740.3,1029.3,729.9,1010.3,749.2z"/>
				</g>
			</g>
		</g>
	</g>
	<g id="XMLID_2_" class="st2">
		<g>
			<g>
				<g>
					<defs>
						<rect id="SVGID_23_" x="1030" y="718.2" width="123" height="123.5"/>
					</defs>
					<clipPath id="SVGID_24_">
						<use xlink:href="#SVGID_23_"  style="overflow:visible;"/>
					</clipPath>
					<path id="_x31_3_2_" class="st17" d="M1017.1,734.6c0,0,38.9-2.3,50.3-14.5c11.4-12.3,3.6-22.4-2.9-25.2c0,0-2.5,6.9-15.4,8.8
						C1049.1,703.7,1088,719.9,1017.1,734.6z"/>
				</g>
			</g>
		</g>
	</g>
	<path id="XMLID_27_" class="st18" d="M1132.3,751.5c0,0-19.7,8.9-27.9,21.7c-8.2,12.8-15.2,20.6-21,33.3s-11.6,19.2-21.9,22.9
		S1038,834,1030,834v-0.8c0,0,17.2,1.3,31.3-4.8c14-6.1,20.2-28.9,16.4-39.7C1073.9,778.1,1092.9,754.8,1132.3,751.5z"/>
</g>
<g>
	<g id="XMLID_115_">
		<path id="XMLID_149_" class="st3" d="M512.9,251l0.1,1.2l0.3,2.3l0.1,1.1l-0.1,0.6l-0.1,0.8l-0.4,0.6l-0.4,0.4l-0.8,0.1l-1.1,0.1
			h-1.2l-3-0.2l-1.3-0.1h-1.9l-1.3-0.1l-2.7-0.4l-0.5-0.1l-0.3-0.4l-0.1-0.7l-0.1-1l-0.1-1.1l0.1-2.5v-7l-0.2-4.7v-1.2l0.3-4.6v-5.8
			l-0.1-0.9l-0.4-0.3h-0.4l-0.5,0.7l-0.7,1l-3.1,3.6l-4.5,5.4l-3,3.7l-0.7,0.6l-0.5,0.2h-0.6l-0.8-0.1l-0.9-0.2l-0.8-0.6l-3.7-4.4
			l-2.7-3.6l-0.7-0.9l-3.9-4.3l-1-1l-0.4,0.1l-0.1,0.8l-0.2,4.7v1.2l0.3,4.7v1.2l0.1,4.7v1.2l-0.1,4.6v1.1l0.1,2.2l-0.1,1.2
			l-0.1,1.3l-0.1,1l-0.3,0.4l-0.5,0.1l-1.9,0.2l-1.2,0.1l-2.9-0.2l-1.2,0.1l-3.6,0.3h-1.7l-0.9-0.1l-0.4-0.4l-0.1-0.5l-0.1-0.7v-1.7
			l0.1-2.3v-11.4l-0.1-3.9v-1.2l0.1-3.9l-0.1-1.2l-0.2-4v-1.2l0.2-3.9l0.1-1.2l-0.3-3.9l0.1-1.2l0.3-3.9v-1.2l-0.3-2.7v-1.2l0.1-1
			l0.3-0.5l0.4-0.4l0.6-0.1l1-0.1l1.3,0.1l1.6,0.4h1.2l2.3-0.2l1.3-0.1l1.1-0.1l2.8,0.1h1l0.8,0.4l0.7,0.8l2.6,2.9l0.7,1l2.1,3
			l0.7,1l2.4,2.9l0.7,1l2.3,2.9l0.7,0.8l0.7,0.4h0.7l0.7-0.4l0.7-0.7l2.2-3l0.7-1l2.4-2.9l0.7-1l2.6-2.9l0.7-1l1.9-2.4l0.6-0.8
			l0.6-0.6l0.7-0.4l1,0.1l3.9,0.2l3.5,0.1h1.2l2.2-0.1l1.3,0.1l0.9,0.1l0.5,0.1l0.4,0.4l0.1,0.6l-0.1,0.9l-0.3,3.3l-0.1,1.2l0.1,3.9
			v1.2l-0.1,3.9v1.2l0.1,3.9v1.2l0.3,4v1.2l-0.3,3.9v1.2l0.2,3.9v1.2l-0.3,3.9v1.2L512.9,251z"/>
		<path id="XMLID_146_" class="st3" d="M581.8,255.6l0.2,1l-0.5,0.8l-0.8,0.4l-1,0.1h-1l-1.7-0.1l-1.1-0.1h-3.3l-4.6,0.3l-1-0.4
			l-0.4-0.5l-0.4-0.8l-2.3-6.2l-0.5-0.7l-0.7-0.1l-0.9-0.1l-4.4-0.3h-1.2l-5.6-0.1l-4.4-0.1h-1.1l-1.1,0.1h-3.4l-1,0.1l-0.6,0.4
			l-0.4,0.9l-1.7,5l-0.4,1.2l-0.8,1l-1.1,0.4h-1.2l-4.3-0.2h-1.2l-4.6,0.3l-1,0.1l-0.9-0.4l-0.6-0.8l0.1-1l0.1-0.6l0.4-1.2l1-2.3
			l0.4-1.1l1.9-4.1l0.4-1l1.9-4.1l0.4-1.1l1.7-4l0.4-1.1l2-4.1l0.4-1l2.7-6.1l2.1-4.4l0.5-1.2l1.6-3.3l0.5-1.2l1.4-3.4l0.4-1.1
			l1.3-3l0.4-0.8l0.7-0.4l1.1-0.2l3.4-0.1h5.8l3.4,0.1l1.3,0.2l0.8,0.6l0.4,1l1,2.9l0.4,1.1l1.9,3.5l0.4,1l1.6,3.6l0.4,1l1.3,3.8
			l0.4,1l1.6,3.6l0.4,1l1.6,3.6l0.4,1l1.5,3.7l0.4,1l2.3,4.6l1.8,3.5l0.5,1l2,4.7L581.8,255.6z M557.1,234.7l-0.3-1l-1.6-5l-0.4-1.1
			l-1.5-4.4l-0.4-1l-0.7-0.5l-1-0.2l-0.8,0.2l-0.7,0.7l-2,5l-0.4,1.1l-1.9,5l-0.2,1.1l0.2,0.9l0.8,0.4l1,0.1h4.7l3.5,0.2l1-0.3
			l0.6-0.6L557.1,234.7z"/>
		<path id="XMLID_143_" class="st3" d="M637.5,223.3l0.1,1.1l-0.1,1.1l-0.1,1.3l-0.4,1.9l-0.2,1.2l-0.6,1.5l-0.4,1l-0.7,1.4l-0.7,1
			l-1,1.4l-0.8,0.9l-1,0.9l-1,0.8l-1,0.7l-1,0.7l-1.6,0.7l-1.1,0.5l-1.3,0.5l-1.1,0.4l-1.6,0.4l-1.1,0.2l-1.1,0.1l-1.2,0.1l-1.9,0.1
			h-6.2l-1.3-0.1l-1.3,0.1l-1.3,0.1l-0.9,0.1l-0.2,0.5l-0.1,1l-0.3,5v1.2l0.1,2.2l-0.1,1.1l-0.1,1.6l-0.1,0.8l-0.2,0.4l-0.4,0.1
			l-0.8,0.1l-2.4,0.1l-2.9-0.1H597l-2.4,0.1l-1.2-0.1l-1.7-0.1l-1-0.3l-0.4-0.4l-0.1-0.9l-0.1-1.1l-0.1-1.2v-7.9l0.3-3.9v-1.2
			l-0.3-3.9v-1.2l-0.1-9v-1.2l0.3-4v-1.2l-0.2-3.9v-1.2l0.3-3.9v-1.1l-0.1-2.2l0.1-1.1l0.1-0.6l0.1-0.8l0.2-0.4l0.4-0.4l0.8-0.1
			l2.1-0.1l1.7,0.1h1.1l5-0.1h5l5,0.3h4.9l2.8-0.1l1,0.1h0.6l1.1,0.2l1.7,0.4l1.2,0.4l1.2,0.4l1.1,0.5l1.1,0.7l1,0.7l1.3,1.2
			l0.9,0.7l0.4,0.4l1.3,1.3l0.7,1l0.4,0.4l0.5,0.9l0.3,0.4l0.4,1l0.4,1.1l0.3,1l0.1,0.5l0.3,1l0.1,0.6l0.3,1l0.4,2.1V223.3z
			 M622.2,224.7v-1.9l-0.2-1.1l-0.2-0.6l-0.4-1l-0.3-0.4l-0.8-0.9l-0.6-0.4l-1.1-0.6l-1.9-0.5l-1.2-0.1h-1.7l-2.2,0.1l-3.3-0.2h-1.1
			l-0.6,0.1l-0.8,0.1l-0.3,0.2l-0.2,0.5L605,219v1.7l0.2,2.7l0.1,1.2l0.1,4.3l0.1,0.9l0.2,0.5l0.8,0.3l3.9,0.3l5-0.3l1.3-0.1
			l1.3-0.3l0.6-0.2l1-0.6l0.4-0.3l0.7-0.7l0.3-0.4l0.5-1l0.2-0.5l0.3-1.2L622.2,224.7z"/>
		<path id="XMLID_141_" class="st3" d="M686.2,254.3l-0.1,1.2v0.7l-0.2,0.9l-0.4,0.5l-0.5,0.2l-0.7,0.1h-0.6l-1,0.1l-8.2-0.4h-5.6
			l-6.7,0.4l-4.3-0.3h-5.5l-3.4,0.2h-1.1l-1-0.1l-0.8-0.1l-0.5-0.3l-0.4-0.4l-0.1-0.9v-1.2l0.4-2.8l0.1-1.1l-0.3-3.9v-1.2l0.1-3.9
			v-1.2l0.1-9v-1.2l-0.3-9v-1.2l-0.1-3.9v-6.3l-0.1-2.2v-1.1l0.1-0.7l0.2-1l0.3-0.4l0.5-0.2l0.8-0.1h0.6l1.1-0.1l3.6,0.2h1.2
			l5.3-0.1h0.7l0.5,0.3l0.4,0.5v6.4l0.1,4.3v1.2l-0.2,4.3v1.2l0.1,4.3v1.2l0.2,4.3v1.2l-0.4,9.8l0.1,0.7l0.1,0.4l0.1,0.4l0.4,0.3
			l0.9,0.1l2.5,0.1l2.2-0.1h1.2l10.7-0.1l1.2-0.1l2.5-0.3l1.2-0.1h1.1l0.9,0.2l0.5,0.4l0.2,0.5l0.1,0.8l0.1,4.1l0.1,1.2L686.2,254.3
			z"/>
		<path id="XMLID_139_" class="st3" d="M737.2,250.8l-0.1,1.2l-0.3,4l-0.1,0.7l-0.3,0.5l-0.4,0.3l-9.7,0.3h-1.2l-3.9-0.3l-1.2,0.1
			l-3.9,0.3L715,258h-5.1l-3.9-0.3h-1.2l-6.4,0.4l-2.5-0.1l-0.9-0.1l-0.5-0.4l-0.2-0.5l-0.1-0.8l-0.1-1.7l-0.1-1.2l0.1-1.1V251
			l0.3-3.9v-1.2l0.1-3.9l-0.1-1.2l-0.2-3.9l-0.1-1.2l0.1-4v-6.3l0.3-3.9l-0.1-1.2l-0.2-3.9l-0.1-1.2v-1.8l0.1-2.2V210l0.2-3.9l0.1-1
			l0.2-0.6l0.4-0.3l0.6-0.1l1-0.1l4.8,0.3l4.5-0.1h1.2l4.4,0.3h1.2l4.4-0.3h1.2l10.1,0.1l1.3-0.1l2.5-0.2h1.9l1,0.2l0.4,0.4l0.1,0.5
			l0.1,1v2l-0.1,1.9v1.3l0.1,1.9l0.1,1.1l-0.1,1.1l-0.1,0.9l-0.3,0.5l-0.4,0.3l-0.9,0.1h-0.6l-1.2,0.1l-7-0.1h-1.2l-3.8,0.1h-1.2
			l-3.9-0.1l-3.3-0.2H711l-0.6,0.1l-0.7,0.1l-0.4,0.4l-0.1,0.4l-0.1,0.8l-0.1,1.8v1.2l0.1,1.3l0.1,0.8l0.1,0.5l0.3,0.4l0.8,0.2
			l2.4,0.1l2.4-0.1h7l8.3-0.4l2.3,0.1l0.8,0.1l0.4,0.4l0.2,0.4l0.1,0.8l0.1,1.3l0.1,1.3v2.4l0.1,1.7l-0.1,2.2l-0.1,0.9l-0.3,0.5
			l-0.5,0.4l-0.7,0.1h-1.5l-3.3-0.4l-1.2-0.1l-5.9,0.4l-4.7-0.1h-1.2l-3-0.2l-1.3,0.1l-0.9,0.1l-0.4,0.2l-0.2,0.5l-0.1,1.1l-0.2,1.9
			l-0.1,1.2v1.6l0.1,0.7l0.2,0.5l0.3,0.3l0.8,0.1l4.1,0.1h1.2l4-0.3l5.3,0.3h1.2l5.3-0.3h1.1l1.1,0.1l2.7,0.3l0.4,0.2l0.3,0.4
			l0.1,0.8L737.2,250.8z"/>
		<path id="XMLID_137_" class="st3" d="M494.7,326.3l-0.1,1.2v0.7l-0.2,0.9l-0.4,0.5l-0.5,0.2l-0.7,0.1h-0.6l-1,0.1l-8.2-0.4h-5.6
			l-6.7,0.4l-4.3-0.3h-5.5l-3.4,0.2h-1.1l-1-0.1l-0.8-0.1l-0.5-0.3l-0.4-0.4l-0.1-0.9v-1.2l0.4-2.8l0.1-1.1l-0.3-3.9v-1.2l0.1-3.9
			v-1.2l0.1-9v-1.2l-0.3-9v-1.2l-0.1-3.9v-6.3l-0.1-2.2v-1.1l0.1-0.7l0.2-1l0.3-0.4l0.5-0.2l0.8-0.1h0.6l1.1-0.1l3.6,0.2h1.2
			l5.3-0.1h0.7l0.5,0.3l0.4,0.5v6.4l0.1,4.3v1.2l-0.2,4.3v1.2l0.1,4.3v1.2l0.2,4.3v1.2l-0.4,9.8l0.1,0.7l0.1,0.4l0.1,0.4l0.4,0.3
			l0.9,0.1l2.5,0.1l2.2-0.1h1.2l10.7-0.1l1.2-0.1l2.5-0.3l1.2-0.1h1.1l0.9,0.2l0.5,0.4l0.2,0.5l0.1,0.8l0.1,4.1l0.1,1.2L494.7,326.3
			z"/>
		<path id="XMLID_135_" class="st3" d="M545.6,322.8l-0.1,1.2l-0.3,4l-0.1,0.7l-0.3,0.5l-0.4,0.3l-9.7,0.3h-1.2l-3.9-0.3l-1.2,0.1
			l-3.9,0.3l-1.2,0.1h-5.1l-3.9-0.3h-1.2l-6.4,0.4l-2.5-0.1l-0.9-0.1l-0.5-0.4l-0.2-0.5l-0.1-0.8l-0.1-1.7l-0.1-1.2l0.1-1.1V323
			l0.3-3.9v-1.2l0.1-3.9l-0.1-1.2l-0.2-3.9l-0.1-1.2l0.1-4v-6.3l0.3-3.9l-0.1-1.2l-0.2-3.9l-0.1-1.2v-1.8l0.1-2.2V282l0.2-3.9l0.1-1
			l0.2-0.6l0.4-0.3l0.6-0.1l1-0.1l4.8,0.3l4.5-0.1h1.2l4.4,0.3h1.2l4.4-0.3h1.2l10.1,0.1l1.3-0.1l2.5-0.2h1.9l1,0.2l0.4,0.4l0.1,0.5
			l0.1,1v2l-0.1,1.9v1.3l0.1,1.9l0.1,1.1l-0.1,1.1l-0.1,0.9l-0.3,0.5l-0.4,0.3l-0.9,0.1h-0.6l-1.2,0.1l-7-0.1h-1.2l-3.8,0.1h-1.2
			l-3.9-0.1l-3.3-0.2h-1.1l-0.6,0.1l-0.7,0.1l-0.4,0.4l-0.1,0.4l-0.1,0.8l-0.1,1.8v1.2l0.1,1.3l0.1,0.8l0.1,0.5l0.3,0.4l0.8,0.2
			l2.4,0.1l2.4-0.1h7l8.3-0.4l2.3,0.1l0.8,0.1l0.4,0.4l0.2,0.4l0.1,0.8l0.1,1.3l0.1,1.3v2.4l0.1,1.7l-0.1,2.2l-0.1,0.9l-0.3,0.5
			L542,309l-0.7,0.1h-1.5l-3.3-0.4l-1.2-0.1l-5.9,0.4l-4.7-0.1h-1.2l-3-0.2l-1.3,0.1l-0.9,0.1l-0.4,0.2l-0.2,0.5l-0.1,1.1l-0.2,1.9
			l-0.1,1.2v1.6l0.1,0.7l0.2,0.5l0.3,0.3l0.8,0.1l4.1,0.1h1.2l4-0.3l5.3,0.3h1.2l5.3-0.3h1.1l1.1,0.1l2.7,0.3l0.4,0.2l0.3,0.4
			l0.1,0.8L545.6,322.8z"/>
		<path id="XMLID_132_" class="st3" d="M612.4,327.6l0.2,1l-0.5,0.8l-0.8,0.4l-1,0.1h-1l-1.7-0.1l-1.1-0.1h-3.3l-4.6,0.3l-1-0.4
			l-0.4-0.5l-0.4-0.8l-2.3-6.2l-0.5-0.7l-0.7-0.1l-0.9-0.1l-4.4-0.3h-1.2l-5.6-0.1l-4.4-0.1h-1.1l-1.1,0.1h-3.4l-1,0.1l-0.6,0.4
			l-0.4,0.9l-1.7,5l-0.4,1.2l-0.8,1l-1.1,0.4h-1.2l-4.3-0.2h-1.2l-4.6,0.3l-1,0.1l-0.9-0.4l-0.6-0.8l0.1-1l0.1-0.6l0.4-1.2l1-2.3
			l0.4-1.1l1.9-4.1l0.4-1l1.9-4.1l0.4-1.1l1.7-4l0.4-1.1l2-4.1l0.4-1l2.7-6.1l2.1-4.4l0.5-1.2l1.6-3.3l0.5-1.2l1.4-3.4l0.4-1.1
			l1.3-3l0.4-0.8l0.7-0.4l1.1-0.2l3.4-0.1h5.8l3.4,0.1l1.3,0.2l0.8,0.6l0.4,1l1,2.9l0.4,1.1l1.9,3.5l0.4,1l1.6,3.6l0.4,1l1.3,3.8
			l0.4,1l1.6,3.6l0.4,1l1.6,3.6l0.4,1l1.5,3.7l0.4,1l2.3,4.6l1.8,3.5l0.5,1l2,4.7L612.4,327.6z M587.7,306.7l-0.3-1l-1.6-5l-0.4-1.1
			l-1.5-4.4l-0.4-1l-0.7-0.5l-1-0.2l-0.8,0.2l-0.7,0.7l-2,5l-0.4,1.1l-1.9,5l-0.2,1.1l0.2,0.9l0.8,0.4l1,0.1h4.7l3.5,0.2l1-0.3
			l0.6-0.6L587.7,306.7z"/>
		<path id="XMLID_130_" class="st3" d="M661.6,285l0.1,1.2l-0.1,1.1l-0.1,0.8l-0.2,0.5l-0.4,0.4l-0.8,0.2h-1.6l-2.2-0.3l-1.2-0.1
			h-4.8l-8.4,0.3l-3.3-0.2h-1.6l-0.7,0.2l-0.3,0.5l-0.1,1l-0.1,6.6l0.1,0.8l0.1,0.4l0.4,0.3l0.9,0.2h1.9l2.5-0.2l1.2-0.1l4.4,0.1
			h5.6l1.1-0.1l2.8-0.2h1.8l0.8,0.1l0.4,0.4l0.3,0.6l0.1,0.9l0.1,0.6l0.1,1.1l-0.1,2.2v1.1l0.1,1.7l-0.1,1.1l-0.1,1.2l-0.1,0.9
			l-0.2,0.6l-0.4,0.3l-0.9,0.2h-1.8l-2.7-0.4l-1.2-0.1l-4.4,0.1h-1.2l-8-0.1l-1.1,0.1l-1,0.1l-0.7,0.2l-0.3,0.4v1l-0.1,4.2v1.2
			l-0.3,4.1v1.2l0.1,1.6l-0.1,1.2l-0.1,1.3l-0.1,0.9l-0.2,0.4l-0.4,0.2l-0.8,0.1l-1.3,0.1l-1.2,0.1l-2.7-0.1h-1.2l-3,0.2l-2.2-0.1
			l-0.8-0.1l-0.4-0.3l-0.1-0.5l-0.1-0.8l-0.2-3.9l-0.1-1.2l-0.1-3.9l0.1-1.2l0.3-3.9l0.1-1.2l-0.2-3.9v-1.2l-0.2-4v-1.2l0.1-3.9
			v-6.3l0.1-3.9V282l0.1-3.9l0.1-0.9l0.1-0.5l0.4-0.2l0.7-0.1h1.6l2.8,0.2h1.2l4.4-0.2h1.2l4.3,0.2h1.2l4.4-0.2l1.2-0.1l4.4,0.2h1.2
			l4.4-0.2h1.2l1.9,0.1l1.2,0.1l1.3,0.1l0.8,0.1l0.4,0.2l0.3,0.4l0.1,0.8l0.1,0.7v1.1l-0.1,2.2v1.2L661.6,285z"/>
		<path id="XMLID_128_" class="st3" d="M468.1,396.8l-0.2,1.2l-0.4,1.2l-0.5,1.1l-0.7,1l-1,0.9l-1,0.6l-1.1,0.4l-1.2,0.1l-1.3,0.1
			h-1.3l-0.5-0.1l-1.1-0.1l-0.5-0.1l-1.2-0.4l-1.2-0.7l-1-0.7l-0.3-0.4l-0.7-0.8l-0.2-0.4l-0.4-1l-0.1-0.4l-0.2-1v-2l0.3-1l0.1-0.5
			l0.5-0.9l0.2-0.4l0.7-0.8l0.3-0.4l1-0.8l1.2-0.8l1.1-0.5l0.4-0.2l1.1-0.2h1.8l1.3,0.2l1.1,0.4l1,0.6l1,0.7l1,0.7l0.8,0.9l0.5,1
			l0.4,1.2l0.2,1.2L468.1,396.8z"/>
		<path id="XMLID_125_" class="st3" d="M522.7,367.4l0.1,1.1l-0.1,1.1l-0.1,1.3l-0.4,1.9l-0.2,1.2l-0.6,1.5l-0.4,1l-0.7,1.4l-0.7,1
			l-1,1.4l-0.8,0.9l-1,0.9l-1,0.8l-1,0.7l-1,0.7l-1.6,0.7l-1.1,0.5l-1.3,0.5l-1.1,0.4l-1.6,0.4l-1.1,0.2l-1.1,0.1l-1.2,0.1l-1.9,0.1
			h-6.2l-1.3-0.1l-1.3,0.1l-1.3,0.1l-0.9,0.1l-0.2,0.5l-0.1,1l-0.3,5v1.2l0.1,2.2l-0.1,1.1l-0.1,1.6l-0.1,0.8l-0.2,0.4l-0.4,0.1
			l-0.8,0.1l-2.4,0.1l-2.9-0.1h-1.2l-2.4,0.1l-1.2-0.1l-1.7-0.1l-1-0.3l-0.4-0.4l-0.1-0.9l-0.1-1.1l-0.1-1.2v-7.9l0.3-3.9v-1.2
			l-0.3-3.9v-1.2l-0.1-9v-1.2l0.3-4v-1.2l-0.2-3.9v-1.2l0.3-3.9v-1.1l-0.1-2.2l0.1-1.1l0.1-0.6l0.1-0.8l0.2-0.4l0.4-0.4l0.8-0.1
			l2.1-0.1l1.7,0.1h1.1l5-0.1h5l5,0.3h4.9l2.8-0.1l1,0.1h0.6l1.1,0.2l1.7,0.4l1.2,0.4l1.2,0.4l1.1,0.5l1.1,0.7l1,0.7l1.3,1.2
			l0.9,0.7l0.4,0.4l1.3,1.3l0.7,1l0.4,0.4l0.5,0.9l0.3,0.4l0.4,1l0.4,1.1l0.3,1l0.1,0.5l0.3,1l0.1,0.6l0.3,1l0.4,2.1V367.4z
			 M500.6,374.6l1.3-0.1l1.3-0.3l0.6-0.2l1-0.6l0.4-0.3l0.7-0.7l0.3-0.4l0.5-1l0.2-0.5l0.3-1.2l0.1-0.5v-1.9l-0.2-1.1l-0.2-0.6
			l-0.4-1l-0.3-0.4l-0.8-0.9l-0.6-0.4l-1.1-0.6l-1.9-0.5l-1.2-0.1h-1.7l-2.2,0.1l-3.3-0.2h-1.1l-0.6,0.1l-0.8,0.1l-0.3,0.2l-0.2,0.5
			l-0.1,0.9v1.7l0.2,2.7l0.1,1.2l0.1,4.3l0.1,0.9l0.2,0.5l0.8,0.3l3.9,0.3L500.6,374.6z"/>
		<path id="XMLID_122_" class="st3" d="M579.5,401.5l-1,0.3h-5.2l-4.1-0.1h-1.2l-3.3,0.1h-1l-0.7-0.3l-0.6-0.6l-2.4-3.3l-0.7-0.9
			l-2.4-3.2l-0.7-0.9l-2.1-3.4l-0.7-0.9l-2.4-3.2l-0.5-0.6l-0.4-0.2l-0.9-0.1l-2.4-0.1l-1,0.1l-0.6,0.4l-0.2,1l-0.1,4.1l0.1,1.2
			l0.3,4.1l0.1,1.2l0.1,1.8v1.2l-0.1,1.2l-0.1,0.9l-0.4,0.4l-0.8,0.2h-1.2l-3.6-0.2l-3.4,0.2H535l-3.4-0.2l-0.9-0.1l-0.4-0.3
			l-0.1-0.7l-0.1-1l-0.1-1.1l0.1-1.9l0.1-1.2l0.3-4V390l-0.2-4l-0.1-1.2l-0.1-3.9v-1.2l0.2-4v-1.2l-0.2-4v-1.2l0.2-4v-1.2l0.1-3.9
			v-1.2l-0.1-4v-1.2l-0.1-2.4l0.1-1.1l0.1-0.4l0.2-1l0.4-0.6l0.9-0.2l0.6-0.1l1.1-0.1l3.3,0.1l8.8,0.3l5-0.3h1.2l4.9,0.3h2.8
			l1.3,0.1l1.1,0.2l1.6,0.4l1.1,0.4l1.1,0.4l1.2,0.4l1.1,0.5l1,0.6l1.4,1l0.8,0.7l0.7,0.7l0.7,0.9l1,1.5l0.7,1l0.9,1.4l0.5,1
			l0.5,1.1l0.4,1.2l0.2,1.2l0.1,1.2l0.1,1.6v1.2l-0.1,1.2l-0.1,1.3l-0.2,1.3l-0.3,1.2l-0.4,1.1l-0.5,1.1l-0.7,1.1l-0.7,1l-0.7,0.9
			L573,378l-1.2,1.2l-0.8,0.7l-1.5,0.8l-0.9,0.5l-1,0.5l-1,0.2l-0.6,0.2l0.3,0.6l2.7,3.8l0.7,0.9l2.7,3.6l0.7,0.9l2.7,3.7l0.7,0.9
			l2.3,2.7l0.7,0.8l0.4,0.8L579.5,401.5z M558.7,372.7l1-0.4l0.9-0.5l0.7-0.9l0.5-1.1l0.3-1.2l0.1-1.2l-0.1-1.3l-0.1-1.3l-0.3-1.1
			l-0.5-1.1l-0.7-0.9l-0.8-0.7l-1-0.4l-1.6-0.4l-1.2-0.1l-3.7-0.1H551l-3.8,0.2l-0.9,0.1l-0.5,0.2l-0.4,0.4l-0.1,0.8l0.1,1.7
			l0.1,1.2l0.1,1.3l0.1,1.3l-0.1,4.1l0.1,0.8l0.1,0.4l0.5,0.2l0.9,0.1l3.9,0.3h1.2l4.9-0.3L558.7,372.7z"/>
		<path id="XMLID_120_" class="st3" d="M629.4,394.8l-0.1,1.2l-0.3,4l-0.1,0.7l-0.3,0.5l-0.4,0.3l-9.7,0.3h-1.2l-3.9-0.3l-1.2,0.1
			l-3.9,0.3l-1.2,0.1h-5.1l-3.9-0.3h-1.2l-6.4,0.4l-2.5-0.1l-0.9-0.1l-0.5-0.4l-0.2-0.5l-0.1-0.8l-0.1-1.7l-0.1-1.2l0.1-1.1V395
			l0.3-3.9v-1.2l0.1-3.9l-0.1-1.2l-0.2-3.9l-0.1-1.2l0.1-4v-6.3l0.3-3.9l-0.1-1.2l-0.2-3.9l-0.1-1.2v-1.8l0.1-2.2V354l0.2-3.9l0.1-1
			l0.2-0.6l0.4-0.3l0.6-0.1l1-0.1l4.8,0.3l4.5-0.1h1.2l4.4,0.3h1.2l4.4-0.3h1.2l10.1,0.1l1.3-0.1l2.5-0.2h1.9l1,0.2l0.4,0.4l0.1,0.5
			l0.1,1v2l-0.1,1.9v1.3l0.1,1.9l0.1,1.1l-0.1,1.1l-0.1,0.9l-0.3,0.5l-0.4,0.3l-0.9,0.1h-0.6l-1.2,0.1l-7-0.1h-1.2l-3.8,0.1h-1.2
			l-3.9-0.1l-3.3-0.2h-1.1l-0.6,0.1l-0.7,0.1l-0.4,0.4l-0.1,0.4l-0.1,0.8l-0.1,1.8v1.2l0.1,1.3l0.1,0.8l0.1,0.5l0.3,0.4l0.8,0.2
			l2.4,0.1l2.4-0.1h7l8.3-0.4l2.3,0.1l0.8,0.1l0.4,0.4l0.2,0.4l0.1,0.8l0.1,1.3l0.1,1.3v2.4l0.1,1.7l-0.1,2.2l-0.1,0.9l-0.3,0.5
			l-0.5,0.4l-0.7,0.1h-1.5l-3.3-0.4l-1.2-0.1l-5.9,0.4l-4.7-0.1h-1.2l-3-0.2l-1.3,0.1l-0.9,0.1l-0.4,0.2l-0.2,0.5l-0.1,1.1l-0.2,1.9
			l-0.1,1.2v1.6l0.1,0.7l0.2,0.5l0.3,0.3l0.8,0.1l4.1,0.1h1.2l4-0.3l5.3,0.3h1.2l5.3-0.3h1.1l1.1,0.1l2.7,0.3l0.4,0.2l0.3,0.4
			l0.1,0.8L629.4,394.8z"/>
		<path id="XMLID_118_" class="st3" d="M682.1,385.2l-0.1,1.3l-0.1,1.3l-0.2,1.2l-0.4,1.6l-0.4,1l-0.7,1.5l-0.5,1l-0.9,1.3l-0.7,0.9
			l-0.9,0.9l-0.9,0.8l-1.5,1l-1,0.7l-1.1,0.6l-1,0.5l-1.7,0.6l-2.2,0.7l-1.2,0.2l-1.9,0.3l-1.1,0.1l-1.6,0.1l-1,0.1l-1.7,0.1
			l-3.6,0.2h-1.6l-1-0.1l-1.7-0.1l-1.1-0.1l-1.3-0.2l-1.1-0.4l-1.6-0.5l-1-0.5l-1.1-0.5l-1-0.5l-1-0.6l-2.4-1.6l-0.9-0.7l-1.3-1
			l-0.9-0.7l-0.8-0.8l-0.6-0.7l-0.1-0.5l0.4-0.7l0.3-0.4l0.7-0.8l2.1-1.9l0.7-0.8l1.3-1.9l0.7-0.8l0.7-0.8l0.8-0.4l0.8,0.1l0.8,0.6
			l2.4,1.6l1.1,0.6l1,0.5l1.7,0.8l1.1,0.4l1.2,0.4l1.2,0.2l1.7,0.1l1.2,0.1l4.7-0.3l1.2-0.1l0.6-0.1l1.1-0.4l1-0.6l0.7-0.7l0.4-0.5
			l0.4-1.1l-0.1-1.3l-0.1-0.6l-0.6-1l-0.4-0.4l-1-0.7l-0.6-0.2l-1.1-0.4l-1.3-0.3l-1.3-0.2l-7-0.7l-2.2-0.4l-1.2-0.3l-1.6-0.6
			l-1.1-0.4l-1.1-0.5l-2.5-1.3l-1-0.7l-1.1-0.7l-1-0.7l-1.3-1l-0.7-1l-0.7-1.1l-0.4-1.1l-0.5-1.6l-0.2-1.1l-0.2-1.6l-0.1-2.4
			l0.1-1.2l0.1-1.8l0.2-1.1l0.3-1l0.4-1.1l0.7-1.6l0.5-1l0.6-0.9l0.7-0.8l1.2-1.1l1-0.7l1-0.7l1-0.5l1.4-0.8l2.2-0.9l1.1-0.4
			l1.7-0.3l1.2-0.2l2.2-0.3l1.6-0.3l1.2-0.1l1.1-0.1h1.2l2.2,0.2l1.1,0.1l0.5,0.1l1.2,0.1l2.5,0.4l1.3,0.3l1.2,0.4l1.3,0.4l1.2,0.4
			l1.1,0.5l1.1,0.4l1.4,0.8l1,0.5l1,0.7l0.7,0.7v0.7l-0.4,0.8l-0.8,1.5l-0.6,0.9l-2.8,3.7l-0.8,1l-0.9,0.7l-0.6,0.2l-0.5-0.1
			l-0.7-0.4l-1.1-0.7l-1.1-0.4l-0.5-0.2l-1.1-0.4l-0.6-0.1l-1.3-0.3l-1.7-0.4l-1.2-0.1l-1.9-0.1h-1.9l-1.3,0.1l-1.3,0.2l-1.2,0.4
			l-0.4,0.2l-0.9,0.7l-0.4,0.4l-0.5,1l-0.1,1.2l0.2,1l0.6,1l0.8,0.7l0.9,0.4l0.5,0.2l1.1,0.2l1.9,0.2l2.5,0.1l1.3,0.2l2.5,0.6
			l2.4,0.7l1.7,0.4l1.1,0.3l2.1,0.7l1.5,0.7l1,0.5l1,0.6l1,0.6l2.1,1.8l0.8,0.9l0.7,0.9l0.9,1.3l0.6,1l0.5,1.1l0.3,1.1l0.3,1.6
			l0.1,1.1L682.1,385.2z"/>
		<path id="XMLID_116_" class="st3" d="M731.8,385.2l-0.1,1.3l-0.1,1.3l-0.2,1.2l-0.4,1.6l-0.4,1l-0.7,1.5l-0.5,1l-0.9,1.3l-0.7,0.9
			l-0.9,0.9l-0.9,0.8l-1.5,1l-1,0.7l-1.1,0.6l-1,0.5l-1.7,0.6l-2.2,0.7l-1.2,0.2l-1.9,0.3l-1.1,0.1l-1.6,0.1l-1,0.1l-1.7,0.1
			l-3.6,0.2h-1.6l-1-0.1L701,403l-1.1-0.1l-1.3-0.2l-1.1-0.4l-1.6-0.5l-1-0.5l-1.1-0.5l-1-0.5l-1-0.6l-2.4-1.6l-0.9-0.7l-1.3-1
			l-0.9-0.7l-0.8-0.8l-0.6-0.7l-0.1-0.5l0.4-0.7l0.3-0.4l0.7-0.8l2.1-1.9l0.7-0.8l1.3-1.9l0.7-0.8l0.7-0.8l0.8-0.4l0.8,0.1l0.8,0.6
			l2.4,1.6l1.1,0.6l1,0.5l1.7,0.8l1.1,0.4l1.2,0.4l1.2,0.2l1.7,0.1l1.2,0.1l4.7-0.3l1.2-0.1l0.6-0.1l1.1-0.4l1-0.6l0.7-0.7l0.4-0.5
			l0.4-1.1l-0.1-1.3l-0.1-0.6l-0.6-1l-0.4-0.4l-1-0.7l-0.6-0.2l-1.1-0.4l-1.3-0.3l-1.3-0.2l-7-0.7l-2.2-0.4l-1.2-0.3l-1.6-0.6
			l-1.1-0.4l-1.1-0.5l-2.5-1.3l-1-0.7l-1.1-0.7l-1-0.7l-1.3-1l-0.7-1l-0.7-1.1l-0.4-1.1l-0.5-1.6l-0.2-1.1l-0.2-1.6l-0.1-2.4
			l0.1-1.2l0.1-1.8l0.2-1.1l0.3-1l0.4-1.1l0.7-1.6l0.5-1l0.6-0.9l0.7-0.8l1.2-1.1l1-0.7l1-0.7l1-0.5l1.4-0.8l2.2-0.9l1.1-0.4
			l1.7-0.3l1.2-0.2l2.2-0.3l1.6-0.3l1.2-0.1l1.1-0.1h1.2l2.2,0.2l1.1,0.1l0.5,0.1l1.2,0.1l2.5,0.4l1.3,0.3l1.2,0.4l1.3,0.4l1.2,0.4
			l1.1,0.5l1.1,0.4l1.4,0.8l1,0.5l1,0.7l0.7,0.7v0.7l-0.4,0.8l-0.8,1.5l-0.6,0.9l-2.8,3.7l-0.8,1l-0.9,0.7l-0.6,0.2l-0.5-0.1
			l-0.7-0.4l-1.1-0.7l-1.1-0.4l-0.5-0.2l-1.1-0.4l-0.6-0.1l-1.3-0.3l-1.7-0.4l-1.2-0.1l-1.9-0.1h-1.9l-1.3,0.1l-1.3,0.2l-1.2,0.4
			l-0.4,0.2l-0.9,0.7l-0.4,0.4l-0.5,1l-0.1,1.2l0.2,1l0.6,1l0.8,0.7l0.9,0.4l0.5,0.2l1.1,0.2l1.9,0.2l2.5,0.1l1.3,0.2l2.5,0.6
			l2.4,0.7l1.7,0.4l1.1,0.3l2.1,0.7l1.5,0.7l1,0.5l1,0.6l1,0.6l2.1,1.8l0.8,0.9l0.7,0.9l0.9,1.3l0.6,1l0.5,1.1l0.3,1.1l0.3,1.6
			l0.1,1.1L731.8,385.2z"/>
	</g>
	<g id="XMLID_4_">
		<g id="XMLID_42_">
			
				<linearGradient id="XMLID_6_" gradientUnits="userSpaceOnUse" x1="556.6129" y1="16680.9844" x2="715.9675" y2="16680.9844" gradientTransform="matrix(1 0 0 1 0 -16432)">
				<stop  offset="0" style="stop-color:#FFFFFF"/>
				<stop  offset="1" style="stop-color:#000000"/>
			</linearGradient>
			<rect id="XMLID_114_" x="556.6" y="169" class="st19" width="159.4" height="160"/>
			<g id="XMLID_107_">
				<g id="XMLID_108_">
					<g id="XMLID_109_">
						<defs>
							<path id="XMLID_113_" d="M538.6,226.2L506,238.4v-19c0-2.6-1.8-5-4.6-6c-2.8-1-6-0.2-8,1.6l-42.1,41.1l20.5-85.8l0,0
								c0.6-2.4-0.4-4.8-2.6-6.3c-2.2-1.6-5-1.8-7.4-0.8l-24.7,9.4L418.8,147c-1.4-1.8-3.6-3-6.3-3c-2.6,0-4.8,1.2-6.3,3l-18.2,25.6
								l-24.7-9.4l0,0c-2.4-1-5.5-0.6-7.4,0.8c-2.2,1.6-3,4-2.6,6.3l20.5,85.8L331.8,215c-2-2-5.2-2.6-8-1.6c-2.8,1-4.6,3.4-4.6,6
								v20.5l-33.5-7.6c-2.8-0.6-6,0.4-7.6,2.4c-1.8,2.2-1.8,5-0.2,7.2l19.2,27.3l-15.2,8.4c-2,1.2-3.2,3-3.4,5.2
								c-0.2,2,1,4,2.8,5.5l61.5,41.5l-18.2,29.2l0,0c-1.2,2-1.2,4.6,0.4,6.6c1.4,2,4,3,6.8,2.8l73.6-6.3v31.1
								c0,3.6,3.2,6.4,7.2,6.4s7.2-2.8,7.2-6.4V362l73.6,6.3c0.2,0,0.4,0,0.6,0c2.6,0,5-1.2,6.3-3.2c1.4-2,1.4-4.4,0.2-6.4
								L482,329.4l61.5-41.5c1.8-1.2,3-3.2,2.8-5.5c-0.2-2-1.4-4-3.4-5.2l-15.6-8.8l20-33.9c1.4-2.4,1-5.2-1.2-7.2
								C544.7,225.8,541.5,225.2,538.6,226.2L538.6,226.2z"/>
						</defs>
						<clipPath id="XMLID_7_">
							<use xlink:href="#XMLID_113_"  style="overflow:visible;"/>
						</clipPath>
						<g id="XMLID_110_" class="st20">
							<path id="XMLID_112_" class="st21" d="M541.3,357.2v24.2c34.1,6.4,63.6,21.6,78.1,27.9l6.6-36.6
								C626.1,372.7,590.6,357.4,541.3,357.2z"/>
							<path id="XMLID_111_" class="st21" d="M464.6,370.4c-12.4,4.6-24.9,10.5-37.4,18.1c-97.6,59.3-129.2,34.9-166.3,18.1
								l46.5,33.7c0,0,67.9,1.6,101.2-26.3c0,0-39.3,39.9-92,38.3l15.5,6.4c0,0,29.7,19.5,96.8-46.9c11.4-11.3,23.4-19.1,35.8-24.4
								L464.6,370.4L464.6,370.4z"/>
						</g>
					</g>
				</g>
			</g>
			<g id="XMLID_102_">
				<g id="XMLID_103_">
					<g id="XMLID_104_">
						<defs>
							<path id="XMLID_106_" d="M538.6,226.2L506,238.4v-19c0-2.6-1.8-5-4.6-6c-2.8-1-6-0.2-8,1.6l-42.1,41.1l20.5-85.8l0,0
								c0.6-2.4-0.4-4.8-2.6-6.3c-2.2-1.6-5-1.8-7.4-0.8l-24.7,9.4L418.8,147c-1.4-1.8-3.6-3-6.3-3c-2.6,0-4.8,1.2-6.3,3l-18.2,25.6
								l-24.7-9.4l0,0c-2.4-1-5.5-0.6-7.4,0.8c-2.2,1.6-3,4-2.6,6.3l20.5,85.8L331.8,215c-2-2-5.2-2.6-8-1.6c-2.8,1-4.6,3.4-4.6,6
								v20.5l-33.5-7.6c-2.8-0.6-6,0.4-7.6,2.4c-1.8,2.2-1.8,5-0.2,7.2l19.2,27.3l-15.2,8.4c-2,1.2-3.2,3-3.4,5.2
								c-0.2,2,1,4,2.8,5.5l61.5,41.5l-18.2,29.2l0,0c-1.2,2-1.2,4.6,0.4,6.6c1.4,2,4,3,6.8,2.8l73.6-6.3v31.1
								c0,3.6,3.2,6.4,7.2,6.4s7.2-2.8,7.2-6.4V362l73.6,6.3c0.2,0,0.4,0,0.6,0c2.6,0,5-1.2,6.3-3.2c1.4-2,1.4-4.4,0.2-6.4
								L482,329.4l61.5-41.5c1.8-1.2,3-3.2,2.8-5.5c-0.2-2-1.4-4-3.4-5.2l-15.6-8.8l20-33.9c1.4-2.4,1-5.2-1.2-7.2
								C544.7,225.8,541.5,225.2,538.6,226.2L538.6,226.2z"/>
						</defs>
						<clipPath id="XMLID_8_">
							<use xlink:href="#XMLID_106_"  style="overflow:visible;"/>
						</clipPath>
						<path id="XMLID_105_" class="st22" d="M438.2,342.9c-2.1,1.9-4.3,3.8-6.4,5.7c-76,68.9-170.8,56.3-170.8,56.3
							c55.8,12.2,76.5,14.1,177.2-36.9V342.9z"/>
					</g>
				</g>
			</g>
			<g id="XMLID_97_">
				<g id="XMLID_98_">
					<g id="XMLID_99_">
						<defs>
							<path id="XMLID_101_" d="M538.6,226.2L506,238.4v-19c0-2.6-1.8-5-4.6-6c-2.8-1-6-0.2-8,1.6l-42.1,41.1l20.5-85.8l0,0
								c0.6-2.4-0.4-4.8-2.6-6.3c-2.2-1.6-5-1.8-7.4-0.8l-24.7,9.4L418.8,147c-1.4-1.8-3.6-3-6.3-3c-2.6,0-4.8,1.2-6.3,3l-18.2,25.6
								l-24.7-9.4l0,0c-2.4-1-5.5-0.6-7.4,0.8c-2.2,1.6-3,4-2.6,6.3l20.5,85.8L331.8,215c-2-2-5.2-2.6-8-1.6c-2.8,1-4.6,3.4-4.6,6
								v20.5l-33.5-7.6c-2.8-0.6-6,0.4-7.6,2.4c-1.8,2.2-1.8,5-0.2,7.2l19.2,27.3l-15.2,8.4c-2,1.2-3.2,3-3.4,5.2
								c-0.2,2,1,4,2.8,5.5l61.5,41.5l-18.2,29.2l0,0c-1.2,2-1.2,4.6,0.4,6.6c1.4,2,4,3,6.8,2.8l73.6-6.3v31.1
								c0,3.6,3.2,6.4,7.2,6.4s7.2-2.8,7.2-6.4V362l73.6,6.3c0.2,0,0.4,0,0.6,0c2.6,0,5-1.2,6.3-3.2c1.4-2,1.4-4.4,0.2-6.4
								L482,329.4l61.5-41.5c1.8-1.2,3-3.2,2.8-5.5c-0.2-2-1.4-4-3.4-5.2l-15.6-8.8l20-33.9c1.4-2.4,1-5.2-1.2-7.2
								C544.7,225.8,541.5,225.2,538.6,226.2L538.6,226.2z"/>
						</defs>
						<clipPath id="XMLID_10_">
							<use xlink:href="#XMLID_101_"  style="overflow:visible;"/>
						</clipPath>
						<path id="XMLID_100_" class="st23" d="M438.2,283c-22.4,32.1-38.8,64-53.5,81.1c-40.1,46.7-137.9,33.5-137.9,33.5
							c91.2,19.8,164-35.4,191.4-60.3V283z"/>
					</g>
				</g>
			</g>
			<g id="XMLID_92_">
				<g id="XMLID_93_">
					<g id="XMLID_94_">
						<defs>
							<path id="XMLID_96_" d="M538.6,226.2L506,238.4v-19c0-2.6-1.8-5-4.6-6c-2.8-1-6-0.2-8,1.6l-42.1,41.1l20.5-85.8l0,0
								c0.6-2.4-0.4-4.8-2.6-6.3c-2.2-1.6-5-1.8-7.4-0.8l-24.7,9.4L418.8,147c-1.4-1.8-3.6-3-6.3-3c-2.6,0-4.8,1.2-6.3,3l-18.2,25.6
								l-24.7-9.4l0,0c-2.4-1-5.5-0.6-7.4,0.8c-2.2,1.6-3,4-2.6,6.3l20.5,85.8L331.8,215c-2-2-5.2-2.6-8-1.6c-2.8,1-4.6,3.4-4.6,6
								v20.5l-33.5-7.6c-2.8-0.6-6,0.4-7.6,2.4c-1.8,2.2-1.8,5-0.2,7.2l19.2,27.3l-15.2,8.4c-2,1.2-3.2,3-3.4,5.2
								c-0.2,2,1,4,2.8,5.5l61.5,41.5l-18.2,29.2l0,0c-1.2,2-1.2,4.6,0.4,6.6c1.4,2,4,3,6.8,2.8l73.6-6.3v31.1
								c0,3.6,3.2,6.4,7.2,6.4s7.2-2.8,7.2-6.4V362l73.6,6.3c0.2,0,0.4,0,0.6,0c2.6,0,5-1.2,6.3-3.2c1.4-2,1.4-4.4,0.2-6.4
								L482,329.4l61.5-41.5c1.8-1.2,3-3.2,2.8-5.5c-0.2-2-1.4-4-3.4-5.2l-15.6-8.8l20-33.9c1.4-2.4,1-5.2-1.2-7.2
								C544.7,225.8,541.5,225.2,538.6,226.2L538.6,226.2z"/>
						</defs>
						<clipPath id="XMLID_12_">
							<use xlink:href="#XMLID_96_"  style="overflow:visible;"/>
						</clipPath>
						<g id="XMLID_95_" class="st24">
							<path id="_x36__3_" class="st21" d="M244.1,392.3c0,0,73.6,14,94.2-17.2c20.6-31.3,35-45.7,31.9-59.5
								c-3.4-13.9-33.2-40.8-40.5-51.7c-7.2-10.8-34.9-39.7-91,0c-56.1,39.7-59.2,58.9-70.5,57.7l16,11.8c0,0,60.7-43.5,71.3-48.3
								c10.6-4.8,42.1-24.8,61-0.6c19.2,23.9,33.7,27.9,22.1,49.5c-11.6,22.1-32.3,46.7-112.3,38.1L244.1,392.3z"/>
						</g>
					</g>
				</g>
			</g>
			<g id="XMLID_87_">
				<g id="XMLID_88_">
					<g id="XMLID_89_">
						<defs>
							<path id="XMLID_91_" d="M538.6,226.2L506,238.4v-19c0-2.6-1.8-5-4.6-6c-2.8-1-6-0.2-8,1.6l-42.1,41.1l20.5-85.8l0,0
								c0.6-2.4-0.4-4.8-2.6-6.3c-2.2-1.6-5-1.8-7.4-0.8l-24.7,9.4L418.8,147c-1.4-1.8-3.6-3-6.3-3c-2.6,0-4.8,1.2-6.3,3l-18.2,25.6
								l-24.7-9.4l0,0c-2.4-1-5.5-0.6-7.4,0.8c-2.2,1.6-3,4-2.6,6.3l20.5,85.8L331.8,215c-2-2-5.2-2.6-8-1.6c-2.8,1-4.6,3.4-4.6,6
								v20.5l-33.5-7.6c-2.8-0.6-6,0.4-7.6,2.4c-1.8,2.2-1.8,5-0.2,7.2l19.2,27.3l-15.2,8.4c-2,1.2-3.2,3-3.4,5.2
								c-0.2,2,1,4,2.8,5.5l61.5,41.5l-18.2,29.2l0,0c-1.2,2-1.2,4.6,0.4,6.6c1.4,2,4,3,6.8,2.8l73.6-6.3v31.1
								c0,3.6,3.2,6.4,7.2,6.4s7.2-2.8,7.2-6.4V362l73.6,6.3c0.2,0,0.4,0,0.6,0c2.6,0,5-1.2,6.3-3.2c1.4-2,1.4-4.4,0.2-6.4
								L482,329.4l61.5-41.5c1.8-1.2,3-3.2,2.8-5.5c-0.2-2-1.4-4-3.4-5.2l-15.6-8.8l20-33.9c1.4-2.4,1-5.2-1.2-7.2
								C544.7,225.8,541.5,225.2,538.6,226.2L538.6,226.2z"/>
						</defs>
						<clipPath id="XMLID_32_">
							<use xlink:href="#XMLID_91_"  style="overflow:visible;"/>
						</clipPath>
						<g id="XMLID_90_" class="st25">
							<path id="_x37__3_" class="st21" d="M185.8,334.8c0,0,69.5-52.1,95.4-59.3c0,0,28.1-10.2,36.6,18.4c0,0,5.8,12.6,13,18.2
								c0,0,27.6,20.8-24,50.5c0,0-25.5,15.6-83.2,8l-9.4-9c0,0,79.8,20.8,105.6-27.6c0,0,5.6-15.8-3.4-19.2
								c-8.8-3.2-16-14.4-16.8-16c-0.6-1.6-6.8-19.8-25-6.6C256.5,305.2,228.9,317.8,185.8,334.8z"/>
						</g>
					</g>
				</g>
			</g>
			<g id="XMLID_79_">
				<g id="XMLID_80_">
					<g id="XMLID_81_">
						<defs>
							<path id="XMLID_86_" d="M538.6,226.2L506,238.4v-19c0-2.6-1.8-5-4.6-6c-2.8-1-6-0.2-8,1.6l-42.1,41.1l20.5-85.8l0,0
								c0.6-2.4-0.4-4.8-2.6-6.3c-2.2-1.6-5-1.8-7.4-0.8l-24.7,9.4L418.8,147c-1.4-1.8-3.6-3-6.3-3c-2.6,0-4.8,1.2-6.3,3l-18.2,25.6
								l-24.7-9.4l0,0c-2.4-1-5.5-0.6-7.4,0.8c-2.2,1.6-3,4-2.6,6.3l20.5,85.8L331.8,215c-2-2-5.2-2.6-8-1.6c-2.8,1-4.6,3.4-4.6,6
								v20.5l-33.5-7.6c-2.8-0.6-6,0.4-7.6,2.4c-1.8,2.2-1.8,5-0.2,7.2l19.2,27.3l-15.2,8.4c-2,1.2-3.2,3-3.4,5.2
								c-0.2,2,1,4,2.8,5.5l61.5,41.5l-18.2,29.2l0,0c-1.2,2-1.2,4.6,0.4,6.6c1.4,2,4,3,6.8,2.8l73.6-6.3v31.1
								c0,3.6,3.2,6.4,7.2,6.4s7.2-2.8,7.2-6.4V362l73.6,6.3c0.2,0,0.4,0,0.6,0c2.6,0,5-1.2,6.3-3.2c1.4-2,1.4-4.4,0.2-6.4
								L482,329.4l61.5-41.5c1.8-1.2,3-3.2,2.8-5.5c-0.2-2-1.4-4-3.4-5.2l-15.6-8.8l20-33.9c1.4-2.4,1-5.2-1.2-7.2
								C544.7,225.8,541.5,225.2,538.6,226.2L538.6,226.2z"/>
						</defs>
						<clipPath id="XMLID_33_">
							<use xlink:href="#XMLID_86_"  style="overflow:visible;"/>
						</clipPath>
						<g id="XMLID_82_" class="st26">
							<path id="XMLID_85_" class="st21" d="M575.9,184.6c22.2-6.9,39.9-15.8,59.4-29.4c0,0-48.3-1.6-70.8-28.4
								c0,0-23.5,33.5-81.1,57.9L575.9,184.6L575.9,184.6z"/>
							<path id="XMLID_84_" class="st21" d="M438.2,207.8v-8.3c-13.3,3.2-27.8,5.9-43.5,7.6c-115.4,12.8-136,25.5-173.9,59.2
								c17.1-13,64.3-39.9,174.5-53.4C410.7,211.1,425,209.4,438.2,207.8z"/>
							<path id="XMLID_83_" class="st21" d="M212.5,273.7c2.9-2.6,5.6-5,8.2-7.4C214.8,270.9,212.5,273.7,212.5,273.7z"/>
						</g>
					</g>
				</g>
			</g>
			<g id="XMLID_74_">
				<g id="XMLID_75_">
					<g id="XMLID_76_">
						<defs>
							<path id="XMLID_78_" d="M538.6,226.2L506,238.4v-19c0-2.6-1.8-5-4.6-6c-2.8-1-6-0.2-8,1.6l-42.1,41.1l20.5-85.8l0,0
								c0.6-2.4-0.4-4.8-2.6-6.3c-2.2-1.6-5-1.8-7.4-0.8l-24.7,9.4L418.8,147c-1.4-1.8-3.6-3-6.3-3c-2.6,0-4.8,1.2-6.3,3l-18.2,25.6
								l-24.7-9.4l0,0c-2.4-1-5.5-0.6-7.4,0.8c-2.2,1.6-3,4-2.6,6.3l20.5,85.8L331.8,215c-2-2-5.2-2.6-8-1.6c-2.8,1-4.6,3.4-4.6,6
								v20.5l-33.5-7.6c-2.8-0.6-6,0.4-7.6,2.4c-1.8,2.2-1.8,5-0.2,7.2l19.2,27.3l-15.2,8.4c-2,1.2-3.2,3-3.4,5.2
								c-0.2,2,1,4,2.8,5.5l61.5,41.5l-18.2,29.2l0,0c-1.2,2-1.2,4.6,0.4,6.6c1.4,2,4,3,6.8,2.8l73.6-6.3v31.1
								c0,3.6,3.2,6.4,7.2,6.4s7.2-2.8,7.2-6.4V362l73.6,6.3c0.2,0,0.4,0,0.6,0c2.6,0,5-1.2,6.3-3.2c1.4-2,1.4-4.4,0.2-6.4
								L482,329.4l61.5-41.5c1.8-1.2,3-3.2,2.8-5.5c-0.2-2-1.4-4-3.4-5.2l-15.6-8.8l20-33.9c1.4-2.4,1-5.2-1.2-7.2
								C544.7,225.8,541.5,225.2,538.6,226.2L538.6,226.2z"/>
						</defs>
						<clipPath id="XMLID_36_">
							<use xlink:href="#XMLID_78_"  style="overflow:visible;"/>
						</clipPath>
						<g id="XMLID_77_" class="st27">
							<path id="_x39__3_" class="st21" d="M216,264.4c0,0,47.1-46.3,109.4-53.9c62.1-7.6,172.9-24.8,231.3-93.2
								c0,0-12.4,0-21.6-5.8c0,0-45.7,67.1-129.1,81.8c-83.2,14.4-114,6-191.6,71.3C143.5,324.2,216,264.4,216,264.4z"/>
						</g>
					</g>
				</g>
			</g>
			<g id="XMLID_69_">
				<g id="XMLID_70_">
					<g id="XMLID_71_">
						<defs>
							<path id="XMLID_73_" d="M538.6,226.2L506,238.4v-19c0-2.6-1.8-5-4.6-6c-2.8-1-6-0.2-8,1.6l-42.1,41.1l20.5-85.8l0,0
								c0.6-2.4-0.4-4.8-2.6-6.3c-2.2-1.6-5-1.8-7.4-0.8l-24.7,9.4L418.8,147c-1.4-1.8-3.6-3-6.3-3c-2.6,0-4.8,1.2-6.3,3l-18.2,25.6
								l-24.7-9.4l0,0c-2.4-1-5.5-0.6-7.4,0.8c-2.2,1.6-3,4-2.6,6.3l20.5,85.8L331.8,215c-2-2-5.2-2.6-8-1.6c-2.8,1-4.6,3.4-4.6,6
								v20.5l-33.5-7.6c-2.8-0.6-6,0.4-7.6,2.4c-1.8,2.2-1.8,5-0.2,7.2l19.2,27.3l-15.2,8.4c-2,1.2-3.2,3-3.4,5.2
								c-0.2,2,1,4,2.8,5.5l61.5,41.5l-18.2,29.2l0,0c-1.2,2-1.2,4.6,0.4,6.6c1.4,2,4,3,6.8,2.8l73.6-6.3v31.1
								c0,3.6,3.2,6.4,7.2,6.4s7.2-2.8,7.2-6.4V362l73.6,6.3c0.2,0,0.4,0,0.6,0c2.6,0,5-1.2,6.3-3.2c1.4-2,1.4-4.4,0.2-6.4
								L482,329.4l61.5-41.5c1.8-1.2,3-3.2,2.8-5.5c-0.2-2-1.4-4-3.4-5.2l-15.6-8.8l20-33.9c1.4-2.4,1-5.2-1.2-7.2
								C544.7,225.8,541.5,225.2,538.6,226.2L538.6,226.2z"/>
						</defs>
						<clipPath id="XMLID_38_">
							<use xlink:href="#XMLID_73_"  style="overflow:visible;"/>
						</clipPath>
						<g id="XMLID_72_" class="st28">
							<path id="_x31_0_3_" class="st21" d="M216.7,243.8c0,0,53.7-47.5,153.4-48.5c99.8-1.2,158.9-84.4,151.8-117.1h-45.1
								c0,0,4.6,115.2-109.7,112.6C252.9,188.1,227.3,227.6,216.7,243.8z"/>
						</g>
					</g>
				</g>
			</g>
			<g id="XMLID_64_">
				<g id="XMLID_65_">
					<g id="XMLID_66_">
						<defs>
							<path id="XMLID_68_" d="M538.6,226.2L506,238.4v-19c0-2.6-1.8-5-4.6-6c-2.8-1-6-0.2-8,1.6l-42.1,41.1l20.5-85.8l0,0
								c0.6-2.4-0.4-4.8-2.6-6.3c-2.2-1.6-5-1.8-7.4-0.8l-24.7,9.4L418.8,147c-1.4-1.8-3.6-3-6.3-3c-2.6,0-4.8,1.2-6.3,3l-18.2,25.6
								l-24.7-9.4l0,0c-2.4-1-5.5-0.6-7.4,0.8c-2.2,1.6-3,4-2.6,6.3l20.5,85.8L331.8,215c-2-2-5.2-2.6-8-1.6c-2.8,1-4.6,3.4-4.6,6
								v20.5l-33.5-7.6c-2.8-0.6-6,0.4-7.6,2.4c-1.8,2.2-1.8,5-0.2,7.2l19.2,27.3l-15.2,8.4c-2,1.2-3.2,3-3.4,5.2
								c-0.2,2,1,4,2.8,5.5l61.5,41.5l-18.2,29.2l0,0c-1.2,2-1.2,4.6,0.4,6.6c1.4,2,4,3,6.8,2.8l73.6-6.3v31.1
								c0,3.6,3.2,6.4,7.2,6.4s7.2-2.8,7.2-6.4V362l73.6,6.3c0.2,0,0.4,0,0.6,0c2.6,0,5-1.2,6.3-3.2c1.4-2,1.4-4.4,0.2-6.4
								L482,329.4l61.5-41.5c1.8-1.2,3-3.2,2.8-5.5c-0.2-2-1.4-4-3.4-5.2l-15.6-8.8l20-33.9c1.4-2.4,1-5.2-1.2-7.2
								C544.7,225.8,541.5,225.2,538.6,226.2L538.6,226.2z"/>
						</defs>
						<clipPath id="XMLID_39_">
							<use xlink:href="#XMLID_68_"  style="overflow:visible;"/>
						</clipPath>
						<g id="XMLID_67_" class="st29">
							<path id="_x31_1_3_" class="st21" d="M206.8,252.8c0,0,37.4-67.7,126.9-67.1C423.3,186.3,453.6,148,458,128
								c4.6-20,8.6-47.7-10.5-85.6l-14.4,28.2c0,0,46.7,62.9-38.5,96.4C323.9,195.3,271.8,149.6,206.8,252.8z"/>
						</g>
					</g>
				</g>
			</g>
			<g id="XMLID_56_">
				<g id="XMLID_57_">
					<g id="XMLID_59_">
						<defs>
							<path id="XMLID_63_" d="M538.6,226.2L506,238.4v-19c0-2.6-1.8-5-4.6-6c-2.8-1-6-0.2-8,1.6l-42.1,41.1l20.5-85.8l0,0
								c0.6-2.4-0.4-4.8-2.6-6.3c-2.2-1.6-5-1.8-7.4-0.8l-24.7,9.4L418.8,147c-1.4-1.8-3.6-3-6.3-3c-2.6,0-4.8,1.2-6.3,3l-18.2,25.6
								l-24.7-9.4l0,0c-2.4-1-5.5-0.6-7.4,0.8c-2.2,1.6-3,4-2.6,6.3l20.5,85.8L331.8,215c-2-2-5.2-2.6-8-1.6c-2.8,1-4.6,3.4-4.6,6
								v20.5l-33.5-7.6c-2.8-0.6-6,0.4-7.6,2.4c-1.8,2.2-1.8,5-0.2,7.2l19.2,27.3l-15.2,8.4c-2,1.2-3.2,3-3.4,5.2
								c-0.2,2,1,4,2.8,5.5l61.5,41.5l-18.2,29.2l0,0c-1.2,2-1.2,4.6,0.4,6.6c1.4,2,4,3,6.8,2.8l73.6-6.3v31.1
								c0,3.6,3.2,6.4,7.2,6.4s7.2-2.8,7.2-6.4V362l73.6,6.3c0.2,0,0.4,0,0.6,0c2.6,0,5-1.2,6.3-3.2c1.4-2,1.4-4.4,0.2-6.4
								L482,329.4l61.5-41.5c1.8-1.2,3-3.2,2.8-5.5c-0.2-2-1.4-4-3.4-5.2l-15.6-8.8l20-33.9c1.4-2.4,1-5.2-1.2-7.2
								C544.7,225.8,541.5,225.2,538.6,226.2L538.6,226.2z"/>
						</defs>
						<clipPath id="XMLID_40_">
							<use xlink:href="#XMLID_63_"  style="overflow:visible;"/>
						</clipPath>
						<g id="XMLID_60_" class="st30">
							<g id="XMLID_62_">
								<path id="_x31_2_3_" class="st21" d="M223.3,200.2c0,0,26.6-25.5,87.4-27.3c60.7-1.8,120.3-22.4,115.6-66.1
									c-4.6-43.5-29.5-51.9-29.5-51.9l-34.2,18.1c0,0,87.6,37.9,8.2,72.1C291,179.3,267.8,155,223.3,200.2z"/>
							</g>
						</g>
					</g>
				</g>
			</g>
			<g id="XMLID_45_">
				<g id="XMLID_48_">
					<g id="XMLID_51_">
						<defs>
							<path id="XMLID_55_" d="M538.6,226.2L506,238.4v-19c0-2.6-1.8-5-4.6-6c-2.8-1-6-0.2-8,1.6l-42.1,41.1l20.5-85.8l0,0
								c0.6-2.4-0.4-4.8-2.6-6.3c-2.2-1.6-5-1.8-7.4-0.8l-24.7,9.4L418.8,147c-1.4-1.8-3.6-3-6.3-3c-2.6,0-4.8,1.2-6.3,3l-18.2,25.6
								l-24.7-9.4l0,0c-2.4-1-5.5-0.6-7.4,0.8c-2.2,1.6-3,4-2.6,6.3l20.5,85.8L331.8,215c-2-2-5.2-2.6-8-1.6c-2.8,1-4.6,3.4-4.6,6
								v20.5l-33.5-7.6c-2.8-0.6-6,0.4-7.6,2.4c-1.8,2.2-1.8,5-0.2,7.2l19.2,27.3l-15.2,8.4c-2,1.2-3.2,3-3.4,5.2
								c-0.2,2,1,4,2.8,5.5l61.5,41.5l-18.2,29.2l0,0c-1.2,2-1.2,4.6,0.4,6.6c1.4,2,4,3,6.8,2.8l73.6-6.3v31.1
								c0,3.6,3.2,6.4,7.2,6.4s7.2-2.8,7.2-6.4V362l73.6,6.3c0.2,0,0.4,0,0.6,0c2.6,0,5-1.2,6.3-3.2c1.4-2,1.4-4.4,0.2-6.4
								L482,329.4l61.5-41.5c1.8-1.2,3-3.2,2.8-5.5c-0.2-2-1.4-4-3.4-5.2l-15.6-8.8l20-33.9c1.4-2.4,1-5.2-1.2-7.2
								C544.7,225.8,541.5,225.2,538.6,226.2L538.6,226.2z"/>
						</defs>
						<clipPath id="XMLID_41_">
							<use xlink:href="#XMLID_55_"  style="overflow:visible;"/>
						</clipPath>
						<path id="XMLID_54_" class="st31" d="M438.2,223c-43.8,20.2-63.5,51.9-57.2,69.3c8.8,25.3-5.6,78.6-38.3,92.8
							c-32.9,14.2-73.2,11.3-73.2,11.3v1.8c18.7,0,49.5-2.2,73.6-10.8c24-8.6,37.4-23.9,51.1-53.5c12.4-27,27.1-44.5,44-69.8
							L438.2,223L438.2,223z"/>
					</g>
				</g>
			</g>
		</g>
		<g id="XMLID_29_">
			<g id="XMLID_30_">
				<g id="XMLID_31_">
					<defs>
						<path id="XMLID_37_" d="M538.6,226.2L506,238.4v-19c0-2.6-1.8-5-4.6-6c-2.8-1-6-0.2-8,1.6l-42.1,41.1l20.5-85.8l0,0
							c0.6-2.4-0.4-4.8-2.6-6.3c-2.2-1.6-5-1.8-7.4-0.8l-24.7,9.4L418.8,147c-1.4-1.8-3.6-3-6.3-3c-2.6,0-4.8,1.2-6.3,3l-18.2,25.6
							l-24.7-9.4l0,0c-2.4-1-5.5-0.6-7.4,0.8c-2.2,1.6-3,4-2.6,6.3l20.5,85.8L331.8,215c-2-2-5.2-2.6-8-1.6c-2.8,1-4.6,3.4-4.6,6
							v20.5l-33.5-7.6c-2.8-0.6-6,0.4-7.6,2.4c-1.8,2.2-1.8,5-0.2,7.2l19.2,27.3l-15.2,8.4c-2,1.2-3.2,3-3.4,5.2c-0.2,2,1,4,2.8,5.5
							l61.5,41.5l-18.2,29.2l0,0c-1.2,2-1.2,4.6,0.4,6.6c1.4,2,4,3,6.8,2.8l73.6-6.3v31.1c0,3.6,3.2,6.4,7.2,6.4s7.2-2.8,7.2-6.4
							V362l73.6,6.3c0.2,0,0.4,0,0.6,0c2.6,0,5-1.2,6.3-3.2c1.4-2,1.4-4.4,0.2-6.4L482,329.4l61.5-41.5c1.8-1.2,3-3.2,2.8-5.5
							c-0.2-2-1.4-4-3.4-5.2l-15.6-8.8l20-33.9c1.4-2.4,1-5.2-1.2-7.2C544.7,225.8,541.5,225.2,538.6,226.2L538.6,226.2z"/>
					</defs>
					<clipPath id="XMLID_43_">
						<use xlink:href="#XMLID_37_"  style="overflow:visible;"/>
					</clipPath>
					<path id="XMLID_35_" class="st32" d="M360.2,379.7c0,0-3-20,6.3-32.7c9.3-12.7,7.8-21.4,7.8-21.4s-5,16.3-10.8,20.2
						c-5.8,3.8-18.9,24.8-16.6,35.5L360.2,379.7z"/>
				</g>
			</g>
		</g>
		<g id="XMLID_9_">
			<g id="XMLID_11_">
				<g id="XMLID_13_">
					<defs>
						<path id="XMLID_28_" d="M538.6,226.2L506,238.4v-19c0-2.6-1.8-5-4.6-6c-2.8-1-6-0.2-8,1.6l-42.1,41.1l20.5-85.8l0,0
							c0.6-2.4-0.4-4.8-2.6-6.3c-2.2-1.6-5-1.8-7.4-0.8l-24.7,9.4L418.8,147c-1.4-1.8-3.6-3-6.3-3c-2.6,0-4.8,1.2-6.3,3l-18.2,25.6
							l-24.7-9.4l0,0c-2.4-1-5.5-0.6-7.4,0.8c-2.2,1.6-3,4-2.6,6.3l20.5,85.8L331.8,215c-2-2-5.2-2.6-8-1.6c-2.8,1-4.6,3.4-4.6,6
							v20.5l-33.5-7.6c-2.8-0.6-6,0.4-7.6,2.4c-1.8,2.2-1.8,5-0.2,7.2l19.2,27.3l-15.2,8.4c-2,1.2-3.2,3-3.4,5.2c-0.2,2,1,4,2.8,5.5
							l61.5,41.5l-18.2,29.2l0,0c-1.2,2-1.2,4.6,0.4,6.6c1.4,2,4,3,6.8,2.8l73.6-6.3v31.1c0,3.6,3.2,6.4,7.2,6.4s7.2-2.8,7.2-6.4
							V362l73.6,6.3c0.2,0,0.4,0,0.6,0c2.6,0,5-1.2,6.3-3.2c1.4-2,1.4-4.4,0.2-6.4L482,329.4l61.5-41.5c1.8-1.2,3-3.2,2.8-5.5
							c-0.2-2-1.4-4-3.4-5.2l-15.6-8.8l20-33.9c1.4-2.4,1-5.2-1.2-7.2C544.7,225.8,541.5,225.2,538.6,226.2L538.6,226.2z"/>
					</defs>
					<clipPath id="XMLID_44_">
						<use xlink:href="#XMLID_28_"  style="overflow:visible;"/>
					</clipPath>
					<path id="XMLID_26_" class="st33" d="M438.2,217.3v-5.5c-36.6,2.1-104.2,8.7-161.9,30.1c0,0,41.6-9,58.4,17.6
						c16.4,26.6,24.2,32.3,30.7,34.9c6.3,2.6,10,9.2,11.3,21c0,0,4.6-9.7-4.8-33.2C364,263.4,401.3,231.1,438.2,217.3z"/>
				</g>
			</g>
		</g>
	</g>
</g>
</svg>
