<?xml version="1.0" encoding="utf-8"?>
<!-- Generator: Adobe Illustrator 19.0.0, SVG Export Plug-In . SVG Version: 6.00 Build 0)  -->
<svg version="1.1" id="Calque_1" xmlns="http://www.w3.org/2000/svg" xmlns:xlink="http://www.w3.org/1999/xlink" x="0px" y="0px"
	 viewBox="194 147 1000 500" style="enable-background:new 194 147 1000 500;" xml:space="preserve">
<style type="text/css">
	.st0{display:none;}
	.st1{display:inline;}
	.st2{fill:#161616;}
	.st3{fill:#FFFFFF;}
	.st4{fill:#C1272D;}
	.st5{fill:#F2DBC2;}
	.st6{display:inline;opacity:0.5;}
	.st7{clip-path:url(#SVGID_2_);fill:#1D1D1B;}
	.st8{clip-path:url(#SVGID_4_);fill:#1D1D1B;}
	.st9{opacity:0.35;}
	.st10{fill:#C1292D;}
	.st11{opacity:0.5;}
</style>
<g id="Calque_1_1_" class="st0">
	<g id="Calque_2" class="st1">
		<rect id="XMLID_1_" x="194" y="147" class="st2" width="1000" height="500"/>
	</g>
</g>
<g id="Calque_2_1_" class="st0">
	<rect x="388" y="294" class="st1" width="1000" height="500"/>
	<g class="st1">
		<path class="st3" d="M880.7,420.5v71.2c0,11.2,7.9,13.3,13.8,14.4v2.5h-33.1V506c5.8-1,13.6-3.1,13.6-14.4v-73.9
			c0-11.2-7.9-13.3-13.8-14.4v-2.5h39.6l27.2,66.7l23.8-66.7h38.8v2.5c-5.1,1-12.3,3.1-12.3,14.4v73.9c0,11.2,7.2,13.3,12.3,14.4
			v2.5h-50.9V506c5.1-1,12.1-3.1,12.1-14.4v-73.5l-32.6,90.4h-3.7L880.7,420.5z"/>
		<path class="st3" d="M989.1,489c0-15.7,15.4-26.3,40.2-22v-8.8c0-9.7-7-14.2-15.4-14.2c-6.4,0-14.1,2.8-19.9,11.7l-2.5-0.4
			c3.1-11.4,14.1-22.9,32.2-23.3c18.7-0.3,30.4,11.8,30.4,25.9v32.2c0,4,0.6,7.6,3.3,7.6c0.6,0,1.5-0.1,2.1-0.6l1,0.9
			c-2.1,6-8.1,12.1-16.5,12.1c-7.3,0-12.7-4.3-14.2-10.3c-4,5.5-10.3,10.3-19.2,10.3C998.8,509.9,989.1,501.1,989.1,489z
			 M1020.8,499.3c3.6,0,6.6-2.1,8.5-4.2v-23.9c-11.1-0.7-17.8,5.1-17.8,15C1011.6,493.2,1014.8,499.3,1020.8,499.3z"/>
		<path class="st3" d="M1063.8,504.1l0.1-22.3h2.5c10.3,17.7,17.7,22.9,26.3,22.9c7.2,0,9.9-3.6,9.9-8.2c0-9-10.8-11.4-22-16.8
			c-13.2-6.3-19-13.6-19-23.6c0-13.9,10.8-24.2,30.5-24.2c5.8,0,14.7,1,25.4,5.2l-0.1,20.8h-2.7c-8.2-17.7-16-20.6-22.6-20.6
			c-7.5,0-11.5,3.7-11.5,8.4c0,7.5,11.2,9.9,25.7,17.4c7,3.4,15.9,8.7,15.9,22.1c0,15.7-12,25.1-29.8,25.1
			C1086.8,510.2,1076.5,509,1063.8,504.1z"/>
		<path class="st3" d="M1131.1,485.2v-46.8h-10.9V436c12.4-4.6,24.7-13.5,32.6-26.3h3.3v23h20v5.7h-20v44.4c0,7.8,3.4,13.6,9.4,13.6
			c2.7,0,5.7-1.3,9-3.7l1.9,0.4c-3.9,9-11.5,17.1-24.2,17.1C1139.2,510.2,1131.1,501.4,1131.1,485.2z"/>
		<path class="st3" d="M1175.4,470.9c0-24.7,14.5-39,36.5-39c25.1,0,34.9,19.5,34.6,37.6h-45.3c1.2,19.9,11.1,27.8,21.7,27.8
			c7.2,0,14.4-3.1,21.2-10.8l1.9,0.4c-3.3,9.9-14.7,23.3-33.4,23.3C1195,510.2,1175.4,498,1175.4,470.9z M1222.2,464.4
			c0-10.5-1.8-27.5-10.3-27.5c-8.8,0-10.8,18.3-10.9,27.5H1222.2z"/>
		<path class="st3" d="M1254.7,493.2v-45c0-10.2-5.8-12.1-10.2-13v-2.4h35.2v23.6c3.9-15.6,15.7-26.9,30.7-24.1l-3.7,22.7h-1.6
			c-12.6-6-24.1,1.3-25.3,17.2v20.9c0,10.2,5.7,12.1,10.2,13v2.4h-45.3v-2.4C1248.8,505.3,1254.7,503.3,1254.7,493.2z"/>
	</g>
	<g class="st1">
		<path class="st4" d="M774.7,478.7l-1.2,8.1l-12.6,1.6l12,35.3l3.4,10.8l4.6-8.8l22-37.3l-12-1.6l0.7-8.1h38.6l-1,8.1l-9.6,1.6
			L782,545.7l-4.5,34.4l17.8,2.1l-0.7,7.6h-60l0.9-7.6l16.9-2.1l4.2-34.4l-24.4-57.3l-9.4-1.6l0.7-8.1H774.7z"/>
		<path class="st4" d="M892.7,513.8c5.6,6,8.5,14.9,8.5,26.6c0,9.5-1.9,18.2-5.8,26c-3.9,7.9-9.4,14.1-16.5,18.7
			c-7.1,4.6-15.3,6.9-24.7,6.9c-11,0-19.2-3.1-24.8-9.2s-8.4-15-8.4-26.7c0-9.5,1.9-18.1,5.8-26c3.9-7.8,9.4-14,16.5-18.6
			c7.1-4.5,15.3-6.8,24.5-6.8C878.7,504.8,887,507.8,892.7,513.8z M854.4,521.6c-2.8,4.4-4.8,10-6.1,16.7
			c-1.2,6.7-1.8,13.4-1.6,20.2c0.3,8.7,1.3,14.9,2.9,18.5c1.6,3.7,4.3,5.5,7.9,5.5c5.9,0,10.2-4.1,13.1-12.3
			c2.8-8.2,4.3-17.8,4.3-28.7c0-9.9-0.8-16.8-2.3-20.7s-4.1-5.9-7.6-5.9C860.8,514.9,857.2,517.1,854.4,521.6z"/>
		<path class="st4" d="M940.9,552c-1.3,8.7-1.9,14.4-1.9,17.2c0,3.6,0.5,6.2,1.6,7.7s2.9,2.3,5.4,2.3c2.7,0,5.3-0.7,7.9-2.2
			c2.5-1.4,4.8-3.3,6.7-5.5l9-66.1H993l-9.4,67.9c-0.4,3.7,0.6,5.5,3,5.5c0.8,0,1.6-0.2,2.5-0.7c0.8-0.4,2.2-1.3,4.1-2.6l2.1,5.1
			c-0.7,1.2-1.9,2.6-3.7,4.3c-1.8,1.6-4.1,3.1-7,4.4c-2.9,1.3-6.1,1.9-9.6,1.9c-3.9,0-6.9-0.7-9.1-2c-2.2-1.3-3.5-3.3-4-5.8
			c-0.1-0.3-0.1-0.8-0.1-1.6c0-1.2,0-2.1,0.1-2.7l-0.1-0.1c-3.2,3.6-6.8,6.5-10.8,8.8s-8.9,3.4-14.7,3.4c-5.3,0-10.1-1.5-14.5-4.6
			c-4.4-3-6.6-7.8-6.7-14.1c0-4.1,0.8-11.4,2.4-22c0.4-2,0.6-3.5,0.7-4.5l3.9-26.8l-9.3-5.7l1.2-6.4l29-2.4l3.7,1.8l-4.9,40.1
			L940.9,552z"/>
		<path class="st4" d="M1044,511.2c4.3-4.2,9.2-6.3,14.8-6.3c2.2,0,3.9,0.5,5.1,1.5L1059,532c-0.4-0.5-1.3-1-2.8-1.6
			s-3.3-0.9-5.4-0.9c-3.1,0-6,0.3-8.6,1c-2.6,0.6-4.7,1.6-6.1,2.8l-7.8,56.7h-23l9.4-70.5l-7.8-4.2l1.2-6.4l23.9-3.9l3.9,2.5
			l-0.7,13.8l-0.3,5.4C1036.7,520.5,1039.7,515.4,1044,511.2z"/>
	</g>
	<g class="st1">
		<path class="st5" d="M972.2,665.9l0.4-28.6h2.7c7.5,21.8,20.8,31.6,33.8,31.6c9.3,0,17.2-5.2,16.9-15.6
			c-0.6-13.3-15.6-19.7-30.2-26.8c-14.5-6.9-25.6-16-25-31.9c0.4-17.2,14.1-31.3,40.4-31.3c13.6,0,24.4,4,33.2,7.5l-0.3,28.1h-2.5
			c-6.9-20.6-16.8-30.1-30.4-30.1c-11.1,0-17.8,5.8-18,13.6c-0.1,11.8,16,17.1,31.4,24.7c18.9,9.6,24.5,20.2,24.1,34.1
			c-0.7,23.3-18.3,33.1-38.8,33.1C1000.6,674.5,987.2,672.4,972.2,665.9z"/>
		<path class="st5" d="M1083.8,562v95.3c0,10.2,5.8,12.1,10.2,13v2.4h-45.3v-2.4c4.5-0.9,10.2-2.8,10.2-13v-75.7
			c0-10.3-5.8-11.2-10.2-11.4l-0.4-2.4L1083.8,562z M1085.9,633.3l-0.1-0.3l20.6-17.8c4-3.4,5.5-6.1,5.5-8.2c0-5.2-9.6-6.6-14.7-7.2
			v-3h39.8v0.7l-29.9,25.5l21.1,35.9c4.2,6.9,8.8,10,14.7,11.4v2.4h-36.4L1085.9,633.3z"/>
		<path class="st5" d="M1149.9,657.3v-45c0-10.2-5.8-12.1-10.3-13v-2.4h35v60.4c0,10.2,5.8,12.1,10.3,13v2.4h-45.3v-2.4
			C1143.9,669.4,1149.9,667.4,1149.9,657.3z M1159.8,560.3c7.8,0,14.2,6.1,14.2,13.9c0,7.8-6.6,13.9-14.2,13.9
			c-7.6,0-14.2-6.1-14.2-13.9C1145.6,566.4,1152,560.3,1159.8,560.3z"/>
		<path class="st5" d="M1192,657.3v-75.7c0-10.3-5.8-11.2-10.3-11.4l-0.4-2.4l35.8-5.8v95.3c0,10.2,5.8,12.1,10.2,13v2.4H1182v-2.4
			C1186.1,669.4,1192,667.4,1192,657.3z"/>
		<path class="st5" d="M1234.2,657.3v-75.7c0-10.3-5.8-11.2-10.3-11.4l-0.4-2.4l35.8-5.8v95.3c0,10.2,5.8,12.1,10.2,13v2.4H1224
			v-2.4C1228.3,669.4,1234.2,667.4,1234.2,657.3z"/>
		<path class="st5" d="M1272,668.2l0.1-22.3h2.5c10.3,17.7,17.7,22.9,26.3,22.9c7.2,0,9.9-3.6,9.9-8.2c0-9-10.8-11.4-22-16.8
			c-13.2-6.3-19-13.6-19-23.6c0-13.9,10.8-24.2,30.5-24.2c5.8,0,14.7,1,25.4,5.2l-0.1,20.8h-2.7c-8.2-17.7-16-20.6-22.6-20.6
			c-7.5,0-11.5,3.7-11.5,8.4c0,7.5,11.2,9.9,25.7,17.4c7,3.4,15.9,8.7,15.9,22.1c0,15.7-12,25.1-29.8,25.1
			C1295,674.3,1284.7,673.1,1272,668.2z"/>
	</g>
	<g class="st6">
		
			<image style="overflow:visible;enable-background:new    ;" width="338" height="303" xlink:href="B649B7D6.png"  transform="matrix(1 0 0 1 395 383)">
		</image>
	</g>
	<g class="st1">
		<path class="st3" d="M696.6,481.2c0-20.6-11.4-39.6-29.5-49.3v47.4l-9.7,6.7h-38.5l-9.7-6.7v-47.4c-10.3,5.5-18.7,14.2-23.8,24.7
			c6.2,12.2,9.4,25.8,9.3,39.5c0,6.9-0.9,13.7-2.6,20.3c6.9,8.6,16.3,14.9,26.8,18.2c-0.1,0.7-0.1,1.5-0.1,2.2v112.3H631v-71.9
			c0.6-0.3,1.1-0.5,1.7-0.7c1.7-0.6,3.4-0.9,5.2-0.8c0.1,0,0.2,0,0.3,0c0.1,0,0.2,0,0.3,0c1.8,0,3.5,0.3,5.2,0.8
			c0.6,0.2,1.2,0.4,1.7,0.7v71.9h12.2V536.8c0-0.8,0-1.5-0.1-2.2C680.7,527.3,696.6,505.7,696.6,481.2z"/>
		<path class="st3" d="M507.7,579.4h-44.2l-0.2,34.4c0,3.6,1.8,6.9,4.7,8.8c7.2,4.7,20.1,13.1,20.8,13.2c1.1,7.3,9,13.1,18.8,13.3
			c9.8-0.3,17.8-6,18.8-13.3c0.8-0.2,13.6-8.5,20.8-13.2c3-2,4.8-5.3,4.7-8.8l-0.2-34.4H507.7z"/>
		<path class="st3" d="M507.8,419.4h-0.2c-42,0.4-75.9,34.6-75.8,76.6c0,14.8,4.6,28.7,14,42.4c7.3,10.5,13.3,21.9,17.6,34
			c0.1,0.1,0.1,0.3,0.1,0.4h15c0-0.1-0.1-0.3-0.1-0.4c-4.8-15-11.8-29.1-20.9-42c-7.3-10-11.3-22-11.5-34.4
			c0-34.2,27.5-62,61.6-62.4h0.2c34.2,0.4,61.7,28.2,61.7,62.4c-0.2,12.4-4.2,24.4-11.5,34.4c-9,12.9-16.1,27-20.9,42
			c0,0.1-0.1,0.3-0.1,0.4h15c0-0.1,0.1-0.3,0.1-0.4c4.3-12.1,10.2-23.5,17.6-34c9.4-13.7,14-27.6,14-42.4
			C583.7,454,549.8,419.8,507.8,419.4z"/>
	</g>
	<g id="Calque_3" class="st1">
		<g>
			<g>
				<defs>
					<path id="SVGID_1_" d="M972.2,665.9l0.4-28.6h2.7c7.5,21.8,20.8,31.6,33.8,31.6c9.3,0,17.2-5.2,16.9-15.6
						c-0.6-13.3-15.6-19.7-30.2-26.8c-14.5-6.9-25.6-16-25-31.9c0.4-17.2,14.1-31.3,40.4-31.3c13.6,0,24.4,4,33.2,7.5l-0.3,28.1
						h-2.5c-6.9-20.6-16.8-30.1-30.4-30.1c-11.1,0-17.8,5.8-18,13.6c-0.1,11.8,16,17.1,31.4,24.7c18.9,9.6,24.5,20.2,24.1,34.1
						c-0.7,23.3-18.3,33.1-38.8,33.1C1000.6,674.5,987.2,672.4,972.2,665.9z"/>
				</defs>
				<clipPath id="SVGID_2_">
					<use xlink:href="#SVGID_1_"  style="overflow:visible;"/>
				</clipPath>
				<path class="st7" d="M940.9,552c-1.3,8.7-1.9,14.4-1.9,17.2c0,3.6,0.5,6.2,1.6,7.7s2.9,2.3,5.4,2.3c2.7,0,5.3-0.7,7.9-2.2
					c2.5-1.4,4.8-3.3,6.7-5.5l9-66.1H993l-9.4,67.9c-0.4,3.7,0.6,5.5,3,5.5c0.8,0,1.6-0.2,2.5-0.7c0.8-0.4,2.2-1.3,4.1-2.6l2.1,5.1
					c-0.7,1.2-1.9,2.6-3.7,4.3c-1.8,1.6-4.1,3.1-7,4.4c-2.9,1.3-6.1,1.9-9.6,1.9c-3.9,0-6.9-0.7-9.1-2c-2.2-1.3-3.5-3.3-4-5.8
					c-0.1-0.3-0.1-0.8-0.1-1.6c0-1.2,0-2.1,0.1-2.7l-0.1-0.1c-3.2,3.6-6.8,6.5-10.8,8.8s-8.9,3.4-14.7,3.4c-5.3,0-10.1-1.5-14.5-4.6
					c-4.4-3-6.6-7.8-6.7-14.1c0-4.1,0.8-11.4,2.4-22c0.4-2,0.6-3.5,0.7-4.5l3.9-26.8l-9.3-5.7l1.2-6.4l29-2.4l3.7,1.8l-4.9,40.1
					L940.9,552z"/>
			</g>
		</g>
		<g>
			<g>
				<defs>
					<path id="SVGID_3_" d="M972.2,665.9l0.4-28.6h2.7c7.5,21.8,20.8,31.6,33.8,31.6c9.3,0,17.2-5.2,16.9-15.6
						c-0.6-13.3-15.6-19.7-30.2-26.8c-14.5-6.9-25.6-16-25-31.9c0.4-17.2,14.1-31.3,40.4-31.3c13.6,0,24.4,4,33.2,7.5l-0.3,28.1
						h-2.5c-6.9-20.6-16.8-30.1-30.4-30.1c-11.1,0-17.8,5.8-18,13.6c-0.1,11.8,16,17.1,31.4,24.7c18.9,9.6,24.5,20.2,24.1,34.1
						c-0.7,23.3-18.3,33.1-38.8,33.1C1000.6,674.5,987.2,672.4,972.2,665.9z"/>
				</defs>
				<clipPath id="SVGID_4_">
					<use xlink:href="#SVGID_3_"  style="overflow:visible;"/>
				</clipPath>
				<path class="st8" d="M1044,511.2c4.3-4.2,9.2-6.3,14.8-6.3c2.2,0,3.9,0.5,5.1,1.5L1059,532c-0.4-0.5-1.3-1-2.8-1.6
					s-3.3-0.9-5.4-0.9c-3.1,0-6,0.3-8.6,1c-2.6,0.6-4.7,1.6-6.1,2.8l-7.8,56.7h-23l9.4-70.5l-7.8-4.2l1.2-6.4l23.9-3.9l3.9,2.5
					l-0.7,13.8l-0.3,5.4C1036.7,520.5,1039.7,515.4,1044,511.2z"/>
			</g>
		</g>
	</g>
</g>
<g class="st9">
	<image style="overflow:visible;" width="294" height="349" xlink:href="764C11AA.png"  transform="matrix(1 0 0 1 214 227)">
	</image>
</g>
<g>
	<path class="st10" d="M469.2,332.7c-0.4-0.6-0.9-1-1.4-1.1c-0.3-0.1-0.6-0.3-0.9-0.3l-6.1-0.7c-0.3-5.3-3.3-14-10.3-20.7
		c-7.1-6.9-39.9-32.2-54.6-37.6c-14.4-5.3-20-6.1-26.9-6.7c-6.1-0.4-51.4-2.6-58.3-2.6c-6.7,0-12.4,1.4-22,8.9
		c-7.4,5.7-17.9,16-26.2,32.3c-7.1,14.1-6.9,41-6.9,44.6l-4.6,5.6c-0.1,0.1-0.3,0.3-0.3,0.6c-0.1,0.3-0.3,0.7-0.3,1.1v8.6
		c0,1.1,0.9,2,1.9,2.1l3.7,0.4l-2.1,2l103,14.1l10.1-7.6l-7.3,2c-0.1,0-0.3,0-0.3,0l0,0h-0.1l-8.6-1c-0.7-0.1-1.1-0.6-1.1-1.3v-3.9
		c-4.4,0.4-9.6,0.7-15,0.7c-18.3,0-40.7-2.9-58-9.6l-14.9,4.3c-0.1,0-0.3,0-0.4,0c-0.3,0-0.4,0-0.6-0.1c0,0-0.1,0-0.1-0.1
		c-0.1,0-0.3-0.1-0.3-0.3l-0.1-0.1c-0.1-0.1-0.1-0.1-0.3-0.3c0-0.1-0.1-0.1-0.1-0.3c0,0,0,0,0-0.1s0-0.1,0-0.3c0-0.1,0-0.1,0-0.3v-7
		l-5.6-0.7c-1-0.1-1.7-1-1.6-2c0.1-1,1-1.7,2-1.6l7.1,1l0,0l9.4-6.6c-1.6,0.1-3.3,0.1-4.9,0.1c-2.1,0-4.3-0.1-6.4-0.3
		c-0.7-0.1-1.3-0.7-1.1-1.4c0.1-0.7,0.7-1.3,1.4-1.1c5,0.6,9.9,0.3,15.4-0.1l0,0l0,0h0.1l0,0c0.1,0,0.1,0,0.3,0c0.1,0,0.1,0,0.3,0.1
		c0.1,0,0.1,0,0.3,0.1c0.1,0,0.1,0.1,0.1,0.1s0.1,0,0.1,0.1c0,0,0,0,0,0.1c0,0,0,0,0,0.1v0.1l0,0c0,0.1,0,0.1,0,0.3c0,0,0,0,0,0.1
		l0,0l0,0l0.9,12.7h0.1c22,8.6,52.7,10.9,71.7,8.6l0,0v-1.3c0-0.4,0.1-0.7,0.4-1c0,0,0,0,0.1,0c0,0,0,0,0-0.1l6.9-8.6
		c0,0,0.1,0,0.1-0.1l0.1-0.1c0,0,0.1-0.1,0.3-0.1c0.1,0,0.1,0,0.3-0.1c0.1,0,0.1,0,0.3,0h0.1c5,0.6,9.9,0.3,15.4-0.1h0.1h0.1h0.1
		h0.1h0.1c0,0,0.1,0,0.1,0.1c0,0,0.1,0,0.1,0.1l0.1,0.1l0,0c0,0,0,0,0,0.1c0,0,0,0.1,0.1,0.1c0,0,0,0,0,0.1l0.9,2.6
		c1.4,0.7,2.4,2.7,2.4,5.1c0,1.7-0.4,3.3-1.3,4.3l0.1,2.3c0,1.1-0.9,2.1-2,2.3l0,0l-15.9,11.7v50.6l11.9-3.4c1-0.3,2,0.3,2.1,1.3
		c0.3,1-0.3,2-1.3,2.1l-14.1,4c-0.1,0-0.3,0-0.4,0l0,0l0,0l0,0l0,0c-0.1,0-0.1,0-0.3,0l-100.2-13.7c0,1.1,0,2.9,0.1,4.7
		c0.1,3.9,0.1,8.7,0.1,10.7l0,0l0,0c0.9,25.7,4,43.2,9.4,53.2c9.4,17.6,22.7,36.3,49.3,42.3c8.1,1.9,15.6,2.7,22.4,2.7
		c15.1,0,27.9-4.4,40.7-14c18.7-13.9,41.3-33.4,46-39.2l0.6-0.6c4.7-5.7,13.4-16.4,17.1-38.9c1.6-9.4,4.4-25,7.3-40
		c3.6-19.4,7.3-39.4,8.4-47.6l4.4,0.4l0,0c0.1,0,0.3,0,0.4,0c0.6,0,1.3-0.1,2-0.7c2.6-1.9,4.3-8.1,5.1-13.3
		C471.2,341.7,471.2,335.5,469.2,332.7z M338.3,362c0,1.1-1,2.1-2.1,2.1c-14.1,0-27.7-1.4-40.3-4.3c-1-0.3-1.7-1.1-1.7-2.1v-16.1
		c0-0.6,0.3-1.3,0.7-1.6c0.4-0.4,1.1-0.6,1.7-0.4c13.1,2.3,26.4,3.7,39.6,4.3c1.1,0,2,1,2,2.1v16H338.3z M370.6,425.6
		c0,0.7-0.6,1.3-1.3,1.3s-1.3-0.6-1.3-1.3v-0.4c0-0.7,0.6-1.3,1.3-1.3s1.3,0.6,1.3,1.3V425.6z M370.6,415.9c0,0.7-0.6,1.3-1.3,1.3
		s-1.3-0.6-1.3-1.3v-19.6c0-0.7,0.6-1.3,1.3-1.3s1.3,0.6,1.3,1.3V415.9z M370.6,390.6c0,0.7-0.6,1.3-1.3,1.3s-1.3-0.6-1.3-1.3V387
		c0-0.7,0.6-1.3,1.3-1.3s1.3,0.6,1.3,1.3V390.6z M432.5,311.3c0-0.1,0-0.3,0-0.3c0-0.1,0.1-0.1,0.1-0.3c0-0.1,0.1-0.3,0.1-0.3
		c0.1-0.1,0.1-0.1,0.3-0.1s0.1-0.1,0.3-0.1l5.4-2.3c0.9-0.4,2,0,2.3,1c0.4,0.9,0,2-1,2.3l-3.9,1.6l3.6,8.9l6.6-3.1
		c0.9-0.4,2,0,2.4,0.9c0.4,0.9,0,2-0.9,2.4l-8.3,4c0,0,0,0-0.1,0l0,0l0,0c-0.1,0.1-0.4,0.1-0.6,0.1l0,0l0,0l0,0c-0.1,0-0.3,0-0.4,0
		h-0.1c-0.1,0-0.1-0.1-0.3-0.1l-0.1-0.1c-0.1,0-0.1-0.1-0.3-0.1l-0.1-0.1l-0.1-0.1l0,0l0,0l-5-12.3c0-0.1,0-0.3,0-0.3
		c0-0.1,0-0.3,0-0.3C432.5,311.4,432.5,311.3,432.5,311.3z M374.6,380.5c0-1,0.9-1.7,1.7-1.7l0,0c1,0,1.7,0.9,1.7,1.9l-0.1,46.7
		c0,1-0.9,1.7-1.7,1.7l0,0c-1,0-1.7-0.9-1.7-1.9L374.6,380.5z M382.8,508.2c-16.4,11.1-31.4,13.3-41.7,13.3c-4.9,0-8.7-0.6-11.1-0.9
		l-0.7-0.1c-8.1-1-37.2-8.3-41.3-11.1c-0.9-0.6-1-1.7-0.4-2.4c0.6-0.9,1.7-1,2.4-0.4c3.4,2.3,31.6,9.6,39.9,10.6l0.7,0.1
		c7.4,1,27.3,3.6,50.4-12c0.9-0.6,1.9-0.3,2.4,0.4C383.8,506.7,383.6,507.8,382.8,508.2z M398.2,495.7c-2.9,2.9-5.9,5.6-8.7,7.9
		c-0.3,0.3-0.7,0.4-1.1,0.4c-0.6,0-1-0.3-1.4-0.7c-0.6-0.7-0.4-1.9,0.3-2.6c2.9-2.3,5.6-4.7,8.4-7.6c0.7-0.7,1.9-0.7,2.6,0
		S398.9,494.9,398.2,495.7z M418.9,454.2c-0.1,0.9-0.9,1.6-1.7,1.6h-0.1c-1-0.1-1.7-1-1.6-2l9.4-93.6c0.1-1,1-1.7,2-1.6
		c1,0.1,1.7,1,1.6,2L418.9,454.2z M433.8,448.6c-0.1,0.9-0.9,1.6-1.7,1.6l0,0c-1,0-1.7-0.7-1.7-1.7c0-0.3,0-1.1,0.7-1.9
		s1.9-0.7,2.6,0C434.1,447.2,434.1,448.1,433.8,448.6z M442.2,402.2c-2.6,13.6-5.1,27.7-7,38.6c-0.1,0.9-0.9,1.4-1.7,1.4
		c-0.1,0-0.1,0-0.3,0c-1-0.1-1.6-1.1-1.4-2c1.9-10.9,4.6-25,7-38.6c2.4-12.9,4.7-25.2,6.1-33.2c0.1-1,1.1-1.6,2-1.4
		c1,0.1,1.6,1.1,1.4,2C446.9,377,444.6,389.3,442.2,402.2z M450.1,358.6h-0.1c-0.4,0-1.1-0.3-1.9-1.1c-1.6-2.1-2-7.3-1.1-13.3
		c0.4-3.3,2.4-13.9,6.6-13.3c0.7,0.1,1.1,0.7,1.1,1.4c-0.1,0.7-0.7,1.1-1.4,1.1c-0.7,0.3-2.6,3.9-3.7,11c-1,7.3,0.1,11.1,0.9,11.6
		c0.7,0.1,1.1,0.7,1,1.4C451.2,358.2,450.6,358.6,450.1,358.6z M456.6,351.2C456.6,351.2,456.5,351.2,456.6,351.2l-5-0.4
		c-0.7,0-1.3-0.7-1.1-1.4c0-0.7,0.7-1.3,1.4-1.1l4.9,0.4c0.7,0,1.3,0.7,1.1,1.4C457.9,350.6,457.4,351.2,456.6,351.2z M457.6,343.5
		C457.6,343.5,457.5,343.5,457.6,343.5l-5.1-0.4c-0.7,0-1.3-0.7-1.1-1.4c0-0.7,0.7-1.3,1.4-1.1l5,0.4c0.7,0,1.3,0.7,1.1,1.4
		C458.9,342.9,458.4,343.5,457.6,343.5z M466.5,334.7c-0.9,0.4-2.9,4.4-3.7,11c-1,7.1,0.1,11.1,0.9,11.6c0.7,0.1,1.1,0.7,1,1.4
		c-0.1,0.6-0.7,1.1-1.3,1.1h-0.1c-0.4,0-1.1-0.3-1.9-1.1c-1.6-2.1-2-7.3-1.1-13.3c0.7-4.7,2.3-11,4.7-12.7c0.7-0.6,1.4-0.6,1.9-0.6
		c0.7,0.1,1.1,0.7,1.1,1.4C467.8,334.3,467.2,334.7,466.5,334.7z"/>
	<polygon class="st10" points="261.7,380.3 261.7,417.3 284.3,420.3 311.5,387 	"/>
	<path class="st10" d="M298.4,356c11.3,2.4,23.2,3.7,35.6,3.9v-12c-11.9-0.6-23.7-1.9-35.6-3.9V356z"/>
	<path class="st10" d="M355.5,386.5l-100.3-13.9v50.3l100.3,13.9V386.5z M351.6,430.5c0,0.4-0.1,0.7-0.4,1c-0.3,0.1-0.6,0.3-0.9,0.3
		h-0.1l-89.9-12c-0.6-0.1-1.1-0.6-1.1-1.3v-39.6c0-0.4,0.1-0.7,0.4-1c0.3-0.3,0.7-0.3,1-0.3l89.9,12.1c0.6,0.1,1.1,0.6,1.1,1.3
		C351.6,391,351.6,430.5,351.6,430.5z"/>
	<path class="st10" d="M314.5,387.6l-27.2,33.2l61.7,8.3v-36.9L314.5,387.6C314.5,387.5,314.5,387.6,314.5,387.6z M313.7,399.9
		l-16,19.6c-0.3,0.3-0.6,0.4-1,0.4c-0.3,0-0.6-0.1-0.9-0.3c-0.6-0.4-0.6-1.3-0.1-1.9l16-19.6c0.4-0.6,1.3-0.6,1.9-0.1
		S314.2,399.3,313.7,399.9z M315,394.5l0.9-1.1c0.4-0.6,1.3-0.7,1.9-0.3c0.6,0.4,0.7,1.3,0.3,1.9l-1,1c-0.3,0.3-0.6,0.6-1,0.6
		c-0.3,0-0.6-0.1-0.7-0.3C314.7,395.8,314.6,395.1,315,394.5z"/>
	<path class="st10" d="M369.2,359.3c-1.6,0.1-3.3,0.1-4.9,0.1c-2,0-3.9-0.1-5.9-0.3l-5.3,6.6l5.7,0.7L369.2,359.3z"/>
	<path class="st10" d="M372.6,369.5c-0.9-1-1.3-2.4-1.3-4.3c0-2.1,0.7-4,1.9-4.9l-0.1-0.6l-12.3,8.6v6.1l12-3.4L372.6,369.5z"/>
	<polygon class="st10" points="352.2,374.2 358.2,374.9 358.2,368.9 352.2,368.2 	"/>
	<path class="st10" d="M375.3,367.3c0.1-0.4,0.3-1.1,0.3-2.1c0-1.7-0.6-2.7-0.9-2.9c-0.3,0.1-0.9,1.1-0.9,2.9c0,0.9,0.1,1.6,0.3,2
		c0.1,0,0.3,0,0.4,0C374.9,367.2,375,367.2,375.3,367.3z"/>
	<polygon class="st10" points="262.9,362.9 275,359.5 274.3,349 262.9,357 	"/>
</g>
<g class="st11">
	<image style="overflow:visible;" width="644" height="170" xlink:href="764C11AD.png"  transform="matrix(1 0 0 1 456 237)">
	</image>
</g>
<g>
	<path class="st3" d="M555,323l0.1,1.5l-0.1,1.5l-0.1,1.7l-0.5,2.4l-0.3,1.6l-0.8,1.9l-0.6,1.4l-1,1.8l-0.9,1.3l-1.4,1.8l-1.1,1.2
		l-1.3,1.2l-1.3,1.1l-1.3,0.9l-1.4,0.9l-2.1,1l-1.5,0.7l-1.7,0.7l-1.5,0.5l-2.1,0.6l-1.5,0.3l-1.5,0.2l-1.6,0.1l-2.5,0.2h-8.2
		l-1.7-0.1l-1.7,0.1l-1.7,0.2l-1.2,0.2l-0.3,0.7l-0.1,1.3l-0.4,6.5v1.6l0.1,2.9l-0.1,1.5l-0.1,2.1l-0.2,1.1l-0.3,0.6l-0.5,0.2
		l-1.1,0.2l-3.1,0.2l-3.8-0.2h-1.6l-3.1,0.2l-1.6-0.1l-2.2-0.1l-1.3-0.4l-0.6-0.6l-0.2-1.2l-0.2-1.5l-0.1-1.6v-10.4l0.4-5.2v-1.6
		l-0.4-5.2v-1.6l-0.2-11.9v-1.6l0.4-5.2v-1.6l-0.3-5.2v-1.6l0.4-5.2v-1.5l-0.2-2.9l0.1-1.5l0.1-0.8l0.2-1.1l0.3-0.6l0.5-0.5l1.1-0.1
		l2.8-0.2l2.2,0.1h1.5l6.5-0.1h6.5l6.5,0.4h6.4l3.7-0.2l1.4,0.1h0.8l1.5,0.3l2.2,0.6l1.6,0.5l1.6,0.6l1.5,0.7l1.5,0.9l1.3,1l1.8,1.6
		l1.2,1l0.5,0.6l1.8,1.8l1,1.3l0.5,0.6l0.7,1.2l0.4,0.6l0.6,1.3l0.5,1.5l0.4,1.4l0.1,0.7l0.4,1.4l0.2,0.8l0.4,1.4l0.6,2.7V323z
		 M526,332.5l1.8-0.2l1.7-0.4l0.8-0.3l1.4-0.8l0.6-0.4l1-1l0.4-0.6l0.7-1.3l0.3-0.7l0.4-1.6l0.1-0.7v-2.4l-0.3-1.5l-0.3-0.8
		l-0.6-1.3l-0.4-0.6l-1.1-1.2l-0.8-0.5l-1.5-0.8l-2.5-0.7l-1.6-0.2h-2.2l-2.9,0.2l-4.3-0.3h-1.5l-0.8,0.1l-1.1,0.2l-0.4,0.3
		l-0.3,0.7l-0.2,1.2v2.2l0.3,3.6l0.1,1.6l0.1,5.6l0.1,1.2l0.3,0.7l1.1,0.4l5.1,0.4L526,332.5z"/>
	<path class="st3" d="M629.6,367.8l-1.3,0.4h-6.8l-5.3-0.1h-1.6l-4.4,0.2H609l-0.9-0.4l-0.8-0.8l-3.1-4.4l-0.9-1.2l-3.1-4.2
		l-0.9-1.2l-2.7-4.5l-0.9-1.2l-3.1-4.2l-0.7-0.8l-0.6-0.3l-1.2-0.1l-3.1-0.2l-1.3,0.1l-0.8,0.6l-0.3,1.3l-0.2,5.3l0.1,1.6l0.4,5.4
		l0.1,1.6l0.1,2.3v1.6l-0.1,1.6l-0.2,1.2l-0.5,0.5l-1.1,0.3h-1.6l-4.7-0.3l-4.5,0.3h-1.6l-4.5-0.3l-1.2-0.2l-0.6-0.4l-0.2-1
		l-0.1-1.4l-0.1-1.5l0.2-2.5l0.1-1.6l0.4-5.2v-1.6l-0.3-5.2l-0.1-1.6l-0.1-5.2v-1.6l0.3-5.2v-1.6l-0.3-5.3v-1.6l0.3-5.2v-1.6
		l0.2-5.2v-1.6l-0.1-5.2v-1.6l-0.2-3.2l0.1-1.5l0.1-0.6l0.3-1.3l0.6-0.8l1.2-0.3l0.8-0.1l1.5-0.1l4.4,0.2l11.6,0.4l6.6-0.4h1.6
		l6.4,0.4h3.7l1.7,0.1l1.5,0.3l2,0.6l1.5,0.5l1.5,0.6l1.6,0.6l1.5,0.7l1.3,0.8l1.8,1.3l1.1,0.9l1,1l1,1.2l1.4,1.9l0.9,1.3l1.2,1.8
		l0.7,1.4l0.7,1.5l0.5,1.6l0.3,1.6l0.1,1.6l0.2,2.1v1.6l-0.1,1.6l-0.2,1.7l-0.3,1.7l-0.4,1.6l-0.6,1.5l-0.7,1.5l-0.9,1.5l-0.9,1.3
		l-0.9,1.2l-0.9,1.1l-1.6,1.6l-1.1,0.9l-1.9,1.1l-1.2,0.7l-1.3,0.7l-1.3,0.3l-0.8,0.3l0.4,0.8l3.5,5l0.9,1.2l3.5,4.8l1,1.2l3.5,4.9
		l1,1.2l3,3.5l0.9,1.1l0.5,1.1L629.6,367.8z M602.3,330l1.3-0.5l1.2-0.7l1-1.2l0.7-1.5l0.4-1.6l0.1-1.6l-0.1-1.7l-0.2-1.7l-0.4-1.5
		l-0.7-1.5l-0.9-1.2l-1.1-0.9l-1.4-0.6l-2.1-0.5l-1.6-0.2l-4.9-0.1h-1.6l-5,0.3l-1.2,0.1l-0.7,0.3l-0.6,0.6l-0.1,1.1l0.1,2.2
		l0.2,1.6l0.2,1.7l0.1,1.7l-0.2,5.3l0.1,1.1l0.2,0.6l0.7,0.3l1.2,0.2l5.1,0.4h1.6l6.4-0.4L602.3,330z"/>
	<path class="st3" d="M711.6,332.3l-0.1,1.6l-0.2,2.2l-0.2,1.5l-0.6,2.9l-0.2,2.2l-0.2,1.5l-0.3,1.6l-0.4,1.5l-1,2l-0.7,1.4
		l-2.6,4.4l-0.9,1.3l-1,1.3l-1,1.1l-1.6,1.7l-1.1,1l-1.3,1l-1.2,0.9l-1.8,1.2l-1.3,0.8l-1.5,0.8l-1.4,0.6l-1.9,0.8l-1.5,0.4l-3.1,1
		l-1.7,0.5l-1.6,0.4l-1.7,0.4l-1.7,0.3l-1.7,0.1h-5.2l-3.3-0.2l-3.2-0.4l-1.4-0.3l-1.5-0.4l-5.2-1.8l-1.6-0.5l-1.7-0.7l-3.1-1.4
		l-1.5-0.8l-1.5-0.9l-1.3-1l-1.3-1.1l-1.2-1.3l-1.1-1.3l-2.6-2.6l-1-1.2l-1-1.3l-0.8-1.3l-0.8-1.9l-1.5-4.4l-0.6-2l-0.3-1.5
		l-0.3-1.6l-0.3-1.5l-0.3-2.1l-0.1-1.5l-0.1-1.7v-1.7l0.1-1.7l0.1-1.8l0.2-1.7l0.3-1.7l0.4-1.7l0.5-1.7l0.5-1.5l0.6-1.6l0.7-2.2
		l0.7-1.6l0.4-0.9l0.8-1.5l1.4-2.1l1-1.4l0.5-0.8l1.2-1.2l1.7-1.4l1.3-1l1.3-0.9l2.9-1.9l1.3-0.8l1.4-0.8l1.4-0.7l2-0.9l1.4-0.5
		l1.5-0.5l1.5-0.4l3.7-0.7l1.5-0.3l4.9-0.6l3.1-0.2l2.9,0.2l2.3,0.1l1.7,0.2l1.7,0.3l1.7,0.4l1.7,0.3l1.6,0.4l1.5,0.4l1.5,0.5l2,0.8
		l1.4,0.6l3.2,1.8l1.3,0.9l1.3,1l1.7,1.6l1.1,1l1.1,1.1l0.9,1.2l1.4,1.8l0.8,1.3l0.7,1.3l0.8,1.3l1.1,1.9l0.8,1.3l0.7,1.5l0.5,1.4
		l0.5,2.2l0.6,2.9l0.2,1.7l0.3,1.7L711.6,332.3z M691.2,334v-1.7l-0.1-1.7l-0.1-1.6l-0.6-2.9l-0.4-1.4l-1.1-2.1l-0.8-1.3l-1.4-1.8
		l-1-1.1l-1.5-1.6l-1.1-0.9l-2.5-1.5l-1.4-0.6l-1.6-0.5l-1.6-0.3l-3.1-0.2l-1.5,0.1l-2.1,0.1l-1.5,0.3l-2.5,0.7l-1.6,0.6l-2.2,1.2
		l-1.4,0.9l-1.6,1.4l-1.1,1.2l-1.1,1.5l-0.8,1.3l-0.3,0.6l-0.9,2l-0.5,1.5l-0.3,0.7l-0.3,1.4l-0.2,1.4l-0.1,1.4l-0.1,1.5v1.5
		l0.1,1.6l0.3,1.6l0.1,0.9l0.4,1.5l0.2,0.7l0.5,1.4l0.4,0.8l0.8,1.4l0.5,0.8l1.1,1.4l0.6,0.7l1.2,1.2l1.9,1.7l1.4,0.9l1.6,0.8
		l1.5,0.6l2,0.7l1.5,0.3l2.4,0.3l1.7,0.1l2.4-0.2l1.6-0.2l2.1-0.5l1.4-0.6l2.1-1.4l1.2-0.9l1.6-1.6l1-1.1l1.3-1.6l0.9-1.4l1-2.1
		l0.6-1.5l0.5-2.2l0.2-1.5L691.2,334z"/>
	<path class="st3" d="M784.4,359.3l-0.8,0.8l-1.8,1.6l-1.2,0.9l-1.8,1.4l-1.2,0.8l-1.9,1.1l-1.3,0.7l-2.2,1.1l-1.5,0.5l-1.7,0.5
		l-1.7,0.3l-2.4,0.5l-3.4,0.4l-1.8,0.1l-2.4,0.2h-5.1l-1.7-0.1l-1.7-0.2l-1.7-0.3l-1.7-0.4l-1.5-0.5l-4.4-1.2l-2.1-0.8l-1.3-0.6
		l-1.8-1.1l-1.2-0.9l-1.3-0.9l-1.4-0.9l-2.5-2.1l-1.2-1.2l-1.1-1.3l-1.1-1.5l-0.9-1.4l-0.8-1.4l-0.7-1.4l-1-2l-1.5-4.1l-0.7-1.9
		l-1-2.9l-0.2-1.5l-0.1-2.2l0.1-1.5l0.1-1.6v-1.7l0.2-3.3l0.1-1.6l0.3-1.5l0.4-2.1l0.4-1.5l0.5-1.5l0.5-1.4l0.7-1.9l0.7-1.4l0.7-1.5
		l0.8-1.5l0.9-1.5l0.9-1.4l1-1.3l1.1-1.4l1.2-1.3l1.2-1.1l1.3-1.1l1.2-1l3.1-2.1l1.3-0.8l1.4-0.8l2.9-1.4l1.7-0.6l1.6-0.5l3.3-0.8
		l1.7-0.3l1.7-0.2l3-0.2l2.1-0.2l1.5,0.1l2.1,0.1l3.6,0.5l1.4,0.3l2.2,0.4l3.4,1l1.4,0.6l2.1,1.3l1.4,0.8l2.5,1.8l3,2.1l1.1,0.8
		l0.6,0.5l0.7,0.7l0.2,0.8l-0.1,0.8l-0.6,0.8l-0.9,1.1l-1.1,1.1l-1.1,1l-1.1,0.9l-1.1,1.1l-1.7,1.9l-1.1,1.2L774,318l-0.9,0.8
		l-0.7,0.3l-0.7,0.1L771,319l-1.1-0.6l-1.8-1.4l-1.3-0.7l-2.1-1l-1.4-0.5l-2.1-0.6l-1.5-0.3l-2.4-0.2h-1.6l-2.1,0.2l-1.6,0.4
		l-2.1,0.7l-1.5,0.6l-1.3,0.5l-1.9,1l-1.4,1l-0.7,0.6l-1.2,1.3l-0.9,1.4l-0.7,1.3l-0.7,1.4l-0.6,1.5l-0.5,1.6l-0.3,1.7l-0.2,1.5
		l-0.2,2.9v1.6l0.1,2.4l0.1,1.5l0.5,2.2l0.5,1.5l0.7,1.7l0.8,1.5l1.5,2.1l1.1,1.2l1.8,1.6l1.3,0.9l1.9,1l1.5,0.6l2.1,0.6l1.6,0.3
		l2.3,0.1h2.2l1.4-0.3l0.8-0.2l1.5-0.5l2.4-0.9l1.6-0.7l1.5-0.7l1.3-0.7l1.8-1.2l1.3-1l1-0.7l0.6-0.2l0.9,0.2l1.1,0.7l1.1,1l0.4,0.6
		l1,1.1l1.6,1.9l1,1.2l2.6,3l0.9,1.2l0.5,0.5l0.5,0.9V359.3z"/>
	<path class="st3" d="M849.4,359l-0.1,1.6l-0.4,5.2l-0.1,1l-0.4,0.7l-0.5,0.4l-12.7,0.4h-1.6l-5.2-0.4l-1.6,0.1l-5.1,0.4l-1.6,0.1
		h-6.7l-5.1-0.4H807l-8.4,0.5l-3.3-0.2l-1.2-0.2l-0.7-0.5l-0.3-0.7l-0.2-1.1l-0.2-2.2l-0.1-1.6l0.1-1.5v-1.5l0.4-5.2v-1.6l0.1-5.2
		l-0.1-1.6l-0.3-5.2l-0.1-1.6l0.2-5.2v-8.3l0.4-5.2l-0.1-1.6l-0.3-5.2l-0.1-1.6v-2.3l0.2-2.9v-1.5l0.3-5.1l0.1-1.4l0.3-0.8l0.5-0.4
		l0.8-0.1l1.3-0.2l6.3,0.4l5.9-0.1h1.6l5.8,0.4h1.6l5.8-0.4h1.6l13.2,0.2l1.7-0.1l3.3-0.3h2.4l1.4,0.3l0.6,0.5l0.2,0.7l0.2,1.3v2.6
		l-0.2,2.4v1.7l0.1,2.4l0.1,1.5l-0.1,1.5l-0.2,1.2l-0.4,0.7l-0.5,0.4l-1.2,0.2h-0.8l-1.6,0.1l-9.1-0.2h-1.6l-5,0.2H826l-5.1-0.2
		l-4.4-0.3h-1.5l-0.8,0.1l-1,0.2l-0.5,0.5l-0.1,0.6l-0.2,1.1l-0.2,2.3v1.6l0.1,1.7l0.1,1.1l0.2,0.7l0.4,0.5l1.1,0.3l3.1,0.2l3.1-0.2
		h9.2l10.9-0.6l3,0.2l1.1,0.2l0.6,0.5l0.3,0.6l0.1,1.1l0.2,1.7l0.1,1.7v3.2l0.2,2.2l-0.2,2.9l-0.2,1.2l-0.4,0.7l-0.7,0.5l-1,0.2
		h-1.9l-4.4-0.5l-1.6-0.1l-7.8,0.5l-6.2-0.2h-1.6l-3.9-0.3l-1.7,0.1l-1.2,0.1l-0.5,0.3l-0.3,0.7l-0.1,1.5l-0.3,2.4l-0.1,1.6v2.1
		l0.1,1l0.3,0.7l0.4,0.4l1.1,0.1l5.3,0.2h1.6l5.3-0.4l6.9,0.4h1.6l6.9-0.4h1.5l1.5,0.1l3.5,0.4l0.6,0.3l0.4,0.6l0.1,1.1L849.4,359z
		 M836.1,275.1l-0.6,1l-3.8,5.1l-1,1.2l-4,4.9l-0.9,1l-1,0.5l-1.2,0.2l-0.8,0.1l-4.8-0.3H811l-0.9-0.1l-0.3-0.1l-0.1-0.3v-0.3
		l2.9-5.8l0.8-1.4l2.3-5.2l0.6-1l0.5-0.3h1.2l0.8-0.1h1.6l2.2,0.1h1.5l4.6-0.1h1.5l2.1-0.2l2.7,0.2l1,0.3L836.1,275.1z"/>
	<path class="st3" d="M927.8,334.9l-0.1,1.7l-0.1,2.3l-0.3,1.6l-0.7,2.2l-0.5,1.6l-0.6,1.5l-0.6,1.6l-0.6,1.7l-0.6,1.5l-1.1,2.1
		l-0.8,1.3l-1.4,1.6l-1,1.1L918,358l-2.1,2.1l-1.3,1.1l-1.8,1.5l-1.3,0.8l-1.9,1.1l-1.3,0.6l-2.1,0.8l-1.5,0.5l-1.6,0.4l-1.6,0.3
		l-5.9,0.9l-1.5,0.1l-2.1,0.2h-1.6l-3.1-0.1l-2.5-0.2h-1.6l-3.1,0.2l-2.4,0.1l-1.7,0.1l-1.5-0.1h-6.8l-1.5-0.1l-4.2-0.4l-0.8-0.4
		l-0.5-0.5l-0.2-1.1l-0.1-1.6l0.1-0.8l0.2-2.9v-1.4l0.1-2.2v-1.5l0.1-1.6v-1.6l-0.1-5.2v-1.6l-0.2-5.2l0.1-1.5l0.1-2.1l0.2-1.5
		l0.1-1.7v-1.6l-0.2-2.5l-0.1-1.7v-0.9l-0.1-1.7l0.4-5.2v-1.6l-0.1-5.2v-1.6l-0.3-5.2v-3.8l0.1-1.6l0.3-1.5l0.2-1.1l0.4-0.6l1.1-0.3
		l1.7-0.2l1.5-0.2l1.6-0.1l8.6,0.1h1.6l4.7,0.3l0.8,0.1h1.7l4.1-0.2l1.5-0.1h1.6l2.4,0.2l3.1,0.2l1.6,0.2l2.5,0.4l1.6,0.3l1.5,0.4
		l3.5,1.3l1.5,0.7l1.5,0.8l1.4,0.8l3.2,2.2l1.3,1.1l1.2,1l2.1,2l1,1l0.9,1.1l0.7,1.3l1.1,2.1l0.6,1.5l0.5,1.6l0.6,1.6l0.5,1.6
		l0.4,1.6l0.4,2.1l0.3,1.6l0.3,1.7l0.2,1.6l0.1,2.3l0.1,1.6L927.8,334.9z M905.7,343.3l0.7-1.5l0.6-1.7l0.4-1.5l0.4-2.1l0.1-1.4
		l0.1-2.2v-3.1l-0.1-1.6l-0.3-2.2l-0.4-1.5l-0.2-0.6l-0.8-1.5l-1.5-2l-0.5-0.5l-1-1.1l-1.1-1.1L901,317l-2.1-1.3l-1.4-0.6l-1.4-0.3
		l-1.6-0.3l-2.4-0.1l-1.7-0.1h-2.4l-2.1-0.1l-1.5,0.1l-2.1,0.3l-1.1,0.3l-0.5,0.5l-0.3,1.2l-0.1,0.9l-0.1,1.5l0.2,2.9l0.1,1.6
		l0.2,2.1l0.2,1.6l0.1,1.6v1.6l-0.1,2.1v4.7l-0.1,1.7l-0.1,1.6l-0.2,2.1v1.4l-0.1,2.2l0.1,1.5l0.3,2.3l0.4,1.1l0.6,0.5l1.2,0.1
		l9-0.6l2.2-0.1l1.6-0.3l1.7-0.5l1.6-0.6l1.5-0.7l1.3-0.9l1.8-1.6l1-1.2L905.7,343.3z"/>
	<path class="st3" d="M993.9,359l-0.1,1.6l-0.4,5.2l-0.1,1l-0.4,0.7l-0.5,0.4l-12.7,0.4h-1.6l-5.2-0.4l-1.6,0.1l-5.1,0.4l-1.6,0.1
		h-6.7l-5.1-0.4h-1.6l-8.4,0.5l-3.3-0.2l-1.2-0.2l-0.7-0.5l-0.3-0.7l-0.2-1.1l-0.2-2.2l-0.1-1.6l0.1-1.5v-1.5l0.4-5.2v-1.6l0.1-5.2
		l-0.1-1.6l-0.3-5.2l-0.1-1.6l0.2-5.2v-8.3l0.4-5.2l-0.1-1.6l-0.3-5.2l-0.1-1.6v-2.3l0.2-2.9v-1.5l0.3-5.1l0.1-1.4l0.3-0.8l0.5-0.4
		l0.8-0.1l1.3-0.2l6.3,0.4l5.9-0.1h1.6l5.8,0.4h1.6l5.8-0.4h1.6l13.2,0.2l1.7-0.1l3.3-0.3h2.4l1.4,0.3l0.6,0.5l0.2,0.7l0.2,1.3v2.6
		l-0.2,2.4v1.7l0.1,2.4l0.1,1.5l-0.1,1.5l-0.2,1.2l-0.4,0.7l-0.5,0.4l-1.2,0.2h-0.8l-1.6,0.1l-9.1-0.2H977l-5,0.2h-1.6l-5.1-0.2
		l-4.4-0.3h-1.5l-0.8,0.1l-1,0.2l-0.5,0.5l-0.1,0.6l-0.2,1.1l-0.2,2.3v1.6l0.1,1.7l0.1,1.1l0.2,0.7l0.4,0.5l1.1,0.3l3.1,0.2l3.1-0.2
		h9.2l10.9-0.6l3,0.2l1.1,0.2l0.6,0.5l0.3,0.6l0.1,1.1l0.2,1.7l0.1,1.7v3.2l0.2,2.2l-0.2,2.9l-0.2,1.2l-0.4,0.7l-0.7,0.5l-1,0.2
		h-1.9l-4.4-0.5l-1.6-0.1l-7.8,0.5l-6.2-0.2h-1.6l-3.9-0.3l-1.7,0.1l-1.2,0.1l-0.5,0.3l-0.3,0.7l-0.1,1.5l-0.3,2.4l-0.1,1.6v2.1
		l0.1,1l0.3,0.7l0.4,0.4l1.1,0.1l5.3,0.2h1.6l5.3-0.4l6.9,0.4h1.6l6.9-0.4h1.5l1.5,0.1l3.5,0.4l0.6,0.3l0.4,0.6l0.1,1.1L993.9,359z
		 M980.6,275.1l-0.6,1l-3.8,5.1l-1,1.2l-4,4.9l-0.9,1l-1,0.5l-1.2,0.2l-0.8,0.1l-4.8-0.3h-7.2l-0.9-0.1l-0.3-0.1l-0.1-0.3v-0.3
		l2.9-5.8l0.8-1.4l2.3-5.2l0.6-1l0.5-0.3h1.2l0.8-0.1h1.6l2.2,0.1h1.5l4.6-0.1h1.5l2.1-0.2l2.7,0.2l1,0.3L980.6,275.1z"/>
	<path class="st3" d="M1063.1,346.4l-0.1,1.7l-0.2,1.7l-0.3,1.6l-0.5,2.1l-0.5,1.4l-0.9,1.9l-0.7,1.3l-1.2,1.8l-1,1.2l-1.2,1.2
		l-1.2,1.1l-1.9,1.3l-1.3,0.9l-1.5,0.8l-1.4,0.7l-2.2,0.8l-2.9,1l-1.6,0.3l-2.4,0.4l-1.5,0.2l-2.1,0.2l-1.4,0.1l-2.2,0.1l-4.7,0.3
		h-2.1l-1.4-0.1l-2.2-0.2l-1.5-0.2l-1.7-0.3l-1.5-0.5l-2.1-0.7l-1.4-0.7l-1.5-0.7l-1.4-0.7l-1.3-0.8l-3.1-2.1l-1.2-1l-1.7-1.4
		l-1.2-1l-1.1-1.1l-0.8-0.9l-0.1-0.7l0.5-0.9l0.4-0.5l1-1.1l2.7-2.5l0.9-1.1l1.7-2.5l0.9-1.1l1-1.1l1.1-0.6l1.1,0.2l1.1,0.8l3.1,2.1
		l1.5,0.8l1.4,0.7l2.2,1.1l1.5,0.5l1.6,0.5l1.6,0.3l2.2,0.1l1.6,0.1l6.1-0.4l1.6-0.2l0.8-0.2l1.5-0.6l1.3-0.8l1-1l0.5-0.7l0.6-1.5
		l-0.1-1.7l-0.2-0.8l-0.8-1.4l-0.5-0.6l-1.3-1l-0.8-0.3l-1.5-0.6l-1.7-0.4l-1.7-0.3l-9.2-0.9l-2.9-0.6l-1.6-0.4l-2.1-0.8l-1.5-0.5
		l-1.5-0.7l-3.3-1.7l-1.3-0.9l-1.5-0.9l-1.3-0.9l-1.7-1.4l-0.9-1.3l-0.9-1.5l-0.6-1.5l-0.7-2l-0.3-1.5l-0.3-2.1l-0.2-3.1l0.1-1.6
		l0.2-2.3l0.3-1.5l0.4-1.3l0.5-1.5l1-2.1l0.7-1.4l0.8-1.2l1-1.1l1.6-1.5l1.3-1l1.3-0.9l1.4-0.7l1.8-1.1l2.9-1.2l1.5-0.5l2.2-0.4
		l1.6-0.3l2.9-0.4l2.1-0.4l1.6-0.2l1.5-0.1h1.6l2.9,0.3l1.5,0.2l0.7,0.2l1.6,0.2l3.3,0.6l1.7,0.4l1.6,0.5l1.7,0.5l1.6,0.6l1.5,0.7
		l1.5,0.6l1.8,1.1l1.4,0.7l1.3,0.9l0.9,0.9v1l-0.6,1.1l-1.1,1.9l-0.8,1.2l-3.7,4.9l-1.1,1.4l-1.2,1l-0.8,0.3l-0.7-0.1l-1-0.5
		l-1.5-0.9l-1.5-0.6l-0.7-0.3l-1.5-0.5l-0.8-0.2l-1.7-0.4l-2.2-0.5l-1.6-0.1l-2.5-0.2h-2.5l-1.7,0.1l-1.7,0.3l-1.6,0.5l-0.6,0.3
		l-1.2,0.9l-0.5,0.6l-0.7,1.4l-0.2,1.6l0.3,1.3l0.8,1.3l1.1,1l1.2,0.6l0.7,0.3l1.5,0.3l2.4,0.3l3.3,0.2l1.7,0.3l3.3,0.8l3.1,1
		l2.2,0.5l1.5,0.4l2.7,1l1.9,0.9l1.4,0.7l1.4,0.8l1.3,0.8l2.8,2.3l1.1,1.2l1,1.2l1.2,1.8l0.8,1.3l0.7,1.5l0.4,1.5l0.4,2.1l0.2,1.5
		L1063.1,346.4z"/>
</g>
<g>
	<path class="st5" d="M559.6,451.6l-0.1,1.7l-0.1,2.3l-0.3,1.6l-0.7,2.2l-0.5,1.6l-0.6,1.5l-0.6,1.6l-0.6,1.7l-0.6,1.5l-1.1,2.1
		l-0.8,1.3l-1.4,1.6l-1,1.1l-1.7,1.6l-2.1,2.1l-1.3,1.1l-1.8,1.5l-1.3,0.8l-1.9,1.1l-1.3,0.6l-2.1,0.8l-1.5,0.5l-1.6,0.4l-1.6,0.3
		l-5.9,0.9l-1.5,0.1l-2.1,0.2h-1.6l-3.1-0.1l-2.5-0.2h-1.6l-3.1,0.2l-2.4,0.1l-1.7,0.1l-1.5-0.1h-6.8l-1.5-0.1l-4.2-0.4l-0.8-0.4
		l-0.5-0.5l-0.2-1.1l-0.1-1.6l0.1-0.8l0.2-2.9v-1.4l0.1-2.2v-1.5l0.1-1.6V469l-0.1-5.2v-1.6l-0.2-5.2l0.1-1.5l0.1-2.1l0.2-1.5
		l0.1-1.7v-1.6l-0.2-2.5l-0.1-1.7v-0.9l-0.1-1.7l0.4-5.2v-1.6l-0.1-5.2v-1.6l-0.3-5.2v-3.8l0.1-1.6l0.3-1.5l0.2-1.1l0.4-0.6l1.1-0.3
		l1.7-0.2l1.5-0.2l1.6-0.1l8.6,0.1h1.6l4.7,0.3l0.8,0.1h1.7l4.1-0.2l1.5-0.1h1.6l2.4,0.2l3.1,0.2l1.6,0.2l2.5,0.4l1.6,0.3l1.5,0.4
		l3.5,1.3l1.5,0.7l1.5,0.8l1.4,0.8l3.2,2.2l1.3,1.1l1.2,1l2.1,2l1,1l0.9,1.1l0.7,1.3l1.1,2.1l0.6,1.5l0.5,1.6l0.6,1.6l0.5,1.6
		l0.4,1.6l0.4,2.1l0.3,1.6l0.3,1.7l0.2,1.6l0.1,2.3l0.1,1.6L559.6,451.6z M537.4,460l0.7-1.5l0.6-1.7l0.4-1.5l0.4-2.1l0.1-1.4
		l0.1-2.2v-3.1l-0.1-1.6l-0.3-2.2l-0.4-1.5l-0.2-0.6l-0.8-1.5l-1.5-2l-0.5-0.5l-1-1.1l-1.1-1.1l-1.2-0.9l-2.1-1.3l-1.4-0.6l-1.4-0.3
		l-1.6-0.3l-2.4-0.1l-1.7-0.1h-2.4l-2.1-0.1l-1.5,0.1l-2.1,0.3l-1.1,0.3l-0.5,0.5l-0.3,1.2l-0.1,0.9l-0.1,1.5l0.2,2.9l0.1,1.6
		l0.2,2.1l0.2,1.6l0.1,1.6v1.6l-0.1,2.1v4.7l-0.1,1.7l-0.1,1.6l-0.2,2.1v1.4l-0.1,2.2l0.1,1.5l0.3,2.3l0.4,1.1l0.6,0.5l1.2,0.1
		l9-0.6l2.2-0.1l1.6-0.3l1.7-0.5l1.6-0.6l1.5-0.7l1.3-0.9l1.8-1.6l1-1.2L537.4,460z"/>
	<path class="st5" d="M625.7,475.7l-0.1,1.6l-0.4,5.3l-0.1,1l-0.4,0.7l-0.5,0.4l-12.7,0.4H610l-5.2-0.4l-1.6,0.1l-5.1,0.4l-1.6,0.1
		h-6.7l-5.1-0.4h-1.6l-8.4,0.5l-3.3-0.2l-1.2-0.2l-0.7-0.5l-0.3-0.7l-0.2-1.1l-0.2-2.2l-0.1-1.6l0.1-1.5v-1.5l0.4-5.2v-1.6l0.1-5.2
		l-0.1-1.6l-0.3-5.2l-0.1-1.6l0.2-5.2v-8.3l0.4-5.2l-0.1-1.6l-0.3-5.2l-0.1-1.6v-2.3l0.2-2.9v-1.5l0.3-5.1l0.1-1.4l0.3-0.8l0.5-0.4
		l0.8-0.1l1.3-0.2l6.3,0.4l5.9-0.1h1.6l5.8,0.4h1.6l5.8-0.4h1.6l13.2,0.2l1.7-0.1l3.3-0.3h2.4l1.4,0.3l0.6,0.5l0.2,0.7l0.2,1.3v2.6
		l-0.2,2.4v1.7l0.1,2.4l0.1,1.5l-0.1,1.5l-0.2,1.2l-0.4,0.7l-0.5,0.4l-1.2,0.2H621l-1.6,0.1l-9.1-0.2h-1.6l-5,0.2h-1.6l-5.1-0.2
		l-4.4-0.3h-1.5l-0.8,0.1l-1,0.2l-0.5,0.5l-0.1,0.6l-0.2,1.1l-0.2,2.3v1.6l0.1,1.7l0.1,1.1l0.2,0.7l0.4,0.5l1.1,0.3l3.1,0.2l3.1-0.2
		h9.2l10.9-0.6l3,0.2l1.1,0.2l0.6,0.5l0.3,0.6l0.1,1.1l0.2,1.7l0.1,1.7v3.2l0.2,2.2l-0.2,2.9l-0.2,1.2l-0.4,0.7l-0.7,0.5l-1,0.2H618
		l-4.4-0.5l-1.6-0.1l-7.8,0.5l-6.2-0.2h-1.6l-3.9-0.3l-1.7,0.1l-1.2,0.1l-0.5,0.3l-0.3,0.7l-0.1,1.5l-0.3,2.4l-0.1,1.6v2.1l0.1,1
		l0.3,0.7l0.4,0.4l1.1,0.1l5.3,0.2h1.6l5.3-0.4l6.9,0.4h1.6l6.9-0.4h1.5l1.5,0.1l3.5,0.4l0.6,0.3l0.4,0.6l0.1,1.1L625.7,475.7z"/>
</g>
<g class="st11">
	<image style="overflow:visible;" width="588" height="147" xlink:href="764C11AE.png"  transform="matrix(1 0 0 1 637 376)">
	</image>
</g>
<g>
	<path class="st3" d="M734.7,463.1l-0.1,1.7l-0.2,1.7l-0.3,1.6l-0.5,2.1l-0.5,1.4l-0.9,1.9l-0.7,1.3l-1.2,1.7l-1,1.2l-1.2,1.2
		l-1.2,1.1l-1.9,1.3l-1.3,0.9l-1.5,0.8l-1.4,0.7l-2.2,0.8l-2.9,1l-1.6,0.3l-2.4,0.4l-1.5,0.2l-2.1,0.2l-1.4,0.1l-2.2,0.1l-4.7,0.3
		h-2.1l-1.4-0.1l-2.2-0.2l-1.5-0.2l-1.7-0.3l-1.5-0.5l-2.1-0.7l-1.4-0.7l-1.5-0.7l-1.4-0.7l-1.3-0.8l-3.1-2.1l-1.2-1l-1.8-1.4
		l-1.2-1l-1.1-1.1l-0.8-0.9l-0.1-0.7l0.5-0.9l0.4-0.5l1-1.1l2.7-2.5l0.9-1.1l1.7-2.5l0.9-1.1l1-1.1l1.1-0.6l1.1,0.2l1.1,0.8l3.1,2.1
		l1.5,0.8l1.4,0.7l2.2,1.1l1.5,0.5l1.6,0.5l1.6,0.3l2.2,0.1l1.6,0.1l6.1-0.4l1.6-0.2l0.8-0.2l1.5-0.6l1.3-0.8l1-1l0.5-0.7l0.6-1.5
		l-0.1-1.7l-0.2-0.8l-0.8-1.4l-0.5-0.6l-1.3-1l-0.8-0.3l-1.5-0.6l-1.7-0.4l-1.7-0.3l-9.2-0.9l-2.9-0.6l-1.6-0.4l-2.1-0.8l-1.5-0.5
		l-1.5-0.7l-3.3-1.7l-1.3-0.9l-1.5-0.9l-1.3-0.9l-1.7-1.4l-0.9-1.3l-0.9-1.5l-0.6-1.5l-0.7-2l-0.3-1.5l-0.3-2.1l-0.2-3.1l0.1-1.6
		l0.2-2.3l0.3-1.5l0.4-1.3l0.5-1.5l1-2.1l0.7-1.4l0.8-1.2l1-1.1l1.6-1.5l1.3-1l1.3-0.9l1.4-0.7l1.8-1.1l2.9-1.2l1.5-0.5l2.2-0.4
		l1.6-0.3l2.9-0.4l2.1-0.4l1.6-0.2l1.5-0.1h1.6l2.9,0.3l1.5,0.2l0.7,0.2l1.6,0.2l3.3,0.6l1.7,0.4l1.6,0.5l1.7,0.5l1.6,0.6l1.5,0.7
		l1.5,0.6l1.8,1.1l1.4,0.7l1.3,0.9l0.9,0.9v1l-0.6,1.1l-1.1,1.9l-0.8,1.2l-3.7,4.9l-1.1,1.4l-1.2,1l-0.8,0.3l-0.7-0.1l-1-0.5
		l-1.5-0.9l-1.5-0.6l-0.7-0.3l-1.5-0.5l-0.8-0.2l-1.7-0.4l-2.2-0.5l-1.6-0.1l-2.5-0.2h-2.5l-1.7,0.1l-1.7,0.3l-1.6,0.5l-0.6,0.3
		l-1.2,0.9l-0.5,0.6l-0.7,1.4l-0.2,1.6l0.3,1.3l0.8,1.3l1.1,1l1.2,0.6l0.7,0.3l1.5,0.3l2.4,0.3l3.3,0.2l1.7,0.3l3.3,0.8l3.1,1
		l2.2,0.5l1.5,0.4l2.7,1l1.9,0.9l1.4,0.7l1.4,0.8l1.3,0.8l2.8,2.3l1.1,1.2l1,1.2l1.2,1.7l0.8,1.3l0.7,1.5l0.4,1.5l0.4,2.1l0.2,1.5
		L734.7,463.1z"/>
	<path class="st3" d="M816.3,449l-0.1,1.6l-0.2,2.2l-0.2,1.5l-0.6,2.9l-0.2,2.2l-0.2,1.5l-0.3,1.6l-0.4,1.5l-1,2l-0.7,1.4l-2.6,4.4
		l-0.9,1.3l-1,1.3l-1,1.1l-1.6,1.7l-1.1,1l-1.3,1l-1.2,0.9l-1.8,1.2l-1.3,0.8l-1.5,0.8l-1.4,0.6l-1.9,0.8l-1.5,0.4l-3.1,1l-1.7,0.5
		l-1.6,0.4l-1.7,0.4l-1.7,0.3l-1.7,0.1h-5.2l-3.3-0.2l-3.2-0.4l-1.4-0.3l-1.5-0.4l-5.2-1.8l-1.6-0.5l-1.7-0.7l-3.1-1.4l-1.5-0.8
		l-1.5-0.9l-1.3-1l-1.3-1.1l-1.2-1.3l-1.1-1.3l-2.6-2.6l-1-1.2l-1-1.3l-0.8-1.3l-0.8-1.9l-1.5-4.4l-0.6-2l-0.3-1.5l-0.3-1.6
		l-0.3-1.5l-0.3-2.1l-0.1-1.5l-0.1-1.7V449l0.1-1.7l0.1-1.8l0.2-1.7l0.3-1.7l0.4-1.7l0.5-1.7l0.5-1.5l0.6-1.6l0.7-2.2l0.7-1.6
		l0.4-0.9l0.8-1.5l1.4-2.1l1-1.4l0.5-0.8l1.2-1.2l1.7-1.4l1.3-1l1.3-0.9l2.9-1.9l1.3-0.8l1.4-0.8l1.4-0.7l2-0.9l1.4-0.5l1.5-0.5
		l1.5-0.4l3.7-0.7l1.5-0.3l4.9-0.6l3.1-0.2l2.9,0.2l2.3,0.1l1.7,0.2l1.7,0.3l1.7,0.4l1.7,0.3l1.6,0.4l1.5,0.4l1.5,0.5l2,0.8l1.4,0.6
		l3.2,1.8l1.3,0.9l1.3,1l1.7,1.6l1.1,1l1.1,1.1l0.9,1.2l1.4,1.8l0.8,1.3l0.7,1.3l0.8,1.3l1.1,1.9l0.8,1.3l0.7,1.5l0.5,1.4l0.5,2.2
		l0.6,2.9l0.2,1.7l0.3,1.7L816.3,449z M795.9,450.6V449l-0.1-1.7l-0.1-1.6l-0.6-2.9l-0.4-1.4l-1.1-2.1l-0.8-1.3l-1.4-1.8l-1-1.1
		l-1.5-1.6l-1.1-0.9l-2.5-1.5l-1.4-0.6l-1.6-0.5L781,430l-3.1-0.2l-1.5,0.1l-2.1,0.1l-1.5,0.3l-2.5,0.7l-1.6,0.6l-2.2,1.2l-1.4,0.9
		l-1.6,1.4l-1.1,1.2l-1.1,1.5l-0.8,1.3l-0.3,0.6l-0.9,2l-0.5,1.5l-0.3,0.7l-0.3,1.4l-0.2,1.4l-0.1,1.4l-0.1,1.5v1.5l0.1,1.6l0.3,1.6
		l0.1,0.9l0.4,1.5l0.2,0.7l0.5,1.4l0.4,0.8l0.8,1.4l0.5,0.8l1.1,1.4l0.6,0.7l1.2,1.2l1.9,1.7l1.4,0.9l1.6,0.8l1.5,0.6l2,0.7l1.5,0.3
		l2.4,0.3l1.7,0.1l2.4-0.2l1.6-0.2l2.1-0.5l1.4-0.6l2.1-1.4l1.2-0.9l1.6-1.6l1-1.1l1.3-1.6l0.9-1.4l1-2.1l0.6-1.5l0.5-2.2l0.2-1.5
		L795.9,450.6z"/>
	<path class="st3" d="M891.4,450.6l0.2,3.1l-0.1,1.5l-0.1,2.2l-0.2,1.5l-0.4,2.3l-0.3,1.6l-0.4,2.2l-0.4,1.5l-0.8,2l-0.5,1.4l-0.9,2
		l-0.7,1.4l-1.3,1.9l-1,1.3l-1.2,1.3l-1.3,1.1l-1.9,1.6l-1.3,0.9l-1.9,1.2l-1.3,0.7l-2,1l-1.5,0.5l-2.1,0.8l-1.5,0.4l-2.2,0.4
		l-1.5,0.3l-3,0.2h-4.5l-2.2-0.2l-1.5-0.1l-5.3-0.6l-1.6-0.3l-0.9-0.1l-1.6-0.5l-0.8-0.3l-1.6-0.7l-2.1-1l-1.5-0.9l-1.5-1l-2.5-2.1
		l-1.1-1.1l-1.3-1.7l-0.9-1.2l-1.6-2.5l-0.9-1.4l-0.8-1.5l-0.7-1.6l-0.6-1.5l-0.4-1.4l-0.4-1.5l-0.4-2.1l-0.3-1.7l-0.2-1.7l-0.2-3.3
		l-0.1-1.6l0.3-5.9v-1.6l-0.2-5.9v-1.6l0.3-5.9v-9l-0.2-3.1v-1.7l0.1-1.7l0.3-1.6l0.7-0.9l1.3-0.3l3.2-0.2l3.7,0.3h1.6l3.2-0.1
		l1.5,0.1l2.2,0.1l1.3,0.3l0.8,0.8l0.3,1.3l0.1,1.4v1.5l-0.2,3.8v1.6l0.3,5.9v1.6l-0.1,5.9v1.6l-0.3,5.9v1.6l-0.1,5.9l0.1,1.6
		l0.2,2.4l0.3,1.6l0.6,2.1l0.6,1.5l1,2.2l1,1.2l1.6,1.7l1.3,0.8l2.1,0.8l1.5,0.4l2.5,0.2h1.6l2.5-0.5l1.5-0.4l1.8-0.9l1.3-0.8
		l1.6-1.4l1-1.2l1.1-2l0.7-1.5l0.5-1.6l0.3-1.6l0.4-2.9l0.1-1.6l-0.4-5.9v-1.6l0.3-6v-1.6l0.2-5.9v-1.6l-0.2-6l-0.1-1.6l-0.3-4.1
		v-2.4l0.4-1.4l0.9-0.8l1.3-0.3h2l5,0.4h1.6l3.9-0.3h1.6l1.5,0.1l1.3,0.3l0.8,0.7l0.1,1.2l0.1,2.9v1.5l-0.1,2.2v1.6l0.3,6v1.6
		l-0.2,5.9v1.6l-0.4,6L891.4,450.6z"/>
	<path class="st3" d="M971.3,451.6l-0.1,1.7l-0.1,2.3l-0.3,1.6l-0.7,2.2l-0.5,1.6l-0.6,1.5l-0.6,1.6l-0.6,1.7l-0.6,1.5l-1.1,2.1
		l-0.8,1.3l-1.4,1.6l-1,1.1l-1.7,1.6l-2.1,2.1l-1.3,1.1l-1.8,1.5l-1.3,0.8l-1.9,1.1l-1.3,0.6l-2.1,0.8l-1.5,0.5l-1.6,0.4l-1.6,0.3
		l-5.9,0.9l-1.5,0.1l-2.1,0.2H934l-3.1-0.1l-2.5-0.2h-1.6l-3.1,0.2l-2.4,0.1l-1.7,0.1l-1.5-0.1h-6.8l-1.5-0.1l-4.2-0.4l-0.8-0.4
		l-0.5-0.5l-0.2-1.1l-0.1-1.6l0.1-0.8l0.2-2.9v-1.4l0.1-2.2v-1.5l0.1-1.6V469l-0.1-5.2v-1.6l-0.2-5.2l0.1-1.5l0.1-2.1l0.2-1.5
		l0.1-1.7v-1.6l-0.2-2.5l-0.1-1.7v-0.9l-0.1-1.7l0.4-5.2v-1.6l-0.1-5.2v-1.6l-0.3-5.2v-3.8l0.1-1.6l0.3-1.5l0.2-1.1l0.4-0.6l1.1-0.3
		l1.7-0.2l1.5-0.2l1.6-0.1l8.6,0.1h1.6l4.7,0.3l0.8,0.1h1.8l4.1-0.2l1.5-0.1h1.6l2.4,0.2l3.1,0.2l1.6,0.2l2.5,0.4l1.6,0.3l1.5,0.4
		l3.5,1.3l1.5,0.7l1.5,0.8l1.4,0.8l3.2,2.2l1.3,1.1l1.2,1l2.1,2l1,1l0.9,1.1l0.7,1.3l1.1,2.1l0.6,1.5l0.5,1.6l0.6,1.6l0.5,1.6
		l0.4,1.6l0.4,2.1l0.3,1.6l0.3,1.7l0.2,1.6l0.1,2.3l0.1,1.6L971.3,451.6z M949.1,460l0.7-1.5l0.6-1.7l0.4-1.5l0.4-2.1l0.1-1.4
		l0.1-2.2v-3.1l-0.1-1.6l-0.3-2.2l-0.4-1.5l-0.2-0.6l-0.8-1.5l-1.5-2l-0.5-0.5l-1-1.1l-1.1-1.1l-1.2-0.9l-2.1-1.3l-1.4-0.6l-1.4-0.3
		l-1.6-0.3l-2.4-0.1l-1.7-0.1h-2.4l-2.1-0.1l-1.5,0.1l-2.1,0.3l-1.1,0.3l-0.5,0.5l-0.3,1.2l-0.1,0.9l-0.1,1.5l0.2,2.9l0.1,1.6
		l0.2,2.1l0.2,1.6l0.1,1.6v1.6l-0.1,2.1v4.7l-0.1,1.7l-0.1,1.6l-0.2,2.1v1.4l-0.1,2.2l0.1,1.5l0.3,2.3l0.4,1.1l0.6,0.5l1.2,0.1
		l9-0.6l2.2-0.1l1.6-0.3l1.7-0.5l1.6-0.6l1.5-0.7l1.3-0.9l1.8-1.6l1-1.2L949.1,460z"/>
	<path class="st3" d="M1052.3,482l0.3,1.4l-0.7,1.1l-1.1,0.5l-1.3,0.2h-1.4l-2.2-0.2l-1.5-0.1h-4.4l-6,0.4l-1.3-0.5l-0.6-0.7
		l-0.5-1.1l-3-8.2l-0.7-1l-0.9-0.2l-1.2-0.1l-5.8-0.4h-1.6l-7.3-0.2l-5.8-0.1h-1.5l-1.5,0.1h-4.5l-1.3,0.2l-0.8,0.5l-0.6,1.2
		l-2.2,6.6l-0.6,1.6l-1.1,1.3l-1.5,0.5h-1.6l-5.6-0.3h-1.6l-6,0.4l-1.3,0.1l-1.2-0.6l-0.8-1.1l0.1-1.3l0.2-0.8l0.6-1.6l1.4-3
		l0.6-1.5l2.4-5.4l0.6-1.4l2.5-5.4l0.6-1.5l2.2-5.3l0.6-1.5l2.6-5.4l0.6-1.4l3.5-8l2.7-5.8l0.7-1.6l2.1-4.4l0.7-1.6l1.8-4.5l0.6-1.5
		l1.8-4l0.5-1.1l1-0.6l1.5-0.3l4.5-0.2h7.6l4.5,0.1l1.7,0.3l1.1,0.8l0.5,1.3l1.4,3.8l0.6,1.5l2.4,4.6l0.6,1.4l2.1,4.8l0.6,1.4l1.8,5
		l0.6,1.4l2.1,4.7l0.6,1.4l2.1,4.8l0.6,1.4l1.9,4.9l0.6,1.4l3,6l2.3,4.6l0.7,1.4l2.6,6.1L1052.3,482z M1019.8,454.6l-0.4-1.3
		l-2.1-6.6l-0.5-1.5l-1.9-5.7l-0.5-1.3l-1-0.7l-1.3-0.3l-1.1,0.3l-1,1l-2.6,6.6l-0.6,1.5l-2.5,6.5l-0.3,1.5l0.3,1.2l1.1,0.5l1.4,0.2
		h6.1l4.6,0.3l1.3-0.4l0.8-0.8L1019.8,454.6z"/>
	<path class="st3" d="M1120.3,445l0.1,1.7l-0.4,6.3v9.1l-0.2,4.1v5.7l-0.1,1.1l-0.6,1l-0.8,1.3l-0.9,1.3l-1.7,1.7l-1.2,1.1l-0.6,0.6
		l-1.3,0.9l-0.7,0.4l-1.3,0.8l-1.9,1l-1.5,0.6l-1.4,0.5l-2.2,0.7l-1.5,0.4l-1.6,0.3l-1.5,0.3l-2.2,0.3l-1.4,0.2l-1.5,0.3l-3.9,0.5
		l-1.5,0.1l-3-0.2l-2.2-0.2l-1.6-0.2l-1.6-0.3l-1.5-0.4l-3.4-1l-1.5-0.4l-1.5-0.5l-1.9-0.7l-1.3-0.7l-1.9-1.1l-1.2-0.9l-1.3-0.9
		l-1.2-1l-1.2-0.9l-1.1-1l-1.6-1.6l-1-1.2l-1.1-1.5l-0.9-1.4l-2.4-4.4l-0.7-1.6l-0.7-1.5l-0.5-1.6l-0.5-1.7l-0.3-1.6l-0.3-1.7
		l-0.2-1.6l-0.4-2.1l-0.2-1.6l-0.1-1.5v-1.5l0.3-4.4l0.2-0.8l0.3-1.7l0.4-1.7l0.5-1.6l0.5-1.7l0.5-1.6l0.5-1.5l0.7-1.6l0.7-1.7
		l0.7-1.4l1.3-1.8l0.9-1.2l1.1-1.3l1.1-1.2l1.2-1.1l2.5-2.1l1.3-1l1.2-0.9l1.2-0.8l3.2-1.8l1.5-0.9l1.7-0.7l1.7-0.5l1.6-0.4l3.6-0.6
		l2.8-0.4l1.5-0.3l1.5-0.2l2.2-0.2l1.6-0.1l2.1,0.2l1.5,0.1l2.2,0.3l1.4,0.3l2.1,0.4l1.5,0.4l2.1,0.7l1.5,0.5l3.5,1.8l1.5,0.9
		l1.3,0.9l0.5,0.3l1.1,0.7l1.1,0.8l0.5,0.5l1.1,0.8l0.6,0.5l0.6,0.7v0.7l-0.3,0.7l-0.6,0.9l-0.9,1.3l-1,1.1l-2.7,2.7l-1.8,1.6
		l-1.2,1l-1.1,0.8l-0.8,0.6l-0.6,0.4l-0.8,0.1l-1.1-0.7l-1.3-0.9l-1.3-0.8l-1.4-0.8l-1.6-0.7l-1.6-0.6l-1.7-0.4l-1.7-0.3l-4.6-0.3
		h-0.7l-1.6,0.1l-2.5,0.2l-1.6,0.4l-2.9,1.4l-1.3,0.9l-1.3,1l-1.1,1.1l-1,1.3l-0.9,1.3l-0.8,1.4l-0.6,1.5l-0.5,1.6l-0.4,1.5
		l-0.6,2.9l-0.3,1.6l-0.1,1.7v1.7l0.2,2.3l0.3,1.6l0.5,2.2l0.5,1.6l1,2.3l0.7,1.4l1.2,1.8l1,1.2l1.8,1.7l1.3,1l1.9,1.1l1.5,0.6
		l2.9,0.7l1.7,0.2l1.7,0.1h1.6l1.6-0.2l1.5-0.3l5.3-1.3l1.6-0.6l1.5-0.7l1-0.7l0.3-0.6v-1.1l0.1-0.9v-1.5l-0.2-2.9V458l-0.4-0.6
		l-1.1-0.2h-2.3l-1.6,0.1l-2.2,0.3l-1.6,0.1h-2.2l-1.6-0.1l-3.3-0.6l-0.6-0.2l-0.4-0.5l-0.2-1.2l-0.1-0.8l-0.1-1.6l0.1-2.4l-0.2-2.9
		l-0.2-1.5v-2l0.3-1.1l0.5-0.5l1.2-0.2l2.4-0.3l1.7-0.1h4.5l6.3-0.3l7.8,0.5h1.6l4-0.5l1.6-0.1l0.8,0.1l1.5,0.3l0.7,0.4l0.2,0.6
		l0.3,1.4L1120.3,445z"/>
	<path class="st3" d="M1188.5,475.7l-0.1,1.6l-0.4,5.3l-0.1,1l-0.4,0.7l-0.5,0.4l-12.7,0.4h-1.6l-5.2-0.4l-1.6,0.1l-5.1,0.4
		l-1.6,0.1h-6.7l-5.1-0.4h-1.6l-8.4,0.5l-3.3-0.2l-1.2-0.2l-0.7-0.5l-0.3-0.7l-0.2-1.1l-0.2-2.2l-0.1-1.6l0.1-1.5v-1.5l0.4-5.2v-1.6
		l0.1-5.2l-0.1-1.6l-0.3-5.2l-0.1-1.6l0.2-5.2v-8.3l0.4-5.2l-0.1-1.6l-0.3-5.2l-0.1-1.6v-2.3l0.2-2.9v-1.5l0.3-5.1l0.1-1.4l0.3-0.8
		l0.5-0.4l0.8-0.1l1.3-0.2l6.3,0.4l5.9-0.1h1.6l5.8,0.4h1.6l5.8-0.4h1.6l13.2,0.2l1.7-0.1l3.3-0.3h2.4l1.4,0.3l0.6,0.5l0.2,0.7
		l0.2,1.3v2.6l-0.2,2.4v1.7l0.1,2.4l0.1,1.5l-0.1,1.5l-0.2,1.2l-0.4,0.7l-0.5,0.4l-1.2,0.2h-0.8l-1.6,0.1l-9.1-0.2h-1.6l-5,0.2h-1.6
		l-5.1-0.2l-4.4-0.3h-1.5l-0.8,0.1l-1,0.2l-0.5,0.5l-0.1,0.6l-0.2,1.1l-0.2,2.3v1.6l0.1,1.7l0.1,1.1l0.2,0.7l0.4,0.5l1.1,0.3
		l3.1,0.2l3.1-0.2h9.2l10.9-0.6l3,0.2l1.1,0.2l0.6,0.5l0.3,0.6l0.1,1.1l0.2,1.7l0.1,1.7v3.2l0.2,2.2l-0.2,2.9l-0.2,1.2l-0.4,0.7
		l-0.7,0.5l-1,0.2h-1.9l-4.4-0.5l-1.6-0.1l-7.8,0.5l-6.2-0.2h-1.6l-3.9-0.3l-1.7,0.1l-1.2,0.1l-0.5,0.3l-0.3,0.7l-0.1,1.5l-0.3,2.4
		l-0.1,1.6v2.1l0.1,1l0.3,0.7l0.4,0.4l1.1,0.1l5.3,0.2h1.6l5.3-0.4l6.9,0.4h1.6l6.9-0.4h1.5l1.5,0.1l3.5,0.4l0.6,0.3l0.4,0.6
		l0.1,1.1L1188.5,475.7z"/>
</g>
</svg>
