<?xml version="1.0" encoding="utf-8"?>
<!-- Generator: Adobe Illustrator 19.0.0, SVG Export Plug-In . SVG Version: 6.00 Build 0)  -->
<svg version="1.1" id="Calque_1" xmlns="http://www.w3.org/2000/svg" xmlns:xlink="http://www.w3.org/1999/xlink" x="0px" y="0px"
	 viewBox="194 147 1000 500" style="enable-background:new 194 147 1000 500;" xml:space="preserve">
<style type="text/css">
	.st0{display:none;}
	.st1{display:inline;}
	.st2{fill:#161616;}
	.st3{fill:#FFFFFF;}
	.st4{fill:#C1272D;}
	.st5{fill:#F2DBC2;}
	.st6{display:inline;opacity:0.5;}
	.st7{clip-path:url(#SVGID_2_);fill:#1D1D1B;}
	.st8{clip-path:url(#SVGID_4_);fill:#1D1D1B;}
	.st9{display:none;opacity:0.35;}
	.st10{display:inline;fill:#C1292D;}
	.st11{fill:#FF5F5F;}
	.st12{fill:#E20707;}
	.st13{fill:#C10000;}
	.st14{fill:#EDBF00;}
	.st15{clip-path:url(#SVGID_6_);fill:#FFCE00;}
	.st16{clip-path:url(#SVGID_8_);}
	.st17{opacity:0.7;fill:#FFFFFF;enable-background:new    ;}
	.st18{opacity:0.7;}
	.st19{fill:#4C4C4A;}
	.st20{fill:#C1C1C1;}
	.st21{fill:#939393;}
	.st22{fill:#969696;}
	.st23{clip-path:url(#SVGID_10_);}
	.st24{fill:#E5E5E5;}
	.st25{opacity:0.5;}
</style>
<g id="Calque_1_1_" class="st0">
	<g id="Calque_2" class="st1">
		<rect id="XMLID_1_" x="194" y="147" class="st2" width="1000" height="500"/>
	</g>
</g>
<g id="Calque_2_1_" class="st0">
	<rect x="388" y="294" class="st1" width="1000" height="500"/>
	<g class="st1">
		<path class="st3" d="M880.7,420.5v71.2c0,11.2,7.9,13.3,13.8,14.4v2.5h-33.1V506c5.8-1,13.6-3.1,13.6-14.4v-73.9
			c0-11.2-7.9-13.3-13.8-14.4v-2.5h39.6l27.2,66.7l23.8-66.7h38.8v2.5c-5.1,1-12.3,3.1-12.3,14.4v73.9c0,11.2,7.2,13.3,12.3,14.4
			v2.5h-50.9V506c5.1-1,12.1-3.1,12.1-14.4v-73.5l-32.6,90.4h-3.7L880.7,420.5z"/>
		<path class="st3" d="M989.1,489c0-15.7,15.4-26.3,40.2-22v-8.8c0-9.7-7-14.2-15.4-14.2c-6.4,0-14.1,2.8-19.9,11.7l-2.5-0.4
			c3.1-11.4,14.1-22.9,32.2-23.3c18.7-0.3,30.4,11.8,30.4,25.9v32.2c0,4,0.6,7.6,3.3,7.6c0.6,0,1.5-0.1,2.1-0.6l1,0.9
			c-2.1,6-8.1,12.1-16.5,12.1c-7.3,0-12.7-4.3-14.2-10.3c-4,5.5-10.3,10.3-19.2,10.3C998.8,509.9,989.1,501.1,989.1,489z
			 M1020.8,499.3c3.6,0,6.6-2.1,8.5-4.2v-23.9c-11.1-0.7-17.8,5.1-17.8,15C1011.6,493.2,1014.8,499.3,1020.8,499.3z"/>
		<path class="st3" d="M1063.8,504.1l0.1-22.3h2.5c10.3,17.7,17.7,22.9,26.3,22.9c7.2,0,9.9-3.6,9.9-8.2c0-9-10.8-11.4-22-16.8
			c-13.2-6.3-19-13.6-19-23.6c0-13.9,10.8-24.2,30.5-24.2c5.8,0,14.7,1,25.4,5.2l-0.1,20.8h-2.7c-8.2-17.7-16-20.6-22.6-20.6
			c-7.5,0-11.5,3.7-11.5,8.4c0,7.5,11.2,9.9,25.7,17.4c7,3.4,15.9,8.7,15.9,22.1c0,15.7-12,25.1-29.8,25.1
			C1086.8,510.2,1076.5,509,1063.8,504.1z"/>
		<path class="st3" d="M1131.1,485.2v-46.8h-10.9V436c12.4-4.6,24.7-13.5,32.6-26.3h3.3v23h20v5.7h-20v44.4c0,7.8,3.4,13.6,9.4,13.6
			c2.7,0,5.7-1.3,9-3.7l1.9,0.4c-3.9,9-11.5,17.1-24.2,17.1C1139.2,510.2,1131.1,501.4,1131.1,485.2z"/>
		<path class="st3" d="M1175.4,470.9c0-24.7,14.5-39,36.5-39c25.1,0,34.9,19.5,34.6,37.6h-45.3c1.2,19.9,11.1,27.8,21.7,27.8
			c7.2,0,14.4-3.1,21.2-10.8l1.9,0.4c-3.3,9.9-14.7,23.3-33.4,23.3C1195,510.2,1175.4,498,1175.4,470.9z M1222.2,464.4
			c0-10.5-1.8-27.5-10.3-27.5c-8.8,0-10.8,18.3-10.9,27.5H1222.2z"/>
		<path class="st3" d="M1254.7,493.2v-45c0-10.2-5.8-12.1-10.2-13v-2.4h35.2v23.6c3.9-15.6,15.7-26.9,30.7-24.1l-3.7,22.7h-1.6
			c-12.6-6-24.1,1.3-25.3,17.2v20.9c0,10.2,5.7,12.1,10.2,13v2.4h-45.3v-2.4C1248.8,505.3,1254.7,503.3,1254.7,493.2z"/>
	</g>
	<g class="st1">
		<path class="st4" d="M774.7,478.7l-1.2,8.1l-12.6,1.6l12,35.3l3.4,10.8l4.6-8.8l22-37.3l-12-1.6l0.7-8.1h38.6l-1,8.1l-9.6,1.6
			L782,545.7l-4.5,34.4l17.8,2.1l-0.7,7.6h-60l0.9-7.6l16.9-2.1l4.2-34.4l-24.4-57.3l-9.4-1.6l0.7-8.1H774.7z"/>
		<path class="st4" d="M892.7,513.8c5.6,6,8.5,14.9,8.5,26.6c0,9.5-1.9,18.2-5.8,26c-3.9,7.9-9.4,14.1-16.5,18.7
			c-7.1,4.6-15.3,6.9-24.7,6.9c-11,0-19.2-3.1-24.8-9.2s-8.4-15-8.4-26.7c0-9.5,1.9-18.1,5.8-26c3.9-7.8,9.4-14,16.5-18.6
			c7.1-4.5,15.3-6.8,24.5-6.8C878.7,504.8,887,507.8,892.7,513.8z M854.4,521.6c-2.8,4.4-4.8,10-6.1,16.7
			c-1.2,6.7-1.8,13.4-1.6,20.2c0.3,8.7,1.3,14.9,2.9,18.5c1.6,3.7,4.3,5.5,7.9,5.5c5.9,0,10.2-4.1,13.1-12.3
			c2.8-8.2,4.3-17.8,4.3-28.7c0-9.9-0.8-16.8-2.3-20.7s-4.1-5.9-7.6-5.9C860.8,514.9,857.2,517.1,854.4,521.6z"/>
		<path class="st4" d="M940.9,552c-1.3,8.7-1.9,14.4-1.9,17.2c0,3.6,0.5,6.2,1.6,7.7s2.9,2.3,5.4,2.3c2.7,0,5.3-0.7,7.9-2.2
			c2.5-1.4,4.8-3.3,6.7-5.5l9-66.1H993l-9.4,67.9c-0.4,3.7,0.6,5.5,3,5.5c0.8,0,1.6-0.2,2.5-0.7c0.8-0.4,2.2-1.3,4.1-2.6l2.1,5.1
			c-0.7,1.2-1.9,2.6-3.7,4.3c-1.8,1.6-4.1,3.1-7,4.4c-2.9,1.3-6.1,1.9-9.6,1.9c-3.9,0-6.9-0.7-9.1-2c-2.2-1.3-3.5-3.3-4-5.8
			c-0.1-0.3-0.1-0.8-0.1-1.6c0-1.2,0-2.1,0.1-2.7l-0.1-0.1c-3.2,3.6-6.8,6.5-10.8,8.8s-8.9,3.4-14.7,3.4c-5.3,0-10.1-1.5-14.5-4.6
			c-4.4-3-6.6-7.8-6.7-14.1c0-4.1,0.8-11.4,2.4-22c0.4-2,0.6-3.5,0.7-4.5l3.9-26.8l-9.3-5.7l1.2-6.4l29-2.4l3.7,1.8l-4.9,40.1
			L940.9,552z"/>
		<path class="st4" d="M1044,511.2c4.3-4.2,9.2-6.3,14.8-6.3c2.2,0,3.9,0.5,5.1,1.5L1059,532c-0.4-0.5-1.3-1-2.8-1.6
			s-3.3-0.9-5.4-0.9c-3.1,0-6,0.3-8.6,1c-2.6,0.6-4.7,1.6-6.1,2.8l-7.8,56.7h-23l9.4-70.5l-7.8-4.2l1.2-6.4l23.9-3.9l3.9,2.5
			l-0.7,13.8l-0.3,5.4C1036.7,520.5,1039.7,515.4,1044,511.2z"/>
	</g>
	<g class="st1">
		<path class="st5" d="M972.2,665.9l0.4-28.6h2.7c7.5,21.8,20.8,31.6,33.8,31.6c9.3,0,17.2-5.2,16.9-15.6
			c-0.6-13.3-15.6-19.7-30.2-26.8c-14.5-6.9-25.6-16-25-31.9c0.4-17.2,14.1-31.3,40.4-31.3c13.6,0,24.4,4,33.2,7.5l-0.3,28.1h-2.5
			c-6.9-20.6-16.8-30.1-30.4-30.1c-11.1,0-17.8,5.8-18,13.6c-0.1,11.8,16,17.1,31.4,24.7c18.9,9.6,24.5,20.2,24.1,34.1
			c-0.7,23.3-18.3,33.1-38.8,33.1C1000.6,674.5,987.2,672.4,972.2,665.9z"/>
		<path class="st5" d="M1083.8,562v95.3c0,10.2,5.8,12.1,10.2,13v2.4h-45.3v-2.4c4.5-0.9,10.2-2.8,10.2-13v-75.7
			c0-10.3-5.8-11.2-10.2-11.4l-0.4-2.4L1083.8,562z M1085.9,633.3l-0.1-0.3l20.6-17.8c4-3.4,5.5-6.1,5.5-8.2c0-5.2-9.6-6.6-14.7-7.2
			v-3h39.8v0.7l-29.9,25.5l21.1,35.9c4.2,6.9,8.8,10,14.7,11.4v2.4h-36.4L1085.9,633.3z"/>
		<path class="st5" d="M1149.9,657.3v-45c0-10.2-5.8-12.1-10.3-13v-2.4h35v60.4c0,10.2,5.8,12.1,10.3,13v2.4h-45.3v-2.4
			C1143.9,669.4,1149.9,667.4,1149.9,657.3z M1159.8,560.3c7.8,0,14.2,6.1,14.2,13.9c0,7.8-6.6,13.9-14.2,13.9
			c-7.6,0-14.2-6.1-14.2-13.9C1145.6,566.4,1152,560.3,1159.8,560.3z"/>
		<path class="st5" d="M1192,657.3v-75.7c0-10.3-5.8-11.2-10.3-11.4l-0.4-2.4l35.8-5.8v95.3c0,10.2,5.8,12.1,10.2,13v2.4H1182v-2.4
			C1186.1,669.4,1192,667.4,1192,657.3z"/>
		<path class="st5" d="M1234.2,657.3v-75.7c0-10.3-5.8-11.2-10.3-11.4l-0.4-2.4l35.8-5.8v95.3c0,10.2,5.8,12.1,10.2,13v2.4H1224
			v-2.4C1228.3,669.4,1234.2,667.4,1234.2,657.3z"/>
		<path class="st5" d="M1272,668.2l0.1-22.3h2.5c10.3,17.7,17.7,22.9,26.3,22.9c7.2,0,9.9-3.6,9.9-8.2c0-9-10.8-11.4-22-16.8
			c-13.2-6.3-19-13.6-19-23.6c0-13.9,10.8-24.2,30.5-24.2c5.8,0,14.7,1,25.4,5.2l-0.1,20.8h-2.7c-8.2-17.7-16-20.6-22.6-20.6
			c-7.5,0-11.5,3.7-11.5,8.4c0,7.5,11.2,9.9,25.7,17.4c7,3.4,15.9,8.7,15.9,22.1c0,15.7-12,25.1-29.8,25.1
			C1295,674.3,1284.7,673.1,1272,668.2z"/>
	</g>
	<g class="st6">
		
			<image style="overflow:visible;enable-background:new    ;" width="338" height="303" xlink:href="B649B7D6.png"  transform="matrix(1 0 0 1 395 383)">
		</image>
	</g>
	<g class="st1">
		<path class="st3" d="M696.6,481.2c0-20.6-11.4-39.6-29.5-49.3v47.4l-9.7,6.7h-38.5l-9.7-6.7v-47.4c-10.3,5.5-18.7,14.2-23.8,24.7
			c6.2,12.2,9.4,25.8,9.3,39.5c0,6.9-0.9,13.7-2.6,20.3c6.9,8.6,16.3,14.9,26.8,18.2c-0.1,0.7-0.1,1.5-0.1,2.2v112.3H631v-71.9
			c0.6-0.3,1.1-0.5,1.7-0.7c1.7-0.6,3.4-0.9,5.2-0.8c0.1,0,0.2,0,0.3,0c0.1,0,0.2,0,0.3,0c1.8,0,3.5,0.3,5.2,0.8
			c0.6,0.2,1.2,0.4,1.7,0.7v71.9h12.2V536.8c0-0.8,0-1.5-0.1-2.2C680.7,527.3,696.6,505.7,696.6,481.2z"/>
		<path class="st3" d="M507.7,579.4h-44.2l-0.2,34.4c0,3.6,1.8,6.9,4.7,8.8c7.2,4.7,20.1,13.1,20.8,13.2c1.1,7.3,9,13.1,18.8,13.3
			c9.8-0.3,17.8-6,18.8-13.3c0.8-0.2,13.6-8.5,20.8-13.2c3-2,4.8-5.3,4.7-8.8l-0.2-34.4H507.7z"/>
		<path class="st3" d="M507.8,419.4h-0.2c-42,0.4-75.9,34.6-75.8,76.6c0,14.8,4.6,28.7,14,42.4c7.3,10.5,13.3,21.9,17.6,34
			c0.1,0.1,0.1,0.3,0.1,0.4h15c0-0.1-0.1-0.3-0.1-0.4c-4.8-15-11.8-29.1-20.9-42c-7.3-10-11.3-22-11.5-34.4
			c0-34.2,27.5-62,61.6-62.4h0.2c34.2,0.4,61.7,28.2,61.7,62.4c-0.2,12.4-4.2,24.4-11.5,34.4c-9,12.9-16.1,27-20.9,42
			c0,0.1-0.1,0.3-0.1,0.4h15c0-0.1,0.1-0.3,0.1-0.4c4.3-12.1,10.2-23.5,17.6-34c9.4-13.7,14-27.6,14-42.4
			C583.7,454,549.8,419.8,507.8,419.4z"/>
	</g>
	<g id="Calque_3" class="st1">
		<g>
			<g>
				<defs>
					<path id="SVGID_1_" d="M972.2,665.9l0.4-28.6h2.7c7.5,21.8,20.8,31.6,33.8,31.6c9.3,0,17.2-5.2,16.9-15.6
						c-0.6-13.3-15.6-19.7-30.2-26.8c-14.5-6.9-25.6-16-25-31.9c0.4-17.2,14.1-31.3,40.4-31.3c13.6,0,24.4,4,33.2,7.5l-0.3,28.1
						h-2.5c-6.9-20.6-16.8-30.1-30.4-30.1c-11.1,0-17.8,5.8-18,13.6c-0.1,11.8,16,17.1,31.4,24.7c18.9,9.6,24.5,20.2,24.1,34.1
						c-0.7,23.3-18.3,33.1-38.8,33.1C1000.6,674.5,987.2,672.4,972.2,665.9z"/>
				</defs>
				<clipPath id="SVGID_2_">
					<use xlink:href="#SVGID_1_"  style="overflow:visible;"/>
				</clipPath>
				<path class="st7" d="M940.9,552c-1.3,8.7-1.9,14.4-1.9,17.2c0,3.6,0.5,6.2,1.6,7.7s2.9,2.3,5.4,2.3c2.7,0,5.3-0.7,7.9-2.2
					c2.5-1.4,4.8-3.3,6.7-5.5l9-66.1H993l-9.4,67.9c-0.4,3.7,0.6,5.5,3,5.5c0.8,0,1.6-0.2,2.5-0.7c0.8-0.4,2.2-1.3,4.1-2.6l2.1,5.1
					c-0.7,1.2-1.9,2.6-3.7,4.3c-1.8,1.6-4.1,3.1-7,4.4c-2.9,1.3-6.1,1.9-9.6,1.9c-3.9,0-6.9-0.7-9.1-2c-2.2-1.3-3.5-3.3-4-5.8
					c-0.1-0.3-0.1-0.8-0.1-1.6c0-1.2,0-2.1,0.1-2.7l-0.1-0.1c-3.2,3.6-6.8,6.5-10.8,8.8s-8.9,3.4-14.7,3.4c-5.3,0-10.1-1.5-14.5-4.6
					c-4.4-3-6.6-7.8-6.7-14.1c0-4.1,0.8-11.4,2.4-22c0.4-2,0.6-3.5,0.7-4.5l3.9-26.8l-9.3-5.7l1.2-6.4l29-2.4l3.7,1.8l-4.9,40.1
					L940.9,552z"/>
			</g>
		</g>
		<g>
			<g>
				<defs>
					<path id="SVGID_3_" d="M972.2,665.9l0.4-28.6h2.7c7.5,21.8,20.8,31.6,33.8,31.6c9.3,0,17.2-5.2,16.9-15.6
						c-0.6-13.3-15.6-19.7-30.2-26.8c-14.5-6.9-25.6-16-25-31.9c0.4-17.2,14.1-31.3,40.4-31.3c13.6,0,24.4,4,33.2,7.5l-0.3,28.1
						h-2.5c-6.9-20.6-16.8-30.1-30.4-30.1c-11.1,0-17.8,5.8-18,13.6c-0.1,11.8,16,17.1,31.4,24.7c18.9,9.6,24.5,20.2,24.1,34.1
						c-0.7,23.3-18.3,33.1-38.8,33.1C1000.6,674.5,987.2,672.4,972.2,665.9z"/>
				</defs>
				<clipPath id="SVGID_4_">
					<use xlink:href="#SVGID_3_"  style="overflow:visible;"/>
				</clipPath>
				<path class="st8" d="M1044,511.2c4.3-4.2,9.2-6.3,14.8-6.3c2.2,0,3.9,0.5,5.1,1.5L1059,532c-0.4-0.5-1.3-1-2.8-1.6
					s-3.3-0.9-5.4-0.9c-3.1,0-6,0.3-8.6,1c-2.6,0.6-4.7,1.6-6.1,2.8l-7.8,56.7h-23l9.4-70.5l-7.8-4.2l1.2-6.4l23.9-3.9l3.9,2.5
					l-0.7,13.8l-0.3,5.4C1036.7,520.5,1039.7,515.4,1044,511.2z"/>
			</g>
		</g>
	</g>
</g>
<g class="st9">
	
		<image style="display:inline;overflow:visible;" width="294" height="349" xlink:href="FFFA288F.png"  transform="matrix(1 0 0 1 214 227)">
	</image>
</g>
<g class="st0">
	<path class="st10" d="M469.2,332.7c-0.4-0.6-0.9-1-1.4-1.1c-0.3-0.1-0.6-0.3-0.9-0.3l-6.1-0.7c-0.3-5.3-3.3-14-10.3-20.7
		c-7.1-6.9-39.9-32.2-54.6-37.6c-14.4-5.3-20-6.1-26.9-6.7c-6.1-0.4-51.4-2.6-58.3-2.6c-6.7,0-12.4,1.4-22,8.9
		c-7.4,5.7-17.9,16-26.2,32.3c-7.1,14.1-6.9,41-6.9,44.6l-4.6,5.6c-0.1,0.1-0.3,0.3-0.3,0.6c-0.1,0.3-0.3,0.7-0.3,1.1v8.6
		c0,1.1,0.9,2,1.9,2.1l3.7,0.4l-2.1,2l103,14.1l10.1-7.6l-7.3,2c-0.1,0-0.3,0-0.3,0l0,0h-0.1l-8.6-1c-0.7-0.1-1.1-0.6-1.1-1.3v-3.9
		c-4.4,0.4-9.6,0.7-15,0.7c-18.3,0-40.7-2.9-58-9.6l-14.9,4.3c-0.1,0-0.3,0-0.4,0c-0.3,0-0.4,0-0.6-0.1c0,0-0.1,0-0.1-0.1
		c-0.1,0-0.3-0.1-0.3-0.3l-0.1-0.1c-0.1-0.1-0.1-0.1-0.3-0.3c0-0.1-0.1-0.1-0.1-0.3c0,0,0,0,0-0.1s0-0.1,0-0.3c0-0.1,0-0.1,0-0.3v-7
		l-5.6-0.7c-1-0.1-1.7-1-1.6-2c0.1-1,1-1.7,2-1.6l7.1,1l0,0l9.4-6.6c-1.6,0.1-3.3,0.1-4.9,0.1c-2.1,0-4.3-0.1-6.4-0.3
		c-0.7-0.1-1.3-0.7-1.1-1.4c0.1-0.7,0.7-1.3,1.4-1.1c5,0.6,9.9,0.3,15.4-0.1l0,0l0,0h0.1l0,0c0.1,0,0.1,0,0.3,0c0.1,0,0.1,0,0.3,0.1
		c0.1,0,0.1,0,0.3,0.1c0.1,0,0.1,0.1,0.1,0.1s0.1,0,0.1,0.1c0,0,0,0,0,0.1c0,0,0,0,0,0.1v0.1l0,0c0,0.1,0,0.1,0,0.3c0,0,0,0,0,0.1
		l0,0l0,0l0.9,12.7h0.1c22,8.6,52.7,10.9,71.7,8.6l0,0v-1.3c0-0.4,0.1-0.7,0.4-1c0,0,0,0,0.1,0c0,0,0,0,0-0.1l6.9-8.6
		c0,0,0.1,0,0.1-0.1l0.1-0.1c0,0,0.1-0.1,0.3-0.1c0.1,0,0.1,0,0.3-0.1c0.1,0,0.1,0,0.3,0h0.1c5,0.6,9.9,0.3,15.4-0.1h0.1h0.1h0.1
		h0.1h0.1c0,0,0.1,0,0.1,0.1c0,0,0.1,0,0.1,0.1l0.1,0.1l0,0c0,0,0,0,0,0.1c0,0,0,0.1,0.1,0.1c0,0,0,0,0,0.1l0.9,2.6
		c1.4,0.7,2.4,2.7,2.4,5.1c0,1.7-0.4,3.3-1.3,4.3l0.1,2.3c0,1.1-0.9,2.1-2,2.3l0,0l-15.9,11.7v50.6l11.9-3.4c1-0.3,2,0.3,2.1,1.3
		c0.3,1-0.3,2-1.3,2.1l-14.1,4c-0.1,0-0.3,0-0.4,0l0,0l0,0l0,0l0,0c-0.1,0-0.1,0-0.3,0l-100.2-13.7c0,1.1,0,2.9,0.1,4.7
		c0.1,3.9,0.1,8.7,0.1,10.7l0,0l0,0c0.9,25.7,4,43.2,9.4,53.2c9.4,17.6,22.7,36.3,49.3,42.3c8.1,1.9,15.6,2.7,22.4,2.7
		c15.1,0,27.9-4.4,40.7-14c18.7-13.9,41.3-33.4,46-39.2l0.6-0.6c4.7-5.7,13.4-16.4,17.1-38.9c1.6-9.4,4.4-25,7.3-40
		c3.6-19.4,7.3-39.4,8.4-47.6l4.4,0.4l0,0c0.1,0,0.3,0,0.4,0c0.6,0,1.3-0.1,2-0.7c2.6-1.9,4.3-8.1,5.1-13.3
		C471.2,341.7,471.2,335.5,469.2,332.7z M338.3,362c0,1.1-1,2.1-2.1,2.1c-14.1,0-27.7-1.4-40.3-4.3c-1-0.3-1.7-1.1-1.7-2.1v-16.1
		c0-0.6,0.3-1.3,0.7-1.6c0.4-0.4,1.1-0.6,1.7-0.4c13.1,2.3,26.4,3.7,39.6,4.3c1.1,0,2,1,2,2.1v16H338.3z M370.6,425.6
		c0,0.7-0.6,1.3-1.3,1.3s-1.3-0.6-1.3-1.3v-0.4c0-0.7,0.6-1.3,1.3-1.3s1.3,0.6,1.3,1.3V425.6z M370.6,415.9c0,0.7-0.6,1.3-1.3,1.3
		s-1.3-0.6-1.3-1.3v-19.6c0-0.7,0.6-1.3,1.3-1.3s1.3,0.6,1.3,1.3V415.9z M370.6,390.6c0,0.7-0.6,1.3-1.3,1.3s-1.3-0.6-1.3-1.3V387
		c0-0.7,0.6-1.3,1.3-1.3s1.3,0.6,1.3,1.3V390.6z M432.5,311.3c0-0.1,0-0.3,0-0.3c0-0.1,0.1-0.1,0.1-0.3c0-0.1,0.1-0.3,0.1-0.3
		c0.1-0.1,0.1-0.1,0.3-0.1s0.1-0.1,0.3-0.1l5.4-2.3c0.9-0.4,2,0,2.3,1c0.4,0.9,0,2-1,2.3l-3.9,1.6l3.6,8.9l6.6-3.1
		c0.9-0.4,2,0,2.4,0.9c0.4,0.9,0,2-0.9,2.4l-8.3,4c0,0,0,0-0.1,0l0,0l0,0c-0.1,0.1-0.4,0.1-0.6,0.1l0,0l0,0l0,0c-0.1,0-0.3,0-0.4,0
		h-0.1c-0.1,0-0.1-0.1-0.3-0.1l-0.1-0.1c-0.1,0-0.1-0.1-0.3-0.1l-0.1-0.1l-0.1-0.1l0,0l0,0l-5-12.3c0-0.1,0-0.3,0-0.3
		c0-0.1,0-0.3,0-0.3C432.5,311.4,432.5,311.3,432.5,311.3z M374.6,380.5c0-1,0.9-1.7,1.7-1.7l0,0c1,0,1.7,0.9,1.7,1.9l-0.1,46.7
		c0,1-0.9,1.7-1.7,1.7l0,0c-1,0-1.7-0.9-1.7-1.9L374.6,380.5z M382.8,508.2c-16.4,11.1-31.4,13.3-41.7,13.3c-4.9,0-8.7-0.6-11.1-0.9
		l-0.7-0.1c-8.1-1-37.2-8.3-41.3-11.1c-0.9-0.6-1-1.7-0.4-2.4c0.6-0.9,1.7-1,2.4-0.4c3.4,2.3,31.6,9.6,39.9,10.6l0.7,0.1
		c7.4,1,27.3,3.6,50.4-12c0.9-0.6,1.9-0.3,2.4,0.4C383.8,506.7,383.6,507.8,382.8,508.2z M398.2,495.7c-2.9,2.9-5.9,5.6-8.7,7.9
		c-0.3,0.3-0.7,0.4-1.1,0.4c-0.6,0-1-0.3-1.4-0.7c-0.6-0.7-0.4-1.9,0.3-2.6c2.9-2.3,5.6-4.7,8.4-7.6c0.7-0.7,1.9-0.7,2.6,0
		S398.9,494.9,398.2,495.7z M418.9,454.2c-0.1,0.9-0.9,1.6-1.7,1.6h-0.1c-1-0.1-1.7-1-1.6-2l9.4-93.6c0.1-1,1-1.7,2-1.6
		c1,0.1,1.7,1,1.6,2L418.9,454.2z M433.8,448.6c-0.1,0.9-0.9,1.6-1.7,1.6l0,0c-1,0-1.7-0.7-1.7-1.7c0-0.3,0-1.1,0.7-1.9
		s1.9-0.7,2.6,0C434.1,447.2,434.1,448.1,433.8,448.6z M442.2,402.2c-2.6,13.6-5.1,27.7-7,38.6c-0.1,0.9-0.9,1.4-1.7,1.4
		c-0.1,0-0.1,0-0.3,0c-1-0.1-1.6-1.1-1.4-2c1.9-10.9,4.6-25,7-38.6c2.4-12.9,4.7-25.2,6.1-33.2c0.1-1,1.1-1.6,2-1.4
		c1,0.1,1.6,1.1,1.4,2C446.9,377,444.6,389.3,442.2,402.2z M450.1,358.6h-0.1c-0.4,0-1.1-0.3-1.9-1.1c-1.6-2.1-2-7.3-1.1-13.3
		c0.4-3.3,2.4-13.9,6.6-13.3c0.7,0.1,1.1,0.7,1.1,1.4c-0.1,0.7-0.7,1.1-1.4,1.1c-0.7,0.3-2.6,3.9-3.7,11c-1,7.3,0.1,11.1,0.9,11.6
		c0.7,0.1,1.1,0.7,1,1.4C451.2,358.2,450.6,358.6,450.1,358.6z M456.6,351.2C456.6,351.2,456.5,351.2,456.6,351.2l-5-0.4
		c-0.7,0-1.3-0.7-1.1-1.4c0-0.7,0.7-1.3,1.4-1.1l4.9,0.4c0.7,0,1.3,0.7,1.1,1.4C457.9,350.6,457.4,351.2,456.6,351.2z M457.6,343.5
		C457.6,343.5,457.5,343.5,457.6,343.5l-5.1-0.4c-0.7,0-1.3-0.7-1.1-1.4c0-0.7,0.7-1.3,1.4-1.1l5,0.4c0.7,0,1.3,0.7,1.1,1.4
		C458.9,342.9,458.4,343.5,457.6,343.5z M466.5,334.7c-0.9,0.4-2.9,4.4-3.7,11c-1,7.1,0.1,11.1,0.9,11.6c0.7,0.1,1.1,0.7,1,1.4
		c-0.1,0.6-0.7,1.1-1.3,1.1h-0.1c-0.4,0-1.1-0.3-1.9-1.1c-1.6-2.1-2-7.3-1.1-13.3c0.7-4.7,2.3-11,4.7-12.7c0.7-0.6,1.4-0.6,1.9-0.6
		c0.7,0.1,1.1,0.7,1.1,1.4C467.8,334.3,467.2,334.7,466.5,334.7z"/>
	<polygon class="st10" points="261.7,380.3 261.7,417.3 284.3,420.3 311.5,387 	"/>
	<path class="st10" d="M298.4,356c11.3,2.4,23.2,3.7,35.6,3.9v-12c-11.9-0.6-23.7-1.9-35.6-3.9V356z"/>
	<path class="st10" d="M355.5,386.5l-100.3-13.9v50.3l100.3,13.9V386.5z M351.6,430.5c0,0.4-0.1,0.7-0.4,1c-0.3,0.1-0.6,0.3-0.9,0.3
		h-0.1l-89.9-12c-0.6-0.1-1.1-0.6-1.1-1.3v-39.6c0-0.4,0.1-0.7,0.4-1c0.3-0.3,0.7-0.3,1-0.3l89.9,12.1c0.6,0.1,1.1,0.6,1.1,1.3
		C351.6,391,351.6,430.5,351.6,430.5z"/>
	<path class="st10" d="M314.5,387.6l-27.2,33.2l61.7,8.3v-36.9L314.5,387.6C314.5,387.5,314.5,387.6,314.5,387.6z M313.7,399.9
		l-16,19.6c-0.3,0.3-0.6,0.4-1,0.4c-0.3,0-0.6-0.1-0.9-0.3c-0.6-0.4-0.6-1.3-0.1-1.9l16-19.6c0.4-0.6,1.3-0.6,1.9-0.1
		S314.2,399.3,313.7,399.9z M315,394.5l0.9-1.1c0.4-0.6,1.3-0.7,1.9-0.3c0.6,0.4,0.7,1.3,0.3,1.9l-1,1c-0.3,0.3-0.6,0.6-1,0.6
		c-0.3,0-0.6-0.1-0.7-0.3C314.7,395.8,314.6,395.1,315,394.5z"/>
	<path class="st10" d="M369.2,359.3c-1.6,0.1-3.3,0.1-4.9,0.1c-2,0-3.9-0.1-5.9-0.3l-5.3,6.6l5.7,0.7L369.2,359.3z"/>
	<path class="st10" d="M372.6,369.5c-0.9-1-1.3-2.4-1.3-4.3c0-2.1,0.7-4,1.9-4.9l-0.1-0.6l-12.3,8.6v6.1l12-3.4L372.6,369.5z"/>
	<polygon class="st10" points="352.2,374.2 358.2,374.9 358.2,368.9 352.2,368.2 	"/>
	<path class="st10" d="M375.3,367.3c0.1-0.4,0.3-1.1,0.3-2.1c0-1.7-0.6-2.7-0.9-2.9c-0.3,0.1-0.9,1.1-0.9,2.9c0,0.9,0.1,1.6,0.3,2
		c0.1,0,0.3,0,0.4,0C374.9,367.2,375,367.2,375.3,367.3z"/>
	<polygon class="st10" points="262.9,362.9 275,359.5 274.3,349 262.9,357 	"/>
</g>
<g id="Calque_1_2_">
	<g id="XMLID_87_">
		<path id="XMLID_86_" class="st11" d="M314.8,524.9c0,0-21.7-17.8-24.7-25.2C290.1,499.8,292.8,517.6,314.8,524.9z"/>
		<path id="XMLID_85_" class="st12" d="M295.2,570.5c0,0-16.5-29.4-14.6-61.1c0,0,14.5,18,27.9,20.3c0,0-28.3-28.5-29.1-35.1
			c0,0-0.9-31.3,2.7-38.8c0,0,6.2,12.2,15.1,15.7c0,0-4.5-11.3-6.6-18.7c0,0,34.3,27,94.2,11.6c0,0-30.4,23.6-55.9,26.4
			c0,0,48.4-5.8,61.9-15.4C390.6,475.4,348.2,548.1,295.2,570.5z"/>
		<g id="XMLID_79_">
			<path id="XMLID_84_" class="st13" d="M298,578.7c0,0,57.4-41.3,80.6-94.8c0,0-35.6,14.2-52.5,6.8c0,0,39,1.5,74.6-25.5
				C400.8,465,383.2,543.1,298,578.7z"/>
			<path id="XMLID_83_" class="st13" d="M426.5,497.7c0,0-0.9-12.8-4.3-16.3c0,0,7.6,10.4,8.7,14.4c0,0,3.8-2.7,3.3-6.8
				c0,0-15.5-26.3-26.3-28.8c0,0,2.1,7.6,0.6,11C408.8,470.9,421.8,485,426.5,497.7z"/>
			<path id="XMLID_82_" class="st13" d="M346.6,477.3c0,0-32.8,9.8-47.6-12.8C299,464.4,327.1,478.7,346.6,477.3z"/>
			<path id="XMLID_81_" class="st13" d="M307.3,512.7c0,0-20.7-36.3-20.3-46.9c0,0,5.5,5.2,10.1,5.5c0,0-10.8-7.5-12.2-16.9
				c0,0-8,19.4-3.9,42.3c0,0-1.1-12.9,2.2-20C283.2,476.7,293,502.8,307.3,512.7z"/>
			<path id="XMLID_80_" class="st13" d="M295.2,570.5c0,0-11.2-39.2-9.8-55.3c0,0-4.3-3.3-5.2-8.5
				C280.2,506.7,282.1,552.1,295.2,570.5z"/>
		</g>
		<path id="XMLID_78_" class="st11" d="M302.9,552.4c0,0,44.1-18.9,52.1-47.3C355,505.2,319.4,544,302.9,552.4z"/>
		<g id="XMLID_73_">
			<path id="XMLID_77_" class="st14" d="M426.1,410.1c0,17.5-13.2,31.3-30.6,31.3H290.6c-17.5,0-31.4-13.9-31.4-31.3V294.8
				c0-17.5,14-32.3,31.4-32.3h104.8c17.5,0,30.6,14.8,30.6,32.3L426.1,410.1L426.1,410.1L426.1,410.1z"/>
			<g id="XMLID_74_">
				<g>
					<g>
						<g>
							<defs>
								<path id="SVGID_5_" d="M450.1,398.9c0,15.5-14.8,27.1-33.3,27.1H306.2c-18.5,0-33.3-11.6-33.3-27.1V297
									c0-15.5,14.8-28.4,33.3-28.4h110.6c18.5,0,33.3,12.9,33.3,28.4V398.9L450.1,398.9z"/>
							</defs>
							<clipPath id="SVGID_6_">
								<use xlink:href="#SVGID_5_"  style="overflow:visible;"/>
							</clipPath>
							<path id="XMLID_76_" class="st15" d="M426.1,410.5c0,17.5-14,31-31.4,31H290.5c-17.4,0-31.3-13.5-31.3-31V295.3
								c0-17.5,13.9-32.7,31.3-32.7h104.3c17.4,0,31.4,15.2,31.4,32.7L426.1,410.5L426.1,410.5L426.1,410.5z"/>
						</g>
					</g>
				</g>
			</g>
		</g>
		<g id="XMLID_70_">
			<g>
				<g>
					<g>
						<defs>
							<path id="SVGID_7_" d="M426.1,410.1c0,17.5-13.2,31.3-30.6,31.3H290.6c-17.5,0-31.4-13.9-31.4-31.3V294.8
								c0-17.5,14-32.3,31.4-32.3h104.8c17.5,0,30.6,14.8,30.6,32.3L426.1,410.1L426.1,410.1L426.1,410.1z"/>
						</defs>
						<clipPath id="SVGID_8_">
							<use xlink:href="#SVGID_7_"  style="overflow:visible;"/>
						</clipPath>
						<path id="XMLID_72_" class="st16" d="M429.1,330.4c0,0-10.4-4.9-26.4,0.9c-16,5.7-30.9,5.4-35.1,5.7c-4.3,0.3-45.4,2.7-63-0.9
							c-17.6-3.5-30.7-4.9-37.7-7c-7.1-2.1-9.1,0-12.9,3.2l6.1-8.2l166.7-1L429.1,330.4z"/>
					</g>
				</g>
			</g>
		</g>
		<g id="Reflet">
			<path id="XMLID_69_" class="st17" d="M284.9,420.2c0,0-8.8-5.1-8.3-10.1v-74.2l-3-2.9l-0.1,77
				C273.5,409.9,273.8,417.9,284.9,420.2z"/>
			<polygon id="XMLID_68_" class="st17" points="409,353.7 412.4,350.5 412.4,420.2 409.2,415.7 			"/>
		</g>
		<g id="Gauche_2_">
			<circle id="XMLID_67_" cx="322.2" cy="361" r="9.9"/>
			<circle id="XMLID_66_" class="st3" cx="325" cy="357.1" r="4.7"/>
		</g>
		<g id="Droite_2_">
			<circle id="XMLID_65_" cx="370.7" cy="361" r="9.9"/>
			<circle id="XMLID_64_" class="st3" cx="373.6" cy="357.1" r="4.7"/>
		</g>
		<g id="Sourcils">
			<path id="XMLID_63_" d="M392.8,345.7c-12.1-13.9-32.4-5-35.5-3.5c-0.1,0.1-0.3,0.1-0.3,0.2h-0.1l0,0c-1,0.6-1.7,1.7-1.7,3
				c0,2,1.5,3.5,3.5,3.5c0.9,0,1.6-0.3,2.3-0.9C370,342.2,392.8,345.7,392.8,345.7z"/>
			<path id="XMLID_62_" d="M299.4,345.9c12.1-13.9,32.4-5,35.5-3.5c0.1,0.1,0.3,0.1,0.3,0.2h0.1l0,0c1,0.6,1.7,1.7,1.7,3
				c0,2-1.5,3.5-3.5,3.5c-0.9,0-1.6-0.3-2.3-0.9C322.3,342.4,299.4,345.9,299.4,345.9z"/>
		</g>
		<g id="Bouche">
			<path id="XMLID_61_" d="M375.5,393.2c-3.3-0.4-4.6,2.1-5.1,2.1h-9h-0.3h-29.8h-0.3h-11c-0.3,0-1.6-2.7-5.1-2.2
				c-4.4,0.5-4.2,7.1-2.7,9.2c0,0,2.8-2.9,6.2-0.9c1.5,7.5,6.5,13.5,12.5,13.7l0,0h30.8l0,0c6-0.2,11-6.2,12.4-14
				c2.5-0.2,4.1,1.4,4.1,1.4C379.9,400.3,380,393.7,375.5,393.2z"/>
			<path id="Dent" class="st3" d="M368.7,400.4h-10.3h-0.2h-23.7h-0.2H324c0,6.8,4.5,10.9,10.5,11v1h23.1v-1
				C363.6,411.3,368.7,407.2,368.7,400.4z"/>
		</g>
		<g id="Ombres" class="st18">
			<polygon id="XMLID_60_" points="262.6,324.2 265.4,324.2 265.5,404.9 262.6,407.3 			"/>
			<path id="XMLID_59_" d="M280.8,435.3c0,0-15.8-6.2-15.7-22.9l-2.8,2.7v5C262.3,420.2,267.6,433.9,280.8,435.3z"/>
			<path id="XMLID_58_" d="M294,435.8l2.2-3.8h115.3c0,0-5.5,3.4-13.5,3.4S294,435.8,294,435.8z"/>
		</g>
		<g id="XMLID_54_">
			<path id="XMLID_57_" class="st14" d="M296,453.1c6,3,55.7,19.8,101.9-1.2c0,0,0.8-5.5-12.6-5.1c-13.4,0.3-70.1,0-70.1,0
				s3.4-5.1-18-5.4c-0.9,0-1.1,0-1.1,0L296,453.1L296,453.1z"/>
			<path id="XMLID_56_" class="st14" d="M296.4,441.5c14.2,0.1,84.4,0.3,101.5,0.3v-14.9H296v14.5
				C296,441.4,295.8,441.4,296.4,441.5z"/>
			<path id="XMLID_55_" d="M319.9,450.2c0,0,55.1-0.9,64.4,2.1l1.5-3.9C385.7,448.4,338.7,448.2,319.9,450.2z"/>
		</g>
		<path id="XMLID_53_" d="M311.5,449.7c0,0-3.9-3.6-9.9-4.2l6.6-0.9c0,0,2.2,3.5,4.3,2.1C312.5,446.7,311.4,448.7,311.5,449.7z"/>
		<path id="XMLID_52_" class="st19" d="M241.1,325.7c0,0,22.5-1.4,29.1,0.4c6.6,1.9,23.4,7.5,30.2,7.5c6.8,0,69.5,4.1,91.2-1.9
			s42.2-6.8,49-5.2c0,0,1.2,0.3,1-1.4c-0.2-1.7-9.3-10.9-10.7-12.8c-1.4-1.8-2.6-17.1-2.4-23.3s-3.5-74.5-68-77.9
			c-64.5-3.4-82.5,9-95.4,31.8c-12.9,22.8-9.1,32.2-9.3,40.7c-0.3,8.5-3.2,25.8-11.9,32.6C235,323.1,239.4,326.2,241.1,325.7z"/>
		<path id="XMLID_45_" class="st20" d="M423,289.5c0,0-1.3-11.6-0.4-16.7l-1.9-2.8l-5.1,6.4c0,0,8.3-27.9-37.1-34.1
			c0,0-72.8-2.9-83.9,0.6l0,0l0,0c0,0-3.3,0.9-4.9,1.5c0,0-27.6,5.2-23.5,31.8l-3.8-0.9c0,0-1.3-3.2-0.3-4.4l-5.2,0.2
			c0,0,3.8,0.8,3.8,3.8c0,0,0.9,16.6-2.8,18.6c0,0-0.8,1.8,0.3,2.8c0,0,0.3-2.1,2.7-1.9c0,0,0.4-8.6,6.2-7c0,0-4.6,4.2-1.3,12.2
			c0,0,13.7,23.5,45.5,7.8c0,0,23.3-9.2,27.4-33.9c0,0,2.2-13.4-7.1-18.3H349c0,0-9.4,5.9-5.7,22.4c3.7,16.5,23.7,30.2,36.9,34.7
			c13.1,4.5,29.4-1.3,33.9-8.7c4.5-7.5,2.3-15.6,1.5-16.7c0,0,5.1,3.6,6,5.9c0,0-1,3.9,0.3,4.5c0,0,0.3-2,2.1-1.3
			C424.2,295.7,422.9,293.8,423,289.5z M267.9,290.9C267.8,290.8,267.8,290.8,267.9,290.9c0,0,0.1,0.1,0.2,0.1
			C267.9,290.9,267.9,290.9,267.9,290.9z M268.5,291.3c0.1,0.1,0.3,0.2,0.3,0.3C268.6,291.3,268.5,291.3,268.5,291.3z M273.8,294.7
			c0.2,0.1,0.3,0.3,0.5,0.3C274.2,294.9,274,294.8,273.8,294.7z M321.8,285.2c-5.2,5-28.7,21.9-46.2,10.7l0,0l0,0
			c0,0-11.9-18.6,4.9-33.4c0,0,6.2-5.8,21.3-6.2c0,0,21.1-1.1,25.5,6.7C331.8,270.7,327.1,280.2,321.8,285.2z M410.5,284.7
			c-0.8,4.7-3.3,11.6-6.2,13.4c-2.9,1.7-19.9,3.3-35.3-4.7c-15.4-8-20.4-21.5-13-33.1c0,0,13.6-6.2,34-1.9
			C410.4,262.7,411.2,280,410.5,284.7z"/>
		<path id="XMLID_44_" class="st21" d="M358.6,254.5c0,0-0.5-0.9,1-1.3s5.3-0.8,5.9-0.5c0,0-0.7-2.1,5.8-1.7c0,0-3.7-1.3-4.2-2.5
			l-1.8-0.4c0,0-0.5-1-0.1-1.6c0,0,3.1-0.5,5-0.2c0,0-1.5-1.3,1.5-1.6c3.1-0.3,4.5-1.5,6.7-1.3c2.2,0.3,5.1-0.3,6.5,0.2
			c1.5,0.3,0,0,0,0s-14.7-3.1-21.8-2.1c0,0,6.6,2.5,2.9,3.5c0,0-5.1,0.3-5.6-1.7c0,0-3.6,0.7-3.2-1.7l-1.8-0.1c0,0-9.9-0.6-11.5-0.4
			c-1.5,0.2-11.7-0.2-12-0.2s-1.7,2.8-3.9,2.8c-2.1,0-1-2.7-1-2.7l-2.4,0.1c0,0,0.2,2.2-2.9,2.1c-3.1-0.1-1.5-2-1.3-2
			c0,0-17.5-0.3-24.5,2.1c0,0,10.9-0.6,15.2,2.1c0,0,1.3,1.5,4.5,1c3.3-0.3,0.9,1-0.3,1.6c-1.3,0.6-3.9,1.3-5,2.6c0,0,5.4-0.1,6,1.5
			c0,0-21.1,1-26.3,5.1c0,0,14.2-2.8,26.5,0.1c0,0,4.7-2.7,7.6-0.6c0,0-1-2.3,1.5-2.4c2.5-0.1-0.8-2.1,3.4-1.3l2.1,1.8h18.1
			c0,0,1,2.7-0.9,5.7c0,0,4.4-1.9,4.5,2.3c0,0,4.5-5,7.4-5.6c2.9-0.6,0,0,0,0S357.5,256.2,358.6,254.5z"/>
		<path id="XMLID_43_" class="st22" d="M266.5,274.7c0,0,6.2-22.3,27-27.9c0,0-15.7,2.4-27.4,21.2l-2.1-0.2c0,0,0.1,2.9,0.1,3.6
			s1.6,3.9,1.6,3.9L266.5,274.7z"/>
		<g id="XMLID_40_">
			<g>
				<g>
					<g>
						<defs>
							<path id="SVGID_9_" d="M273.8,318.1c0,0,20.3,3.4,23.8,11c3.6,7.7-1.7,3.5-4.1,3.7c0,0,6.8,0.7,9.8,1.5
								c3,0.9,87.1,3.1,95.6-4.2c0,0-8.2,1.7-9-2s1.1-11.4,40.2-11.7c0,0-27.8-2.9-43.7,6.7c0,0-17,7.9-35-10.2
								c0,0,44.9,16.2,60.6-8.7c0,0-5.7,12.4-31.8,7.9c-26.1-4.5-37.2-32-37.2-40.7s2.9-14.4,6.5-16.8l-17.9,0.3
								c0,0,13.8,6,4.5,27.9c-9.2,21.9-31.4,28.5-36.7,29.6c-5.4,1.1-36.5,1.8-34.5-23l2.7-2.8h-3.6l-6.4,10.2
								c0,0,4.3-20.2,0.9-26.2l3.6,0.2c0,0,0.3,5.6,4.9,6c0,0-2.1-8.3,1.7-15.5c0,0,9.2-11.9,14.4-13.5c0,0-12.6,7.8-15.7,12.4
								c0,0,3.9-9,6.9-16.1c0,0-10.5,8.6-12.2,23.6c0,0,0,1.9-1.3,2l-2.3,0.8l-3.3,1.5c0,0,4,12-2.9,24.4c0,0-5,20.1-8.6,21.5
								c0,0,3.3-1.3,15.2-0.5l-6.8-2.9c0,0,3.6-9.5,3.8-16.3l1.1-4.1c0,0,0.6,3,0.3,4.1c0,0,3.9-5.6,6.5-6.9c0,0,1.6,22.5,29.9,27.1
								c0,0,21.4,2.2,37.3-5.6c0,0-9.1,4.8-14.2,5.3c0,0,5.2,2.1,7.7,1.9c0,0-15.3,5.1-30.6,1.2
								C278.5,317.2,276.8,317.6,273.8,318.1z"/>
						</defs>
						<clipPath id="SVGID_10_">
							<use xlink:href="#SVGID_9_"  style="overflow:visible;"/>
						</clipPath>
						<path id="XMLID_42_" class="st23" d="M241.1,325.7c0,0,22.5-1.4,29.1,0.4c6.6,1.9,23.4,7.5,30.2,7.5c6.8,0,69.5,4.1,91.2-1.9
							s42.2-6.8,49-5.2c0,0,1.2,0.3,1-1.4c-0.2-1.7-9.3-10.9-10.7-12.8c-1.4-1.8-2.6-17.1-2.4-23.3s-3.5-74.5-68-77.9
							c-64.5-3.4-82.5,9-95.4,31.8c-12.9,22.8-9.1,32.2-9.3,40.7c-0.3,8.5-3.2,25.8-11.9,32.6C235,323.1,239.4,326.2,241.1,325.7z"
							/>
					</g>
				</g>
			</g>
		</g>
		<path id="XMLID_39_" class="st22" d="M263.9,281.6c0,0-0.1,1.9,1.6,1.9c1.7,0,3.2-0.3,3.2-0.3s0.6-2.1,1.4-2.4
			c0.8-0.3,1.5-1.3,1.5-1.3l1.4-8.1c0,0,5.1-12.6,17.9-17.4c0,0-19,4.1-21.7,20.9C269.1,274.8,270.3,284.3,263.9,281.6z"/>
		<path id="XMLID_38_" d="M423.3,316.4c0,0,7.9-1.4,6.8-3.6c-1.1-2.2-4.4-10.9-4.1-14.6c0,0,5.4,17,8.9,19.1
			C434.8,317.3,430.2,316.1,423.3,316.4z"/>
		<g id="XMLID_33_">
			<path id="XMLID_37_" d="M410.7,326.1c0,0,0.8-5.5-2.2-8.6c0,0,3.9,3.8,4.5,8.4C412.9,325.8,411.7,327.9,410.7,326.1z"/>
			<path id="XMLID_36_" d="M417.5,325.7c0,0,0.8-5.5-2.2-8.6c0,0,3.9,3.8,4.5,8.4C419.7,325.5,418.5,327.5,417.5,325.7z"/>
			<path id="XMLID_35_" d="M424.9,325.2c0,0-2.2-6.9-5.4-8.7c0,0,5.6,3.2,7,8.4C426.6,324.9,425.9,326.4,424.9,325.2z"/>
			<path id="XMLID_34_" d="M432,324.7c0,0-1.4-6.2-4.4-8.4c0,0,5.1,4.3,6.1,8C433.8,324.3,433.1,326,432,324.7z"/>
		</g>
		<g id="XMLID_28_">
			<path id="XMLID_32_" d="M277.1,327.2c0,0-0.8-5.5,2.2-8.6c0,0-3.9,3.8-4.5,8.4C274.9,326.9,276.1,329,277.1,327.2z"/>
			<path id="XMLID_31_" d="M267.9,325.2c0,0,0.4-5,3.5-7.3c0,0-3.9,2.7-5.3,6.7C266.1,324.6,266.7,326.6,267.9,325.2z"/>
			<path id="XMLID_30_" d="M259.4,324.7c0,0,2-6.3,4.8-8c0,0-5.1,2.8-6.2,7.6C257.9,324.4,258.5,325.7,259.4,324.7z"/>
			<path id="XMLID_29_" d="M251.9,325c0,0,1.3-5.7,4.1-7.8c0,0-4.9,4-5.8,7.4C250.2,324.6,251,326.2,251.9,325z"/>
		</g>
		<path id="XMLID_27_" d="M429.6,308c0.3,0.5-2.9-7-3.3-17.7c-0.3-10.8,0.7-29.1-14-51.5c0,0,13.4,21.7,9.5,34.8l-1,3.5
			c0,0,3.3,2-0.9,8.2c0,0,3.8,6.2,4.9,10c1.1,3.8,2.7,2.8,0.8,9.8C425.7,305.2,427.1,303.7,429.6,308z"/>
		<g id="XMLID_8_">
			<path id="XMLID_26_" d="M296,242.8c0,0-0.7-21.8,6.3-26.3c0,0-8,1.6-7.6,26.4L296,242.8z"/>
			<path id="XMLID_25_" d="M291.1,244.3c0,0-0.4-23.6,8.7-29.1c0,0-10.9,2.9-10,29.2L291.1,244.3z"/>
			<path id="XMLID_24_" d="M385.8,242.8c0,0,0.7-21.8-6.3-26.3c0,0,8,1.6,7.6,26.4L385.8,242.8z"/>
			<path id="XMLID_23_" d="M390.7,244.3c0,0,0.4-23.6-8.7-29.1c0,0,10.9,2.9,10,29.2L390.7,244.3z"/>
			<path id="XMLID_22_" d="M415.7,276.4l5.1-6.4c0,0-5.6-21-13.5-26.5c0,0,7.5,11.2,6.6,16.3c0,0-4.1-8.6-14.1-11.6
				C399.8,248.2,418.5,260.5,415.7,276.4z"/>
			<path id="XMLID_21_" d="M298.2,298.4c0,0,12.9-3.3,19.3-8.8c6.3-5.5,12.2-11.5,13.1-21.4c0.9-9.8-6.8-12-7.9-12.2
				c0,0,5.1,1.4,5.7,9.6C329.1,273.9,323.9,290.3,298.2,298.4z"/>
			<path id="XMLID_20_" d="M317.2,257.3c0,0-35.5-6.2-43.7,17.1c0,0-4.6,20.5,7.3,24.1c0,0-6.6-0.9-8.6-8.8
				c-2.1-7.9-2.1-16.3-0.3-19.9c1.9-3.6,3.3-5.2,3.3-5.2s-1.4,2.1-1.4,5C273.8,269.5,278.7,250.7,317.2,257.3z"/>
			<path id="XMLID_19_" d="M356.5,254.6c0,0-9.2,2.6-11.2,10c-2,7.5,2.3,30.1,22,38.6c0,0-5.8-4.7-8-11c0,0,18.3,11.5,31.2,10.4
				c0,0-22.9-1.7-35.4-17.7C342.5,268.9,349.6,260.2,356.5,254.6z"/>
			<path id="XMLID_18_" d="M387.9,310.4c0,0,8.6-1.6,5.4-4.6c0,0-1.8-1.3-4.1-1.5c0,0,4.9-0.3,6.6,0.6c0,0,10.4,6.5,17.5-14.1
				C413.2,290.7,414.3,311.9,387.9,310.4z"/>
			<path id="XMLID_17_" d="M392.8,299.3c0,0-32.2-2.4-38.3-23.8c0,0-3.8-12.8,6-18.1c0,0-6.9,0.9-9.2,8
				C348.9,272.3,355.4,297.7,392.8,299.3z"/>
			<path id="XMLID_16_" d="M365.8,257.8c0,0,39.8-6,43.3,20.9c0,0,1.7,13.3-4.9,19.3c0,0,7.8-3.3,6.6-22l1.6-0.1
				c0,0-2.9-18.4-18.7-21.4c0,0,10,3.3,12.8,12.2C406.8,266.7,394.2,251.4,365.8,257.8z"/>
			<path id="XMLID_15_" d="M309.4,241.3c0,0,29.8-1.5,46.2-1c16.4,0.4,26.8,2.3,29.4,3.2c0,0-13.1-2.6-21.1-1.6c0,0,0.1,1-0.6,1.5
				c0,0-0.1-1.8-2.4-1.7c-2.2,0-7.7-0.3-10.8,1.7c0,0-0.6-1.8-2.6-1.8c-2,0-1.9,1.5-1.6,1.6c0,0-9.5-0.3-11.4,0c0,0,0.1-1.6-1.5-1.7
				c-1.6,0-1.6,1.2-1.6,1.6c0,0-1.6-1.8-6.5-1.5c0,0-1.7,0.4-1.4,1.5c0,0-1.2-0.9-1.1-1.5C322.5,241.8,315.9,241.2,309.4,241.3z"/>
			<g id="Lunette">
				<path id="XMLID_14_" d="M293,310.3c0,0-4.9-0.3-5-1.7c-0.1-1.3,2.1-2.4,2.3-3.5c0,0-1.3,0.6-2.6-0.9c0,0,0.3,2.7-2.1,2.1
					c-2.4-0.5-14-5.7-18-14.6c0,0,0.3,6.6,3.1,10.3S282.8,312.7,293,310.3z"/>
				<path id="XMLID_13_" d="M312.2,304.1c0,0,8.2-8,9.2-11.7c0,0-16,11.6-29.4,9.9c0,0,21.7-1.5,34.6-17.9
					c12.8-16.3,4.5-26.1-1.5-29.1c0,0,2.6-1.7,0-1.7c-1.7,0-4.3-0.1-5-1.3c0,0,6.3-0.1,6.7-4c0,0,1.8,0.1,2.3,3.8
					c0.5,3.6,8.5,6.2,7.3,19.3S325.8,296.2,312.2,304.1z"/>
				<path id="XMLID_12_" d="M317.3,253c0,0-0.2-2-6.1-2.3c0,0,6.4-0.4,3.7-3.3c0,0,3.9,0.9,4.5,2.9
					C319.5,250.3,316.9,250.3,317.3,253z"/>
				<path id="XMLID_11_" d="M364.2,252.4c0,0,0.2-2,6.1-2.3c0,0-6.4-0.4-3.7-3.3c0,0-3.9,0.9-4.5,2.9
					C362,249.7,364.6,249.7,364.2,252.4z"/>
				<polygon id="XMLID_10_" points="338.8,247.2 336.2,247.2 336.2,244.6 334.5,244.6 334.5,251.5 336.2,251.5 336.2,249.7 
					338.8,249.7 				"/>
				<polygon id="XMLID_9_" points="342.2,247.2 344.8,247.2 344.8,244.6 349.1,244.6 349.1,251.5 344.8,251.5 344.8,249.7 
					342.2,249.7 				"/>
			</g>
		</g>
		<g id="Reflet_Lunettes">
			<g id="XMLID_5_">
				<path id="XMLID_7_" class="st24" d="M394.5,297.4c0,0,4.1-22.9-5.1-36.4c0,0,9.8,1.3,13.4,6c0,0,4.9,10.3,1.7,28.5
					C404.5,295.5,397.5,298,394.5,297.4z"/>
				<path id="XMLID_6_" class="st24" d="M391.8,288.8c0,0-1.3-26-5.5-29.1c0,0-3.8-1.3-7.2,1.2C379.1,261,388.5,268.7,391.8,288.8z"
					/>
			</g>
			<g id="XMLID_2_">
				<path id="XMLID_4_" class="st24" d="M288.5,296.9c0,0-4.1-22.9,5.1-36.4c0,0-9.8,1.3-13.4,6c0,0-4.9,10.3-1.7,28.5
					C278.6,295,285.5,297.4,288.5,296.9z"/>
				<path id="XMLID_3_" class="st24" d="M291.3,288.3c0,0,1.3-26,5.5-29.1c0,0,3.8-1.3,7.2,1.2C304,260.4,294.6,268.1,291.3,288.3z"
					/>
			</g>
		</g>
	</g>
</g>
<g class="st25">
	<image style="overflow:visible;" width="679" height="240" xlink:href="FFFA288D.png"  transform="matrix(1 0 0 1 436 290)">
	</image>
</g>
<g>
	<path class="st3" d="M531.4,387.8l-1.1,0.3h-5.8l-4.5-0.1h-1.3l-3.7,0.2h-1.1l-0.7-0.3l-0.7-0.7l-2.6-3.7l-0.7-1l-2.6-3.6l-0.7-1
		l-2.3-3.8l-0.7-1l-2.6-3.6l-0.6-0.7l-0.5-0.2l-1-0.1l-2.6-0.2l-1.1,0.1l-0.7,0.5l-0.2,1.1l-0.2,4.5l0.1,1.3l0.3,4.6l0.1,1.3l0.1,2
		v1.3l-0.1,1.3l-0.2,1l-0.4,0.4l-0.9,0.2h-1.3l-4-0.2l-3.8,0.2h-1.3l-3.8-0.2l-1-0.2l-0.5-0.3l-0.2-0.8l-0.1-1.2l-0.1-1.2l0.2-2.1
		l0.1-1.3l0.3-4.5v-1.3l-0.2-4.5l-0.1-1.3l-0.1-4.4v-1.3l0.2-4.5v-1.3l-0.2-4.5v-1.3l0.2-4.5v-1.3l0.2-4.4v-1.3l-0.1-4.5v-1.3
		l-0.2-2.7l0.1-1.2l0.1-0.5l0.2-1.1l0.5-0.7l1-0.2l0.7-0.1l1.2-0.1l3.7,0.2l9.8,0.3l5.6-0.3h1.3l5.5,0.3h3.1l1.4,0.1l1.2,0.2
		l1.7,0.5l1.2,0.4l1.2,0.5l1.3,0.5l1.2,0.6l1.1,0.7l1.6,1.1l0.9,0.7l0.8,0.8l0.8,1l1.2,1.7l0.7,1.1l1,1.6l0.6,1.2l0.6,1.2l0.4,1.3
		l0.2,1.3l0.1,1.3l0.2,1.8v1.3l-0.1,1.3l-0.2,1.4l-0.2,1.4l-0.3,1.3l-0.5,1.2l-0.6,1.2l-0.7,1.2l-0.7,1.1l-0.7,1l-0.7,0.9l-1.3,1.3
		l-0.9,0.7l-1.7,0.9l-1,0.6l-1.1,0.6l-1.1,0.2l-0.7,0.2l0.3,0.7l3,4.2l0.7,1l3,4.1l0.8,1l3,4.1l0.8,1l2.6,3l0.7,0.9l0.4,0.9
		L531.4,387.8z M506.3,355.9l1.8-0.3l1.1-0.4l1-0.6l0.8-1l0.6-1.2l0.3-1.3l0.1-1.3l-0.1-1.4l-0.2-1.4l-0.3-1.2l-0.6-1.2l-0.7-1
		l-0.9-0.7l-1.2-0.5l-1.8-0.4l-1.3-0.2l-4.1-0.1h-1.3l-4.2,0.2l-1,0.1l-0.6,0.2l-0.5,0.5l-0.1,0.9l0.1,1.9l0.2,1.3l0.2,1.4l0.1,1.4
		l-0.2,4.5l0.1,0.9l0.2,0.5l0.6,0.2l1,0.2l4.3,0.3h1.3L506.3,355.9z"/>
	<path class="st3" d="M587,380.3l-0.1,1.3l-0.3,4.5l-0.1,0.8l-0.3,0.6l-0.4,0.3l-10.8,0.3h-1.3l-4.4-0.3l-1.3,0.1l-4.3,0.3l-1.3,0.1
		h-5.7l-4.3-0.3H551l-7.1,0.4l-2.8-0.2l-1-0.2l-0.6-0.4l-0.2-0.6l-0.2-0.9l-0.2-1.9l-0.1-1.3l0.1-1.2v-1.2l0.3-4.4v-1.3l0.1-4.4
		l-0.1-1.3l-0.2-4.4l-0.1-1.3l0.2-4.5v-7l0.3-4.4l-0.1-1.3l-0.2-4.4l-0.1-1.3v-2l0.2-2.5v-1.2l0.2-4.3l0.1-1.2l0.2-0.7l0.4-0.3
		l0.7-0.1l1.1-0.2l5.4,0.3l5-0.1h1.3l5,0.3h1.3l5-0.3h1.3l11.2,0.2l1.4-0.1l2.8-0.2h2.1l1.2,0.2l0.5,0.4l0.2,0.6l0.2,1.1v2.2
		l-0.2,2.1v1.4l0.1,2.1l0.1,1.2l-0.1,1.2l-0.2,1l-0.3,0.6l-0.4,0.3l-1,0.2H583l-1.3,0.1l-7.8-0.2h-1.3l-4.2,0.2h-1.3l-4.3-0.2
		l-3.7-0.2h-1.2l-0.7,0.1l-0.8,0.2l-0.4,0.4l-0.1,0.5l-0.2,0.9l-0.2,2v1.3l0.1,1.4l0.1,0.9l0.2,0.6l0.3,0.4l0.9,0.2l2.6,0.2l2.6-0.2
		h7.9l9.3-0.5l2.6,0.2l0.9,0.2l0.5,0.4l0.2,0.5l0.1,0.9l0.2,1.4l0.1,1.4v2.7l0.2,1.9l-0.2,2.5l-0.2,1l-0.3,0.6l-0.6,0.4l-0.8,0.2
		h-1.7l-3.7-0.4l-1.3-0.1l-6.6,0.4l-5.3-0.2h-1.3l-3.3-0.2l-1.4,0.1l-1,0.1l-0.4,0.2l-0.2,0.6l-0.1,1.2l-0.2,2.1l-0.1,1.3v1.8
		l0.1,0.8l0.2,0.6l0.3,0.3l0.9,0.1l4.5,0.2h1.3l4.5-0.3l5.9,0.3h1.3l5.9-0.3h1.2l1.2,0.1l3,0.3l0.5,0.2l0.3,0.5l0.1,0.9L587,380.3z"
		/>
	<path class="st3" d="M646.6,369.6l-0.1,1.4l-0.2,1.4l-0.2,1.3l-0.4,1.8l-0.4,1.2l-0.7,1.7l-0.6,1.1l-1,1.5l-0.8,1l-1,1l-1,0.9
		l-1.7,1.1l-1.1,0.7l-1.2,0.7l-1.2,0.6l-1.9,0.7l-2.5,0.8l-1.3,0.2l-2.1,0.3l-1.2,0.2l-1.8,0.2l-1.2,0.1l-1.9,0.1l-4,0.2h-1.8
		l-1.2-0.1l-1.9-0.2l-1.2-0.2l-1.4-0.2l-1.2-0.4l-1.8-0.6l-1.2-0.6l-1.2-0.6l-1.2-0.6l-1.1-0.7l-2.6-1.8l-1-0.8l-1.5-1.2l-1-0.8
		l-0.9-0.9l-0.7-0.7l-0.1-0.6l0.4-0.7l0.3-0.4l0.8-0.9l2.3-2.1l0.7-0.9l1.4-2.1l0.7-0.9l0.8-0.9l0.9-0.5l0.9,0.2l0.9,0.7l2.6,1.8
		l1.2,0.7l1.2,0.6l1.9,0.9l1.2,0.4l1.3,0.4l1.3,0.2l1.9,0.1l1.3,0.1l5.2-0.3l1.3-0.2l0.7-0.2l1.2-0.5l1.1-0.7l0.8-0.8l0.4-0.6
		l0.5-1.2l-0.1-1.4l-0.2-0.7l-0.7-1.2l-0.4-0.5l-1.1-0.8l-0.7-0.2l-1.2-0.5l-1.4-0.3l-1.4-0.2l-7.9-0.7l-2.5-0.5l-1.3-0.3l-1.8-0.7
		l-1.2-0.4l-1.2-0.6l-2.8-1.4l-1.1-0.7l-1.2-0.7l-1.1-0.7l-1.4-1.2l-0.7-1.1l-0.7-1.2l-0.5-1.2l-0.6-1.7l-0.2-1.2l-0.2-1.8l-0.2-2.6
		l0.1-1.3l0.2-2l0.2-1.2l0.3-1.1l0.4-1.2l0.8-1.8l0.6-1.2l0.7-1l0.8-0.9l1.3-1.2l1.1-0.8l1.1-0.7l1.2-0.6l1.6-0.9l2.5-1l1.2-0.4
		l1.9-0.3l1.3-0.2l2.5-0.3l1.8-0.3l1.3-0.2l1.2-0.1h1.3l2.5,0.2l1.2,0.2l0.6,0.2l1.3,0.2l2.8,0.5l1.4,0.3l1.3,0.4l1.4,0.4l1.3,0.5
		l1.2,0.6l1.2,0.5l1.6,0.9l1.2,0.6l1.1,0.7l0.7,0.7v0.8l-0.5,0.9l-0.9,1.7l-0.7,1l-3.1,4.1l-0.9,1.2l-1,0.8l-0.7,0.2l-0.6-0.1
		l-0.8-0.4l-1.2-0.7l-1.2-0.5l-0.6-0.2l-1.2-0.4l-0.7-0.2l-1.4-0.3l-1.9-0.4l-1.3-0.1l-2.2-0.2h-2.1l-1.4,0.1l-1.4,0.2l-1.3,0.4
		l-0.5,0.2l-1,0.7l-0.4,0.5l-0.6,1.2l-0.2,1.3l0.2,1.1l0.7,1.1l0.9,0.8l1,0.5l0.6,0.2l1.2,0.2l2.1,0.2l2.8,0.2l1.4,0.2l2.8,0.7
		l2.6,0.8l1.9,0.4l1.2,0.3l2.3,0.8l1.7,0.7l1.2,0.6l1.2,0.7l1.1,0.7l2.4,2l0.9,1l0.8,1l1,1.5l0.7,1.1l0.6,1.2l0.3,1.2l0.3,1.8
		l0.2,1.2L646.6,369.6z"/>
	<path class="st3" d="M703.8,369.6l-0.1,1.4l-0.2,1.4l-0.2,1.3l-0.4,1.8l-0.4,1.2l-0.7,1.7l-0.6,1.1l-1,1.5l-0.8,1l-1,1l-1,0.9
		l-1.7,1.1l-1.1,0.7l-1.2,0.7l-1.2,0.6l-1.9,0.7l-2.5,0.8l-1.3,0.2l-2.1,0.3l-1.2,0.2l-1.8,0.2l-1.2,0.1l-1.9,0.1l-4,0.2h-1.8
		l-1.2-0.1l-1.9-0.2l-1.2-0.2l-1.4-0.2l-1.2-0.4l-1.8-0.6l-1.2-0.6l-1.2-0.6l-1.2-0.6l-1.1-0.7l-2.6-1.8l-1-0.8l-1.5-1.2l-1-0.8
		l-0.9-0.9l-0.7-0.7l-0.1-0.6l0.4-0.7l0.3-0.4l0.8-0.9l2.3-2.1l0.7-0.9l1.4-2.1l0.7-0.9l0.8-0.9l0.9-0.5l0.9,0.2l0.9,0.7l2.6,1.8
		l1.2,0.7l1.2,0.6l1.9,0.9l1.2,0.4l1.3,0.4l1.3,0.2l1.9,0.1l1.3,0.1l5.2-0.3l1.3-0.2l0.7-0.2l1.2-0.5l1.1-0.7l0.8-0.8l0.4-0.6
		l0.5-1.2l-0.1-1.4l-0.2-0.7l-0.7-1.2l-0.4-0.5l-1.1-0.8l-0.7-0.2l-1.2-0.5l-1.4-0.3l-1.4-0.2l-7.9-0.7l-2.5-0.5l-1.3-0.3l-1.8-0.7
		l-1.2-0.4l-1.2-0.6l-2.8-1.4l-1.1-0.7l-1.2-0.7l-1.1-0.7l-1.4-1.2l-0.7-1.1l-0.7-1.2l-0.5-1.2l-0.6-1.7l-0.2-1.2l-0.2-1.8l-0.2-2.6
		l0.1-1.3l0.2-2l0.2-1.2l0.3-1.1l0.4-1.2l0.8-1.8l0.6-1.2l0.7-1l0.8-0.9l1.3-1.2l1.1-0.8l1.1-0.7l1.2-0.6l1.6-0.9l2.5-1l1.2-0.4
		l1.9-0.3l1.3-0.2l2.5-0.3l1.8-0.3l1.3-0.2l1.2-0.1h1.3l2.5,0.2l1.2,0.2l0.6,0.2l1.3,0.2l2.8,0.5l1.4,0.3l1.3,0.4l1.4,0.4l1.3,0.5
		l1.2,0.6l1.2,0.5l1.6,0.9l1.2,0.6l1.1,0.7l0.7,0.7v0.8l-0.5,0.9l-0.9,1.7l-0.7,1l-3.1,4.1l-0.9,1.2l-1,0.8l-0.7,0.2l-0.6-0.1
		l-0.8-0.4l-1.2-0.7l-1.2-0.5l-0.6-0.2l-1.2-0.4l-0.7-0.2l-1.4-0.3l-1.9-0.4l-1.3-0.1l-2.2-0.2h-2.2l-1.4,0.1l-1.4,0.2l-1.3,0.4
		l-0.5,0.2l-1,0.7l-0.4,0.5l-0.6,1.2l-0.2,1.3l0.2,1.1l0.7,1.1l0.9,0.8l1,0.5l0.6,0.2l1.2,0.2l2.1,0.2l2.8,0.2l1.4,0.2l2.8,0.7
		l2.6,0.8l1.9,0.4l1.2,0.3l2.3,0.8l1.7,0.7l1.2,0.6l1.2,0.7l1.1,0.7l2.4,2l0.9,1l0.8,1l1,1.5l0.7,1.1l0.6,1.2l0.3,1.2l0.3,1.8
		l0.2,1.2L703.8,369.6z"/>
	<path class="st3" d="M774.1,357.6l-0.1,1.3l-0.2,1.9l-0.2,1.2l-0.5,2.5l-0.2,1.9l-0.2,1.2l-0.2,1.3l-0.3,1.2l-0.8,1.7l-0.6,1.2
		l-2.2,3.7l-0.7,1.1l-0.8,1.1l-0.8,0.9l-1.3,1.4l-0.9,0.8l-1.1,0.8l-1,0.7l-1.5,1l-1.1,0.7l-1.2,0.7l-1.2,0.5l-1.7,0.7l-1.2,0.3
		l-2.6,0.8l-1.4,0.4l-1.3,0.3l-1.4,0.3l-1.4,0.2l-1.4,0.1H740l-2.8-0.2l-2.7-0.3l-1.2-0.2l-1.2-0.3l-4.5-1.5l-1.3-0.4l-1.4-0.6
		l-2.6-1.2l-1.2-0.7l-1.2-0.7l-1.1-0.8l-1.1-0.9l-1-1.1l-0.9-1.1l-2.2-2.2l-0.8-1l-0.8-1.1l-0.7-1.1l-0.7-1.7l-1.2-3.7l-0.5-1.7
		l-0.2-1.2l-0.2-1.3l-0.2-1.2l-0.2-1.8l-0.1-1.2l-0.1-1.4v-1.4l0.1-1.4l0.1-1.5l0.2-1.4l0.2-1.4l0.3-1.4l0.4-1.4l0.4-1.2l0.5-1.3
		l0.6-1.9l0.6-1.3l0.3-0.7l0.7-1.2l1.2-1.8l0.8-1.2l0.4-0.7l1-1l1.4-1.2l1.1-0.8l1.1-0.7l2.5-1.7l1.1-0.7l1.2-0.7l1.2-0.6l1.7-0.7
		l1.2-0.4l1.2-0.4l1.2-0.3l3.1-0.6l1.2-0.2l4.1-0.5l2.6-0.2l2.5,0.2l2,0.1l1.4,0.2l1.4,0.2l1.4,0.3l1.4,0.2l1.3,0.3l1.2,0.3l1.2,0.4
		l1.7,0.7l1.2,0.5l2.7,1.6l1.1,0.7l1.1,0.8l1.4,1.3l0.9,0.8l0.9,0.9l0.7,1l1.2,1.6l0.7,1.1l0.6,1.1l0.7,1.1l0.9,1.7l0.7,1.1l0.6,1.2
		l0.4,1.2l0.4,1.9l0.5,2.5l0.2,1.4l0.2,1.4L774.1,357.6z M753.9,368.3l0.7-1.2l0.8-1.8l0.5-1.2l0.4-1.9l0.2-1.2l0.2-2v-1.4l-0.1-1.4
		l-0.1-1.3l-0.5-2.5l-0.3-1.2l-0.9-1.8l-0.7-1.1l-1.2-1.5l-0.8-0.9l-1.2-1.3l-0.9-0.7l-2.2-1.2l-1.2-0.5l-1.3-0.4l-1.3-0.2l-2.6-0.2
		l-1.2,0.1l-1.8,0.1l-1.2,0.2l-2.2,0.6l-1.3,0.5l-1.9,1l-1.2,0.7l-1.3,1.2l-0.9,1l-0.9,1.2l-0.7,1.1l-0.2,0.5l-0.7,1.7l-0.4,1.2
		l-0.2,0.6l-0.2,1.2l-0.2,1.2l-0.1,1.2l-0.1,1.2v1.2l0.1,1.3l0.2,1.3l0.1,0.7l0.3,1.2l0.2,0.6l0.4,1.2l0.3,0.7l0.7,1.2l0.4,0.7
		l0.9,1.2l0.5,0.6l1,1l1.7,1.4l1.2,0.7l1.3,0.7l1.2,0.5l1.7,0.6l1.2,0.2l2.1,0.2l1.4,0.1l2.1-0.2l1.3-0.2l1.8-0.4l1.2-0.5l1.8-1.2
		l1-0.7l1.3-1.3l0.8-0.9L753.9,368.3z"/>
	<path class="st3" d="M837.9,359l0.2,2.6l-0.1,1.2l-0.1,1.9l-0.2,1.2l-0.3,2l-0.2,1.3l-0.3,1.9l-0.3,1.2l-0.7,1.7l-0.4,1.2l-0.7,1.7
		l-0.6,1.2l-1.1,1.7l-0.8,1.1l-1,1.1l-1.1,0.9l-1.7,1.3l-1.1,0.7l-1.7,1l-1.1,0.6l-1.7,0.8l-1.2,0.4l-1.8,0.7l-1.2,0.3l-1.9,0.3
		l-1.2,0.2l-2.6,0.2h-3.8l-1.9-0.2l-1.2-0.1l-4.5-0.5l-1.3-0.2l-0.7-0.1l-1.3-0.4l-0.7-0.2l-1.3-0.6l-1.8-0.8l-1.2-0.7l-1.2-0.8
		l-2.2-1.8l-0.9-0.9l-1.1-1.4l-0.7-1l-1.3-2.2l-0.7-1.2l-0.7-1.2l-0.6-1.3l-0.5-1.2l-0.3-1.2l-0.3-1.2l-0.3-1.8l-0.2-1.4l-0.2-1.4
		l-0.2-2.8l-0.1-1.3l0.2-5v-1.3l-0.2-5v-1.3l0.2-5V336l-0.2-2.6v-1.4l0.1-1.4l0.2-1.3l0.6-0.7l1.1-0.2l2.7-0.2l3.1,0.2h1.3l2.7-0.1
		l1.2,0.1l1.9,0.1l1.1,0.2l0.7,0.7l0.2,1.1l0.1,1.2v1.2l-0.2,3.2v1.3l0.2,5v1.3l-0.1,5v1.3l-0.2,5v1.3l-0.1,5l0.1,1.3l0.2,2.1
		l0.2,1.3l0.5,1.8l0.5,1.2l0.8,1.9l0.8,1l1.3,1.4l1.1,0.7l1.8,0.7l1.2,0.3l2.2,0.2h1.3l2.2-0.4l1.2-0.3l1.6-0.7l1.1-0.7l1.3-1.2
		l0.8-1l0.9-1.7l0.6-1.2l0.4-1.3l0.2-1.3l0.3-2.5l0.1-1.3l-0.3-5v-1.3l0.2-5.1v-1.3l0.2-5v-1.3l-0.2-5.1l-0.1-1.3l-0.2-3.5v-2.1
		l0.3-1.2l0.7-0.7l1.1-0.2h1.7l4.2,0.3h1.3l3.3-0.2h1.3l1.2,0.1l1.1,0.2l0.7,0.6l0.1,1l0.1,2.5v1.2l-0.1,1.9v1.3l0.2,5.1v1.3l-0.2,5
		v1.3l-0.3,5.1L837.9,359z"/>
	<path class="st3" d="M904.1,387.8l-1.1,0.3h-5.8l-4.5-0.1h-1.3l-3.7,0.2h-1.1l-0.7-0.3l-0.7-0.7l-2.6-3.7l-0.7-1l-2.6-3.6l-0.7-1
		l-2.3-3.8l-0.7-1l-2.6-3.6l-0.6-0.7l-0.5-0.2l-1-0.1l-2.6-0.2l-1.1,0.1l-0.7,0.5l-0.2,1.1l-0.2,4.5l0.1,1.3l0.3,4.6l0.1,1.3l0.1,2
		v1.3l-0.1,1.3l-0.2,1l-0.4,0.4l-0.9,0.2h-1.3l-4-0.2l-3.8,0.2h-1.3l-3.8-0.2l-1-0.2l-0.5-0.3l-0.2-0.8l-0.1-1.2l-0.1-1.2l0.2-2.1
		l0.1-1.3l0.3-4.5v-1.3l-0.2-4.5l-0.1-1.3l-0.1-4.4v-1.3l0.2-4.5v-1.3l-0.2-4.5v-1.3l0.2-4.5v-1.3l0.2-4.4v-1.3l-0.1-4.5v-1.3
		l-0.2-2.7l0.1-1.2l0.1-0.5l0.2-1.1l0.5-0.7l1-0.2l0.7-0.1l1.2-0.1l3.7,0.2l9.8,0.3l5.6-0.3h1.3l5.5,0.3h3.1l1.4,0.1l1.2,0.2
		l1.7,0.5l1.2,0.4l1.2,0.5l1.3,0.5l1.2,0.6l1.1,0.7l1.6,1.1l0.9,0.7l0.8,0.8l0.8,1l1.2,1.7l0.7,1.1l1,1.6l0.6,1.2l0.6,1.2l0.4,1.3
		l0.2,1.3l0.1,1.3l0.2,1.8v1.3l-0.1,1.3l-0.2,1.4l-0.2,1.4l-0.3,1.3l-0.5,1.2l-0.6,1.2l-0.7,1.2l-0.7,1.1l-0.7,1l-0.7,0.9l-1.3,1.3
		l-0.9,0.7l-1.7,0.9l-1,0.6l-1.1,0.6l-1.1,0.2l-0.7,0.2l0.3,0.7l3,4.2l0.7,1l3,4.1l0.8,1l3,4.1l0.8,1l2.6,3l0.7,0.9l0.4,0.9
		L904.1,387.8z M879,355.9l1.8-0.3l1.1-0.4l1-0.6l0.8-1l0.6-1.2l0.3-1.3l0.1-1.3l-0.1-1.4l-0.2-1.4l-0.3-1.2l-0.6-1.2l-0.7-1
		l-0.9-0.7l-1.2-0.5l-1.8-0.4l-1.3-0.2l-4.1-0.1h-1.3l-4.2,0.2l-1,0.1l-0.6,0.2l-0.5,0.5l-0.1,0.9l0.1,1.9l0.2,1.3l0.2,1.4l0.1,1.4
		l-0.2,4.5l0.1,0.9l0.2,0.5l0.6,0.2l1,0.2l4.3,0.3h1.3L879,355.9z"/>
	<path class="st3" d="M963.6,380.6l-0.7,0.7l-1.5,1.3l-1,0.7l-1.6,1.2l-1,0.7l-1.7,0.9l-1.1,0.6l-1.9,0.9l-1.2,0.4l-1.4,0.4
		l-1.4,0.2l-2.1,0.4l-2.9,0.3l-1.5,0.1l-2.1,0.2h-4.3l-1.4-0.1l-1.4-0.2l-1.4-0.2l-1.4-0.3l-1.2-0.4l-3.7-1l-1.8-0.7l-1.1-0.5
		l-1.6-0.9l-1-0.7l-1.1-0.7l-1.2-0.7l-2.2-1.8l-1-1l-0.9-1.1l-0.9-1.2l-0.7-1.2l-0.7-1.2l-0.6-1.2l-0.8-1.7l-1.2-3.5l-0.6-1.7
		l-0.8-2.5l-0.2-1.2l-0.1-1.9l0.1-1.2l0.1-1.3V358l0.2-2.8l0.1-1.3l0.2-1.2l0.3-1.8l0.3-1.2l0.4-1.2l0.4-1.2l0.6-1.7l0.6-1.2
		l0.6-1.2l0.7-1.2l0.7-1.2l0.7-1.2l0.8-1.1l0.9-1.2l1-1.1l1-0.9l1.1-0.9l1-0.8l2.6-1.8l1.1-0.7l1.2-0.7l2.5-1.2l1.4-0.5l1.3-0.4
		l2.8-0.7l1.4-0.2l1.4-0.2l2.6-0.2l1.8-0.2l1.2,0.1l1.8,0.1l3.1,0.4l1.2,0.2l1.9,0.3l2.9,0.8l1.2,0.5l1.8,1.1l1.2,0.7l2.2,1.5
		l2.6,1.8l0.9,0.7l0.5,0.4l0.6,0.6l0.2,0.7l-0.1,0.7l-0.5,0.7l-0.7,0.9l-0.9,0.9l-0.9,0.8l-0.9,0.7l-0.9,0.9L956,344l-0.9,1
		l-0.4,0.4l-0.7,0.7l-0.6,0.2l-0.6,0.1l-0.6-0.2l-0.9-0.5l-1.6-1.2l-1.1-0.6l-1.8-0.8l-1.2-0.4l-1.8-0.5l-1.2-0.2l-2.1-0.2h-1.3
		l-1.8,0.2l-1.3,0.3l-1.8,0.6l-1.2,0.5l-1.1,0.4l-1.7,0.8l-1.2,0.8l-0.6,0.5l-1,1.1l-0.7,1.2l-0.6,1.1l-0.6,1.2l-0.5,1.2l-0.4,1.3
		l-0.2,1.4l-0.2,1.2l-0.2,2.5v1.3l0.1,2.1l0.1,1.2l0.4,1.9l0.4,1.2l0.6,1.4l0.7,1.2l1.2,1.8l0.9,1l1.6,1.3l1.1,0.7l1.7,0.8l1.2,0.5
		l1.8,0.5l1.3,0.2l2,0.1h1.9l1.2-0.2l0.7-0.2l1.2-0.4l2.1-0.7l1.3-0.6l1.2-0.6l1.1-0.6l1.6-1l1.1-0.8l0.8-0.6l0.5-0.2l0.7,0.2
		l0.9,0.6l0.9,0.8l0.3,0.5l0.8,0.9l1.3,1.7l0.8,1l2.2,2.6l0.7,1l0.4,0.4l0.4,0.7V380.6z"/>
	<path class="st3" d="M1018.9,380.3l-0.1,1.3l-0.3,4.5l-0.1,0.8l-0.3,0.6l-0.4,0.3l-10.8,0.3h-1.3l-4.4-0.3l-1.3,0.1l-4.3,0.3
		l-1.3,0.1h-5.7l-4.3-0.3h-1.3l-7.1,0.4l-2.8-0.2l-1-0.2l-0.6-0.4l-0.2-0.6l-0.2-0.9l-0.2-1.9l-0.1-1.3l0.1-1.2v-1.2l0.3-4.4v-1.3
		l0.1-4.4l-0.1-1.3l-0.2-4.4l-0.1-1.3l0.2-4.5v-7l0.3-4.4l-0.1-1.3l-0.2-4.4l-0.1-1.3v-2l0.2-2.5v-1.2l0.2-4.3l0.1-1.2l0.2-0.7
		l0.4-0.3l0.7-0.1l1.1-0.2l5.4,0.3l5-0.1h1.3l5,0.3h1.3l5-0.3h1.3l11.2,0.2l1.4-0.1l2.8-0.2h2.1l1.2,0.2l0.5,0.4l0.2,0.6l0.2,1.1
		v2.2l-0.2,2.1v1.4l0.1,2.1l0.1,1.2l-0.1,1.2l-0.2,1l-0.3,0.6l-0.4,0.3l-1,0.2h-0.7l-1.3,0.1l-7.8-0.2h-1.3l-4.2,0.2H999l-4.3-0.2
		l-3.7-0.2h-1.2l-0.7,0.1l-0.8,0.2l-0.4,0.4l-0.1,0.5l-0.2,0.9l-0.2,2v1.3l0.1,1.4l0.1,0.9l0.2,0.6l0.3,0.4l0.9,0.2l2.6,0.2l2.6-0.2
		h7.9l9.3-0.5l2.6,0.2l0.9,0.2l0.5,0.4l0.2,0.5l0.1,0.9l0.2,1.4l0.1,1.4v2.7l0.2,1.9l-0.2,2.5l-0.2,1l-0.3,0.6l-0.6,0.4l-0.8,0.2
		h-1.7l-3.7-0.4l-1.3-0.1l-6.6,0.4l-5.3-0.2h-1.3l-3.3-0.2l-1.4,0.1l-1,0.1L988,365l-0.2,0.6l-0.1,1.2l-0.2,2.1l-0.1,1.3v1.8
		l0.1,0.8l0.2,0.6l0.3,0.3l0.9,0.1l4.5,0.2h1.3l4.5-0.3l5.9,0.3h1.3l5.9-0.3h1.2l1.2,0.1l3,0.3l0.5,0.2l0.3,0.5l0.1,0.9
		L1018.9,380.3z"/>
	<path class="st3" d="M1078.5,369.6l-0.1,1.4l-0.2,1.4l-0.2,1.3l-0.4,1.8l-0.4,1.2l-0.7,1.7l-0.6,1.1l-1,1.5l-0.8,1l-1,1l-1,0.9
		l-1.7,1.1l-1.1,0.7l-1.2,0.7l-1.2,0.6l-1.9,0.7l-2.5,0.8l-1.3,0.2l-2.1,0.3l-1.2,0.2l-1.8,0.2l-1.2,0.1l-1.9,0.1l-4,0.2h-1.8
		l-1.2-0.1l-1.9-0.2l-1.2-0.2l-1.4-0.2l-1.2-0.4l-1.8-0.6l-1.2-0.6l-1.2-0.6l-1.2-0.6l-1.1-0.7l-2.6-1.8l-1-0.8l-1.5-1.2l-1-0.8
		l-0.9-0.9l-0.7-0.7l-0.1-0.6l0.4-0.7l0.3-0.4l0.8-0.9l2.3-2.1l0.7-0.9l1.4-2.1l0.7-0.9l0.8-0.9l0.9-0.5l0.9,0.2l0.9,0.7l2.6,1.8
		l1.2,0.7l1.2,0.6l1.9,0.9l1.2,0.4l1.3,0.4l1.3,0.2l1.9,0.1l1.3,0.1l5.2-0.3l1.3-0.2l0.7-0.2l1.2-0.5l1.1-0.7l0.8-0.8l0.4-0.6
		l0.5-1.2l-0.1-1.4l-0.2-0.7l-0.7-1.2l-0.4-0.5l-1.1-0.8l-0.7-0.2l-1.2-0.5l-1.4-0.3l-1.4-0.2l-7.9-0.7l-2.5-0.5l-1.3-0.3l-1.8-0.7
		l-1.2-0.4l-1.2-0.6l-2.8-1.4l-1.1-0.7l-1.2-0.7l-1.1-0.7l-1.4-1.2l-0.7-1.1l-0.7-1.2l-0.5-1.2l-0.6-1.7l-0.2-1.2l-0.2-1.8l-0.2-2.6
		l0.1-1.3l0.2-2l0.2-1.2l0.3-1.1l0.4-1.2l0.8-1.8l0.6-1.2l0.7-1l0.8-0.9l1.3-1.2l1.1-0.8l1.1-0.7l1.2-0.6l1.6-0.9l2.5-1l1.2-0.4
		l1.9-0.3l1.3-0.2l2.5-0.3l1.8-0.3l1.3-0.2l1.2-0.1h1.3l2.5,0.2l1.2,0.2l0.6,0.2l1.3,0.2l2.8,0.5l1.4,0.3l1.3,0.4l1.4,0.4l1.3,0.5
		l1.2,0.6l1.2,0.5l1.6,0.9l1.2,0.6l1.1,0.7l0.7,0.7v0.8l-0.5,0.9l-0.9,1.7l-0.7,1l-3.1,4.1l-0.9,1.2l-1,0.8l-0.7,0.2l-0.6-0.1
		l-0.8-0.4l-1.2-0.7l-1.2-0.5l-0.6-0.2l-1.2-0.4l-0.7-0.2l-1.4-0.3l-1.9-0.4l-1.3-0.1l-2.1-0.2h-2.2l-1.4,0.1l-1.4,0.2l-1.3,0.4
		l-0.5,0.2l-1,0.7l-0.4,0.5l-0.6,1.2l-0.2,1.3l0.2,1.1l0.7,1.1l0.9,0.8l1,0.5l0.6,0.2l1.2,0.2l2.1,0.2l2.8,0.2l1.4,0.2l2.8,0.7
		l2.6,0.8l1.9,0.4l1.2,0.3l2.3,0.8l1.7,0.7l1.2,0.6l1.2,0.7l1.1,0.7l2.4,2l0.9,1l0.8,1l1,1.5l0.7,1.1l0.6,1.2l0.3,1.2l0.3,1.8
		l0.2,1.2L1078.5,369.6z"/>
	<path class="st3" d="M524.7,434.1l-0.1,1.2l0.1,2.5l-0.1,1.3l-0.1,0.7l-0.2,1l-0.2,0.6l-0.5,0.4l-1,0.2h-1.3l-2.5-0.2l-1.3-0.1
		l-3.8,0.2h-1.3l-2.1-0.2h-1.2l-0.6,0.1l-0.8,0.2l-0.3,0.5l-0.1,1.1l-0.3,4.9v1.3l0.3,5l-0.1,1.3l-0.3,5l-0.1,1.3l0.2,4.9v7.6
		l-0.2,4.9l0.1,1.2l0.4,3.7l0.1,1.3l-0.2,1l-0.4,0.4l-1.1,0.2l-1.6-0.1l-2.1-0.2l-1.4-0.1l-3.7,0.2h-1.3l-3.7-0.2l-1-0.1l-0.5-0.2
		l-0.2-0.9v-1.4l0.2-3.5l0.1-1.3v-6.2l0.1-5v-1.3l0.1-4.9v-1.3l-0.3-5l-0.1-1.3v-6.3l-0.2-4.9v-1.2l-0.2-0.7l-0.8-0.2h-1.2l-2.6,0.2
		h-1.5l-2.2-0.2l-1.4-0.1l-1.4,0.1l-1.9,0.1h-1.2l-0.7-0.1l-0.9-0.2l-0.5-0.3l-0.3-0.5l-0.2-0.8v-0.6l-0.1-1.3l0.2-2.5v-1.2
		l-0.2-3.1l0.1-1.3l0.2-1.1l0.3-0.6l0.5-0.2l0.8-0.2h1.9l3.1,0.2h1.3l4.8-0.3h1.3l4.9,0.4h1.3l6.1-0.4l4.8,0.1h1.3l6.2-0.1h6.1
		l2.7-0.2l1.4,0.1l0.7,0.1l1,0.2l0.6,0.3l0.4,0.6l0.2,1v0.6l0.1,1.2L524.7,434.1z"/>
	<path class="st3" d="M581.1,479.6l-0.1,1.3l-0.3,4.5l-0.1,0.8l-0.3,0.6l-0.4,0.3l-10.8,0.3h-1.3l-4.4-0.3l-1.3,0.1l-4.3,0.3
		l-1.3,0.1h-5.7l-4.3-0.3h-1.3l-7.1,0.4l-2.8-0.2l-1-0.2l-0.6-0.4l-0.2-0.6l-0.2-0.9l-0.2-1.9l-0.1-1.3l0.1-1.2v-1.2l0.3-4.4V474
		l0.1-4.4l-0.1-1.3l-0.2-4.4l-0.1-1.3l0.2-4.5v-7l0.3-4.4l-0.1-1.3l-0.2-4.4l-0.1-1.3v-2l0.2-2.5V434l0.2-4.3l0.1-1.2l0.2-0.7
		l0.4-0.3l0.7-0.1l1.1-0.2l5.4,0.3l5-0.1h1.3l5,0.3h1.3l5-0.3h1.3l11.2,0.2l1.4-0.1l2.8-0.2h2.1l1.2,0.2l0.5,0.4l0.2,0.6l0.2,1.1
		v2.2l-0.2,2.1v1.4l0.1,2.1l0.1,1.2l-0.1,1.2l-0.2,1l-0.3,0.6l-0.4,0.3l-1,0.2h-0.7l-1.3,0.1l-7.8-0.2h-1.3l-4.2,0.2h-1.3l-4.3-0.2
		l-3.7-0.2h-1.2l-0.7,0.1l-0.8,0.2l-0.4,0.4l-0.1,0.5l-0.2,0.9l-0.2,2v1.3l0.1,1.4l0.1,0.9l0.2,0.6l0.3,0.4l0.9,0.2l2.6,0.2l2.6-0.2
		h7.9l9.3-0.5l2.6,0.2l0.9,0.2l0.5,0.4l0.2,0.5l0.1,0.9l0.2,1.4l0.1,1.4v2.7l0.2,1.9l-0.2,2.5l-0.2,1l-0.3,0.6l-0.6,0.4l-0.8,0.2
		h-1.7l-3.7-0.4l-1.3-0.1l-6.6,0.4l-5.3-0.2h-1.3l-3.3-0.2l-1.4,0.1l-1,0.1l-0.4,0.2l-0.2,0.6l-0.1,1.2l-0.2,2.1l-0.1,1.3v1.8
		l0.1,0.8l0.2,0.6l0.3,0.3l0.9,0.1l4.5,0.2h1.3l4.5-0.3l5.9,0.3h1.3l5.9-0.3h1.2l1.2,0.1l3,0.3l0.5,0.2l0.3,0.5l0.1,0.9L581.1,479.6
		z"/>
	<path class="st3" d="M643.6,479.8l-0.7,0.7l-1.5,1.3l-1,0.7l-1.6,1.2l-1,0.7l-1.7,0.9l-1.1,0.6l-1.9,0.9l-1.2,0.4l-1.4,0.4
		l-1.4,0.2l-2.1,0.4l-2.9,0.3l-1.5,0.1l-2.1,0.2h-4.3l-1.4-0.1l-1.4-0.2l-1.4-0.2l-1.4-0.3l-1.2-0.4l-3.7-1l-1.8-0.7l-1.1-0.5
		l-1.6-0.9l-1-0.7l-1.1-0.7l-1.2-0.7l-2.2-1.8l-1-1l-0.9-1.1l-0.9-1.2l-0.7-1.2l-0.7-1.2l-0.6-1.2l-0.8-1.7l-1.2-3.5l-0.6-1.7
		l-0.8-2.5l-0.2-1.2l-0.1-1.9l0.1-1.2l0.1-1.3v-1.4l0.2-2.8l0.1-1.3l0.2-1.2l0.3-1.8l0.3-1.2l0.4-1.2l0.4-1.2l0.6-1.7l0.6-1.2
		l0.6-1.2l0.7-1.2l0.7-1.2l0.7-1.2l0.8-1.1l0.9-1.2l1-1.1l1-0.9l1.1-0.9l1-0.8l2.6-1.8l1.1-0.7l1.2-0.7l2.5-1.2l1.4-0.5l1.3-0.4
		l2.8-0.7l1.4-0.2l1.4-0.2l2.6-0.2l1.8-0.2l1.2,0.1l1.8,0.1l3.1,0.4l1.2,0.2l1.9,0.3l2.9,0.8l1.2,0.5l1.8,1.1l1.2,0.7l2.2,1.5
		l2.6,1.8l0.9,0.7l0.5,0.4l0.6,0.6l0.2,0.7l-0.1,0.7l-0.5,0.7l-0.7,0.9l-0.9,0.9l-0.9,0.8l-0.9,0.7l-0.9,0.9l-1.4,1.7l-0.9,1
		l-0.4,0.4l-0.7,0.7l-0.6,0.2l-0.6,0.1l-0.6-0.2l-0.9-0.5l-1.6-1.2l-1.1-0.6l-1.8-0.8l-1.2-0.4l-1.8-0.5l-1.2-0.2l-2.1-0.2h-1.3
		l-1.8,0.2l-1.3,0.3l-1.8,0.6l-1.2,0.5l-1.1,0.4l-1.7,0.8l-1.2,0.8l-0.6,0.5l-1,1.1l-0.7,1.2l-0.6,1.1l-0.6,1.2l-0.5,1.2l-0.4,1.3
		l-0.2,1.4l-0.2,1.2l-0.2,2.5v1.3l0.1,2.1l0.1,1.2l0.4,1.9l0.4,1.2l0.6,1.4l0.7,1.2l1.2,1.8l0.9,1l1.6,1.3l1.1,0.7l1.7,0.8l1.2,0.5
		l1.8,0.5l1.3,0.2l2,0.1h1.9l1.2-0.2l0.7-0.2l1.2-0.4l2.1-0.7l1.3-0.6l1.2-0.6l1.1-0.6l1.6-1l1.1-0.8l0.8-0.6l0.5-0.2l0.7,0.2
		l0.9,0.6l0.9,0.8l0.3,0.5l0.8,0.9l1.3,1.7l0.8,1l2.2,2.6l0.7,1l0.4,0.4l0.4,0.7V479.8z"/>
	<path class="st3" d="M705.9,479.7l0.1,1.3l0.2,2.1l0.1,1.2l-0.1,1.2l-0.4,1.1l-0.6,0.6l-0.9,0.1l-1.3,0.2l-4.5-0.2h-1.3l-4.4,0.3
		h-1.3l-1.2-0.2l-0.5-0.7l-0.2-1.2l-0.3-5.4l-0.1-1.3l0.2-5.4V472l-0.2-5.3v-1.2l-0.3-0.7l-0.9-0.3h-2l-3.3,0.2l-1.3,0.1l-6.6-0.2
		l-4.5-0.2l-1.1,0.1l-0.7,0.2l-0.4,0.7l-0.1,1.2l0.1,5.3v1.3l-0.2,5.4l0.1,1.3l0.3,3.6v1.9l-0.3,1.2l-0.7,0.7l-1.1,0.2l-1.2,0.1
		l-1.2-0.1l-3.5-0.3l-1.3-0.1l-3.9,0.2l-1.3-0.1H653l-0.9-0.2l-0.7-0.3l-0.3-0.4l-0.2-0.9l-0.1-0.7v-1.3l0.2-2.5V474l0.2-4.4v-1.3
		l0.1-4.4v-1.3l-0.2-4.4v-1.3l-0.1-4.4v-5.7l0.1-1.3l0.2-4.4l0.1-1.3l-0.1-4.4l-0.1-1.3l-0.4-2.8v-1.7l0.3-1l0.7-0.6l1.1-0.2
		l1.2-0.1h1.2l3.5,0.2h1.3l3.3-0.2h1.3l1.2,0.1l1.1,0.2l0.7,0.7l0.3,1.1l0.1,0.6v1.2l-0.2,3.7l-0.1,1.3l-0.1,5.4v6.8l0.1,1l0.2,0.7
		l0.4,0.3l0.8,0.1l1.2,0.1h1.2l3.1-0.5l1.2-0.1l5.3,0.2l4.9,0.3h1.2l0.6-0.1l0.9-0.5l0.3-0.7l0.1-0.9l0.3-5.4v-1.3l-0.2-5.4v-1.3
		l-0.1-5.4l0.2-1.3l0.7-0.7l1-0.2h1.3l4.5,0.2h1.3l3.7-0.2l1.3,0.1h0.7l1.1,0.2l0.7,0.7l0.3,1.2v1.2l-0.2,3.3l-0.1,1.3l0.2,4.4v1.3
		l-0.2,4.4v1.3l0.3,4.4v1.3l-0.3,4.4v1.3l-0.2,4.4v1.3l0.1,4.4v1.3l-0.1,4.4V479.7z"/>
	<path class="st3" d="M773.9,440.6l-0.1,1.3v12.2l0.2,4.8v1.3l0.2,10.9v1.4l-0.1,0.7l-0.1,1.4l-0.2,4l0.1,4.8l-0.1,1.2l-0.3,1
		l-0.7,0.9l-0.8,0.6l-0.7,0.2l-1.2,0.1l-4.2,0.2l-1.3,0.1l-2.1,0.1h-1.3l-1.1-0.2l-1-0.4l-1-0.7l-0.7-1.1l-1.2-2.4l-0.7-1.1
		l-3.2-4.1l-0.8-1l-3.2-4l-0.7-1.1l-2.9-4.3l-0.7-1l-3.2-4l-0.8-1l-3.1-4.1l-0.7-0.7l-0.6,0.2l-0.2,1l-0.2,4.1v1.3l0.1,4.1v1.3
		l0.1,4.6v1.3l-0.2,4.6l0.1,1.3l0.5,3.3l0.1,1.3l-0.2,1.1l-0.6,0.6l-0.6,0.2l-1,0.2l-0.7,0.1l-1.4,0.1l-3.8-0.1h-1.3l-3.4,0.2h-1.3
		l-1.2-0.1l-0.9-0.2l-0.7-0.4l-0.3-0.6l-0.2-0.8l-0.1-0.6v-1.2l0.2-2.7l0.1-1.3l-0.2-4.4V474l0.2-10.1l0.1-1.3l0.2-4.4l0.1-1.3v-5.7
		l-0.3-4.4v-1.3l0.3-4.4l-0.1-1.3l-0.3-4.5l-0.1-1.3v-1.9l0.1-1.2l0.2-1.2l0.2-0.9l0.2-0.6l0.5-0.2l0.9-0.2l2.5-0.2l2.5,0.2h6.2
		l1,0.1l0.4,0.3l0.5,0.7l3.5,3.7l0.8,1l3.1,4l0.8,1l3.1,4.1l0.8,1l3,4.1l0.7,1l3.1,4l0.8,1l3,4.1l0.7,0.6l0.7,0.1l0.6-0.4v-0.9
		l-0.6-3.5l-0.1-1.3l0.2-3.6v-1.3l-0.3-5v-1.3l0.3-5l-0.1-1.3l-0.2-3.1v-2.1l0.2-1.1l0.3-0.7l0.6-0.3l1-0.2h0.7l1.4-0.1l3.7,0.2h1.3
		l2.8-0.2l1.2,0.1l1.9,0.1l0.9,0.2l0.6,0.2l0.5,0.6l0.2,1.2l0.1,0.7l0.1,1.4l-0.2,2.6l-0.2,1.3L773.9,440.6z"/>
	<path class="st3" d="M802.9,474.2v1.3l-0.3,4.5v1.3l-0.1,4.5v0.9l-0.2,0.4l-0.7,0.2l-1.2,0.1l-4.2-0.1H791l-4.1-0.3l-0.5-0.2
		l-0.2-0.2v-0.8l-0.2-2.1v-1.3l-0.1-1.2V480l-0.2-4.5l0.1-1.3l0.2-4.5l0.1-1.3l-0.2-4.5v-1.3l-0.1-4.5v-7.1l-0.1-4.5v-1.3l0.1-4.5
		v-7.1l-0.2-4.5l0.2-0.9l0.5-0.3l0.8-0.1h0.7l1.2-0.1l2,0.1h1.3l3.8-0.2h5.1l0.9,0.2l0.2,0.5l0.1,0.9l0.2,2.2l0.1,1.3v8.1l0.1,4.5
		v1.3l-0.1,4.5v1.3l0.1,4.5v1.3l-0.2,4.5v7.2L802.9,474.2z"/>
	<path class="st3" d="M879,482.7l-0.7,0.7l-4.1,4.1l-1,0.9l-4.2,4.1l-0.9,0.6l-0.7,0.1l-0.7-0.7l-2.2-2.7l-0.9-1l-2.4-2.3l-0.8-0.5
		l-1,0.2l-1.2,0.4l-1.3,0.4l-1.2,0.2l-2.6,0.7l-1.3,0.2l-1.2,0.2l-1.4,0.1l-0.7,0.1h-3.1l-1.2,0.1l-1.9,0.1l-1.2,0.1h-1.2l-1.3-0.1
		l-2.5-0.5l-1.9-0.4l-1.2-0.3l-2.6-1l-1.4-0.6l-1.2-0.7l-2.5-1.5l-3.2-2.3l-1.1-0.8l-1.4-1.3l-0.8-0.9l-1.1-1.5l-0.7-1.1l-0.7-1.2
		l-0.7-1.2l-0.9-1.7l-0.6-1.2l-0.5-1.1l-0.4-1.2l-0.6-1.9l-0.5-2.5l-0.1-1.2l0.1-1.9l0.1-1.3l0.1-1.2V457l-0.1-1.3l-0.1-1.2v-1.9
		l0.2-1.3l0.2-1.4l0.3-1.4l0.4-1.4l0.5-1.3l0.6-1.4l0.6-1.2l1.3-2.3l1.7-2.8l1.5-1.8l2.4-2l1.1-0.8l2.8-1.8l1.2-0.6l3.6-1.7l1.2-0.5
		l2.6-0.8l1.8-0.4l1.3-0.2l3.9-0.6l1.4-0.2l1.4-0.1h1.3l1.9,0.1h1.2l1.3,0.1l1.3,0.2l1.9,0.3l1.2,0.3l1.2,0.3l3,1.1l1.2,0.5l1.1,0.6
		l1.1,0.5l1.2,0.4l2.8,1.4l1.1,0.8l1,1l1,1.1l1.8,2.2l1,1.1l0.9,1.2l0.7,1.1l0.7,1.2l0.6,1.2l0.5,1.2l0.6,1.7l0.5,1.2l0.4,1.4
		l0.3,1.3l0.3,1.4l0.2,1.3l0.1,1.4v1.5l-0.1,1.4v3.9l-0.2,2.1l-0.2,1.2l-0.4,1.8l-0.4,1.2l-0.5,1.4l-0.5,1.3l-0.4,1.3l-0.5,1.2
		l-0.8,1.7l-0.3,0.8v0.6l0.7,0.8l4.5,4.7l0.7,0.9L879,482.7z M843.9,474.7h1.3l2.1-0.3l1.2-0.2l1.9-0.6l3.1-1.3l1.1-0.7l1.5-1.2
		l0.8-1l1.1-1.6l0.6-1.2l0.7-1.9l0.4-1.2l0.4-1.3l0.2-1.3l0.2-2.5V457l-0.1-1.8l-0.2-1.3l-0.6-2l-0.4-1.2l-1.2-2.2l-0.7-1.2
		l-0.9-1.1l-0.9-0.9l-1.4-1.3l-1.1-0.7l-1.7-1l-1.2-0.5l-1.9-0.6l-1.2-0.2l-2-0.2h-1.4l-1.4,0.1l-1.3,0.2l-2.4,0.7l-1.2,0.4
		l-1.2,0.6l-1.1,0.7l-2.1,1.6l-0.9,1l-1.2,1.6l-0.7,1.2l-0.8,1.8l-0.4,1.2l-0.3,1.4l-0.2,1.2l-0.2,3.7l0.1,1.9l0.2,1.2l0.4,2.1
		l0.4,1.2l0.7,1.8l0.7,1.2l1.2,1.7l0.9,1l1.7,1.1l1.2,0.7l3.1,1.2l1.8,0.6l1.2,0.3L843.9,474.7z"/>
	<path class="st3" d="M941.2,458.2l0.2,2.6l-0.1,1.2l-0.1,1.9l-0.2,1.2l-0.3,2l-0.2,1.3l-0.3,1.9l-0.3,1.2l-0.7,1.7l-0.4,1.2
		l-0.7,1.7l-0.6,1.2l-1.1,1.7l-0.8,1.1l-1,1.1l-1.1,0.9l-1.7,1.3l-1.1,0.7l-1.7,1l-1.1,0.6l-1.7,0.8l-1.2,0.4l-1.8,0.7l-1.2,0.3
		l-1.9,0.3l-1.2,0.2l-2.6,0.2h-3.8l-1.9-0.2l-1.2-0.1l-4.5-0.5l-1.3-0.2l-0.7-0.1l-1.3-0.4l-0.7-0.2l-1.3-0.6l-1.8-0.8l-1.2-0.7
		l-1.2-0.8l-2.2-1.8l-0.9-0.9l-1.1-1.4l-0.7-1l-1.3-2.2l-0.7-1.2l-0.7-1.2l-0.6-1.3l-0.5-1.2l-0.3-1.2l-0.3-1.2l-0.3-1.8l-0.2-1.4
		l-0.2-1.4l-0.2-2.8l-0.1-1.3l0.2-5v-1.3l-0.2-5V448l0.2-5v-7.7l-0.2-2.6v-1.4l0.1-1.4l0.2-1.3l0.6-0.7l1.1-0.2l2.7-0.2l3.1,0.2h1.3
		l2.7-0.1l1.2,0.1l1.9,0.1l1.1,0.2l0.7,0.7l0.2,1.1l0.1,1.2v1.2l-0.2,3.2v1.3l0.2,5v1.3l-0.1,5v1.3l-0.2,5v1.3l-0.1,5l0.1,1.3
		l0.2,2.1l0.2,1.3l0.5,1.8l0.5,1.2l0.8,1.9l0.8,1l1.3,1.4l1.1,0.7l1.8,0.7l1.2,0.3l2.2,0.2h1.3l2.2-0.4l1.2-0.3l1.6-0.7l1.1-0.7
		l1.3-1.2l0.8-1l0.9-1.7l0.6-1.2l0.4-1.3l0.2-1.3l0.3-2.5l0.1-1.3l-0.3-5v-1.3l0.2-5.1V448l0.2-5v-1.3l-0.2-5.1l-0.1-1.3l-0.2-3.5
		v-2.1l0.3-1.2l0.7-0.7l1.1-0.2h1.7l4.2,0.3h1.3l3.3-0.2h1.3l1.2,0.1l1.1,0.2l0.7,0.6l0.1,1l0.1,2.5v1.2l-0.1,1.9v1.3l0.2,5.1v1.3
		l-0.2,5v1.3l-0.3,5.1L941.2,458.2z"/>
	<path class="st3" d="M1000.3,479.6l-0.1,1.3l-0.3,4.5l-0.1,0.8l-0.3,0.6l-0.4,0.3l-10.8,0.3h-1.3l-4.4-0.3l-1.3,0.1l-4.3,0.3
		l-1.3,0.1h-5.7l-4.3-0.3h-1.3l-7.1,0.4l-2.8-0.2l-1-0.2l-0.6-0.4l-0.2-0.6l-0.2-0.9l-0.2-1.9l-0.1-1.3l0.1-1.2v-1.2l0.3-4.4V474
		l0.1-4.4l-0.1-1.3l-0.2-4.4l-0.1-1.3l0.2-4.5v-7l0.3-4.4l-0.1-1.3l-0.2-4.4l-0.1-1.3v-2l0.2-2.5V434l0.2-4.3l0.1-1.2l0.2-0.7
		l0.4-0.3l0.7-0.1l1.1-0.2l5.4,0.3l5-0.1h1.3l5,0.3h1.3l5-0.3h1.3l11.2,0.2l1.4-0.1l2.8-0.2h2.1l1.2,0.2l0.5,0.4l0.2,0.6l0.2,1.1
		v2.2l-0.2,2.1v1.4l0.1,2.1l0.1,1.2l-0.1,1.2l-0.2,1l-0.3,0.6l-0.4,0.3l-1,0.2h-0.7l-1.3,0.1l-7.8-0.2h-1.3l-4.2,0.2h-1.3l-4.3-0.2
		l-3.7-0.2h-1.2l-0.7,0.1l-0.8,0.2l-0.4,0.4l-0.1,0.5l-0.2,0.9l-0.2,2v1.3l0.1,1.4l0.1,0.9l0.2,0.6l0.3,0.4l0.9,0.2l2.6,0.2l2.6-0.2
		h7.9l9.3-0.5l2.6,0.2l0.9,0.2l0.5,0.4l0.2,0.5l0.1,0.9l0.2,1.4l0.1,1.4v2.7l0.2,1.9l-0.2,2.5l-0.2,1l-0.3,0.6l-0.6,0.4l-0.8,0.2
		h-1.7l-3.7-0.4l-1.3-0.1l-6.6,0.4l-5.3-0.2h-1.3l-3.3-0.2l-1.4,0.1l-1,0.1l-0.4,0.2l-0.2,0.6l-0.1,1.2l-0.2,2.1l-0.1,1.3v1.8
		l0.1,0.8l0.2,0.6l0.3,0.3l0.9,0.1l4.5,0.2h1.3l4.5-0.3l5.9,0.3h1.3l5.9-0.3h1.2l1.2,0.1l3,0.3l0.5,0.2l0.3,0.5l0.1,0.9
		L1000.3,479.6z"/>
	<path class="st3" d="M1059.9,468.8l-0.1,1.4l-0.2,1.4l-0.2,1.3l-0.4,1.8l-0.4,1.2l-0.7,1.7l-0.6,1.1l-1,1.5l-0.8,1l-1,1l-1,0.9
		l-1.7,1.1l-1.1,0.7l-1.2,0.7l-1.2,0.6l-1.9,0.7l-2.5,0.8l-1.3,0.2l-2.1,0.3l-1.2,0.2l-1.8,0.2l-1.2,0.1l-1.9,0.1l-4,0.2h-1.8
		l-1.2-0.1l-1.9-0.2l-1.2-0.2l-1.4-0.2l-1.2-0.4l-1.8-0.6l-1.2-0.6l-1.2-0.6l-1.2-0.6l-1.1-0.7l-2.6-1.8l-1-0.8l-1.5-1.2l-1-0.8
		l-0.9-0.9l-0.7-0.7l-0.1-0.6l0.4-0.7l0.3-0.4l0.8-0.9l2.3-2.2l0.7-0.9l1.4-2.2l0.7-0.9l0.8-0.9l0.9-0.5l0.9,0.2l0.9,0.7l2.6,1.8
		l1.2,0.7l1.2,0.6l1.9,0.9l1.2,0.4l1.3,0.4l1.3,0.2l1.9,0.1l1.3,0.1l5.2-0.3l1.3-0.2l0.7-0.2l1.2-0.5l1.1-0.7l0.8-0.8l0.4-0.6
		l0.5-1.2l-0.1-1.4l-0.2-0.7l-0.7-1.2l-0.4-0.5l-1.1-0.8l-0.7-0.2l-1.2-0.5l-1.4-0.3l-1.4-0.2l-7.9-0.7l-2.5-0.5l-1.3-0.3l-1.8-0.7
		l-1.2-0.4l-1.2-0.6l-2.8-1.4l-1.1-0.7l-1.2-0.7l-1.1-0.7l-1.4-1.2l-0.7-1.1l-0.7-1.2l-0.5-1.2l-0.6-1.7l-0.2-1.2l-0.2-1.8l-0.2-2.6
		l0.1-1.3l0.2-2l0.2-1.2l0.3-1.1l0.4-1.2l0.8-1.8l0.6-1.2l0.7-1l0.8-0.9l1.3-1.2l1.1-0.8l1.1-0.7l1.2-0.6l1.6-0.9l2.5-1l1.2-0.4
		l1.9-0.3l1.3-0.2l2.5-0.3l1.8-0.3l1.3-0.2l1.2-0.1h1.3l2.5,0.2l1.2,0.2l0.6,0.2l1.3,0.2l2.8,0.5l1.4,0.3l1.3,0.4l1.4,0.4l1.3,0.5
		l1.2,0.6l1.2,0.5l1.6,0.9l1.2,0.6l1.1,0.7l0.7,0.7v0.8l-0.5,0.9l-0.9,1.7l-0.7,1l-3.1,4.1l-0.9,1.2l-1,0.8l-0.7,0.2l-0.6-0.1
		l-0.8-0.4l-1.2-0.7l-1.2-0.5l-0.6-0.2l-1.2-0.4l-0.7-0.2l-1.4-0.3l-1.9-0.4l-1.3-0.1l-2.1-0.2h-2.2l-1.4,0.1l-1.4,0.2l-1.3,0.4
		l-0.5,0.2l-1,0.7l-0.4,0.5l-0.6,1.2l-0.2,1.3l0.2,1.1l0.7,1.1l0.9,0.8l1,0.5l0.6,0.2l1.2,0.2l2.1,0.2l2.8,0.2l1.4,0.2l2.8,0.7
		l2.6,0.8l1.9,0.4l1.2,0.3l2.3,0.8l1.7,0.7l1.2,0.6l1.2,0.7l1.1,0.7l2.4,2l0.9,1l0.8,1l1,1.5l0.7,1.1l0.6,1.2l0.3,1.2l0.3,1.8
		l0.2,1.2L1059.9,468.8z"/>
</g>
</svg>
